<svg width="500" height="500" viewBox="0 0 500 500" fill="none" xmlns="http://www.w3.org/2000/svg">
<path d="M500 382.4H0V382.65H500V382.4Z" fill="#E7F0FF"/>
<path d="M449.9 398.49H416.78V398.74H449.9V398.49Z" fill="#E7F0FF"/>
<path d="M331.22 401.21H322.53V401.46H331.22V401.21Z" fill="#E7F0FF"/>
<path d="M415.78 389.21H396.59V389.46H415.78V389.21Z" fill="#E7F0FF"/>
<path d="M95.65 390.89H52.46V391.14H95.65V390.89Z" fill="#E7F0FF"/>
<path d="M110.89 390.89H104.56V391.14H110.89V390.89Z" fill="#E7F0FF"/>
<path d="M225.15 395.11H131.47V395.36H225.15V395.11Z" fill="#E7F0FF"/>
<path d="M237 337.8H43.91C42.3974 337.797 40.9476 337.195 39.8789 336.124C38.8102 335.054 38.21 333.603 38.21 332.09V60.66C38.2232 59.156 38.8292 57.718 39.8965 56.6582C40.9637 55.5985 42.406 55.0026 43.91 55H237C238.514 55 239.967 55.6016 241.038 56.6724C242.108 57.7433 242.71 59.1956 242.71 60.71V332.09C242.71 333.604 242.108 335.057 241.038 336.128C239.967 337.198 238.514 337.8 237 337.8ZM43.91 55.2C42.4637 55.2026 41.0775 55.7791 40.0557 56.8027C39.0339 57.8264 38.46 59.2136 38.46 60.66V332.09C38.46 333.536 39.0339 334.924 40.0557 335.947C41.0775 336.971 42.4637 337.547 43.91 337.55H237C238.447 337.547 239.835 336.971 240.858 335.948C241.881 334.924 242.457 333.537 242.46 332.09V60.66C242.457 59.2127 241.881 57.8255 240.858 56.8021C239.835 55.7787 238.447 55.2026 237 55.2H43.91Z" fill="#E7F0FF"/>
<path d="M453.31 337.8H260.21C258.696 337.797 257.246 337.195 256.175 336.125C255.105 335.054 254.503 333.604 254.5 332.09V60.66C254.516 59.1551 255.124 57.7171 256.193 56.6576C257.262 55.5981 258.705 55.0025 260.21 55H453.31C454.812 55.0052 456.252 55.6022 457.317 56.6617C458.382 57.7212 458.987 59.1578 459 60.66V332.09C459 333.601 458.401 335.05 457.335 336.121C456.268 337.191 454.821 337.795 453.31 337.8ZM260.21 55.2C258.763 55.2026 257.375 55.7787 256.352 56.8021C255.329 57.8255 254.753 59.2127 254.75 60.66V332.09C254.753 333.537 255.329 334.924 256.352 335.948C257.375 336.971 258.763 337.547 260.21 337.55H453.31C454.757 337.547 456.145 336.971 457.168 335.948C458.191 334.924 458.767 333.537 458.77 332.09V60.66C458.767 59.2127 458.191 57.8255 457.168 56.8021C456.145 55.7787 454.757 55.2026 453.31 55.2H260.21Z" fill="#E7F0FF"/>
<path d="M388.7 316.88C419.181 316.88 443.89 297.879 443.89 274.44C443.89 251.001 419.181 232 388.7 232C358.219 232 333.51 251.001 333.51 274.44C333.51 297.879 358.219 316.88 388.7 316.88Z" fill="#E7F0FF"/>
<path d="M377.15 263.49C401.246 263.49 420.78 248.465 420.78 229.93C420.78 211.395 401.246 196.37 377.15 196.37C353.054 196.37 333.52 211.395 333.52 229.93C333.52 248.465 353.054 263.49 377.15 263.49Z" fill="#E7F0FF"/>
<path d="M380.49 83.0898C380.49 83.0898 387.7 76.8598 378.34 75.3698C361.34 72.6598 345.97 81.1298 344.02 82.2598C346.02 78.3298 344.6 75.2598 334.35 76.3698C326.28 77.2198 304.61 87.9998 304.61 87.9998H410.53C425.16 74.8498 380.49 83.0898 380.49 83.0898Z" fill="#E8E8EC"/>
<path d="M95.27 130.67C95.27 130.67 101.21 126.05 96.15 124.95C86.98 122.95 75.64 129.22 74.15 130.05C76.42 127.14 76.4 124.9 70.15 125.69C65.15 126.32 49.55 134.3 49.55 134.3H111.47C123.66 124.56 95.27 130.67 95.27 130.67Z" fill="#E8E8EC"/>
<path d="M424.37 121.44C424.37 121.44 428.59 118.16 425 117.37C418.48 115.95 410.42 120.37 409.39 121C411.01 118.93 410.99 117.34 406.53 117.9C403.01 118.35 391.89 124.02 391.89 124.02H435.89C444.54 117.1 424.37 121.44 424.37 121.44Z" fill="#FCFCFC"/>
<path d="M110.89 358.95C127.227 358.95 140.47 348.765 140.47 336.2C140.47 323.636 127.227 313.45 110.89 313.45C94.5534 313.45 81.31 323.636 81.31 336.2C81.31 348.765 94.5534 358.95 110.89 358.95Z" fill="#E7F0FF"/>
<path d="M92.43 341.29C70.87 341.29 53.43 359.69 53.43 382.4H131.5C131.47 359.69 114 341.29 92.43 341.29Z" fill="#E7F0FF"/>
<path d="M285.6 170.11H112.24V382.4H285.6V170.11Z" fill="#E8E8EC"/>
<path d="M285.59 382.4H387.76V170.11H285.59V382.4Z" fill="#E0E1E6"/>
<path d="M317.39 264.25H355.98V190.55H317.39V264.25Z" fill="#FCFCFC"/>
<path d="M212.85 225.44H251.44V181H212.85V225.44Z" fill="#FCFCFC"/>
<path d="M146.4 225.44H184.99V181H146.4V225.44Z" fill="#FCFCFC"/>
<path d="M212.85 241.89H251.44V233.67H212.85V241.89Z" fill="#FCFCFC"/>
<path d="M146.4 241.89H184.99V233.67H146.4V241.89Z" fill="#FCFCFC"/>
<path d="M285.59 382.4H387.76V290H285.59V382.4Z" fill="#FCFCFC"/>
<path d="M339.85 349.48H372.12V304.41H339.85V349.48Z" fill="#E0E1E6"/>
<path d="M301.25 349.48H333.52V304.41H301.25V349.48Z" fill="#E0E1E6"/>
<path d="M285.6 290H112.24V382.4H285.6V290Z" fill="#F9F9FB"/>
<path d="M178.31 302H140.46V377.2H178.31V302Z" fill="#E0E1E6"/>
<path d="M301.08 104H198.92L285.6 170.11H387.76L301.08 104Z" fill="#E8E8EC"/>
<path d="M179.91 96.1104H151.47V154.55H179.91V96.1104Z" fill="#E7F0FF"/>
<path d="M198.92 104L112.24 170.11H285.6L198.92 104Z" fill="#F9F9FB"/>
<path d="M198.92 116.72L128.92 170.11H268.92L198.92 116.72Z" fill="#E8E8EC"/>
<path d="M238.22 253.78H120.89L94.56 280.11V290H264.56V280.11L238.22 253.78Z" fill="#E0E1E6"/>
<path d="M387.77 372H94.56V382.4H387.77V372Z" fill="#E0E1E6"/>
<path d="M285.6 336.2H168.78V372H285.6V336.2Z" fill="#E8E8EC"/>
<path d="M239 290H232.11V372H239V290Z" fill="#E0E1E6"/>
<path d="M106.78 290H99.89V372H106.78V290Z" fill="#E0E1E6"/>
<path d="M250 427.56C357.082 427.56 443.89 422.492 443.89 416.24C443.89 409.988 357.082 404.92 250 404.92C142.917 404.92 56.11 409.988 56.11 416.24C56.11 422.492 142.917 427.56 250 427.56Z" fill="#E8E8EC"/>
<path d="M287.32 230.85H273.41V419.24H287.32V230.85Z" fill="#3880FF"/>
<path opacity="0.3" d="M287.32 230.85H273.41V419.24H287.32V230.85Z" fill="white"/>
<path d="M301.23 230.85H287.32V419.24H301.23V230.85Z" fill="#3880FF"/>
<path opacity="0.5" d="M301.23 230.85H287.32V419.24H301.23V230.85Z" fill="white"/>
<path d="M400.82 241.58H291.89V254.83H400.82V241.58Z" fill="#3880FF"/>
<path opacity="0.3" d="M400.82 241.58H291.89V254.83H400.82V241.58Z" fill="white"/>
<path d="M410.39 241.58H400.82V254.83H410.39V241.58Z" fill="#3880FF"/>
<path opacity="0.5" d="M410.39 241.58H400.82V254.83H410.39V241.58Z" fill="white"/>
<path d="M392.4 254.83H310V333.61H392.4V254.83Z" fill="#3880FF"/>
<path opacity="0.2" d="M392.12 254.83H389.22V333.61H392.12V254.83Z" fill="#1C2024"/>
<path d="M219.74 150.76L218.23 152.76C217.74 153.39 217.23 154 216.72 154.61C215.72 155.83 214.66 157.01 213.6 158.19C211.46 160.52 209.24 162.81 206.81 164.99C204.338 167.284 201.701 169.393 198.92 171.3C197.389 172.348 195.792 173.297 194.14 174.14C192.193 175.14 190.131 175.899 188 176.4L187.57 176.49C187.199 176.574 186.82 176.624 186.44 176.64C184.371 176.701 182.316 176.276 180.44 175.4C179.157 174.811 177.955 174.061 176.86 173.17C175.202 171.819 173.69 170.297 172.35 168.63C170.094 165.809 168.087 162.797 166.35 159.63C164.69 156.63 163.22 153.57 161.89 150.48C160.541 147.397 159.353 144.246 158.33 141.04C158.023 140.017 158.083 138.918 158.502 137.934C158.921 136.951 159.671 136.146 160.622 135.658C161.574 135.171 162.665 135.032 163.708 135.266C164.751 135.501 165.679 136.093 166.33 136.94L166.42 137.06C168.27 139.55 170.14 142.16 172.02 144.65C173.9 147.14 175.78 149.65 177.72 151.96C179.512 154.192 181.453 156.3 183.53 158.27C184.319 159.036 185.195 159.707 186.14 160.27C186.48 160.45 186.74 160.52 186.72 160.47C186.7 160.42 186.32 160.17 185.41 160.19L183.85 160.43C184.544 160.089 185.213 159.698 185.85 159.26C186.69 158.68 187.63 158.01 188.56 157.26C189.49 156.51 190.45 155.63 191.39 154.73C192.33 153.83 193.3 152.91 194.25 151.95C196.13 149.95 198.02 147.95 199.86 145.88L202.61 142.72L205.25 139.62L205.5 139.33C207.041 137.521 209.228 136.386 211.594 136.165C213.96 135.944 216.319 136.655 218.169 138.148C220.018 139.64 221.212 141.795 221.496 144.155C221.78 146.514 221.132 148.891 219.69 150.78L219.74 150.76Z" fill="#001436"/>
<path d="M166.12 135C165.55 130.5 157.38 128.42 157.38 128.42L152.61 126.31C151.828 125.961 150.948 125.903 150.127 126.145C149.306 126.387 148.598 126.913 148.13 127.63L145.7 131.35C145.444 131.75 145.269 132.197 145.186 132.666C145.103 133.134 145.112 133.613 145.214 134.078C145.317 134.542 145.509 134.982 145.781 135.372C146.053 135.761 146.399 136.094 146.8 136.35L151.18 139.09C151.966 139.575 152.845 139.888 153.76 140.01L157.48 140.49C159.043 140.692 160.632 140.446 162.06 139.78C163.489 139.114 164.699 138.057 165.55 136.73L165.78 136.38C166.045 135.971 166.165 135.485 166.12 135Z" fill="#FFB573"/>
<path d="M221.83 312.59C234.83 271.32 244.92 221.1 244.92 221.1L205.77 217.25C205.77 217.25 203.2 281.87 200.77 310.49C198.23 340.24 188.3 409.35 188.3 409.35L200.2 410.35C200.2 410.35 220.63 349.54 221.83 312.59Z" fill="#001436"/>
<path d="M229.65 254.819L235.09 264.529C232.31 275.859 229.09 288.319 225.5 300.529C226 281.369 228 259.269 229.65 254.819Z" fill="#1C2024"/>
<path d="M172.35 412.1C172.35 412.1 189.18 410.72 190.79 408.33L199.84 409.7L198.35 419.24L192.77 418.4L192.05 417.4L190.5 418.07C186 417.38 174 415.4 171.34 414C171.326 413.622 171.411 413.248 171.589 412.914C171.766 412.58 172.029 412.299 172.35 412.1Z" fill="#001436"/>
<path d="M259.88 309.84C259.19 267.41 261.88 239.05 258.27 218.14L222.5 217.6C222.5 217.6 231.29 284.92 235.66 312.95C240.03 340.98 245.59 410.2 245.59 410.2H256.65C256.65 410.2 266.27 342.67 259.88 309.84Z" fill="#001436"/>
<path d="M234.75 416.05C234.75 416.05 245.36 412.18 246.75 409.58H255.91L255.22 419.24H247.74L246.93 418.35L245.45 419.24C240.88 419.24 236.69 419.06 233.89 418.03C233.858 417.655 233.919 417.277 234.07 416.931C234.22 416.586 234.454 416.283 234.75 416.05Z" fill="#001436"/>
<path d="M256.68 133.47C244.03 131.9 225.95 132.05 213.83 134.14C210.802 134.688 208.024 136.174 205.888 138.389C203.753 140.604 202.368 143.434 201.93 146.48C199.38 164.78 201.57 196.77 203.2 228.97C230.88 238.44 260.09 228.84 260.09 228.84C261.09 222.34 258.83 201.06 257.3 189.7C259.59 177.97 264.43 164.53 267.63 148.95C268.023 147.206 268.046 145.399 267.696 143.646C267.347 141.892 266.632 140.232 265.6 138.773C264.568 137.313 263.24 136.087 261.703 135.174C260.167 134.26 258.455 133.68 256.68 133.47Z" fill="#001436"/>
<path d="M224.06 132.91C222.54 134.44 221.53 136.85 220.99 139.91C219.69 147.34 221.16 158.79 225.08 171.91C228.83 161.33 236.9 147.33 241.86 139.2C244.21 135.35 245.86 132.8 246 132.58C238.768 130.908 231.238 131.021 224.06 132.91Z" fill="#CDCED6"/>
<path d="M244.16 109.3L229.75 121.12C231.62 126.07 232.21 131.23 224.07 133.22C222.07 135.91 225.63 138.99 228.99 140.39C234.42 139.72 242.08 137.91 245.39 133.39C244.34 129.79 242.76 116.63 244.16 109.3Z" fill="#FFB573"/>
<path d="M225.55 137.41C226.158 139.138 227.189 140.685 228.55 141.91C230.75 141.91 233.96 139.44 233.96 139.44C233.96 139.44 232.72 135.95 230.96 135.24C226.51 136.34 225.55 137.41 225.55 137.41Z" fill="#3880FF"/>
<path d="M230.57 140.4C230.229 140.136 229.837 139.945 229.419 139.838C229.001 139.732 228.566 139.712 228.14 139.78C225.26 143.87 223.43 150.23 221.65 157.57C222.504 162.444 223.649 167.263 225.08 172C226.684 167.646 228.554 163.394 230.68 159.27C229.858 153.009 229.821 146.67 230.57 140.4Z" fill="#3880FF"/>
<path opacity="0.2" d="M238.15 114.229L229.76 121.109C230.209 122.257 230.544 123.446 230.76 124.659C234.01 124.889 238.53 121.599 238.76 118.659C238.831 117.158 238.624 115.656 238.15 114.229Z" fill="#1C2024"/>
<path d="M223.81 88.6199C217.53 94.8099 221.65 104.71 221.65 104.71C221.65 104.71 232.63 85.1199 223.81 88.6199Z" fill="#001436"/>
<path d="M246.22 101.249C244.91 110.249 244.6 115.639 239.62 119.879C232.13 126.259 221.26 121.069 219.84 111.799C218.57 103.449 220.93 90.0794 230.13 87.2794C232.167 86.66 234.328 86.5678 236.411 87.0115C238.493 87.4552 240.429 88.4202 242.037 89.8162C243.645 91.2122 244.872 92.9934 245.604 94.9931C246.335 96.9928 246.547 99.1454 246.22 101.249Z" fill="#FFB573"/>
<path d="M247.23 105.88C240.46 107.27 238.5 102.03 238.5 102.03C239.872 102.315 241.288 102.315 242.66 102.03C242.66 102.03 238.1 97.3698 241.66 92.8598C239.8 90.8598 231.52 91.7198 227.66 92.8598C223.44 91.2698 221.27 90.5298 219.02 85.5198C221.1 85.8798 223.24 85.6154 225.17 84.7598C229.37 82.8298 223.07 81.4098 223.07 81.4098C227.9 79.5218 233.134 78.9055 238.27 79.6198C248.07 80.9998 249.59 83.9098 249.21 87.2098C254.34 87.1498 254.85 92.8598 254.85 92.8598C254.227 92.3603 253.493 92.0174 252.71 91.8598C253 93.5998 254 103.81 247.23 105.88Z" fill="#001436"/>
<path d="M247.82 87.8801C249.7 87.0301 250.27 82.5402 249.16 80.6602C254.19 86.0002 250.56 88.1801 247.82 87.8801Z" fill="#001436"/>
<path d="M249.28 108.26C248.861 109.209 248.258 110.064 247.506 110.778C246.754 111.492 245.869 112.05 244.9 112.42C242.29 113.42 240.73 111.12 241.24 108.54C241.7 106.21 243.61 102.91 246.33 103.05C246.923 103.089 247.496 103.275 247.999 103.59C248.503 103.906 248.919 104.342 249.212 104.859C249.504 105.375 249.664 105.957 249.676 106.551C249.688 107.145 249.552 107.732 249.28 108.26Z" fill="#FFB573"/>
<path d="M233.54 101.58C233.48 102.32 233.03 102.88 232.54 102.84C232.05 102.8 231.71 102.16 231.78 101.42C231.85 100.68 232.28 100.11 232.78 100.16C233.28 100.21 233.6 100.84 233.54 101.58Z" fill="#001436"/>
<path d="M224.69 101.36C224.63 102.1 224.19 102.67 223.69 102.62C223.19 102.57 222.87 101.94 222.93 101.2C222.99 100.46 223.43 99.8995 223.93 99.9395C224.43 99.9795 224.75 100.62 224.69 101.36Z" fill="#001436"/>
<path d="M226.48 102.359C226.48 102.359 224.48 106.469 222.42 108.359C223.63 109.699 225.9 109.359 225.9 109.359L226.48 102.359Z" fill="#ED893E"/>
<path d="M235.69 99.3593C235.763 99.3747 235.837 99.3747 235.91 99.3593C235.964 99.3385 236.013 99.307 236.054 99.2668C236.096 99.2266 236.129 99.1785 236.151 99.1253C236.173 99.0721 236.185 99.0149 236.185 98.9572C236.184 98.8995 236.173 98.8424 236.15 98.7893C235.902 98.1326 235.5 97.5448 234.978 97.0751C234.456 96.6054 233.829 96.2674 233.15 96.0893C233.037 96.0686 232.921 96.0925 232.826 96.1559C232.731 96.2194 232.664 96.3175 232.64 96.4293C232.616 96.5434 232.639 96.6621 232.703 96.7596C232.766 96.8571 232.866 96.9253 232.98 96.9493C233.511 97.0985 233.998 97.3723 234.402 97.748C234.805 98.1238 235.113 98.5905 235.3 99.1093C235.334 99.1839 235.389 99.2471 235.458 99.2914C235.528 99.3357 235.608 99.3592 235.69 99.3593Z" fill="#001436"/>
<path d="M220.57 98.5395C220.638 98.5639 220.711 98.5712 220.782 98.5608C220.854 98.5503 220.922 98.5224 220.98 98.4795C221.408 98.14 221.91 97.9075 222.446 97.8014C222.982 97.6953 223.535 97.7186 224.06 97.8695C224.114 97.8901 224.171 97.8997 224.229 97.8977C224.286 97.8958 224.343 97.8822 224.395 97.858C224.447 97.8337 224.494 97.7993 224.533 97.7566C224.571 97.7139 224.601 97.6639 224.62 97.6095C224.659 97.5007 224.653 97.381 224.605 97.2762C224.556 97.1714 224.468 97.09 224.36 97.0495C223.699 96.8482 223 96.8094 222.321 96.9365C221.642 97.0636 221.003 97.3528 220.46 97.7795C220.398 97.8271 220.35 97.8904 220.32 97.9628C220.291 98.0353 220.281 98.1143 220.292 98.1917C220.303 98.2692 220.335 98.3422 220.384 98.4033C220.433 98.4644 220.497 98.5114 220.57 98.5395Z" fill="#001436"/>
<path d="M246 132.609C245.85 132.829 244.21 135.379 241.86 139.229C239.498 141.414 236.6 142.936 233.46 143.639C233.92 142.089 232.53 136.839 230.99 135.219C234.62 135.429 239.62 134.809 246 132.609Z" fill="#F9F9FB"/>
<path d="M231 135.239C229.338 135.969 227.84 137.027 226.598 138.35C225.355 139.673 224.393 141.235 223.77 142.939C223.129 142.659 222.554 142.247 222.082 141.73C221.61 141.214 221.251 140.603 221.03 139.939C221.57 136.849 222.58 134.439 224.1 132.939C224.91 133.999 227.2 134.999 231 135.239Z" fill="#F9F9FB"/>
<path d="M267.66 142.31C268.4 143.92 269.02 145.31 269.66 146.88C270.3 148.45 270.86 149.88 271.44 151.44C272.56 154.5 273.61 157.6 274.53 160.8C275.499 164.055 276.293 167.36 276.91 170.7C277.23 172.42 277.5 174.2 277.68 176.08C277.871 178.138 277.895 180.208 277.75 182.27C277.311 186.422 276.021 190.439 273.96 194.07C272.246 197.189 270.237 200.136 267.96 202.87C265.817 205.459 263.516 207.914 261.07 210.22C258.648 212.512 256.075 214.64 253.37 216.59C252.498 217.212 251.435 217.508 250.366 217.426C249.298 217.344 248.292 216.89 247.525 216.142C246.758 215.394 246.278 214.4 246.169 213.334C246.061 212.268 246.33 211.198 246.93 210.31L247.08 210.1L249.59 206.41C250.44 205.17 251.25 203.9 252.06 202.64C253.65 200.13 255.2 197.64 256.53 195.08C257.853 192.693 258.993 190.209 259.94 187.65C260.355 186.529 260.689 185.379 260.94 184.21C261.146 183.315 261.23 182.397 261.19 181.48C261.116 180.414 260.966 179.355 260.74 178.31C260.5 177.09 260.21 175.79 259.85 174.46C259.11 171.8 258.23 169.04 257.27 166.27C256.31 163.5 255.27 160.71 254.2 157.92L250.96 149.63L250.88 149.44C250.025 147.229 250.064 144.773 250.987 142.59C251.911 140.407 253.647 138.669 255.829 137.743C258.011 136.817 260.467 136.776 262.679 137.628C264.89 138.48 266.684 140.159 267.68 142.31H267.66Z" fill="#001436"/>
<path d="M214.05 189.43C210.034 192.551 207.329 197.061 206.467 202.074C205.605 207.087 206.648 212.242 209.391 216.525C212.134 220.809 216.379 223.913 221.293 225.227C226.207 226.542 231.435 225.972 235.95 223.63L238.45 226.83L237.99 228.83L243.3 235.66L246.2 235.72L245.41 239.09L255.83 252.49L261.43 252.59L263.31 255.02L262.38 259.02L269.29 267.9L275.15 268.01L276.15 261.72L242.46 218.41C245.617 214.521 247.233 209.606 246.999 204.603C246.764 199.599 244.696 194.857 241.189 191.281C237.682 187.704 232.981 185.544 227.983 185.212C222.985 184.88 218.04 186.399 214.09 189.48L214.05 189.43ZM222.67 200.51C221.861 201.142 220.882 201.52 219.858 201.595C218.834 201.671 217.811 201.441 216.918 200.935C216.024 200.429 215.301 199.669 214.84 198.752C214.378 197.835 214.199 196.802 214.325 195.783C214.451 194.764 214.876 193.805 215.547 193.028C216.218 192.251 217.105 191.69 218.094 191.417C219.084 191.143 220.133 191.17 221.107 191.492C222.082 191.815 222.939 192.42 223.57 193.23C224.415 194.315 224.795 195.691 224.626 197.056C224.458 198.421 223.754 199.663 222.67 200.51Z" fill="#3880FF"/>
<path d="M254.62 214.62C254.488 214.137 254.186 213.718 253.77 213.44L250.24 211C249.901 210.765 249.503 210.63 249.091 210.611C248.679 210.591 248.27 210.688 247.91 210.89L244.74 212.7C241.658 214.445 238.988 216.832 236.91 219.7L236.22 220.7C235.94 221.09 235.741 221.533 235.634 222.001C235.527 222.469 235.515 222.954 235.598 223.427C235.68 223.9 235.857 224.352 236.117 224.756C236.376 225.16 236.714 225.508 237.11 225.78L240.77 228.3C241.476 228.785 242.331 229.002 243.183 228.914C244.035 228.826 244.828 228.439 245.42 227.82L249 224C249 224 255.8 219 254.62 214.62Z" fill="#FFB573"/>
<path d="M248.11 209C246.543 209.663 245.087 210.56 243.79 211.66C244.25 214.47 252.08 219.15 254.72 219.21C255.79 218.21 257.2 214.1 257.2 214.1C254.24 212.82 250.25 210 248.11 209Z" fill="#CDCED6"/>
<path d="M168 139C168.035 137.309 167.812 135.623 167.34 134C164.59 133.26 157.12 138.5 155.99 140.9C156.48 142.29 159.63 145.24 159.63 145.24C162 143 166.2 140.5 168 139Z" fill="#CDCED6"/>
<path d="M244.94 410.51L257.22 410.86L258.5 403.88L244.13 404.74L244.94 410.51Z" fill="#3880FF"/>
<path d="M187.72 409.26L200.85 411.29L203.07 405.49L188.52 402.2L187.72 409.26Z" fill="#3880FF"/>
<path d="M229.32 112C228.846 112.021 228.37 111.997 227.9 111.93C227.869 111.926 227.838 111.914 227.811 111.897C227.785 111.88 227.761 111.858 227.744 111.832C227.726 111.806 227.714 111.776 227.708 111.745C227.702 111.713 227.703 111.681 227.71 111.65C227.724 111.583 227.763 111.524 227.818 111.483C227.873 111.443 227.942 111.424 228.01 111.43C229.069 111.587 230.15 111.503 231.172 111.182C232.194 110.862 233.13 110.314 233.91 109.58C233.958 109.534 234.023 109.508 234.09 109.508C234.157 109.508 234.222 109.534 234.27 109.58C234.316 109.627 234.341 109.69 234.341 109.755C234.341 109.821 234.316 109.883 234.27 109.93C232.933 111.209 231.169 111.947 229.32 112Z" fill="#001436"/>
<path d="M194.91 75.4505L164.66 73.0205L138.97 60.2705L110.81 68.6905L106.75 119.241L190.85 126.001L194.91 75.4505Z" fill="#3880FF"/>
<path d="M98.04 124.15L84.73 123.08L86.4 102.32L87.99 102.45L86.45 121.62L98.17 122.56L98.04 124.15Z" fill="#3880FF"/>
<path d="M104.32 122.653L104.192 124.253L114.592 125.085L114.72 123.485L104.32 122.653Z" fill="#3880FF"/>
<path d="M111.343 100.931L92.235 99.3936L90.7417 117.954L109.85 119.491L111.343 100.931Z" fill="#3880FF"/>
<path opacity="0.2" d="M109.86 119.49L126.62 120.84L128.65 95.5596L111.35 100.92L109.86 119.49Z" fill="#1C2024"/>
<path opacity="0.2" d="M194.911 75.4741L164.659 73.04L160.592 123.587L190.844 126.021L194.911 75.4741Z" fill="#1C2024"/>
<path d="M169.22 62.7005L138.97 60.2705L164.66 73.0205L194.91 75.4505L169.22 62.7005Z" fill="#001436"/>
<path d="M194.91 77.0499H194.78L164.53 74.6199C164.328 74.5986 164.131 74.541 163.95 74.4499L138.26 61.6999C137.927 61.5346 137.662 61.2585 137.511 60.9191C137.359 60.5797 137.331 60.1981 137.43 59.8399C137.532 59.4831 137.754 59.1722 138.058 58.9592C138.362 58.7463 138.73 58.6441 139.1 58.6699L169.35 61.0999C169.555 61.1212 169.755 61.1787 169.94 61.2699L195.62 73.9999C195.926 74.1687 196.169 74.4331 196.31 74.7527C196.452 75.0723 196.485 75.4295 196.405 75.7696C196.324 76.1098 196.134 76.4143 195.864 76.6365C195.595 76.8586 195.259 76.9863 194.91 76.9999V77.0499ZM165.09 71.4499L186.77 73.1999L168.77 64.2699L147.09 62.5199L165.09 71.4499Z" fill="#001436"/>
<path d="M109.55 94.0303L128.65 95.5603L111.35 100.92L92.25 99.3903L109.55 94.0303Z" fill="#001436"/>
<path d="M111.35 101.94H111.27L92.16 100.4C91.9252 100.382 91.7043 100.283 91.536 100.118C91.3677 99.9532 91.2629 99.7345 91.24 99.5002C91.2163 99.2602 91.2802 99.0197 91.4199 98.8231C91.5596 98.6265 91.7656 98.4869 92 98.4302L109.3 93.0602C109.425 93.0359 109.554 93.0359 109.68 93.0602L128.78 94.6002C129.015 94.6153 129.237 94.7129 129.407 94.8757C129.577 95.0385 129.685 95.2561 129.71 95.4902C129.739 95.7251 129.683 95.9626 129.553 96.1603C129.423 96.3581 129.227 96.5033 129 96.5702L111.7 101.93C111.585 101.954 111.466 101.957 111.35 101.94ZM97.55 98.8002L111.24 99.9002L123.35 96.1502L109.66 95.0502L97.55 98.8002Z" fill="#001436"/>
<path d="M111.58 70.35C111.201 70.3455 110.836 70.2066 110.55 69.9582C110.264 69.7098 110.075 69.3679 110.018 68.9934C109.96 68.619 110.037 68.2362 110.236 67.9133C110.434 67.5904 110.74 67.3483 111.1 67.23L138.5 58.74C138.708 58.629 138.937 58.5651 139.172 58.5529C139.407 58.5408 139.642 58.5806 139.86 58.6697C140.078 58.7587 140.274 58.8948 140.433 59.0681C140.592 59.2414 140.711 59.4477 140.782 59.6724C140.852 59.897 140.872 60.1344 140.84 60.3677C140.808 60.6009 140.725 60.8242 140.597 61.0217C140.469 61.2192 140.299 61.386 140.099 61.5101C139.899 61.6343 139.674 61.7128 139.44 61.74L112.05 70.23C111.9 70.294 111.742 70.3345 111.58 70.35Z" fill="#001436"/>
<path opacity="0.6" d="M149.402 103.001L138.482 102.127L136.893 121.997L147.813 122.871L149.402 103.001Z" fill="white"/>
<path d="M150.421 78.0703L124.824 76.0107L123.586 91.401L149.183 93.4605L150.421 78.0703Z" fill="white"/>
<path d="M136.466 77.9734L125.691 77.1064L124.616 90.4633L135.391 91.3302L136.466 77.9734Z" fill="#3880FF"/>
<path d="M149.391 79.0173L138.616 78.1504L137.541 91.5072L148.316 92.3742L149.391 79.0173Z" fill="#3880FF"/>
<path d="M186.803 81.0053L172.499 79.8545L171.261 95.2448L185.565 96.3956L186.803 81.0053Z" fill="white"/>
<path d="M178.959 81.3994L172.939 80.915L171.864 94.2719L177.885 94.7563L178.959 81.3994Z" fill="#3880FF"/>
<path d="M186.18 81.9766L180.159 81.4922L179.084 94.849L185.105 95.3334L186.18 81.9766Z" fill="#3880FF"/>
<path d="M184.817 105.597L170.513 104.446L169.275 119.837L183.579 120.987L184.817 105.597Z" fill="white"/>
<path d="M176.974 105.991L170.953 105.507L169.879 118.864L175.899 119.348L176.974 105.991Z" fill="#3880FF"/>
<path d="M184.817 106.875L178.777 106.392L177.705 119.792L183.745 120.275L184.817 106.875Z" fill="#3880FF"/>
<path d="M321.36 288L316.14 273.76H320.38L324.24 285.26H322.36L326.28 273.76H330.46L325.16 288H321.36ZM330.789 288V273.76H334.789V288H330.789ZM334.029 288V284.68H341.669V288H334.029ZM334.029 282.36V279.12H340.929V282.36H334.029ZM334.029 277.08V273.76H341.549V277.08H334.029ZM342.563 288V273.76H345.363L346.563 276.76V288H342.563ZM352.363 288L344.103 277.62L345.363 273.76L353.623 284.14L352.363 288ZM352.363 288L351.363 284.84V273.76H355.363V288H352.363ZM359.399 288V284.6H362.719C363.466 284.6 364.112 284.467 364.659 284.2C365.206 283.92 365.626 283.5 365.919 282.94C366.212 282.38 366.359 281.687 366.359 280.86C366.359 280.033 366.206 279.347 365.899 278.8C365.606 278.253 365.186 277.847 364.639 277.58C364.106 277.3 363.466 277.16 362.719 277.16H359.199V273.76H362.719C363.839 273.76 364.866 273.927 365.799 274.26C366.746 274.593 367.566 275.073 368.259 275.7C368.952 276.327 369.486 277.08 369.859 277.96C370.246 278.827 370.439 279.8 370.439 280.88C370.439 281.96 370.246 282.94 369.859 283.82C369.486 284.687 368.952 285.433 368.259 286.06C367.566 286.687 366.752 287.167 365.819 287.5C364.886 287.833 363.866 288 362.759 288H359.399ZM356.719 288V273.76H360.719V288H356.719ZM371.071 288V273.76H375.071V288H371.071ZM374.311 288V284.68H381.951V288H374.311ZM374.311 282.36V279.12H381.211V282.36H374.311ZM374.311 277.08V273.76H381.831V277.08H374.311Z" fill="white"/>
<path d="M316.12 317L321.54 302.76H325.62L330.98 317H326.82L322.84 304.9H324.28L320.2 317H316.12ZM319.64 314.6V311.48H327.6V314.6H319.64ZM331.121 317V302.76H335.121V317H331.121ZM334.381 317V313.6H341.041V317H334.381ZM347.058 317.24C345.805 317.24 344.712 316.987 343.778 316.48C342.845 315.96 342.118 315.247 341.598 314.34C341.078 313.433 340.818 312.393 340.818 311.22V302.76H344.818V311.58C344.818 312.033 344.918 312.42 345.118 312.74C345.318 313.06 345.585 313.307 345.918 313.48C346.265 313.64 346.645 313.72 347.058 313.72C347.485 313.72 347.858 313.64 348.178 313.48C348.512 313.307 348.772 313.067 348.958 312.76C349.145 312.44 349.238 312.053 349.238 311.6V302.76H353.258V311.24C353.258 312.413 352.998 313.453 352.478 314.36C351.972 315.253 351.252 315.96 350.318 316.48C349.398 316.987 348.312 317.24 347.058 317.24ZM361.376 317.24C360.269 317.24 359.242 317.06 358.296 316.7C357.362 316.327 356.542 315.807 355.836 315.14C355.142 314.473 354.602 313.693 354.216 312.8C353.829 311.907 353.636 310.933 353.636 309.88C353.636 308.813 353.836 307.833 354.236 306.94C354.649 306.047 355.216 305.273 355.936 304.62C356.669 303.953 357.516 303.44 358.476 303.08C359.436 302.707 360.462 302.52 361.556 302.52C362.876 302.52 364.056 302.747 365.096 303.2C366.149 303.653 367.002 304.267 367.656 305.04L364.956 307.74C364.462 307.167 363.949 306.74 363.416 306.46C362.882 306.18 362.242 306.04 361.496 306.04C360.789 306.04 360.149 306.2 359.576 306.52C359.002 306.827 358.542 307.267 358.196 307.84C357.862 308.413 357.696 309.087 357.696 309.86C357.696 310.633 357.849 311.313 358.156 311.9C358.476 312.473 358.916 312.92 359.476 313.24C360.036 313.56 360.689 313.72 361.436 313.72C362.156 313.72 362.762 313.58 363.256 313.3C363.749 313.02 364.122 312.62 364.376 312.1C364.642 311.58 364.776 310.967 364.776 310.26L367.516 312L360.896 311.8V308.6H368.796V309.2C368.796 310.907 368.482 312.36 367.856 313.56C367.242 314.76 366.376 315.673 365.256 316.3C364.149 316.927 362.856 317.24 361.376 317.24ZM367.667 317L373.087 302.76H377.167L382.527 317H378.367L374.387 304.9H375.827L371.747 317H367.667ZM371.187 314.6V311.48H379.147V314.6H371.187Z" fill="white"/>
</svg>
