<svg width="2190" height="2190" viewBox="0 0 2190 2190" fill="none" xmlns="http://www.w3.org/2000/svg">
<path d="M507.101 1637.21C506.571 1637.51 505.951 1637.63 505.345 1637.53C504.738 1637.43 504.181 1637.13 503.767 1636.67C393.813 1513.35 326.571 1371.54 302.042 1211.23C277.848 1053.13 305.048 886.635 375.213 743.268C499.715 488.883 750.633 318.879 1031.27 296.167C1308.24 273.769 1583.45 398.931 1746.09 627.477C1795.31 696.655 1833.27 772.166 1859.95 854.008C1860.34 855.203 1860 856.113 1858.91 856.738L1463.6 1084.97C1461.05 1086.45 1459.04 1085.91 1457.58 1083.38C1431.54 1038.38 1405.52 993.317 1379.53 948.192C1368.43 928.931 1359.3 914.478 1352.15 904.832C1270.54 794.85 1128.23 749.641 998.477 790.467C812.922 848.836 726.2 1055.59 805.558 1229.45C810.156 1239.5 818.245 1254.57 829.824 1274.66C855.104 1318.48 880.38 1362.26 905.655 1406.01C905.781 1406.22 905.817 1406.48 905.756 1406.72C905.695 1406.96 905.542 1407.17 905.33 1407.29L507.101 1637.21Z" fill="white" fill-opacity="0.05"/>
<path d="M995.144 1355.46C994.625 1355.76 994.009 1355.85 993.43 1355.69C992.851 1355.54 992.358 1355.16 992.058 1354.64L906.421 1206.31C877.153 1155.62 869.02 1095.49 883.811 1039.15C898.603 982.816 935.108 934.889 985.295 905.913L987.074 904.886C1037.26 875.91 1097.02 868.26 1153.2 883.617C1209.39 898.975 1257.39 936.083 1286.66 986.778L1372.3 1135.1C1372.6 1135.62 1372.68 1136.24 1372.53 1136.82C1372.37 1137.4 1371.99 1137.89 1371.47 1138.19L995.144 1355.46Z" fill="white" fill-opacity="0.1"/>
<path d="M1184.83 1891.96C967.711 1916.15 749.836 1850.45 581.886 1711.03C581.775 1710.93 581.688 1710.82 581.633 1710.68C581.577 1710.55 581.555 1710.4 581.568 1710.26C581.581 1710.11 581.628 1709.98 581.706 1709.85C581.784 1709.73 581.891 1709.63 582.016 1709.56C642.714 1674.51 703.516 1639.41 764.422 1604.25C859.44 1549.42 978.687 1571.21 1047.37 1656.85C1054.51 1665.76 1063.81 1680.1 1075.27 1699.88C1112.08 1763.44 1148.81 1827.05 1185.45 1890.72C1185.87 1891.46 1185.67 1891.87 1184.83 1891.96Z" fill="white" fill-opacity="0.1"/>
<path d="M1291.79 1872.8C1291.71 1872.82 1291.63 1872.82 1291.56 1872.79C1291.49 1872.76 1291.43 1872.71 1291.4 1872.64C1247.87 1797.11 1204.25 1721.57 1160.53 1646.03C1149.35 1626.7 1141.67 1611.44 1137.49 1600.26C1105.61 1514.92 1130.38 1418.1 1199.23 1358.16C1292.18 1277.25 1434.68 1289.72 1512.17 1384.14C1519.63 1393.23 1529 1407.51 1540.27 1426.97C1583.72 1502.01 1627.07 1577.12 1670.33 1652.29C1670.76 1653.03 1670.67 1653.71 1670.05 1654.32C1564.08 1761.33 1437.99 1834.16 1291.79 1872.8Z" fill="white" fill-opacity="0.1"/>
<path d="M1601.75 1323.03C1572.86 1235.19 1602.27 1138.57 1674.77 1081.56C1683.38 1074.79 1697.76 1065.55 1717.91 1053.84C1773.01 1021.79 1828.37 989.839 1883.99 957.982C1884.79 957.52 1885.27 957.749 1885.42 958.667C1922.21 1174.02 1869.91 1395.05 1740.54 1571.06C1740.47 1571.15 1740.38 1571.22 1740.28 1571.27C1740.18 1571.32 1740.07 1571.34 1739.96 1571.34C1739.85 1571.33 1739.75 1571.3 1739.66 1571.24C1739.57 1571.19 1739.49 1571.11 1739.44 1571.02C1699.9 1503.76 1661.02 1436.03 1622.82 1367.84C1612.61 1349.6 1605.58 1334.67 1601.75 1323.03Z" fill="white" fill-opacity="0.1"/>
</svg>
