<svg width="500" height="500" viewBox="0 0 500 500" fill="none" xmlns="http://www.w3.org/2000/svg">
<path d="M24.4599 192.46C24.4599 192.46 5.72988 272.53 57.9099 342.28C110.09 412.03 201.07 439.15 274.2 463.05C347.33 486.95 415.81 459.36 441.5 397.9C467.19 336.44 415.3 303.35 403.86 223.09C392.42 142.83 401.55 119.71 348.17 58.5999C294.79 -2.51006 185.26 -1.06005 111.17 61.6799C37.0799 124.42 24.4599 192.46 24.4599 192.46Z" fill="#3880FF"/>
<path opacity="0.7" d="M24.4599 192.46C24.4599 192.46 5.72988 272.53 57.9099 342.28C110.09 412.03 201.07 439.15 274.2 463.05C347.33 486.95 415.81 459.36 441.5 397.9C467.19 336.44 415.3 303.35 403.86 223.09C392.42 142.83 401.55 119.71 348.17 58.5999C294.79 -2.51006 185.26 -1.06005 111.17 61.6799C37.0799 124.42 24.4599 192.46 24.4599 192.46Z" fill="white"/>
<path d="M166 411.07L69.5798 437.61C62.5798 439.08 53.3398 432.98 53.3398 424.96V104.86C53.3398 96.86 58.7598 90.86 69.0498 93.03L166 116C171.12 117.08 175.22 123.4 175.22 130.12V397C175.19 403.68 171.09 410 166 411.07Z" fill="#263238" stroke="#263238" stroke-linecap="round" stroke-linejoin="round"/>
<path d="M171.18 411.07L71.2798 436.8C64.2798 438.27 58.5498 432.98 58.5498 424.96V104.86C58.5498 96.8599 64.2998 91.5499 71.2798 93.0199L171.18 116.02C176.3 117.1 180.4 123.42 180.4 130.14V397C180.4 403.68 176.3 410 171.18 411.07Z" fill="#3880FF"/>
<mask id="mask0_156_147" style="mask-type:luminance" maskUnits="userSpaceOnUse" x="58" y="92" width="123" height="346">
<path d="M171.18 411.07L71.2798 436.8C64.2798 438.27 58.5498 432.98 58.5498 424.96V104.86C58.5498 96.8599 64.2998 91.5499 71.2798 93.0199L171.18 116.02C176.3 117.1 180.4 123.42 180.4 130.14V397C180.4 403.68 176.3 410 171.18 411.07Z" fill="white"/>
</mask>
<g mask="url(#mask0_156_147)">
<path opacity="0.2" d="M71.9998 93.1701C64.6398 91.6201 58.5698 97.1701 58.5698 105.67V424.15C58.5698 428.87 60.4698 432.71 63.4398 434.9L145.59 108.68L71.9998 93.1701Z" fill="white"/>
<path d="M135.25 412.21C135.25 409.21 133.25 407.11 130.8 407.58C128.35 408.05 126.29 410.93 126.29 413.99C126.29 417.05 128.29 419.12 130.8 418.61C133.31 418.1 135.25 415.24 135.25 412.21Z" stroke="#263238" stroke-linecap="round" stroke-linejoin="round"/>
</g>
<path d="M171.18 411.07L71.2798 436.8C64.2798 438.27 58.5498 432.98 58.5498 424.96V104.86C58.5498 96.8599 64.2998 91.5499 71.2798 93.0199L171.18 116.02C176.3 117.1 180.4 123.42 180.4 130.14V397C180.4 403.68 176.3 410 171.18 411.07Z" stroke="#263238" stroke-linecap="round" stroke-linejoin="round"/>
<path d="M175.41 392.77L65.54 417.58V115.19L175.41 136.85V392.77Z" fill="white" stroke="#263238" stroke-linecap="round" stroke-linejoin="round"/>
<path d="M126.93 332.12C105.59 361.21 94.6101 391.4 89.0801 412.26L164.81 395.17C166.321 380.561 169.889 366.239 175.41 352.63V281.3C159.7 294.38 142.08 311.46 126.93 332.12Z" fill="#263238"/>
<path d="M65.54 115.19V298.58C80.97 274.97 103.72 250.65 133.83 215.58C157.91 187.58 169.7 167.3 175.41 153.58V136.85L65.54 115.19Z" fill="#263238"/>
<path d="M171.89 145.13L163.16 143.65V137.32L171.89 138.88V145.13Z" fill="white"/>
<path d="M169.21 143.59L163.93 142.81V138.53L169.21 139.35V143.59Z" fill="#263238"/>
<path d="M173.08 143.59L171.87 143.38V140.62L173.08 140.84V143.59Z" fill="white"/>
<path d="M70.8497 121.5L68.7197 121.13V125.3L70.8497 125.66V121.5Z" fill="white"/>
<path d="M74.1798 120.63L72.0698 120.26V125.87L74.1798 126.23V120.63Z" fill="white"/>
<path d="M77.4896 119.5L75.3896 119.13V126.44L77.4896 126.79V119.5Z" fill="white"/>
<path opacity="0.3" d="M449.31 462.48C469.137 462.48 485.21 458.204 485.21 452.93C485.21 447.656 469.137 443.38 449.31 443.38C429.483 443.38 413.41 447.656 413.41 452.93C413.41 458.204 429.483 462.48 449.31 462.48Z" fill="black"/>
<path d="M424.72 425.34C424.72 425.34 398.23 378.82 404.34 367C410.45 355.18 426.08 376.46 426.08 376.46C426.08 376.46 412.49 333.09 419.96 314.16C427.43 295.23 440.34 314.16 441.02 327.57C441.7 340.98 438.3 363.84 438.3 363.84C438.3 363.84 443.74 316.53 456.64 330.72C469.54 344.91 440.34 392.23 440.34 392.23C440.34 392.23 460.04 381.23 459.34 395.39C458.64 409.55 435.57 422.2 435.57 422.2" fill="#3880FF"/>
<path d="M424.94 416.67C424.94 416.67 400.43 393.8 412.37 383.55C424.31 373.3 430.6 394.55 430.6 394.55C430.6 394.55 417.4 329.1 438.77 326.73C460.14 324.36 444.43 383.51 444.43 383.51C444.43 383.51 462.66 358.27 461.43 378.78C460.2 399.29 433.15 416.63 433.15 416.63" stroke="#263238" stroke-miterlimit="10"/>
<path d="M436.98 412.51L420.42 394.56" stroke="#263238" stroke-miterlimit="10"/>
<path d="M433.53 413.89L438.02 361.42" stroke="#263238" stroke-miterlimit="10"/>
<path d="M432.84 410.09L447.69 390.41" stroke="#263238" stroke-miterlimit="10"/>
<path d="M454.31 406.43H408.49L411.49 442.22C411.924 447.196 414.206 451.83 417.885 455.209C421.564 458.589 426.374 460.469 431.37 460.48C436.365 460.469 441.176 458.589 444.855 455.209C448.534 451.83 450.815 447.196 451.25 442.22L454.31 406.43Z" fill="#263238"/>
<path opacity="0.3" d="M371.45 486.74C401.886 486.74 426.56 480.177 426.56 472.08C426.56 463.984 401.886 457.42 371.45 457.42C341.013 457.42 316.34 463.984 316.34 472.08C316.34 480.177 341.013 486.74 371.45 486.74Z" fill="black"/>
<path d="M341.07 203.39C341.07 203.39 335.01 206.27 334.41 207.78C333.81 209.29 332.59 212.47 332.59 212.47C332.59 212.47 325.48 212.93 323.66 213.84C321.84 214.75 320.66 216.1 320.79 219.59C320.92 223.08 323.36 231.54 322.3 233.2C318.427 239.631 314.13 245.798 309.44 251.66C302.03 260.89 300.06 262.56 298.7 269.52C297.34 276.48 297.03 280.26 298.55 282.08C300.07 283.9 303.69 282.23 309.14 277.84C314.59 273.45 317.14 276.33 323.36 264.07C329.58 251.81 330.36 238.35 332.89 235.78C335.42 233.21 340.61 229.27 341.52 226.24C342.43 223.21 343.64 217.62 345.76 215.8C347.88 213.98 348.63 211.41 346.51 211.72C345.566 211.813 344.66 212.135 343.868 212.658C343.077 213.181 342.426 213.889 341.97 214.72C340.939 216.232 339.719 217.607 338.34 218.81C338.34 218.81 338.04 213.51 338.19 212.45C338.34 211.39 343.49 205.95 344.24 206.1C344.99 206.25 347.72 206.7 347.12 205.19C346.52 203.68 343.33 202.34 341.07 203.39Z" fill="white" stroke="#263238" stroke-miterlimit="10"/>
<path d="M400.78 238.38C400.78 238.38 400.01 269.08 398.26 277.05C396.51 285.02 395.54 286.37 392.62 287.54C390.183 288.364 387.621 288.756 385.05 288.7C384.05 288.7 386.21 276.46 390.49 263.83C394.77 251.2 400.78 238.38 400.78 238.38Z" fill="#636363" stroke="#263238" stroke-miterlimit="10"/>
<path d="M314.1 294.34C315.638 294.988 317.348 295.104 318.96 294.67C321.23 293.86 325.28 290.38 327.3 288.67C329.32 286.96 335.24 288.51 335.48 288.59C335.72 288.67 338.97 287.3 335.73 280.66C332.49 274.02 327.06 275.07 323.25 277.58C319.44 280.09 313.78 286.81 312.16 288.03C310.88 288.892 309.478 289.556 308 290C308 290 312.32 293.13 314.1 294.34Z" fill="white" stroke="#263238" stroke-miterlimit="10"/>
<path d="M343.77 464.47C343.77 464.47 334.7 466.47 330.13 465.99C325.56 465.51 323.01 466.57 322.43 468.82C321.85 471.07 323.16 473.76 331.29 477.1C339.42 480.44 350.88 483.56 354.44 483.19C358 482.82 359.59 482.47 360.53 477.97C361.47 473.47 361.53 465.41 361.53 465.41C361.53 465.41 348.92 467.59 343.77 464.47Z" fill="#263238" stroke="#263238" stroke-miterlimit="10"/>
<path d="M360.51 478.08C359.149 478.892 357.695 479.536 356.18 480C352.18 481.23 347.98 479.93 335.86 476.37C326.38 473.59 323.3 470.28 322.4 468.97C321.91 471.19 323.33 473.83 331.29 477.1C339.41 480.44 350.88 483.56 354.44 483.19C358 482.82 359.56 482.47 360.51 478.08Z" fill="white" stroke="#263238" stroke-miterlimit="10"/>
<path d="M376.23 451.78C376.23 451.78 371.44 451.49 370.35 452.87C369.26 454.25 371.29 458.46 374.7 461.22C378.11 463.98 380.22 464.55 381.38 467.39C382.54 470.23 388.28 470.39 390.67 468.98C393.06 467.57 392.67 463.98 392.12 460.42C391.57 456.86 390.6 452.36 390.6 452.36C390.6 452.36 384.28 455.05 381.6 453.67C379.897 452.815 378.093 452.18 376.23 451.78Z" fill="#263238" stroke="#263238" stroke-miterlimit="10"/>
<path d="M382.54 465.79C380.8 462.74 378.54 462.3 374.92 459.33C372.887 457.517 371.468 455.116 370.86 452.46C370.664 452.561 370.491 452.7 370.35 452.87C369.26 454.25 371.29 458.46 374.7 461.22C378.11 463.98 380.22 464.55 381.38 467.39C382.54 470.23 388.28 470.39 390.67 468.98C392.36 467.98 392.67 465.91 392.51 463.52C392.06 464.282 391.566 465.017 391.03 465.72C389.22 468.11 384.28 468.84 382.54 465.79Z" fill="white" stroke="#263238" stroke-miterlimit="10"/>
<path d="M356.48 220.9C356.48 220.9 334.33 225.36 329.09 228.47C323.85 231.58 321.32 243.47 316.85 251.59C312.38 259.71 303.64 264 299.94 269.86C296.24 275.72 296.83 286.76 302.66 289.29C308.49 291.82 310.05 291.81 314.52 288.29C318.99 284.77 326.52 277.02 326.52 277.02C326.52 277.02 330.02 283.02 331.19 284.4L332.35 285.76C328.396 291.834 325.504 298.536 323.8 305.58C320.69 317.82 314.48 332.97 319.72 354.93C324.96 376.89 335.07 395.93 338.57 411.47C341.21 423.29 342.836 435.314 343.43 447.41C344.01 456.55 342.26 465.98 343.81 468.32C345.36 470.66 354.45 474.08 358.54 471.55C362.63 469.02 361.88 467.93 362.66 464.82C363.44 461.71 368.1 433.82 368.1 433.82C368.1 433.82 372 444.17 374.71 450C377.42 455.83 380.15 459.32 384.62 458.35C389.09 457.38 391.03 454.27 391.03 451.16C391.03 448.05 393.21 423.35 388.35 410.53C383.49 397.71 378.44 392.26 377.47 387.41C377.076 384.816 377.254 382.166 377.991 379.648C378.729 377.129 380.008 374.802 381.74 372.83C385.05 369.34 398.65 351.83 400.2 337.83C401.75 323.83 397.67 311.41 394.95 304.02C392.23 296.63 386.6 293.53 390.1 282.07C393.6 270.61 399.81 253 401.17 243C402.53 233 399.62 230 392.23 226.49C384.84 222.98 370.08 218 356.48 220.9Z" fill="#3880FF"/>
<mask id="mask1_156_147" style="mask-type:luminance" maskUnits="userSpaceOnUse" x="297" y="220" width="105" height="253">
<path d="M356.48 220.9C356.48 220.9 334.33 225.36 329.09 228.47C323.85 231.58 321.32 243.47 316.85 251.59C312.38 259.71 303.64 264 299.94 269.86C296.24 275.72 296.83 286.76 302.66 289.29C308.49 291.82 310.05 291.81 314.52 288.29C318.99 284.77 326.52 277.02 326.52 277.02C326.52 277.02 330.02 283.02 331.19 284.4L332.35 285.76C328.396 291.834 325.504 298.536 323.8 305.58C320.69 317.82 314.48 332.97 319.72 354.93C324.96 376.89 335.07 395.93 338.57 411.47C341.21 423.29 342.836 435.314 343.43 447.41C344.01 456.55 342.26 465.98 343.81 468.32C345.36 470.66 354.45 474.08 358.54 471.55C362.63 469.02 361.88 467.93 362.66 464.82C363.44 461.71 368.1 433.82 368.1 433.82C368.1 433.82 372 444.17 374.71 450C377.42 455.83 380.15 459.32 384.62 458.35C389.09 457.38 391.03 454.27 391.03 451.16C391.03 448.05 393.21 423.35 388.35 410.53C383.49 397.71 378.44 392.26 377.47 387.41C377.076 384.816 377.254 382.166 377.991 379.648C378.729 377.129 380.008 374.802 381.74 372.83C385.05 369.34 398.65 351.83 400.2 337.83C401.75 323.83 397.67 311.41 394.95 304.02C392.23 296.63 386.6 293.53 390.1 282.07C393.6 270.61 399.81 253 401.17 243C402.53 233 399.62 230 392.23 226.49C384.84 222.98 370.08 218 356.48 220.9Z" fill="white"/>
</mask>
<g mask="url(#mask1_156_147)">
<path opacity="0.3" d="M392.23 226.53C384.85 223.03 370.08 217.98 356.48 220.9L355.69 221.06L352.26 225.74C352.26 225.74 331.58 231.22 331.58 239.74C331.58 248.26 336.44 251.3 332.19 256.16C328.54 260.33 307.11 276.95 300.19 287.38C300.842 288.2 301.678 288.854 302.63 289.29C308.46 291.81 310.02 291.81 314.49 288.29C318.96 284.77 326.49 277.02 326.49 277.02C326.49 277.02 329.99 283.02 331.16 284.4L332.32 285.76C332.32 285.76 331.58 286.76 330.5 288.69C331.61 290.32 336.59 298.29 333.33 304.81C329.68 312.11 326.64 346.81 333.94 373.56C341.24 400.31 350.94 424.06 349.76 439.27C348.96 449.32 348.15 463.74 346.64 470.4C350.1 472.11 355.58 473.4 358.51 471.55C362.59 469.03 361.85 467.93 362.63 464.82C363.41 461.71 368.07 433.82 368.07 433.82L368.3 434.24C369.54 430.41 371.66 423.14 371.66 417.99C371.66 417.99 381.54 435.45 380.93 448.22C380.757 451.521 380.83 454.83 381.15 458.12C382.237 458.525 383.421 458.598 384.55 458.33C389.02 457.33 390.96 454.25 390.96 451.14C390.96 448.03 393.14 423.33 388.28 410.51C383.42 397.69 378.37 392.24 377.4 387.39C377.006 384.796 377.184 382.146 377.921 379.628C378.659 377.109 379.938 374.782 381.67 372.81C384.98 369.32 398.58 351.81 400.13 337.81C401.68 323.81 397.6 311.39 394.88 304C392.16 296.61 386.53 293.51 390.03 282.05C393.53 270.59 399.81 253 401.17 243C402.53 233 399.62 230 392.23 226.53Z" fill="black"/>
</g>
<path d="M356.48 220.9C356.48 220.9 334.33 225.36 329.09 228.47C323.85 231.58 321.32 243.47 316.85 251.59C312.38 259.71 303.64 264 299.94 269.86C296.24 275.72 296.83 286.76 302.66 289.29C308.49 291.82 310.05 291.81 314.52 288.29C318.99 284.77 326.52 277.02 326.52 277.02C326.52 277.02 330.02 283.02 331.19 284.4L332.35 285.76C328.396 291.834 325.504 298.536 323.8 305.58C320.69 317.82 314.48 332.97 319.72 354.93C324.96 376.89 335.07 395.93 338.57 411.47C341.21 423.29 342.836 435.314 343.43 447.41C344.01 456.55 342.26 465.98 343.81 468.32C345.36 470.66 354.45 474.08 358.54 471.55C362.63 469.02 361.88 467.93 362.66 464.82C363.44 461.71 368.1 433.82 368.1 433.82C368.1 433.82 372 444.17 374.71 450C377.42 455.83 380.15 459.32 384.62 458.35C389.09 457.38 391.03 454.27 391.03 451.16C391.03 448.05 393.21 423.35 388.35 410.53C383.49 397.71 378.44 392.26 377.47 387.41C377.076 384.816 377.254 382.166 377.991 379.648C378.729 377.129 380.008 374.802 381.74 372.83C385.05 369.34 398.65 351.83 400.2 337.83C401.75 323.83 397.67 311.41 394.95 304.02C392.23 296.63 386.6 293.53 390.1 282.07C393.6 270.61 399.81 253 401.17 243C402.53 233 399.62 230 392.23 226.49C384.84 222.98 370.08 218 356.48 220.9Z" stroke="#263238" stroke-miterlimit="10"/>
<path d="M380.93 346.23L371.93 349.35C371.93 349.35 364.3 368.13 364.11 377.9C363.92 387.67 372.91 400.39 371.73 414.47C370.55 428.55 368.13 433.84 368.13 433.84" stroke="#263238" stroke-miterlimit="10"/>
<path d="M349.32 466.92C349.151 467.923 348.812 468.89 348.32 469.78" stroke="#263238" stroke-miterlimit="10"/>
<path d="M330.37 359.34C330.72 361.63 331.15 363.89 331.67 366.1C336.79 387.85 341.91 402.77 346.6 420.68C349.6 432.04 350.49 451.56 350.11 459.95" stroke="#263238" stroke-miterlimit="10"/>
<path d="M330 317.06C328.743 328.535 328.566 340.102 329.47 351.61" stroke="#263238" stroke-miterlimit="10"/>
<path d="M401.17 243C402.53 233.1 399.62 230 392.23 226.49C384.84 222.98 370.08 217.94 356.48 220.86C356.48 220.86 334.33 225.32 329.09 228.43C323.85 231.54 321.32 243.43 316.85 251.55C312.38 259.67 303.64 264 299.94 269.86C296.24 275.72 296.83 286.76 302.66 289.29C308.49 291.82 310.05 291.81 314.52 288.29C318.99 284.77 326.52 277.02 326.52 277.02C326.52 277.02 330.02 283.02 331.19 284.4L332.35 285.76C328.396 291.834 325.504 298.536 323.8 305.58C323.29 307.58 322.7 309.66 322.09 311.83C329.32 315.03 348.75 322.37 368.3 318.98C383.13 316.42 391.98 312.16 396.7 309.18C396.09 307.27 395.47 305.54 394.91 304.02C392.19 296.64 386.56 293.53 390.06 282.07C393.56 270.61 399.81 253 401.17 243Z" fill="#949494"/>
<mask id="mask2_156_147" style="mask-type:luminance" maskUnits="userSpaceOnUse" x="297" y="219" width="105" height="101">
<path d="M401.17 243C402.53 233.1 399.62 230 392.23 226.49C384.84 222.98 370.08 217.94 356.48 220.86C356.48 220.86 334.33 225.32 329.09 228.43C323.85 231.54 321.32 243.43 316.85 251.55C312.38 259.67 303.64 264 299.94 269.86C296.24 275.72 296.83 286.76 302.66 289.29C308.49 291.82 310.05 291.81 314.52 288.29C318.99 284.77 326.52 277.02 326.52 277.02C326.52 277.02 330.02 283.02 331.19 284.4L332.35 285.76C328.396 291.834 325.504 298.536 323.8 305.58C323.29 307.58 322.7 309.66 322.09 311.83C329.32 315.03 348.75 322.37 368.3 318.98C383.13 316.42 391.98 312.16 396.7 309.18C396.09 307.27 395.47 305.54 394.91 304.02C392.19 296.64 386.56 293.53 390.06 282.07C393.56 270.61 399.81 253 401.17 243Z" fill="white"/>
</mask>
<g mask="url(#mask2_156_147)">
<path opacity="0.3" d="M392.23 226.53C384.85 223.03 370.08 217.98 356.48 220.9L355.69 221.06L352.26 225.74C352.26 225.74 331.58 231.22 331.58 239.74C331.58 248.26 336.44 251.3 332.19 256.16C328.54 260.33 307.11 276.95 300.19 287.38C300.842 288.2 301.678 288.854 302.63 289.29C308.46 291.81 310.02 291.81 314.49 288.29C318.96 284.77 326.49 277.02 326.49 277.02C326.49 277.02 329.99 283.02 331.16 284.4L332.32 285.76C332.32 285.76 331.58 286.76 330.5 288.69C331.61 290.32 336.59 298.29 333.33 304.81C329.68 312.11 326.64 346.81 333.94 373.56C341.24 400.31 350.94 424.06 349.76 439.27C348.96 449.32 348.15 456.44 346.64 463.1C350.1 464.81 355.58 466.1 358.51 464.25C362.59 461.72 361.85 460.63 362.63 457.52C363.41 454.41 368.07 433.81 368.07 433.81L368.3 434.23C369.54 430.4 371.66 423.13 371.66 417.98C371.66 417.98 385.66 439.88 385.05 452.66C384.877 455.961 384.951 459.27 385.27 462.56C386.358 462.962 387.542 463.032 388.67 462.76C393.14 461.76 395.08 458.68 395.08 455.57C395.08 452.46 393.14 423.32 388.28 410.5C383.42 397.68 378.37 392.23 377.4 387.38C377.006 384.786 377.184 382.136 377.921 379.618C378.659 377.099 379.938 374.772 381.67 372.8C384.98 369.31 398.58 351.8 400.13 337.8C401.68 323.8 397.6 311.38 394.88 303.99C392.16 296.6 386.53 293.5 390.03 282.04C393.53 270.58 399.81 253 401.17 243C402.53 233 399.62 230 392.23 226.53Z" fill="black"/>
<path d="M342.11 261.31L326.56 277.05L342.88 266.36" stroke="#263238" stroke-miterlimit="10"/>
<path d="M379.6 256.26C379.6 256.26 372.6 275.49 365.03 283.07" stroke="#263238" stroke-miterlimit="10"/>
<path d="M381.16 262.28C381.16 262.28 370.67 281.9 365 288.51" stroke="#263238" stroke-miterlimit="10"/>
</g>
<path d="M401.17 243C402.53 233.1 399.62 230 392.23 226.49C384.84 222.98 370.08 217.94 356.48 220.86C356.48 220.86 334.33 225.32 329.09 228.43C323.85 231.54 321.32 243.43 316.85 251.55C312.38 259.67 303.64 264 299.94 269.86C296.24 275.72 296.83 286.76 302.66 289.29C308.49 291.82 310.05 291.81 314.52 288.29C318.99 284.77 326.52 277.02 326.52 277.02C326.52 277.02 330.02 283.02 331.19 284.4L332.35 285.76C328.396 291.834 325.504 298.536 323.8 305.58C323.29 307.58 322.7 309.66 322.09 311.83C329.32 315.03 348.75 322.37 368.3 318.98C383.13 316.42 391.98 312.16 396.7 309.18C396.09 307.27 395.47 305.54 394.91 304.02C392.19 296.64 386.56 293.53 390.06 282.07C393.56 270.61 399.81 253 401.17 243Z" stroke="#263238" stroke-miterlimit="10"/>
<path d="M300.9 288C300.9 288 299.12 287.19 299.28 288.64C299.44 290.09 302.11 292.05 303.33 292.94C304.191 293.504 305.241 293.706 306.25 293.5C306.81 293.45 300.9 288 300.9 288Z" fill="white" stroke="#263238" stroke-miterlimit="10"/>
<path d="M303.73 288.59C303.73 288.59 301.06 285.92 300.66 286.89C300.26 287.86 301.95 290.05 303.98 292.16C304.629 292.931 305.48 293.505 306.438 293.82C307.395 294.134 308.42 294.176 309.4 293.94C310.4 293.53 307.78 291.02 306.73 289.94C305.863 289.239 304.83 288.774 303.73 288.59Z" fill="white" stroke="#263238" stroke-miterlimit="10"/>
<path d="M306.49 288.11C306.49 288.11 302.84 284.06 302.44 285.03C302.04 286 303.44 288.51 305.35 290.7C307.26 292.89 308.76 294.1 309.97 294.18C311.072 294.097 312.147 293.795 313.13 293.29L306.49 288.11Z" fill="white" stroke="#263238" stroke-miterlimit="10"/>
<path d="M316.65 294.53C314.948 294.614 313.247 294.352 311.65 293.76C309.32 292.76 306.21 288.51 305.43 286.57C304.65 284.63 306.6 282.49 308.35 285.21C310.1 287.93 315.15 291.42 315.15 291.42" fill="white"/>
<path d="M316.65 294.53C314.948 294.614 313.247 294.352 311.65 293.76C309.32 292.76 306.21 288.51 305.43 286.57C304.65 284.63 306.6 282.49 308.35 285.21C310.1 287.93 315.15 291.42 315.15 291.42" stroke="#263238" stroke-miterlimit="10"/>
<path d="M347.16 176.6C346.597 178.719 345.882 180.794 345.02 182.81C343.85 185.34 340.02 183.59 339.02 187.09C338.02 190.59 339.79 192.09 339.79 192.72C339.79 193.35 339.41 205.16 341.93 209.04C344.45 212.92 352.42 210.79 352.42 210.79C352.42 210.79 352.23 221.48 352.62 222.84C353.01 224.2 355.92 225.75 362.14 225.75C368.36 225.75 372.05 221.09 372.05 215.45C372.05 209.81 368.36 203.02 370.49 193.89C372.62 184.76 376.13 179.32 370.1 173.68C364.07 168.04 349.88 170.57 347.16 176.6Z" fill="white" stroke="#263238" stroke-miterlimit="10"/>
<path d="M346.55 185.37C346.4 186.37 345.99 187.17 345.63 187.12C345.27 187.07 345.09 186.2 345.24 185.18C345.39 184.16 345.8 183.37 346.16 183.43C346.52 183.49 346.7 184.35 346.55 185.37Z" fill="#263238"/>
<path d="M340.88 196.81C340.88 196.81 342.65 198.58 345.01 196.42" stroke="#263238" stroke-miterlimit="10"/>
<path d="M355.71 160.27C355.71 160.27 345.8 160.86 344.05 169.21C342.3 177.56 352.05 188.06 356.48 194.47C360.91 200.88 356.09 207.1 352.21 214.68C348.33 222.26 347.93 234.3 360.56 240.13C373.19 245.96 387.18 242.46 393.79 232.55C400.4 222.64 398.65 212.73 394.95 205.74C391.25 198.75 388.74 198.16 390.29 191.94C391.84 185.72 391.29 178.94 387.38 170.57C383.47 162.2 368.34 157.36 355.71 160.27Z" fill="#263238"/>
<mask id="mask3_156_147" style="mask-type:luminance" maskUnits="userSpaceOnUse" x="343" y="159" width="56" height="84">
<path d="M355.71 160.27C355.71 160.27 345.8 160.86 344.05 169.21C342.3 177.56 352.05 188.06 356.48 194.47C360.91 200.88 356.09 207.1 352.21 214.68C348.33 222.26 347.93 234.3 360.56 240.13C373.19 245.96 387.18 242.46 393.79 232.55C400.4 222.64 398.65 212.73 394.95 205.74C391.25 198.75 388.74 198.16 390.29 191.94C391.84 185.72 391.29 178.94 387.38 170.57C383.47 162.2 368.34 157.36 355.71 160.27Z" fill="white"/>
</mask>
<g mask="url(#mask3_156_147)">
<path d="M355.71 160.271C355.71 160.271 345.57 170.98 354.09 182.54C362.61 194.1 374.78 201.41 374.17 217.23C373.56 233.05 357.74 230.001 364.43 248.861" stroke="#787878" stroke-miterlimit="10"/>
<path d="M369.91 156.38C369.91 156.38 366.91 175.24 373.56 183.15C380.21 191.06 391.81 208.71 388.16 220.88C384.51 233.05 379.03 239.74 386.34 242.17" stroke="#787878" stroke-miterlimit="10"/>
<path d="M386.34 166.12C384.729 168.983 383.832 172.192 383.726 175.475C383.62 178.759 384.307 182.019 385.73 184.98C390.59 195.32 398.5 211.14 396.68 223.31C394.86 235.48 389.38 242.17 389.38 242.17" stroke="#787878" stroke-miterlimit="10"/>
</g>
<path d="M355.71 160.27C355.71 160.27 345.8 160.86 344.05 169.21C342.3 177.56 352.05 188.06 356.48 194.47C360.91 200.88 356.09 207.1 352.21 214.68C348.33 222.26 347.93 234.3 360.56 240.13C373.19 245.96 387.18 242.46 393.79 232.55C400.4 222.64 398.65 212.73 394.95 205.74C391.25 198.75 388.74 198.16 390.29 191.94C391.84 185.72 391.29 178.94 387.38 170.57C383.47 162.2 368.34 157.36 355.71 160.27Z" stroke="#263238" stroke-miterlimit="10"/>
<path d="M152.49 78.0098L145.21 104.06" stroke="#263238" stroke-miterlimit="10"/>
<path d="M213.88 129.75L184.94 143.78" stroke="#263238" stroke-miterlimit="10"/>
<path d="M223.52 205.17L187.57 209.55" stroke="#263238" stroke-miterlimit="10"/>
<path d="M185.81 294.62L202.48 301.63" stroke="#263238" stroke-miterlimit="10"/>
<path d="M160.08 43.5196V41.5196C160.08 40.9122 159.839 40.3298 159.409 39.9003C158.98 39.4708 158.397 39.2296 157.79 39.2296H142.32C141.712 39.2242 141.126 39.4601 140.691 39.8855C140.257 40.311 140.008 40.8913 140 41.4996V43.4996H136.85C136.32 43.4996 135.811 43.7103 135.436 44.0854C135.061 44.4604 134.85 44.9691 134.85 45.4996V68.4396C134.85 68.97 135.061 69.4787 135.436 69.8538C135.811 70.2289 136.32 70.4396 136.85 70.4396H173C173.531 70.4396 174.039 70.2289 174.414 69.8538C174.789 69.4787 175 68.97 175 68.4396V45.5296C175 44.9991 174.789 44.4904 174.414 44.1154C174.039 43.7403 173.531 43.5296 173 43.5296L160.08 43.5196Z" fill="#263238"/>
<path d="M173 71.0798H136.88C136.18 71.0798 135.509 70.8017 135.013 70.3066C134.518 69.8115 134.24 69.14 134.24 68.4398V45.5298C134.24 44.8287 134.518 44.1562 135.013 43.6595C135.508 43.1628 136.179 42.8825 136.88 42.8798H139.39V41.4998C139.393 40.7218 139.704 39.9766 140.255 39.4274C140.806 38.8782 141.552 38.5698 142.33 38.5698H157.79C158.567 38.5698 159.313 38.8785 159.862 39.428C160.412 39.9775 160.72 40.7227 160.72 41.4998V42.8798H173C173.701 42.8825 174.373 43.1628 174.868 43.6595C175.362 44.1562 175.64 44.8287 175.64 45.5298V68.4398C175.64 69.14 175.362 69.8115 174.867 70.3066C174.372 70.8017 173.7 71.0798 173 71.0798ZM136.88 44.1598C136.701 44.1598 136.523 44.1953 136.357 44.2643C136.192 44.3333 136.041 44.4343 135.915 44.5617C135.789 44.689 135.689 44.8401 135.621 45.0063C135.553 45.1725 135.519 45.3504 135.52 45.5298V68.4398C135.52 68.6184 135.555 68.7953 135.624 68.9603C135.692 69.1253 135.792 69.2752 135.919 69.4015C136.045 69.5278 136.195 69.628 136.36 69.6963C136.525 69.7647 136.702 69.7998 136.88 69.7998H173C173.179 69.7998 173.356 69.7647 173.521 69.6963C173.686 69.628 173.836 69.5278 173.962 69.4015C174.088 69.2752 174.188 69.1253 174.257 68.9603C174.325 68.7953 174.36 68.6184 174.36 68.4398V45.5298C174.362 45.3504 174.327 45.1725 174.26 45.0063C174.192 44.8401 174.092 44.689 173.965 44.5617C173.839 44.4343 173.689 44.3333 173.523 44.2643C173.357 44.1953 173.18 44.1598 173 44.1598H159.44V41.4998C159.44 41.0622 159.266 40.6425 158.957 40.3331C158.648 40.0237 158.228 39.8498 157.79 39.8498H142.33C142.113 39.8485 141.897 39.8902 141.696 39.9725C141.494 40.0549 141.311 40.1762 141.157 40.3295C141.003 40.4829 140.88 40.6652 140.797 40.8661C140.713 41.0669 140.67 41.2823 140.67 41.4998V44.1598H136.88Z" fill="#263238"/>
<path d="M155.562 66.1615C161.105 64.8594 164.543 59.3101 163.241 53.767C161.939 48.2238 156.39 44.7858 150.846 46.088C145.303 47.3902 141.865 52.9394 143.167 58.4826C144.47 64.0257 150.019 67.4637 155.562 66.1615Z" fill="#263238"/>
<path d="M153.21 67.0699C151.045 67.0699 148.927 66.4277 147.127 65.2245C145.326 64.0213 143.923 62.3112 143.094 60.3103C142.265 58.3095 142.048 56.1078 142.471 53.9837C142.893 51.8596 143.936 49.9085 145.467 48.3771C146.999 46.8457 148.95 45.8028 151.074 45.3803C153.198 44.9578 155.4 45.1747 157.401 46.0034C159.402 46.8322 161.112 48.2357 162.315 50.0364C163.518 51.8372 164.16 53.9542 164.16 56.1199C164.147 59.02 162.989 61.7975 160.939 63.8482C158.888 65.8989 156.11 67.0568 153.21 67.0699ZM153.21 46.4499C151.298 46.4499 149.428 47.0171 147.838 48.0796C146.248 49.1422 145.008 50.6524 144.276 52.4194C143.544 54.1863 143.353 56.1307 143.726 58.0064C144.099 59.8822 145.02 61.6053 146.373 62.9576C147.725 64.31 149.448 65.231 151.324 65.6041C153.2 65.9772 155.144 65.7857 156.911 65.0538C158.678 64.3219 160.188 63.0825 161.251 61.4923C162.313 59.9021 162.88 58.0325 162.88 56.1199C162.878 53.5561 161.858 51.098 160.045 49.2851C158.232 47.4722 155.774 46.4526 153.21 46.4499Z" fill="white"/>
<path d="M168.1 51.5397C169.84 51.5397 171.25 50.1294 171.25 48.3897C171.25 46.65 169.84 45.2397 168.1 45.2397C166.361 45.2397 164.95 46.65 164.95 48.3897C164.95 50.1294 166.361 51.5397 168.1 51.5397Z" fill="white"/>
<path d="M182.91 44.3398H210.05" stroke="#263238" stroke-miterlimit="10"/>
<path d="M182.91 49.8496H210.05" stroke="#263238" stroke-miterlimit="10"/>
<path d="M182.91 55.3599H210.05" stroke="#263238" stroke-miterlimit="10"/>
<path d="M182.91 60.8599H210.05" stroke="#263238" stroke-miterlimit="10"/>
<path d="M236 91.3797H233.3V87.1797H224.3V91.3797H221.66C220.953 91.385 220.276 91.6697 219.778 92.1717C219.28 92.6737 219 93.3524 219 94.0597V126.29C219 126.641 219.069 126.989 219.204 127.314C219.339 127.638 219.537 127.933 219.786 128.181C220.035 128.429 220.33 128.626 220.655 128.759C220.98 128.893 221.329 128.961 221.68 128.96H236C236.351 128.961 236.7 128.893 237.025 128.759C237.35 128.626 237.645 128.429 237.894 128.181C238.143 127.933 238.341 127.638 238.476 127.314C238.611 126.989 238.68 126.641 238.68 126.29V94.0597C238.68 93.3489 238.398 92.6672 237.895 92.1646C237.392 91.662 236.711 91.3797 236 91.3797Z" fill="#263238"/>
<path d="M236 129.6H221.66C220.782 129.6 219.939 129.252 219.316 128.631C218.694 128.011 218.343 127.169 218.34 126.29V94.06C218.34 93.1795 218.69 92.3351 219.313 91.7124C219.935 91.0898 220.78 90.74 221.66 90.74H223.66V86.54H234V90.74H236C236.881 90.74 237.725 91.0898 238.348 91.7124C238.971 92.3351 239.32 93.1795 239.32 94.06V126.29C239.318 127.169 238.967 128.011 238.344 128.631C237.722 129.252 236.879 129.6 236 129.6ZM221.66 92C221.13 92 220.621 92.2108 220.246 92.5858C219.871 92.9609 219.66 93.4696 219.66 94V126.23C219.66 126.76 219.871 127.269 220.246 127.644C220.621 128.019 221.13 128.23 221.66 128.23H236C236.531 128.23 237.039 128.019 237.415 127.644C237.79 127.269 238 126.76 238 126.23V94.06C238 93.5296 237.79 93.0209 237.415 92.6458C237.039 92.2708 236.531 92.06 236 92.06H232.71V87.82H224.99V92H221.66Z" fill="#263238"/>
<path d="M234.41 95.4497H223.2C222.046 95.4497 221.11 96.3854 221.11 97.5397V122.81C221.11 123.964 222.046 124.9 223.2 124.9H234.41C235.565 124.9 236.5 123.964 236.5 122.81V97.5397C236.5 96.3854 235.565 95.4497 234.41 95.4497Z" fill="#263238"/>
<path d="M233.83 125.54H223.78C222.901 125.537 222.06 125.186 221.439 124.564C220.819 123.942 220.47 123.099 220.47 122.22V98.1201C220.47 97.6854 220.556 97.255 220.722 96.8534C220.889 96.4518 221.132 96.0869 221.44 95.7795C221.747 95.4722 222.112 95.2284 222.514 95.062C222.915 94.8957 223.346 94.8101 223.78 94.8101H233.83C234.707 94.8127 235.548 95.1623 236.168 95.7824C236.788 96.4026 237.138 97.243 237.14 98.1201V122.22C237.14 123.099 236.792 123.942 236.171 124.564C235.551 125.186 234.709 125.537 233.83 125.54ZM223.78 96.0901C223.25 96.0901 222.741 96.3008 222.366 96.6758C221.991 97.0509 221.78 97.5596 221.78 98.0901V122.19C221.78 122.72 221.991 123.229 222.366 123.604C222.741 123.979 223.25 124.19 223.78 124.19H233.83C234.361 124.19 234.869 123.979 235.244 123.604C235.62 123.229 235.83 122.72 235.83 122.19V98.1201C235.83 97.5896 235.62 97.0809 235.244 96.7058C234.869 96.3308 234.361 96.1201 233.83 96.1201L223.78 96.0901Z" fill="white"/>
<path d="M236.65 100.98H220.89V102.26H236.65V100.98Z" fill="white"/>
<path d="M236.65 106.44H220.89V107.72H236.65V106.44Z" fill="white"/>
<path d="M236.65 111.89H220.89V113.17H236.65V111.89Z" fill="white"/>
<path d="M236.65 117.35H220.89V118.63H236.65V117.35Z" fill="white"/>
<path d="M225.44 98.29L223.62 107.67H227.86L225.74 115.49H228.77L226.95 122.53L234.53 111.97H230.89L234.22 104.94H228.77L229.98 98.29H225.44Z" fill="white"/>
<path d="M249.79 102.17H276.93" stroke="#263238" stroke-miterlimit="10"/>
<path d="M249.79 107.68H276.93" stroke="#263238" stroke-miterlimit="10"/>
<path d="M249.79 113.19H276.93" stroke="#263238" stroke-miterlimit="10"/>
<path d="M249.79 118.69H276.93" stroke="#263238" stroke-miterlimit="10"/>
<path d="M253 184.28L253.33 183.7C252.95 183.25 252.56 182.82 252.15 182.42C245.15 179.23 238.21 181.42 235.76 182.42C235.5 182.67 235.26 182.94 235.02 183.21L235.4 183.97C235.49 183.94 244.62 179.5 253 184.28Z" fill="#263238"/>
<path d="M257.1 190.66C256.82 189.77 256.486 188.899 256.1 188.05C252.901 185.506 248.947 184.099 244.86 184.05C239.53 184.05 234.3 186.8 231.72 188.4C231.42 189.06 231.15 189.76 230.9 190.47C231.76 189.86 238.38 185.33 244.9 185.33C249.511 185.429 253.895 187.344 257.1 190.66Z" fill="#263238"/>
<path d="M232.55 208.24C232.55 208.17 229.3 201.24 233.46 194.74C234.475 193.092 235.828 191.679 237.429 190.593C239.031 189.507 240.844 188.773 242.75 188.44C246.33 187.79 249.4 188.57 250.75 189.57C252.686 191.137 254.395 192.964 255.83 195C256.626 196.104 257.516 197.138 258.49 198.09C258.49 197.41 258.4 196.73 258.33 196.09C257.85 195.54 257.33 194.91 256.85 194.23C255.345 192.104 253.551 190.199 251.52 188.57C249.92 187.36 246.52 186.48 242.52 187.2C240.44 187.562 238.46 188.361 236.712 189.546C234.964 190.73 233.487 192.272 232.38 194.07C227.84 201.19 231.25 208.5 231.38 208.81L232.55 208.24Z" fill="#263238"/>
<path d="M257 199.64C256.468 198.941 255.98 198.21 255.54 197.45C253.68 194.45 251.36 190.62 244.54 190.62C243.132 190.552 241.727 190.801 240.429 191.35C239.13 191.899 237.972 192.733 237.04 193.79C234.45 196.79 234.04 201.14 234.49 204.22C234.691 205.501 234.561 206.811 234.113 208.027C233.665 209.244 232.913 210.325 231.93 211.17C232.12 211.56 232.33 211.94 232.53 212.31C233.744 211.331 234.68 210.052 235.247 208.6C235.814 207.147 235.991 205.572 235.76 204.03C235.34 201.23 235.71 197.29 238.01 194.62C238.826 193.707 239.836 192.988 240.966 192.518C242.096 192.047 243.318 191.836 244.54 191.9C250.61 191.9 252.54 195.06 254.41 198.12C254.874 198.927 255.392 199.702 255.96 200.44C256.613 201.293 257.428 202.007 258.36 202.54C258.36 202.06 258.45 201.59 258.48 201.1C257.922 200.684 257.424 200.193 257 199.64Z" fill="#263238"/>
<path d="M252.23 199.74C251.961 199.185 251.664 198.644 251.34 198.12C250.12 196.3 247.28 192.03 241.46 194.43C236.88 196.32 237.32 201.12 237.71 205.35C237.82 206.58 237.92 207.74 237.92 208.83C237.92 211.83 235.76 213.91 234.29 214.96C234.563 215.3 234.843 215.633 235.13 215.96C236.82 214.74 239.21 212.39 239.21 208.84C239.21 207.69 239.09 206.45 238.98 205.24C238.6 201.08 238.24 197.15 241.98 195.62C246.83 193.62 248.98 196.89 250.3 198.84C250.599 199.322 250.873 199.819 251.12 200.33C252.441 203.37 254.585 205.982 257.31 207.87C257.45 207.44 257.56 207 257.67 206.56C255.288 204.805 253.411 202.453 252.23 199.74Z" fill="#263238"/>
<path d="M251.26 205.24C250.581 204.479 250.069 203.582 249.76 202.61C249.191 200.911 248.151 199.409 246.76 198.28C246.28 197.859 245.683 197.595 245.048 197.524C244.413 197.452 243.772 197.576 243.21 197.88C241.36 198.88 240.21 201.65 240.4 204.49C240.67 208.05 248.56 214.34 251.87 216.83C252.19 216.54 252.48 216.23 252.78 215.91C248.93 213.01 241.89 207.17 241.67 204.39C241.5 202.07 242.42 199.76 243.82 199.01C244.165 198.825 244.558 198.753 244.945 198.803C245.333 198.853 245.695 199.023 245.98 199.29C247.173 200.289 248.058 201.607 248.53 203.09C248.913 204.201 249.519 205.221 250.31 206.09C252.157 207.74 254.107 209.27 256.15 210.67C256.33 210.27 256.51 209.87 256.67 209.46C254.783 208.165 252.976 206.755 251.26 205.24Z" fill="#263238"/>
<path d="M244.2 201.65C244.48 206.06 251.46 212.44 253.93 214.56C254.19 214.22 254.43 213.87 254.67 213.51C251.52 210.79 245.67 205.08 245.48 201.57L244.2 201.65Z" fill="#263238"/>
<path d="M245.94 214.23C244.99 213.13 244.25 212.23 242.94 212.23C240.94 212.23 237.94 215.54 236.53 217.23C236.85 217.507 237.184 217.767 237.53 218.01C239.3 215.9 241.78 213.47 242.92 213.47C243.59 213.47 244.04 213.96 244.92 214.99C246.109 216.456 247.527 217.719 249.12 218.73C249.539 218.506 249.944 218.256 250.33 217.98C248.654 217.003 247.167 215.733 245.94 214.23Z" fill="#263238"/>
<path d="M247 219.76C246.08 218.38 244.55 216.32 243.47 216.05C242.16 215.73 241.02 217.75 240.29 219.5C240.695 219.652 241.109 219.779 241.53 219.88C242.13 218.51 242.84 217.36 243.16 217.3C243.61 217.41 244.67 218.65 245.65 220.06C246.106 219.99 246.557 219.889 247 219.76Z" fill="#263238"/>
<path d="M265.91 192.65H293.06" stroke="#263238" stroke-miterlimit="10"/>
<path d="M265.91 198.16H293.06" stroke="#263238" stroke-miterlimit="10"/>
<path d="M265.91 203.67H293.06" stroke="#263238" stroke-miterlimit="10"/>
<path d="M265.91 209.18H293.06" stroke="#263238" stroke-miterlimit="10"/>
<path d="M231.66 305.18H208.08C207.091 305.18 206.29 305.981 206.29 306.97V330.55C206.29 331.538 207.091 332.34 208.08 332.34H231.66C232.649 332.34 233.45 331.538 233.45 330.55V306.97C233.45 305.981 232.649 305.18 231.66 305.18Z" fill="#263238"/>
<path d="M231.32 332.94H208.42C207.698 332.937 207.006 332.648 206.496 332.137C205.986 331.625 205.7 330.932 205.7 330.21V307.31C205.7 306.588 205.987 305.897 206.497 305.387C207.007 304.876 207.699 304.59 208.42 304.59H231.32C232.042 304.59 232.733 304.876 233.244 305.387C233.754 305.897 234.04 306.588 234.04 307.31V330.21C234.04 330.932 233.754 331.625 233.244 332.137C232.734 332.648 232.043 332.937 231.32 332.94ZM208.42 305.78C208.015 305.782 207.628 305.945 207.341 306.231C207.055 306.517 206.893 306.905 206.89 307.31V330.21C206.89 330.616 207.051 331.005 207.338 331.292C207.625 331.579 208.014 331.74 208.42 331.74H231.32C231.726 331.74 232.115 331.579 232.402 331.292C232.689 331.005 232.85 330.616 232.85 330.21V307.31C232.848 306.905 232.686 306.517 232.399 306.231C232.113 305.945 231.725 305.782 231.32 305.78H208.42Z" fill="#263238"/>
<path d="M227.59 311.04H212.15V326.48H227.59V311.04Z" fill="#263238"/>
<path d="M228.19 327.08H211.55V310.45H228.19V327.08ZM212.74 325.89H227V311.64H212.74V325.89Z" fill="white"/>
<path d="M211.68 294.28H210.49V302.61H211.68V294.28Z" fill="#263238"/>
<path d="M215.94 294.28H214.75V302.61H215.94V294.28Z" fill="#263238"/>
<path d="M220.2 294.28H219.01V302.61H220.2V294.28Z" fill="#263238"/>
<path d="M224.46 294.28H223.27V302.61H224.46V294.28Z" fill="#263238"/>
<path d="M228.72 294.28H227.53V302.61H228.72V294.28Z" fill="#263238"/>
<path d="M211.68 334.25H210.49V342.58H211.68V334.25Z" fill="#263238"/>
<path d="M215.94 334.25H214.75V342.58H215.94V334.25Z" fill="#263238"/>
<path d="M220.2 334.25H219.01V342.58H220.2V334.25Z" fill="#263238"/>
<path d="M224.46 334.25H223.27V342.58H224.46V334.25Z" fill="#263238"/>
<path d="M228.72 334.25H227.53V342.58H228.72V334.25Z" fill="#263238"/>
<path d="M243.75 309.32H235.42V310.51H243.75V309.32Z" fill="#263238"/>
<path d="M243.75 313.58H235.42V314.77H243.75V313.58Z" fill="#263238"/>
<path d="M243.75 317.84H235.42V319.03H243.75V317.84Z" fill="#263238"/>
<path d="M243.75 322.1H235.42V323.29H243.75V322.1Z" fill="#263238"/>
<path d="M243.75 326.36H235.42V327.55H243.75V326.36Z" fill="#263238"/>
<path d="M203.78 309.32H195.45V310.51H203.78V309.32Z" fill="#263238"/>
<path d="M203.78 313.58H195.45V314.77H203.78V313.58Z" fill="#263238"/>
<path d="M203.78 317.84H195.45V319.03H203.78V317.84Z" fill="#263238"/>
<path d="M203.78 322.1H195.45V323.29H203.78V322.1Z" fill="#263238"/>
<path d="M203.78 326.36H195.45V327.55H203.78V326.36Z" fill="#263238"/>
<path d="M251.36 310.68H278.5" stroke="#263238" stroke-miterlimit="10"/>
<path d="M251.36 316.18H278.5" stroke="#263238" stroke-miterlimit="10"/>
<path d="M251.36 321.69H278.5" stroke="#263238" stroke-miterlimit="10"/>
<path d="M251.36 327.2H278.5" stroke="#263238" stroke-miterlimit="10"/>
<rect x="193" y="290" width="57" height="57" rx="28.5" fill="#0050DC"/>
<path d="M206 306.526L206.55 305.131L204.5 304.323V306.526H206ZM206 327.895H204.5V328.916L205.45 329.29L206 327.895ZM237 327.895L236.337 329.24L238.5 330.305V327.895H237ZM237 306.526H238.5V305.593L237.663 305.181L237 306.526ZM212.925 318.737V317.237H209.925V318.737H212.925ZM209.925 318.751V320.251H212.925V318.751H209.925ZM233.075 315.671V314.171H230.075V315.671H233.075ZM230.075 315.684V317.184H233.075V315.684H230.075ZM220.873 305.164C219.035 306.009 216.542 306.553 213.75 306.553V309.553C216.901 309.553 219.834 308.944 222.127 307.889L220.873 305.164ZM213.75 306.553C212.206 306.553 210.188 306.564 206.55 305.131L205.45 307.922C209.562 309.541 211.989 309.553 213.75 309.553V306.553ZM204.5 306.526V327.895H207.5V306.526H204.5ZM205.45 329.29C209.562 330.91 211.989 330.921 213.75 330.921V327.921C212.206 327.921 210.188 327.932 206.55 326.499L205.45 329.29ZM213.75 330.921C216.901 330.921 219.834 330.312 222.127 329.257L220.873 326.532C219.035 327.377 216.542 327.921 213.75 327.921V330.921ZM222.127 329.257C223.965 328.412 226.458 327.868 229.25 327.868V324.868C226.099 324.868 223.166 325.477 220.873 326.532L222.127 329.257ZM229.25 327.868C231.412 327.868 233.212 328.224 234.462 328.576C235.087 328.751 235.572 328.925 235.893 329.052C236.054 329.115 236.173 329.166 236.248 329.2C236.286 329.216 236.312 329.229 236.327 329.236C236.335 329.239 236.339 329.241 236.341 329.242C236.342 329.243 236.342 329.243 236.341 329.242C236.341 329.242 236.341 329.242 236.34 329.242C236.34 329.242 236.339 329.241 236.339 329.241C236.339 329.241 236.338 329.241 236.338 329.241C236.338 329.241 236.337 329.24 237 327.895C237.663 326.549 237.662 326.549 237.662 326.549C237.662 326.549 237.661 326.548 237.661 326.548C237.66 326.548 237.66 326.548 237.659 326.547C237.657 326.546 237.656 326.546 237.654 326.545C237.65 326.543 237.646 326.541 237.641 326.538C237.631 326.534 237.617 326.527 237.601 326.519C237.568 326.504 237.524 326.484 237.467 326.459C237.355 326.409 237.195 326.34 236.993 326.261C236.587 326.101 236.007 325.893 235.275 325.688C233.813 325.276 231.738 324.868 229.25 324.868V327.868ZM238.5 327.895V306.526H235.5V327.895H238.5ZM237 306.526C237.663 305.181 237.662 305.18 237.662 305.18C237.662 305.18 237.661 305.18 237.661 305.18C237.66 305.179 237.66 305.179 237.659 305.179C237.657 305.178 237.656 305.177 237.654 305.176C237.65 305.175 237.646 305.173 237.641 305.17C237.631 305.165 237.617 305.159 237.601 305.151C237.568 305.136 237.524 305.115 237.467 305.09C237.355 305.04 237.195 304.972 236.993 304.892C236.587 304.733 236.007 304.525 235.275 304.319C233.813 303.908 231.738 303.5 229.25 303.5V306.5C231.412 306.5 233.212 306.855 234.462 307.207C235.087 307.383 235.572 307.557 235.893 307.683C236.054 307.747 236.173 307.798 236.248 307.831C236.286 307.848 236.312 307.86 236.327 307.867C236.335 307.871 236.339 307.873 236.341 307.874C236.342 307.874 236.342 307.874 236.341 307.874C236.341 307.874 236.341 307.874 236.34 307.873C236.34 307.873 236.339 307.873 236.339 307.873C236.339 307.873 236.338 307.872 236.338 307.872C236.338 307.872 236.337 307.872 237 306.526ZM229.25 303.5C226.099 303.5 223.166 304.109 220.873 305.164L222.127 307.889C223.965 307.044 226.458 306.5 229.25 306.5V303.5ZM205.373 333.836C207.666 334.891 210.599 335.5 213.75 335.5V332.5C210.958 332.5 208.465 331.956 206.627 331.111L205.373 333.836ZM213.75 335.5C216.901 335.5 219.834 334.891 222.127 333.836L220.873 331.111C219.035 331.956 216.542 332.5 213.75 332.5V335.5ZM222.127 333.836C223.965 332.991 226.458 332.447 229.25 332.447V329.447C226.099 329.447 223.166 330.056 220.873 331.111L222.127 333.836ZM229.25 332.447C232.042 332.447 234.535 332.991 236.373 333.836L237.627 331.111C235.334 330.056 232.401 329.447 229.25 329.447V332.447ZM223.799 317.211C223.799 318.468 222.758 319.526 221.424 319.526V322.526C224.371 322.526 226.799 320.168 226.799 317.211H223.799ZM221.424 319.526C220.091 319.526 219.049 318.468 219.049 317.211H216.049C216.049 320.168 218.478 322.526 221.424 322.526V319.526ZM219.049 317.211C219.049 315.953 220.091 314.895 221.424 314.895V311.895C218.478 311.895 216.049 314.253 216.049 317.211H219.049ZM221.424 314.895C222.758 314.895 223.799 315.953 223.799 317.211H226.799C226.799 314.253 224.371 311.895 221.424 311.895V314.895ZM209.925 318.737V318.751H212.925V318.737H209.925ZM230.075 315.671V315.684H233.075V315.671H230.075Z" fill="white"/>
<rect x="125" y="24" width="57" height="57" rx="28.5" fill="#0050DC"/>
<path d="M139 65.5C138.172 65.5 137.5 66.1716 137.5 67C137.5 67.8284 138.172 68.5 139 68.5V65.5ZM168 68.5C168.828 68.5 169.5 67.8284 169.5 67C169.5 66.1716 168.828 65.5 168 65.5V68.5ZM152.05 67H150.55C150.55 67.8284 151.222 68.5 152.05 68.5V67ZM166.55 67V68.5C167.378 68.5 168.05 67.8284 168.05 67H166.55ZM140.45 67H138.95C138.95 67.8284 139.622 68.5 140.45 68.5V67ZM140.45 42.3C139.622 42.3 138.95 42.9716 138.95 43.8C138.95 44.6284 139.622 45.3 140.45 45.3V42.3ZM144.8 45.3C145.628 45.3 146.3 44.6284 146.3 43.8C146.3 42.9716 145.628 42.3 144.8 42.3V45.3ZM140.45 48.1C139.622 48.1 138.95 48.7716 138.95 49.6C138.95 50.4284 139.622 51.1 140.45 51.1V48.1ZM144.8 51.1C145.628 51.1 146.3 50.4284 146.3 49.6C146.3 48.7716 145.628 48.1 144.8 48.1V51.1ZM140.45 53.9C139.622 53.9 138.95 54.5716 138.95 55.4C138.95 56.2284 139.622 56.9 140.45 56.9V53.9ZM144.8 56.9C145.628 56.9 146.3 56.2284 146.3 55.4C146.3 54.5716 145.628 53.9 144.8 53.9V56.9ZM157.85 52.45C157.022 52.45 156.35 53.1216 156.35 53.95C156.35 54.7784 157.022 55.45 157.85 55.45V52.45ZM160.75 55.45C161.578 55.45 162.25 54.7784 162.25 53.95C162.25 53.1216 161.578 52.45 160.75 52.45V55.45ZM157.85 56.8C157.022 56.8 156.35 57.4716 156.35 58.3C156.35 59.1284 157.022 59.8 157.85 59.8V56.8ZM160.75 59.8C161.578 59.8 162.25 59.1284 162.25 58.3C162.25 57.4716 161.578 56.8 160.75 56.8V59.8ZM157.8 67C157.8 67.8284 158.472 68.5 159.3 68.5C160.128 68.5 160.8 67.8284 160.8 67H157.8ZM160.8 62.65C160.8 61.8216 160.128 61.15 159.3 61.15C158.472 61.15 157.8 61.8216 157.8 62.65H160.8ZM139 68.5H168V65.5H139V68.5ZM162.2 46.65H156.4V49.65H162.2V46.65ZM156.4 46.65C155.468 46.65 154.617 46.6967 153.88 46.8585C153.126 47.0241 152.399 47.3301 151.815 47.9148C151.23 48.4994 150.924 49.2264 150.759 49.9802C150.597 50.717 150.55 51.5678 150.55 52.5H153.55C153.55 51.6327 153.597 51.0401 153.689 50.6239C153.776 50.2247 153.883 50.089 153.936 50.0361C153.989 49.9831 154.125 49.8764 154.524 49.7887C154.94 49.6972 155.533 49.65 156.4 49.65V46.65ZM150.55 52.5V67H153.55V52.5H150.55ZM152.05 68.5H166.55V65.5H152.05V68.5ZM168.05 67V52.5H165.05V67H168.05ZM168.05 52.5C168.05 51.5678 168.003 50.717 167.841 49.9802C167.676 49.2264 167.37 48.4994 166.785 47.9148C166.201 47.3301 165.474 47.0241 164.72 46.8585C163.983 46.6967 163.132 46.65 162.2 46.65V49.65C163.067 49.65 163.66 49.6972 164.076 49.7887C164.475 49.8764 164.611 49.9831 164.664 50.0361C164.717 50.089 164.824 50.2247 164.911 50.6239C165.003 51.0401 165.05 51.6327 165.05 52.5H168.05ZM157.85 65.5H140.45V68.5H157.85V65.5ZM141.95 67V42.35H138.95V67H141.95ZM141.95 42.35C141.95 41.4827 141.997 40.8901 142.089 40.4739C142.176 40.0747 142.283 39.939 142.336 39.8861C142.389 39.8331 142.525 39.7264 142.924 39.6387C143.34 39.5472 143.933 39.5 144.8 39.5V36.5C143.868 36.5 143.017 36.5467 142.28 36.7085C141.526 36.8741 140.799 37.1801 140.215 37.7648C139.63 38.3494 139.324 39.0764 139.159 39.8302C138.997 40.567 138.95 41.4178 138.95 42.35H141.95ZM144.8 39.5H153.5V36.5H144.8V39.5ZM153.5 39.5C154.367 39.5 154.96 39.5472 155.376 39.6387C155.775 39.7264 155.911 39.8331 155.964 39.8861C156.017 39.939 156.124 40.0747 156.211 40.4739C156.303 40.8901 156.35 41.4827 156.35 42.35H159.35C159.35 41.4178 159.303 40.567 159.141 39.8302C158.976 39.0764 158.67 38.3494 158.085 37.7648C157.501 37.1801 156.774 36.8741 156.02 36.7085C155.283 36.5467 154.432 36.5 153.5 36.5V39.5ZM156.35 42.35V48.15H159.35V42.35H156.35ZM140.45 45.3H144.8V42.3H140.45V45.3ZM140.45 51.1H144.8V48.1H140.45V51.1ZM140.45 56.9H144.8V53.9H140.45V56.9ZM157.85 55.45H160.75V52.45H157.85V55.45ZM157.85 59.8H160.75V56.8H157.85V59.8ZM160.8 67V62.65H157.8V67H160.8Z" fill="white"/>
<rect x="192" y="82" width="57" height="57" rx="28.5" fill="#0050DC"/>
<path d="M236.054 119.875C235.225 119.875 234.554 120.547 234.554 121.375C234.554 122.203 235.225 122.875 236.054 122.875V119.875ZM239.387 119.325L240.562 120.258L240.562 120.258L239.387 119.325ZM236.925 113.967L237.853 112.788L237.853 112.788L236.925 113.967ZM233.047 110.819C232.222 110.743 231.492 111.349 231.415 112.174C231.339 112.999 231.946 113.73 232.771 113.806L233.047 110.819ZM231.136 107.188C230.308 107.188 229.636 107.859 229.636 108.688C229.636 109.516 230.308 110.188 231.136 110.188V107.188ZM231.136 98.125C230.308 98.125 229.636 98.7966 229.636 99.625C229.636 100.453 230.308 101.125 231.136 101.125V98.125ZM204.946 122.875C205.774 122.875 206.446 122.203 206.446 121.375C206.446 120.547 205.774 119.875 204.946 119.875V122.875ZM201.613 119.325L202.787 118.393L202.787 118.393L201.613 119.325ZM204.075 113.967L205.003 115.145L205.003 115.145L204.075 113.967ZM208.229 113.806C209.054 113.73 209.661 112.999 209.585 112.174C209.508 111.349 208.778 110.743 207.953 110.819L208.229 113.806ZM208.977 110.188C209.806 110.188 210.477 109.516 210.477 108.688C210.477 107.859 209.806 107.188 208.977 107.188V110.188ZM208.977 101.125C209.806 101.125 210.477 100.453 210.477 99.625C210.477 98.7966 209.806 98.125 208.977 98.125V101.125ZM213.558 116.139L212.756 114.871L212.756 114.871L213.558 116.139ZM209.89 122.548L210.956 121.494L210.956 121.494L209.89 122.548ZM231.11 122.548L230.044 121.494L230.044 121.494L231.11 122.548ZM227.442 116.139L226.641 117.407L226.641 117.407L227.442 116.139ZM236.054 122.875C238.096 122.875 239.54 121.546 240.562 120.258L238.213 118.393C237.337 119.495 236.668 119.875 236.054 119.875V122.875ZM240.562 120.258C241.248 119.395 241.569 118.445 241.488 117.467C241.411 116.533 240.982 115.759 240.527 115.17C239.671 114.062 238.309 113.147 237.853 112.788L235.997 115.145C236.757 115.743 237.597 116.285 238.153 117.005C238.405 117.33 238.486 117.563 238.498 117.714C238.507 117.821 238.498 118.033 238.213 118.393L240.562 120.258ZM237.853 112.788C236.403 111.647 234.752 110.977 233.047 110.819L232.771 113.806C233.865 113.907 234.974 114.34 235.997 115.145L237.853 112.788ZM231.136 110.188C234.444 110.188 237.068 107.456 237.068 104.156H234.068C234.068 105.862 232.724 107.188 231.136 107.188V110.188ZM237.068 104.156C237.068 100.857 234.444 98.125 231.136 98.125V101.125C232.724 101.125 234.068 102.451 234.068 104.156H237.068ZM204.946 119.875C204.332 119.875 203.663 119.495 202.787 118.393L200.438 120.258C201.46 121.546 202.904 122.875 204.946 122.875V119.875ZM202.787 118.393C202.502 118.033 202.493 117.821 202.502 117.714C202.514 117.563 202.595 117.33 202.847 117.005C203.403 116.285 204.243 115.743 205.003 115.145L203.147 112.788C202.691 113.147 201.329 114.062 200.473 115.17C200.018 115.759 199.589 116.533 199.512 117.467C199.431 118.445 199.752 119.395 200.438 120.258L202.787 118.393ZM205.003 115.145C206.026 114.34 207.135 113.907 208.229 113.806L207.953 110.819C206.248 110.977 204.597 111.647 203.147 112.788L205.003 115.145ZM208.977 107.188C207.389 107.188 206.045 105.862 206.045 104.156H203.045C203.045 107.456 205.67 110.188 208.977 110.188V107.188ZM206.045 104.156C206.045 102.451 207.389 101.125 208.977 101.125V98.125C205.67 98.125 203.045 100.857 203.045 104.156H206.045ZM212.756 114.871C212.012 115.341 210.098 116.369 208.879 117.636C208.248 118.291 207.612 119.192 207.496 120.32C207.371 121.527 207.874 122.643 208.823 123.603L210.956 121.494C210.459 120.991 210.471 120.717 210.48 120.627C210.497 120.458 210.619 120.154 211.041 119.716C211.926 118.796 213.292 118.082 214.359 117.407L212.756 114.871ZM208.823 123.603C210.361 125.159 212.297 126.5 214.855 126.5V123.5C213.456 123.5 212.244 122.797 210.956 121.494L208.823 123.603ZM214.855 126.5H226.145V123.5H214.855V126.5ZM226.145 126.5C228.703 126.5 230.639 125.159 232.177 123.603L230.044 121.494C228.755 122.797 227.544 123.5 226.145 123.5V126.5ZM232.177 123.603C233.126 122.643 233.629 121.527 233.504 120.32C233.388 119.192 232.752 118.291 232.121 117.636C230.902 116.369 228.988 115.341 228.244 114.871L226.641 117.407C227.708 118.082 229.074 118.796 229.959 119.716C230.381 120.154 230.503 120.458 230.52 120.627C230.529 120.717 230.541 120.991 230.044 121.494L232.177 123.603ZM228.244 114.871C223.507 111.876 217.493 111.876 212.756 114.871L214.359 117.407C218.117 115.031 222.883 115.031 226.641 117.407L228.244 114.871ZM225.205 102.344C225.205 105.05 223.067 107.188 220.5 107.188V110.188C224.786 110.188 228.205 106.644 228.205 102.344H225.205ZM220.5 107.188C217.933 107.188 215.795 105.05 215.795 102.344H212.795C212.795 106.644 216.214 110.188 220.5 110.188V107.188ZM215.795 102.344C215.795 99.6371 217.933 97.5 220.5 97.5V94.5C216.214 94.5 212.795 98.0433 212.795 102.344H215.795ZM220.5 97.5C223.067 97.5 225.205 99.6371 225.205 102.344H228.205C228.205 98.0433 224.786 94.5 220.5 94.5V97.5Z" fill="white"/>
<rect x="208" y="172" width="57" height="57" rx="28.5" fill="#0050DC"/>
<path d="M247.158 185C247.158 184.172 246.486 183.5 245.658 183.5C244.829 183.5 244.158 184.172 244.158 185H247.158ZM244.158 188C244.158 188.828 244.829 189.5 245.658 189.5C246.486 189.5 247.158 188.828 247.158 188H244.158ZM228.842 185C228.842 184.172 228.171 183.5 227.342 183.5C226.514 183.5 225.842 184.172 225.842 185H228.842ZM225.842 188C225.842 188.828 226.514 189.5 227.342 189.5C228.171 189.5 228.842 188.828 228.842 188H225.842ZM231.947 207.5C231.947 208.328 232.619 209 233.447 209C234.276 209 234.947 208.328 234.947 207.5L231.947 207.5ZM233.447 202.021L231.947 202.021L231.947 202.021L233.447 202.021ZM231.921 200C231.093 200 230.421 200.672 230.421 201.5C230.421 202.328 231.093 203 231.921 203V200ZM237.584 206.97C237.292 207.745 237.683 208.611 238.458 208.903C239.233 209.196 240.098 208.805 240.391 208.03L237.584 206.97ZM241.055 202.024L242.458 202.554L242.458 202.553L241.055 202.024ZM238.026 200C237.198 200 236.526 200.672 236.526 201.5C236.526 202.328 237.198 203 238.026 203V200ZM249.089 212.97L250.181 213.998L250.181 213.998L249.089 212.97ZM223.911 212.97L222.819 213.998L222.819 213.998L223.911 212.97ZM227.342 192.5C226.514 192.5 225.842 193.172 225.842 194C225.842 194.828 226.514 195.5 227.342 195.5V192.5ZM245.658 195.5C246.486 195.5 247.158 194.828 247.158 194C247.158 193.172 246.486 192.5 245.658 192.5V195.5ZM244.158 185V188H247.158V185H244.158ZM225.842 185V188H228.842V185H225.842ZM234.947 207.5L234.947 202.021L231.947 202.021L231.947 207.5L234.947 207.5ZM234.947 202.021C234.947 201.066 234.219 200 232.981 200V203C232.258 203 231.947 202.401 231.947 202.021H234.947ZM232.981 200H231.921V203H232.981V200ZM240.391 208.03L242.458 202.554L239.652 201.494L237.584 206.97L240.391 208.03ZM242.458 202.553C242.986 201.155 241.816 200 240.653 200V203C240.075 203 239.317 202.38 239.651 201.494L242.458 202.553ZM240.653 200H238.026V203H240.653V200ZM223.5 200.365C223.5 197.057 223.503 194.718 223.727 192.946C223.947 191.209 224.356 190.246 225.003 189.559L222.819 187.502C221.555 188.845 221.009 190.532 220.751 192.57C220.497 194.574 220.5 197.137 220.5 200.365H223.5ZM225.003 189.559C225.638 188.884 226.509 188.466 228.102 188.239C229.749 188.004 231.929 188 235.05 188V185C232.019 185 229.586 184.996 227.678 185.269C225.718 185.549 224.095 186.146 222.819 187.502L225.003 189.559ZM235.05 188H237.95V185H235.05V188ZM237.95 188C241.071 188 243.251 188.004 244.898 188.239C246.491 188.466 247.362 188.884 247.997 189.559L250.181 187.502C248.905 186.146 247.282 185.549 245.322 185.269C243.414 184.996 240.981 185 237.95 185V188ZM247.997 189.559C248.644 190.246 249.053 191.209 249.273 192.946C249.497 194.718 249.5 197.057 249.5 200.365H252.5C252.5 197.137 252.503 194.574 252.249 192.57C251.991 190.532 251.445 188.845 250.181 187.502L247.997 189.559ZM249.5 200.365V201.135H252.5V200.365H249.5ZM249.5 201.135C249.5 204.443 249.497 206.782 249.273 208.554C249.053 210.291 248.644 211.254 247.997 211.942L250.181 213.998C251.445 212.655 251.991 210.968 252.249 208.93C252.503 206.926 252.5 204.363 252.5 201.135H249.5ZM247.997 211.942C247.362 212.616 246.491 213.034 244.898 213.261C243.251 213.496 241.071 213.5 237.95 213.5V216.5C240.981 216.5 243.414 216.504 245.322 216.231C247.282 215.951 248.905 215.354 250.181 213.998L247.997 211.942ZM237.95 213.5H235.05V216.5H237.95V213.5ZM235.05 213.5C231.929 213.5 229.749 213.496 228.102 213.261C226.509 213.034 225.638 212.616 225.003 211.942L222.819 213.998C224.095 215.354 225.718 215.951 227.678 216.231C229.586 216.504 232.019 216.5 235.05 216.5V213.5ZM225.003 211.942C224.356 211.254 223.947 210.291 223.727 208.554C223.503 206.782 223.5 204.443 223.5 201.135H220.5C220.5 204.363 220.497 206.926 220.751 208.93C221.009 210.968 221.555 212.655 222.819 213.998L225.003 211.942ZM223.5 201.135V200.365H220.5V201.135H223.5ZM227.342 195.5H245.658V192.5H227.342V195.5Z" fill="white"/>
</svg>
