<svg xmlns="http://www.w3.org/2000/svg" xmlns:xlink="http://www.w3.org/1999/xlink" width="600" height="375" viewBox="0 0 800 500">
        <rect width="800" height="500" fill="#f8fafc"/>

        
        <g transform="translate(0,0) scale(1)"> 
            <g clip-path="url(#clip0)">
<path d="M0 100L100 100L100 0C100 55.2285 55.2285 100 0 100Z" fill="#f1f5f9"/>
</g>
<defs>
<clipPath id="clip0">
<rect width="100" height="100" fill="#f1f5f9"/>
</clipPath>
</defs>
        </g>
    

        <g transform="translate(100,0) scale(1)"> 
            <g clip-path="url(#clip0)">
<path d="M100 100C100 44.7715 55.2285 -1.95703e-06 0 -4.37114e-06L-4.37114e-06 100L100 100Z" fill="#f1f5f9"/>
</g>
<defs>
<clipPath id="clip0">
<rect width="100" height="100" fill="#f1f5f9"/>
</clipPath>
</defs>
        </g>
    

        <g transform="translate(200,0) scale(1)"> 
            <g clip-path="url(#clip0)">
<path d="M100 100C100 44.7715 55.2285 -1.95703e-06 0 -4.37114e-06L-4.37114e-06 100L100 100Z" fill="#f1f5f9"/>
</g>
<defs>
<clipPath id="clip0">
<rect width="100" height="100" fill="#f1f5f9"/>
</clipPath>
</defs>
        </g>
    

        <g transform="translate(300,0) scale(1)"> 
            <g clip-path="url(#clip0)">
<path fill-rule="evenodd" clip-rule="evenodd" d="M-4.37114e-06 0L0 100L100 100C44.7715 100 -1.95703e-06 55.2285 -4.37114e-06 0Z" fill="#f1f5f9"/>
</g>
<defs>
<clipPath id="clip0">
<rect width="100" height="100" fill="#f1f5f9"/>
</clipPath>
</defs>
        </g>
    

        <g transform="translate(400,0) scale(1)"> 
            <g clip-path="url(#clip0)">
<path d="M-4.37114e-06 0C-1.95703e-06 55.2285 44.7715 100 100 100L100 -4.37114e-06L-4.37114e-06 0Z" fill="#f1f5f9"/>
</g>
<defs>
<clipPath id="clip0">
<rect width="100" height="100" fill="#f1f5f9"/>
</clipPath>
</defs>
        </g>
    

        <g transform="translate(500,0) scale(1)"> 
            <path fill-rule="evenodd" clip-rule="evenodd" d="M100 0H0V100C0 44.7715 44.7715 0 100 0Z" fill="#f1f5f9"/>
        </g>
    

        <g transform="translate(600,0) scale(1)"> 
            <g clip-path="url(#clip0)">
<path fill-rule="evenodd" clip-rule="evenodd" d="M100 100L100 0L0 -4.37114e-06C55.2285 -1.95703e-06 100 44.7715 100 100Z" fill="#f1f5f9"/>
</g>
<defs>
<clipPath id="clip0">
<rect width="100" height="100" fill="#f1f5f9"/>
</clipPath>
</defs>
        </g>
    

        <g transform="translate(700,0) scale(1)"> 
            <g clip-path="url(#clip0)">
<path d="M0 100C55.2285 100 100 55.2285 100 0L-8.74228e-06 8.74228e-06L0 100Z" fill="#f1f5f9"/>
</g>
<defs>
<clipPath id="clip0">
<rect width="100" height="100" fill="#f1f5f9"/>
</clipPath>
</defs>
        </g>
    

        <g transform="translate(0,100) scale(1)"> 
            <g clip-path="url(#clip0)">
<path d="M0 100L100 100L100 0C100 55.2285 55.2285 100 0 100Z" fill="#f1f5f9"/>
</g>
<defs>
<clipPath id="clip0">
<rect width="100" height="100" fill="#f1f5f9"/>
</clipPath>
</defs>
        </g>
    

        <g transform="translate(100,100) scale(1)"> 
            <g clip-path="url(#clip0)">
<path d="M-4.37114e-06 0C-1.95703e-06 55.2285 44.7715 100 100 100L100 -4.37114e-06L-4.37114e-06 0Z" fill="#f1f5f9"/>
</g>
<defs>
<clipPath id="clip0">
<rect width="100" height="100" fill="#f1f5f9"/>
</clipPath>
</defs>
        </g>
    

        <g transform="translate(200,100) scale(1)"> 
            <g clip-path="url(#clip0)">
<path fill-rule="evenodd" clip-rule="evenodd" d="M-4.37114e-06 0L0 100L100 100C44.7715 100 -1.95703e-06 55.2285 -4.37114e-06 0Z" fill="#f1f5f9"/>
</g>
<defs>
<clipPath id="clip0">
<rect width="100" height="100" fill="#f1f5f9"/>
</clipPath>
</defs>
        </g>
    

        <g transform="translate(300,100) scale(1)"> 
            <g clip-path="url(#clip0)">
<path d="M-4.37114e-06 0C-1.95703e-06 55.2285 44.7715 100 100 100L100 -4.37114e-06L-4.37114e-06 0Z" fill="#f1f5f9"/>
</g>
<defs>
<clipPath id="clip0">
<rect width="100" height="100" fill="#f1f5f9"/>
</clipPath>
</defs>
        </g>
    

        <g transform="translate(400,100) scale(1)"> 
            <path d="M100 0C44.7715 0 0 44.7715 0 100H100V0Z" fill="#f1f5f9"/>
        </g>
    

        <g transform="translate(500,100) scale(1)"> 
            <path d="M100 0C44.7715 0 0 44.7715 0 100H100V0Z" fill="#f1f5f9"/>
        </g>
    

        <g transform="translate(600,100) scale(1)"> 
            <path d="M100 0C44.7715 0 0 44.7715 0 100H100V0Z" fill="#f1f5f9"/>
        </g>
    

        <g transform="translate(700,100) scale(1)"> 
            <path d="M100 0C44.7715 0 0 44.7715 0 100H100V0Z" fill="#f1f5f9"/>
        </g>
    

        <g transform="translate(0,200) scale(1)"> 
            <g clip-path="url(#clip0)">
<path d="M0 100L100 100L100 0C100 55.2285 55.2285 100 0 100Z" fill="#f1f5f9"/>
</g>
<defs>
<clipPath id="clip0">
<rect width="100" height="100" fill="#f1f5f9"/>
</clipPath>
</defs>
        </g>
    

        <g transform="translate(100,200) scale(1)"> 
            <g clip-path="url(#clip0)">
<path fill-rule="evenodd" clip-rule="evenodd" d="M100 100L100 0L0 -4.37114e-06C55.2285 -1.95703e-06 100 44.7715 100 100Z" fill="#f1f5f9"/>
</g>
<defs>
<clipPath id="clip0">
<rect width="100" height="100" fill="#f1f5f9"/>
</clipPath>
</defs>
        </g>
    

        <g transform="translate(200,200) scale(1)"> 
            <g clip-path="url(#clip0)">
<path fill-rule="evenodd" clip-rule="evenodd" d="M100 100L100 0L0 -4.37114e-06C55.2285 -1.95703e-06 100 44.7715 100 100Z" fill="#f1f5f9"/>
</g>
<defs>
<clipPath id="clip0">
<rect width="100" height="100" fill="#f1f5f9"/>
</clipPath>
</defs>
        </g>
    

        <g transform="translate(300,200) scale(1)"> 
            <g clip-path="url(#clip0)">
<path d="M0 100L100 100L100 0C100 55.2285 55.2285 100 0 100Z" fill="#f1f5f9"/>
</g>
<defs>
<clipPath id="clip0">
<rect width="100" height="100" fill="#f1f5f9"/>
</clipPath>
</defs>
        </g>
    

        <g transform="translate(400,200) scale(1)"> 
            <g clip-path="url(#clip0)">
<path fill-rule="evenodd" clip-rule="evenodd" d="M-4.37114e-06 0L0 100L100 100C44.7715 100 -1.95703e-06 55.2285 -4.37114e-06 0Z" fill="#f1f5f9"/>
</g>
<defs>
<clipPath id="clip0">
<rect width="100" height="100" fill="#f1f5f9"/>
</clipPath>
</defs>
        </g>
    

        <g transform="translate(500,200) scale(1)"> 
            <g clip-path="url(#clip0)">
<path fill-rule="evenodd" clip-rule="evenodd" d="M-4.37114e-06 0L0 100L100 100C44.7715 100 -1.95703e-06 55.2285 -4.37114e-06 0Z" fill="#f1f5f9"/>
</g>
<defs>
<clipPath id="clip0">
<rect width="100" height="100" fill="#f1f5f9"/>
</clipPath>
</defs>
        </g>
    

        <g transform="translate(600,200) scale(1)"> 
            <g clip-path="url(#clip0)">
<path d="M100 100C100 44.7715 55.2285 -1.95703e-06 0 -4.37114e-06L-4.37114e-06 100L100 100Z" fill="#f1f5f9"/>
</g>
<defs>
<clipPath id="clip0">
<rect width="100" height="100" fill="#f1f5f9"/>
</clipPath>
</defs>
        </g>
    

        <g transform="translate(700,200) scale(1)"> 
            <path fill-rule="evenodd" clip-rule="evenodd" d="M100 0H0V100C0 44.7715 44.7715 0 100 0Z" fill="#f1f5f9"/>
        </g>
    

        <g transform="translate(0,300) scale(1)"> 
            <g clip-path="url(#clip0)">
<path fill-rule="evenodd" clip-rule="evenodd" d="M-4.37114e-06 0L0 100L100 100C44.7715 100 -1.95703e-06 55.2285 -4.37114e-06 0Z" fill="#f1f5f9"/>
</g>
<defs>
<clipPath id="clip0">
<rect width="100" height="100" fill="#f1f5f9"/>
</clipPath>
</defs>
        </g>
    

        <g transform="translate(100,300) scale(1)"> 
            <g clip-path="url(#clip0)">
<path fill-rule="evenodd" clip-rule="evenodd" d="M100 100L100 0L0 -4.37114e-06C55.2285 -1.95703e-06 100 44.7715 100 100Z" fill="#f1f5f9"/>
</g>
<defs>
<clipPath id="clip0">
<rect width="100" height="100" fill="#f1f5f9"/>
</clipPath>
</defs>
        </g>
    

        <g transform="translate(200,300) scale(1)"> 
            <g clip-path="url(#clip0)">
<path fill-rule="evenodd" clip-rule="evenodd" d="M-4.37114e-06 0L0 100L100 100C44.7715 100 -1.95703e-06 55.2285 -4.37114e-06 0Z" fill="#f1f5f9"/>
</g>
<defs>
<clipPath id="clip0">
<rect width="100" height="100" fill="#f1f5f9"/>
</clipPath>
</defs>
        </g>
    

        <g transform="translate(300,300) scale(1)"> 
            <g clip-path="url(#clip0)">
<path d="M100 100C100 44.7715 55.2285 -1.95703e-06 0 -4.37114e-06L-4.37114e-06 100L100 100Z" fill="#f1f5f9"/>
</g>
<defs>
<clipPath id="clip0">
<rect width="100" height="100" fill="#f1f5f9"/>
</clipPath>
</defs>
        </g>
    

        <g transform="translate(400,300) scale(1)"> 
            <g clip-path="url(#clip0)">
<path fill-rule="evenodd" clip-rule="evenodd" d="M-4.37114e-06 0L0 100L100 100C44.7715 100 -1.95703e-06 55.2285 -4.37114e-06 0Z" fill="#f1f5f9"/>
</g>
<defs>
<clipPath id="clip0">
<rect width="100" height="100" fill="#f1f5f9"/>
</clipPath>
</defs>
        </g>
    

        <g transform="translate(500,300) scale(1)"> 
            <g clip-path="url(#clip0)">
<path d="M-4.37114e-06 0C-1.95703e-06 55.2285 44.7715 100 100 100L100 -4.37114e-06L-4.37114e-06 0Z" fill="#f1f5f9"/>
</g>
<defs>
<clipPath id="clip0">
<rect width="100" height="100" fill="#f1f5f9"/>
</clipPath>
</defs>
        </g>
    

        <g transform="translate(600,300) scale(1)"> 
            <g clip-path="url(#clip0)">
<path fill-rule="evenodd" clip-rule="evenodd" d="M100 100L100 0L0 -4.37114e-06C55.2285 -1.95703e-06 100 44.7715 100 100Z" fill="#f1f5f9"/>
</g>
<defs>
<clipPath id="clip0">
<rect width="100" height="100" fill="#f1f5f9"/>
</clipPath>
</defs>
        </g>
    

        <g transform="translate(700,300) scale(1)"> 
            <path d="M100 0C44.7715 0 0 44.7715 0 100H100V0Z" fill="#f1f5f9"/>
        </g>
    

        <g transform="translate(0,400) scale(1)"> 
            <g clip-path="url(#clip0)">
<path d="M100 100C100 44.7715 55.2285 -1.95703e-06 0 -4.37114e-06L-4.37114e-06 100L100 100Z" fill="#f1f5f9"/>
</g>
<defs>
<clipPath id="clip0">
<rect width="100" height="100" fill="#f1f5f9"/>
</clipPath>
</defs>
        </g>
    

        <g transform="translate(100,400) scale(1)"> 
            <g clip-path="url(#clip0)">
<path d="M0 100L100 100L100 0C100 55.2285 55.2285 100 0 100Z" fill="#f1f5f9"/>
</g>
<defs>
<clipPath id="clip0">
<rect width="100" height="100" fill="#f1f5f9"/>
</clipPath>
</defs>
        </g>
    

        <g transform="translate(200,400) scale(1)"> 
            <g clip-path="url(#clip0)">
<path d="M-4.37114e-06 0C-1.95703e-06 55.2285 44.7715 100 100 100L100 -4.37114e-06L-4.37114e-06 0Z" fill="#f1f5f9"/>
</g>
<defs>
<clipPath id="clip0">
<rect width="100" height="100" fill="#f1f5f9"/>
</clipPath>
</defs>
        </g>
    

        <g transform="translate(300,400) scale(1)"> 
            <g clip-path="url(#clip0)">
<path d="M0 100L100 100L100 0C100 55.2285 55.2285 100 0 100Z" fill="#f1f5f9"/>
</g>
<defs>
<clipPath id="clip0">
<rect width="100" height="100" fill="#f1f5f9"/>
</clipPath>
</defs>
        </g>
    

        <g transform="translate(400,400) scale(1)"> 
            <g clip-path="url(#clip0)">
<path d="M0 100C55.2285 100 100 55.2285 100 0L-8.74228e-06 8.74228e-06L0 100Z" fill="#f1f5f9"/>
</g>
<defs>
<clipPath id="clip0">
<rect width="100" height="100" fill="#f1f5f9"/>
</clipPath>
</defs>
        </g>
    

        <g transform="translate(500,400) scale(1)"> 
            <path d="M100 0C44.7715 0 0 44.7715 0 100H100V0Z" fill="#f1f5f9"/>
        </g>
    

        <g transform="translate(600,400) scale(1)"> 
            <g clip-path="url(#clip0)">
<path d="M0 100L100 100L100 0C100 55.2285 55.2285 100 0 100Z" fill="#f1f5f9"/>
</g>
<defs>
<clipPath id="clip0">
<rect width="100" height="100" fill="#f1f5f9"/>
</clipPath>
</defs>
        </g>
    

        <g transform="translate(700,400) scale(1)"> 
            <g clip-path="url(#clip0)">
<path fill-rule="evenodd" clip-rule="evenodd" d="M100 100L100 0L0 -4.37114e-06C55.2285 -1.95703e-06 100 44.7715 100 100Z" fill="#f1f5f9"/>
</g>
<defs>
<clipPath id="clip0">
<rect width="100" height="100" fill="#f1f5f9"/>
</clipPath>
</defs>
        </g>
    

        

      </svg>