<svg width="150" height="150" viewBox="0 0 150 150" fill="none" xmlns="http://www.w3.org/2000/svg">
<g clip-path="url(#clip0_168_53)">
<path d="M136.033 119.87C123.31 136.752 96.1233 137.577 73.4771 133.5C50.8308 129.422 32.8117 120.393 18.9029 102.097C4.9628 83.9477 -4.86706 56.5316 3.3479 39.7948C11.4212 23.011 37.4289 16.7136 64.0915 17.9812C90.7541 19.2488 117.875 27.9379 132.361 48.8485C146.848 69.7591 148.7 102.891 136.033 119.87Z" fill="#E8E8EC"/>
<path d="M52 63.3788V82.5888C52 93.1536 52 98.436 55.2218 101.718C58.4436 105 63.6291 105 74 105C84.3708 105 89.5564 105 92.778 101.718C96 98.436 96 93.1536 96 82.5888V65C96 53.6863 96 48.0294 92.4852 44.5147C88.9704 41 83.3136 41 72 41H68C61.491 41.119 57.7512 41.6728 55.2218 44.2495C52 47.5316 52 52.814 52 63.3788Z" fill="#F0F5FF"/>
<path d="M68 41C61.491 41.119 57.7512 41.6728 55.2218 44.2495C52 47.5316 52 52.814 52 63.3788V82.5884C52 93.1536 52 98.436 55.2218 101.718C58.4436 105 63.6291 105 74 105C84.3708 105 89.5564 105 92.778 101.718C96 98.436 96 93.1536 96 82.5884V70.9832" stroke="#001F55" stroke-width="4" stroke-linecap="round"/>
<path d="M74 93H74.0351" stroke="#0050DC" stroke-width="6" stroke-linecap="round" stroke-linejoin="round"/>
<path d="M76 32.3888C81.744 27.7157 88.6044 25 95.9728 25C103.364 25 110.245 27.7329 116 32.4331M106.871 45C103.591 42.9544 99.8896 41.8034 95.9728 41.8034C92.076 41.8034 88.392 42.9428 85.124 44.9692" stroke="#0050DC" stroke-width="4" stroke-linecap="round"/>
<path d="M96 57H96.025" stroke="#0050DC" stroke-width="6" stroke-linecap="round" stroke-linejoin="round"/>
</g>
<defs>
<clipPath id="clip0_168_53">
<rect width="150" height="150" fill="white"/>
</clipPath>
</defs>
</svg>
