<svg width="150" height="150" viewBox="0 0 150 150" fill="none" xmlns="http://www.w3.org/2000/svg">
<path d="M137.689 63.4683C147.605 88.7331 143.886 117.306 124.426 128.836C104.966 140.365 69.8887 134.851 43.6116 119.512C17.4584 104.072 0.229521 78.8076 7.79039 56.2498C15.3513 33.6919 47.7019 13.9413 75.7143 15.0441C103.851 16.2472 127.649 38.2035 137.689 63.4683Z" fill="#E8E8EC"/>
<path d="M113.125 68.5208V94.2488C113.125 101.713 113.125 105.445 110.806 107.763C108.487 110.082 104.755 110.082 97.2917 110.082H77.5V52.6875L113.125 68.5208Z" fill="white"/>
<path d="M77.5 110.083V34.875L41.875 50.7083V94.25C41.875 101.714 41.875 105.446 44.1938 107.765C46.5125 110.083 50.2444 110.083 57.7083 110.083H77.5Z" fill="#F0F5FF"/>
<path fill-rule="evenodd" clip-rule="evenodd" d="M83.2789 30.0889C83.736 31.0945 83.2913 32.2802 82.2858 32.7372L38.7441 52.5289C37.7385 52.986 36.5528 52.5413 36.0958 51.5358C35.6387 50.5302 36.0833 49.3445 37.0889 48.8874L80.6306 29.0958C81.6361 28.6387 82.8218 29.0833 83.2789 30.0889Z" fill="#141B34"/>
<path fill-rule="evenodd" clip-rule="evenodd" d="M77.5 32.875C78.6046 32.875 79.5 33.7704 79.5 34.875V110.083C79.5 111.188 78.6046 112.083 77.5 112.083H57.5621C53.9544 112.083 51.0443 112.083 48.7551 111.776C46.3775 111.456 44.3724 110.772 42.7795 109.179C41.1866 107.586 40.5023 105.581 40.1827 103.203C39.8749 100.914 39.8749 98.0039 39.875 94.3962L39.875 50.7083C39.875 49.6038 40.7704 48.7083 41.875 48.7083C42.9796 48.7083 43.875 49.6038 43.875 50.7083V94.25C43.875 98.0385 43.8793 100.679 44.147 102.67C44.407 104.604 44.8821 105.624 45.608 106.35C46.3338 107.076 47.3541 107.551 49.2881 107.811C51.2797 108.079 53.9198 108.083 57.7083 108.083H75.5V34.875C75.5 33.7704 76.3954 32.875 77.5 32.875Z" fill="#141B34"/>
<path fill-rule="evenodd" clip-rule="evenodd" d="M75.7116 49.814C76.2056 48.8261 77.4069 48.4256 78.3949 48.9196L117.978 68.7113C118.966 69.2052 119.367 70.4066 118.873 71.3945C118.379 72.3825 117.177 72.7829 116.189 72.289L76.606 52.4973C75.6181 52.0033 75.2176 50.802 75.7116 49.814Z" fill="#141B34"/>
<path fill-rule="evenodd" clip-rule="evenodd" d="M113.126 66.521C114.23 66.521 115.126 67.4164 115.126 68.521V94.3952C115.126 98.0029 115.126 100.913 114.818 103.202C114.498 105.58 113.814 107.585 112.221 109.178C110.628 110.771 108.623 111.455 106.245 111.775C103.956 112.082 101.046 112.082 97.4385 112.082H69.584C68.4794 112.082 67.584 111.187 67.584 110.082C67.584 108.978 68.4794 108.082 69.584 108.082H97.2923C101.081 108.082 103.721 108.078 105.712 107.81C107.646 107.55 108.667 107.075 109.393 106.349C110.119 105.623 110.594 104.603 110.854 102.669C111.121 100.678 111.126 98.0374 111.126 94.249V68.521C111.126 67.4164 112.021 66.521 113.126 66.521Z" fill="#141B34"/>
<path fill-rule="evenodd" clip-rule="evenodd" d="M101.25 48.7085C102.355 48.7085 103.25 49.6039 103.25 50.7085V62.5835C103.25 63.6881 102.355 64.5835 101.25 64.5835C100.145 64.5835 99.25 63.6881 99.25 62.5835V50.7085C99.25 49.6039 100.145 48.7085 101.25 48.7085Z" fill="#141B34"/>
<path fill-rule="evenodd" clip-rule="evenodd" d="M55.709 66.5415C55.709 65.4369 56.6044 64.5415 57.709 64.5415H61.6673C62.7719 64.5415 63.6673 65.4369 63.6673 66.5415C63.6673 67.6461 62.7719 68.5415 61.6673 68.5415H57.709C56.6044 68.5415 55.709 67.6461 55.709 66.5415ZM55.709 82.3748C55.709 81.2703 56.6044 80.3748 57.709 80.3748H61.6673C62.7719 80.3748 63.6673 81.2703 63.6673 82.3748C63.6673 83.4794 62.7719 84.3748 61.6673 84.3748H57.709C56.6044 84.3748 55.709 83.4794 55.709 82.3748Z" fill="#0050DC" stroke="#0050DC" stroke-width="3" stroke-linecap="round" stroke-linejoin="round"/>
<path fill-rule="evenodd" clip-rule="evenodd" d="M91.334 78.4165C91.334 77.3119 92.2294 76.4165 93.334 76.4165H97.2923C98.3969 76.4165 99.2923 77.3119 99.2923 78.4165C99.2923 79.5211 98.3969 80.4165 97.2923 80.4165H93.334C92.2294 80.4165 91.334 79.5211 91.334 78.4165Z" fill="#0050DC" stroke="#0050DC" stroke-width="3" stroke-linecap="round" stroke-linejoin="round"/>
<path fill-rule="evenodd" clip-rule="evenodd" d="M95.3125 92.25C96.4171 92.25 97.3125 93.1454 97.3125 94.25V110.083C97.3125 111.188 96.4171 112.083 95.3125 112.083C94.2079 112.083 93.3125 111.188 93.3125 110.083V94.25C93.3125 93.1454 94.2079 92.25 95.3125 92.25Z" fill="#141B34"/>
</svg>
