<svg width="150" height="150" viewBox="0 0 150 150" fill="none" xmlns="http://www.w3.org/2000/svg">
<path d="M143.361 44.2926C151.697 63.7186 138.914 87.727 124.131 105.36C109.347 122.993 92.5619 134.15 69.7747 137.139C47.0987 140.227 18.4202 135.146 7.97144 119.705C-2.58848 104.364 4.85904 78.6616 19.1983 56.1474C33.5376 33.6333 54.5462 14.4066 79.89 12.2149C105.234 10.0233 134.913 24.8667 143.361 44.2926Z" fill="#E8E8EC"/>
<path d="M44.945 99.0562C49.9302 104.042 57.9539 104.042 74.0013 104.042C90.0489 104.042 98.0723 104.042 103.058 99.0562C108.043 94.071 108.043 86.0472 108.043 70C108.043 63.3741 107.694 63.4909 107.342 59.25H39.961C39.6101 63.4909 39.9597 63.3741 39.9597 70C39.9597 86.0472 39.9597 94.071 44.945 99.0562Z" fill="#F0F5FF"/>
<path d="M103.055 40.9438C98.0703 35.9585 90.0465 35.9585 73.9993 35.9585C57.9519 35.9585 49.9282 35.9585 44.9429 40.9438C42.016 43.8706 41.1572 53.2198 40.6582 59.2502H108.04C107.541 53.2198 105.982 43.8706 103.055 40.9438Z" fill="white"/>
<path d="M39.959 70.0002C39.959 53.9528 39.959 45.9291 44.9443 40.9438C49.9296 35.9585 57.9533 35.9585 74.0007 35.9585C90.0479 35.9585 98.0717 35.9585 103.057 40.9438C108.042 45.9291 108.042 53.9528 108.042 70.0002C108.042 86.0474 108.042 94.0712 103.057 99.0567C98.0717 104.042 90.0479 104.042 74.0007 104.042C57.9533 104.042 49.9296 104.042 44.9443 99.0567C39.959 94.0712 39.959 86.0474 39.959 70.0002Z" stroke="#141B34" stroke-width="4"/>
<path d="M39.959 59.25H108.042" stroke="#141B34" stroke-width="4" stroke-linejoin="round"/>
<path d="M77.584 73.5835H91.9173" stroke="#0050DC" stroke-width="6" stroke-linecap="round" stroke-linejoin="round"/>
<path d="M77.584 87.9165H84.7507" stroke="#0050DC" stroke-width="6" stroke-linecap="round" stroke-linejoin="round"/>
<path d="M56.082 48.5H56.1142" stroke="#0050DC" stroke-width="6" stroke-linecap="round" stroke-linejoin="round"/>
<path d="M70.416 48.5H70.4483" stroke="#0050DC" stroke-width="6" stroke-linecap="round" stroke-linejoin="round"/>
<path d="M63.25 59.25V104.042" stroke="#141B34" stroke-width="4" stroke-linecap="round" stroke-linejoin="round"/>
</svg>
