<svg width="150" height="150" viewBox="0 0 150 150" fill="none" xmlns="http://www.w3.org/2000/svg">
<path d="M133.101 34.4055C143.501 49.4055 137.901 76.6055 124.601 97.6055C111.401 118.505 90.7011 133.105 70.6011 132.805C50.5011 132.405 31.1011 116.905 20.7011 97.6055C10.3011 78.3055 8.80113 55.0055 18.5011 40.5055C28.2011 25.9055 49.1011 20.1055 72.7011 18.4055C96.3011 16.8055 122.701 19.5055 133.101 34.4055Z" fill="#E8E8EC"/>
<path d="M107.875 54.875C107.875 60.0527 103.678 64.25 98.5 64.25C93.3224 64.25 89.125 60.0527 89.125 54.875C89.125 49.6973 93.3224 45.5 98.5 45.5C103.678 45.5 107.875 49.6973 107.875 54.875Z" fill="#F0F5FF"/>
<path d="M62.875 54.875C62.875 60.0527 58.6777 64.25 53.5 64.25C48.3223 64.25 44.125 60.0527 44.125 54.875C44.125 49.6973 48.3223 45.5 53.5 45.5C58.6777 45.5 62.875 49.6973 62.875 54.875Z" fill="#F0F5FF"/>
<path d="M44.4392 75.2226C40.6076 77.197 30.5612 81.2286 36.6801 86.2735C39.6692 88.7376 42.9982 90.5001 47.1836 90.5001H71.0665C75.2519 90.5001 78.5807 88.7376 81.5699 86.2735C87.6887 81.2286 77.6425 77.197 73.8107 75.2226C64.8255 70.5925 53.4245 70.5925 44.4392 75.2226Z" fill="white"/>
<path d="M78.1893 75.2226C74.3575 77.197 64.3112 81.2286 70.4301 86.2735C73.4193 88.7376 76.7481 90.5001 80.9335 90.5001H104.817C109.002 90.5001 112.331 88.7376 115.32 86.2735C121.439 81.2286 111.393 77.197 107.561 75.2226C98.5754 70.5925 87.1746 70.5925 78.1893 75.2226Z" fill="white"/>
<path d="M108.903 90.5C111.712 90.5 113.947 88.7319 115.954 86.2591C120.062 81.1978 113.317 77.153 110.745 75.1722C108.13 73.1585 105.21 72.0178 102.25 71.75M98.5 64.25C103.678 64.25 107.875 60.0527 107.875 54.875C107.875 49.6973 103.678 45.5 98.5 45.5" stroke="#001F55" stroke-width="4" stroke-linecap="round"/>
<path d="M43.0973 90.5C40.2875 90.5 38.0525 88.7319 36.0458 86.2591C31.9378 81.1978 38.6825 77.153 41.2549 75.1722C43.8699 73.1585 46.7897 72.0178 49.75 71.75M51.625 64.25C46.4473 64.25 42.25 60.0527 42.25 54.875C42.25 49.6973 46.4473 45.5 51.625 45.5" stroke="#001F55" stroke-width="4" stroke-linecap="round"/>
<path d="M61.3142 79.667C57.4826 82.0363 47.4362 86.8741 53.5551 92.9277C56.5442 95.885 59.8732 98 64.0586 98H87.9415C92.1269 98 95.4557 95.885 98.4449 92.9277C104.564 86.8741 94.5175 82.0363 90.6857 79.667C81.7004 74.111 70.2996 74.111 61.3142 79.667Z" fill="#F0F5FF"/>
<path d="M61.3142 79.667C57.4826 82.0363 47.4362 86.8741 53.5551 92.9277C56.5442 95.885 59.8732 98 64.0586 98H87.9415C92.1269 98 95.4557 95.885 98.4449 92.9277C104.564 86.8741 94.5175 82.0363 90.6857 79.667C81.7004 74.111 70.2996 74.111 61.3142 79.667Z" stroke="#001F55" stroke-width="4" stroke-linecap="round" stroke-linejoin="round"/>
<path d="M89.125 51.125C89.125 58.3737 83.2487 64.25 76 64.25C68.7513 64.25 62.875 58.3737 62.875 51.125C62.875 43.8763 68.7513 38 76 38C83.2487 38 89.125 43.8763 89.125 51.125Z" fill="white"/>
<path d="M89.125 51.125C89.125 58.3737 83.2487 64.25 76 64.25C68.7513 64.25 62.875 58.3737 62.875 51.125C62.875 43.8763 68.7513 38 76 38C83.2487 38 89.125 43.8763 89.125 51.125Z" stroke="#0050DC" stroke-width="3"/>
</svg>
