<svg width="500" height="500" viewBox="0 0 500 500" fill="none" xmlns="http://www.w3.org/2000/svg">
<path d="M500 382.4H0V382.65H500V382.4Z" fill="#AAC9FF"/>
<path d="M449.9 398.49H416.78V398.74H449.9V398.49Z" fill="#AAC9FF"/>
<path d="M331.22 401.21H322.53V401.46H331.22V401.21Z" fill="#AAC9FF"/>
<path d="M415.78 389.21H396.59V389.46H415.78V389.21Z" fill="#AAC9FF"/>
<path d="M95.65 390.89H52.46V391.14H95.65V390.89Z" fill="#AAC9FF"/>
<path d="M110.89 390.89H104.56V391.14H110.89V390.89Z" fill="#AAC9FF"/>
<path d="M225.15 395.11H131.47V395.36H225.15V395.11Z" fill="#AAC9FF"/>
<path d="M237 337.8H43.91C42.3973 337.797 40.9475 337.195 39.8788 336.124C38.8102 335.054 38.21 333.603 38.21 332.09V60.66C38.2231 59.156 38.8292 57.718 39.8964 56.6582C40.9637 55.5985 42.4059 55.0026 43.91 55H237C238.514 55 239.967 55.6016 241.038 56.6724C242.108 57.7433 242.71 59.1956 242.71 60.71V332.09C242.71 333.604 242.108 335.057 241.038 336.128C239.967 337.198 238.514 337.8 237 337.8ZM43.91 55.2C42.4636 55.2026 41.0774 55.7791 40.0556 56.8027C39.0338 57.8264 38.46 59.2136 38.46 60.66V332.09C38.46 333.536 39.0338 334.924 40.0556 335.947C41.0774 336.971 42.4636 337.547 43.91 337.55H237C238.447 337.547 239.834 336.971 240.858 335.948C241.881 334.924 242.457 333.537 242.46 332.09V60.66C242.457 59.2127 241.881 57.8255 240.858 56.8021C239.834 55.7787 238.447 55.2026 237 55.2H43.91Z" fill="#AAC9FF"/>
<path d="M453.31 337.8H260.21C258.696 337.797 257.246 337.195 256.175 336.125C255.105 335.054 254.503 333.604 254.5 332.09V60.66C254.516 59.1551 255.124 57.7171 256.193 56.6576C257.262 55.5981 258.705 55.0025 260.21 55H453.31C454.812 55.0052 456.252 55.6022 457.317 56.6617C458.382 57.7212 458.987 59.1578 459 60.66V332.09C459 333.601 458.401 335.05 457.335 336.121C456.268 337.191 454.821 337.795 453.31 337.8ZM260.21 55.2C258.763 55.2026 257.375 55.7787 256.352 56.8021C255.329 57.8255 254.753 59.2127 254.75 60.66V332.09C254.753 333.537 255.329 334.924 256.352 335.948C257.375 336.971 258.763 337.547 260.21 337.55H453.31C454.757 337.547 456.145 336.971 457.168 335.948C458.191 334.924 458.767 333.537 458.77 332.09V60.66C458.767 59.2127 458.191 57.8255 457.168 56.8021C456.145 55.7787 454.757 55.2026 453.31 55.2H260.21Z" fill="#AAC9FF"/>
<path d="M445.3 265.26H413.37V382.39H445.3V265.26Z" fill="#5B96FF"/>
<path d="M439.69 382.4H445.3V366.45H433.81L439.69 382.4Z" fill="#AAC9FF"/>
<path d="M308.15 265.26H276.22V382.39H308.15V265.26Z" fill="#5B96FF"/>
<path d="M445.3 265.26H303.26V372.61H445.3V265.26Z" fill="#AAC9FF"/>
<path d="M426.23 300H322.32C318.272 300 314.391 298.393 311.529 295.531C308.667 292.669 307.06 288.788 307.06 284.74C307.06 280.693 308.667 276.812 311.529 273.95C314.391 271.088 318.272 269.48 322.32 269.48H347.08C349.088 269.479 351.077 269.876 352.931 270.648C354.784 271.421 356.467 272.553 357.88 273.98C360.88 276.98 364.42 278.63 367.98 278.63H380.58C383.303 278.593 385.947 277.713 388.15 276.11C389.011 275.512 389.82 274.843 390.57 274.11C393.458 271.192 397.384 269.535 401.49 269.5H426.23C430.273 269.506 434.148 271.114 437.007 273.973C439.866 276.832 441.474 280.708 441.48 284.75C441.474 288.793 439.866 292.669 437.007 295.528C434.148 298.387 430.273 299.995 426.23 300ZM322.32 270.55C318.556 270.55 314.947 272.045 312.286 274.707C309.625 277.368 308.13 280.977 308.13 284.74C308.13 288.504 309.625 292.113 312.286 294.774C314.947 297.435 318.556 298.93 322.32 298.93H426.23C429.989 298.925 433.592 297.43 436.25 294.771C438.909 292.113 440.404 288.51 440.41 284.75C440.407 280.991 438.912 277.385 436.253 274.727C433.595 272.068 429.99 270.573 426.23 270.57H401.49C397.665 270.608 394.01 272.153 391.32 274.87C390.535 275.658 389.682 276.374 388.77 277.01C386.385 278.737 383.524 279.684 380.58 279.72H368C364.15 279.72 360.39 278 357.14 274.72C355.83 273.4 354.272 272.351 352.556 271.634C350.84 270.916 349 270.545 347.14 270.54L322.32 270.55Z" fill="#5B96FF"/>
<path d="M308.87 382.4H303.26V366.45H314.75L308.87 382.4Z" fill="#AAC9FF"/>
<path d="M426.23 334.2H322.32C318.272 334.2 314.391 332.592 311.529 329.73C308.667 326.868 307.06 322.987 307.06 318.94C307.06 314.893 308.667 311.011 311.529 308.149C314.391 305.287 318.272 303.68 322.32 303.68H347.08C349.088 303.677 351.077 304.073 352.931 304.846C354.785 305.618 356.467 306.752 357.88 308.18C360.88 311.18 364.42 312.83 367.98 312.83H380.58C383.303 312.793 385.947 311.912 388.15 310.31C389.008 309.712 389.814 309.043 390.56 308.31C393.448 305.385 397.379 303.723 401.49 303.69H426.23C430.273 303.695 434.148 305.303 437.007 308.162C439.866 311.021 441.474 314.897 441.48 318.94C441.477 322.984 439.87 326.863 437.011 329.724C434.152 332.585 430.274 334.194 426.23 334.2ZM322.32 304.75C318.556 304.75 314.947 306.245 312.286 308.906C309.625 311.567 308.13 315.176 308.13 318.94C308.13 322.703 309.625 326.312 312.286 328.974C314.947 331.635 318.556 333.13 322.32 333.13H426.23C429.98 333.124 433.576 331.636 436.233 328.988C438.89 326.341 440.391 322.75 440.41 319C440.404 315.241 438.909 311.637 436.25 308.979C433.592 306.321 429.989 304.825 426.23 304.82H401.49C397.66 304.854 393.999 306.403 391.31 309.13C390.524 309.909 389.674 310.622 388.77 311.26C386.385 312.986 383.524 313.933 380.58 313.97H368C364.15 313.97 360.39 312.25 357.14 308.97C355.83 307.649 354.272 306.6 352.556 305.883C350.84 305.165 349 304.794 347.14 304.79L322.32 304.75Z" fill="#5B96FF"/>
<path d="M426.23 368.39H322.32C318.341 368.288 314.56 366.636 311.783 363.786C309.005 360.937 307.45 357.114 307.45 353.135C307.45 349.155 309.005 345.333 311.783 342.483C314.56 339.634 318.341 337.982 322.32 337.88H347.09C349.095 337.879 351.082 338.275 352.934 339.046C354.786 339.816 356.467 340.946 357.88 342.37C360.88 345.37 364.42 347.02 367.98 347.02H380.58C383.303 346.983 385.947 346.102 388.15 344.5C389.011 343.902 389.82 343.233 390.57 342.5C393.458 339.589 397.379 337.936 401.48 337.9H426.23C430.208 338.002 433.989 339.654 436.767 342.503C439.544 345.353 441.099 349.175 441.099 353.155C441.099 357.134 439.544 360.957 436.767 363.806C433.989 366.656 430.208 368.308 426.23 368.41V368.39ZM322.32 339C318.559 339 314.952 340.494 312.293 343.153C309.634 345.812 308.14 349.419 308.14 353.18C308.14 356.941 309.634 360.547 312.293 363.207C314.952 365.866 318.559 367.36 322.32 367.36H426.23C429.99 367.36 433.597 365.866 436.256 363.207C438.916 360.547 440.41 356.941 440.41 353.18C440.41 349.419 438.916 345.812 436.256 343.153C433.597 340.494 429.99 339 426.23 339H401.48C397.658 339.035 394.006 340.581 391.32 343.3C390.53 344.079 389.677 344.792 388.77 345.43C386.385 347.157 383.524 348.103 380.58 348.14H368C364.15 348.14 360.39 346.43 357.14 343.14C355.831 341.818 354.274 340.768 352.557 340.051C350.841 339.333 349 338.963 347.14 338.96L322.32 339Z" fill="#5B96FF"/>
<path d="M154.96 263.57H69.1396L74.4996 382.43H160.32L154.96 263.57Z" fill="#AAC9FF"/>
<path d="M156.21 263.57H70.3896L75.7396 382.43H161.56L156.21 263.57Z" fill="#D1E2FF"/>
<path d="M111.38 382.4H143.05V344.45H111.38V382.4Z" fill="#AAC9FF"/>
<path d="M258.79 344.45H143.05V382.4H258.79V344.45Z" fill="#D1E2FF"/>
<g style="mix-blend-mode:multiply" opacity="0.7">
<path d="M111.38 351.91H259.12V349.31H111.38V351.91Z" fill="#5B96FF"/>
</g>
<path d="M109.63 350.4H143.05V342.87H109.63V350.4Z" fill="#AAC9FF"/>
<path d="M260.54 342.88H143.05V350.41H260.54V342.88Z" fill="#D1E2FF"/>
<path d="M121.89 342.88H170V303.13H121.89V342.88Z" fill="#5B96FF"/>
<path d="M228.78 303.12H170V342.87H228.78V303.12Z" fill="#AAC9FF"/>
<g style="mix-blend-mode:multiply" opacity="0.7">
<path d="M121.89 314.46H229.28V310.51H121.89V314.46Z" fill="#5B96FF"/>
</g>
<path d="M119.23 312.17H170V293.98H119.23V312.17Z" fill="#5B96FF"/>
<path d="M231.43 293.98H170V312.17H231.43V293.98Z" fill="#AAC9FF"/>
<path d="M250 427.56C357.083 427.56 443.89 422.492 443.89 416.24C443.89 409.988 357.083 404.92 250 404.92C142.918 404.92 56.1104 409.988 56.1104 416.24C56.1104 422.492 142.918 427.56 250 427.56Z" fill="#0042B5"/>
<path opacity="0.6" d="M376 281.22L124.3 283.33C114.71 234.04 110.3 189.33 102.02 139.91C186.29 142.16 266.1 139.71 350.37 141.96C358.25 188.46 366.793 234.88 376 281.22Z" fill="#407BFF"/>
<path d="M125.74 281.791C125.678 281.792 125.619 281.771 125.571 281.733C125.524 281.694 125.491 281.64 125.48 281.581C120.01 253.431 116.18 226.101 112.48 199.661C109.86 180.941 107.15 161.581 103.85 141.791C103.842 141.752 103.843 141.713 103.853 141.676C103.863 141.638 103.881 141.603 103.906 141.573C103.93 141.544 103.962 141.52 103.997 141.504C104.032 141.488 104.071 141.48 104.11 141.481L348.88 143.481C348.941 143.483 349 143.507 349.047 143.546C349.094 143.586 349.126 143.64 349.14 143.701C356.8 188.771 365.19 234.451 374.07 279.451C374.079 279.489 374.08 279.528 374.071 279.566C374.062 279.605 374.045 279.64 374.02 279.671C373.996 279.701 373.966 279.726 373.931 279.743C373.896 279.76 373.858 279.77 373.82 279.771L125.74 281.841V281.791ZM104.42 142.001C107.7 161.701 110.42 181.001 113 199.581C116.69 225.941 120.51 253.191 126 281.261L373.54 279.181C364.68 234.351 356.33 188.851 348.7 143.951L104.42 142.001Z" fill="#FAFAFA"/>
<path opacity="0.5" d="M301.93 261.27C295.076 227.443 288.563 193.573 282.39 159.66L339.96 160.38C346.073 193.813 352.516 227.2 359.29 260.54L301.93 261.27Z" fill="#FAFAFA"/>
<path d="M291.116 166.567L291.104 167.617L313.213 167.856L313.225 166.806L291.116 166.567Z" fill="#FAFAFA"/>
<path d="M291.624 169.381L291.613 170.431L308.572 170.602L308.583 169.552L291.624 169.381Z" fill="#FAFAFA"/>
<path opacity="0.7" d="M328.94 168.94C328.64 167.32 329.56 166.03 331 166.04C331.782 166.12 332.515 166.459 333.084 167.002C333.652 167.545 334.024 168.262 334.14 169.04C334.44 170.66 333.519 171.95 332.079 171.94C331.296 171.863 330.561 171.526 329.992 170.982C329.423 170.438 329.052 169.719 328.94 168.94Z" fill="#407BFF"/>
<path opacity="0.7" d="M327.839 168.93C327.419 166.64 328.729 164.79 330.779 164.82C331.882 164.926 332.918 165.394 333.725 166.153C334.532 166.911 335.065 167.916 335.239 169.01C335.659 171.3 334.349 173.13 332.309 173.12C331.205 173.016 330.166 172.548 329.357 171.79C328.548 171.031 328.014 170.025 327.839 168.93Z" fill="#407BFF"/>
<path opacity="0.7" d="M296.87 197.78C295.483 190.447 294.113 183.13 292.76 175.83L335.48 176.19C336.813 183.43 338.176 190.67 339.57 197.91L296.87 197.78Z" fill="#407BFF"/>
<path d="M333.71 177.581C333.941 177.605 334.157 177.705 334.327 177.863C334.497 178.022 334.61 178.232 334.65 178.461C335.723 184.201 336.803 189.941 337.89 195.681C337.911 195.78 337.912 195.882 337.893 195.982C337.874 196.081 337.836 196.176 337.78 196.261C337.728 196.337 337.658 196.399 337.575 196.441C337.493 196.483 337.402 196.503 337.31 196.501L298.64 196.361C298.407 196.338 298.188 196.24 298.017 196.081C297.845 195.922 297.73 195.711 297.69 195.481C296.59 189.681 295.503 183.884 294.43 178.091C294.407 177.99 294.404 177.887 294.421 177.786C294.438 177.684 294.475 177.587 294.53 177.501C294.585 177.425 294.657 177.363 294.74 177.322C294.824 177.28 294.916 177.259 295.01 177.261L333.71 177.581ZM333.65 177.131L294.94 176.811C294.787 176.817 294.637 176.859 294.502 176.933C294.368 177.007 294.252 177.11 294.164 177.236C294.076 177.362 294.018 177.506 293.995 177.658C293.972 177.809 293.984 177.964 294.03 178.111C295.11 183.911 296.2 189.707 297.3 195.501C297.354 195.844 297.521 196.159 297.775 196.396C298.028 196.633 298.354 196.779 298.7 196.811L337.37 196.941C337.522 196.933 337.67 196.892 337.804 196.818C337.937 196.745 338.052 196.643 338.14 196.518C338.228 196.394 338.286 196.251 338.31 196.1C338.335 195.95 338.324 195.796 338.28 195.651C337.193 189.917 336.113 184.181 335.04 178.441C334.986 178.099 334.82 177.785 334.569 177.548C334.317 177.311 333.994 177.164 333.65 177.131Z" fill="#FAFAFA"/>
<path opacity="0.2" d="M311.289 189.22C310.879 187.04 312.119 185.27 314.059 185.29C315.111 185.392 316.098 185.84 316.867 186.564C317.637 187.288 318.144 188.247 318.309 189.29C318.719 191.48 317.479 193.29 315.549 193.23C314.495 193.128 313.505 192.679 312.734 191.953C311.963 191.227 311.455 190.266 311.289 189.22Z" fill="#001436"/>
<path opacity="0.2" d="M300.56 184.771C300.15 182.581 301.39 180.771 303.33 180.771C304.379 180.878 305.364 181.327 306.133 182.05C306.901 182.773 307.409 183.729 307.58 184.771C307.99 186.961 306.75 188.721 304.82 188.721C303.776 188.617 302.795 188.174 302.026 187.461C301.257 186.748 300.742 185.803 300.56 184.771Z" fill="#001436"/>
<path opacity="0.2" d="M318.999 184.09C318.589 181.9 319.829 180.09 321.759 180.16C322.81 180.264 323.797 180.713 324.566 181.436C325.334 182.16 325.842 183.118 326.009 184.16C326.419 186.34 325.189 188.1 323.249 188.09C322.198 187.988 321.21 187.54 320.441 186.816C319.672 186.092 319.165 185.133 318.999 184.09Z" fill="#001436"/>
<path opacity="0.7" d="M307.22 250.8C304.74 238.44 302.307 226.077 299.92 213.71H342.59C344.963 225.95 347.377 238.183 349.83 250.41L307.22 250.8Z" fill="#407BFF"/>
<path opacity="0.1" d="M306.07 229L304.81 222.58L341.15 222.47C341.56 224.59 341.98 226.71 342.39 228.83L306.07 229Z" fill="#001436"/>
<path opacity="0.1" d="M309.609 246.93C309.179 244.79 308.759 242.65 308.329 240.51L344.639 240.24C345.059 242.36 345.489 244.48 345.909 246.6L309.609 246.93Z" fill="#001436"/>
<path opacity="0.1" d="M307.83 238.001C307.41 235.861 306.986 233.721 306.56 231.581L342.89 231.391C343.303 233.511 343.72 235.631 344.14 237.751L307.83 238.001Z" fill="#001436"/>
<path d="M297.79 202.092L297.788 203.142L326.718 203.197L326.72 202.147L297.79 202.092Z" fill="#FAFAFA"/>
<path d="M321.369 206.23H298.579V207.28H321.369V206.23Z" fill="#FAFAFA"/>
<path d="M219.269 262.83L219.179 262.4C212.269 228.07 205.599 193.18 199.349 158.72L199.239 158.09L257.879 158.82L257.959 159.25C264.129 193.25 270.729 227.6 277.579 261.47L277.699 262.1L219.269 262.83ZM200.499 159.16C206.689 193.27 213.289 227.79 220.129 261.77L276.419 261.06C269.649 227.52 263.109 193.48 256.999 159.87L200.499 159.16Z" fill="#FAFAFA"/>
<path d="M208.275 164.16L208.264 165.21L219.673 165.337L219.685 164.287L208.275 164.16Z" fill="#FAFAFA"/>
<path d="M208.788 166.971L208.777 168.021L217.527 168.112L217.538 167.062L208.788 166.971Z" fill="#FAFAFA"/>
<path d="M249.619 171.621C248.711 171.54 247.856 171.157 247.191 170.533C246.526 169.91 246.089 169.082 245.949 168.181C245.847 167.713 245.849 167.228 245.956 166.761C246.063 166.294 246.273 165.857 246.569 165.481C246.817 165.195 247.124 164.968 247.47 164.816C247.816 164.663 248.192 164.59 248.569 164.601C249.476 164.684 250.328 165.067 250.991 165.691C251.655 166.314 252.09 167.141 252.229 168.041C252.331 168.506 252.329 168.989 252.224 169.454C252.118 169.918 251.912 170.354 251.619 170.731C251.377 171.023 251.071 171.256 250.724 171.41C250.377 171.565 249.999 171.637 249.619 171.621ZM246.999 168.001C247.102 168.658 247.414 169.265 247.89 169.73C248.366 170.195 248.98 170.493 249.639 170.581C249.855 170.586 250.069 170.542 250.265 170.452C250.461 170.362 250.633 170.228 250.769 170.061C250.964 169.804 251.098 169.508 251.164 169.193C251.23 168.879 251.225 168.553 251.149 168.241C251.044 167.584 250.731 166.979 250.255 166.515C249.78 166.05 249.168 165.751 248.509 165.661C248.292 165.654 248.075 165.696 247.876 165.784C247.677 165.873 247.5 166.005 247.359 166.171C247.17 166.431 247.04 166.73 246.978 167.046C246.916 167.362 246.923 167.688 246.999 168.001Z" fill="#FAFAFA"/>
<path d="M257.79 198.18L214 198L213.92 197.57C212.507 190.11 211.113 182.643 209.74 175.17L209.63 174.55L253.42 174.92L253.5 175.35C254.867 182.743 256.25 190.13 257.65 197.51L257.79 198.18ZM214.9 197L256.52 197.13C255.187 190.096 253.87 183.06 252.57 176.02L210.91 175.66C212.23 182.773 213.56 189.886 214.9 197Z" fill="#FAFAFA"/>
<path d="M214.719 198L214.199 197.09C226.919 189.72 239.889 182.31 252.749 175.09L253.259 176C240.409 183.2 227.449 190.61 214.719 198Z" fill="#FAFAFA"/>
<path d="M256.92 198.13C241.35 190.72 225.58 183.13 210.05 175.59L210.51 174.65C226.04 182.19 241.81 189.77 257.38 197.17L256.92 198.13Z" fill="#FAFAFA"/>
<path d="M224.53 252.15L224.45 251.72C221.94 239.18 219.45 226.45 217.04 213.87L216.92 213.25H260.66L260.74 213.68C263.14 226.15 265.61 238.75 268.09 251.13L268.21 251.76L224.53 252.15ZM218.19 214.3C220.54 226.52 222.96 238.9 225.39 251.09L266.93 250.68C264.53 238.68 262.12 226.39 259.79 214.27L218.19 214.3Z" fill="#FAFAFA"/>
<path d="M225.349 252L224.569 251.29C236.159 238.64 248.029 225.9 259.839 213.4L260.609 214.12C248.799 226.6 236.929 239.34 225.349 252Z" fill="#FAFAFA"/>
<path d="M267.26 251.621C250.6 239.311 233.77 226.721 217.26 214.191L217.89 213.351C234.43 225.881 251.25 238.471 267.89 250.771L267.26 251.621Z" fill="#FAFAFA"/>
<path d="M215.392 201.931L215.39 202.981L244.32 203.037L244.322 201.987L215.392 201.931Z" fill="#FAFAFA"/>
<path d="M238.989 206.15H216.199V207.2H238.989V206.15Z" fill="#FAFAFA"/>
<g opacity="0.6">
<path d="M117.879 157.06C122.979 184.773 128.312 212.44 133.879 240.06C135.399 247.64 136.932 255.223 138.479 262.81C138.669 263.71 139.869 263.7 139.679 262.81C134.032 235.19 128.592 207.523 123.359 179.81C121.932 172.223 120.516 164.63 119.109 157.03C118.939 156.12 117.739 156.1 117.909 157.03L117.879 157.06Z" fill="#FAFAFA"/>
<path d="M136.879 261.56C152.385 261.314 167.909 261.177 183.449 261.15C187.829 261.15 192.212 261.15 196.599 261.15C197.379 261.15 197.169 259.75 196.389 259.75C180.842 259.704 165.309 259.767 149.789 259.94C145.409 259.987 141.035 260.047 136.669 260.12C135.899 260.12 136.109 261.56 136.879 261.54V261.56Z" fill="#FAFAFA"/>
<path d="M196.319 260.81C190.732 233.55 185.352 206.267 180.179 178.96C178.726 171.473 177.332 163.983 175.999 156.49C175.829 155.59 174.629 155.57 174.789 156.49C179.849 183.823 185.116 211.13 190.589 238.41C192.089 245.89 193.606 253.367 195.139 260.84C195.329 261.74 196.529 261.72 196.339 260.84L196.319 260.81Z" fill="#FAFAFA"/>
<path d="M177.519 157.79C161.959 157.664 146.386 157.414 130.799 157.04C126.399 156.934 121.999 156.817 117.599 156.69C116.819 156.69 117.009 158.09 117.779 158.11C133.379 158.55 148.966 158.864 164.539 159.05C168.932 159.11 173.322 159.157 177.709 159.19C178.479 159.19 178.299 157.8 177.519 157.79Z" fill="#FAFAFA"/>
<path d="M134.759 206L162.109 205.39L169.359 205.23C170.129 205.23 169.939 203.82 169.169 203.83L141.009 204.44L134.569 204.59C133.799 204.59 133.989 206.02 134.759 206Z" fill="#FAFAFA"/>
<path d="M127.379 167.11L143.089 166.91C143.859 166.91 143.679 165.49 142.909 165.5L127.189 165.7C126.429 165.7 126.609 167.12 127.379 167.11Z" fill="#FAFAFA"/>
<path d="M143.999 253.82C156.239 254.07 168.319 253.12 180.479 252.82C183.479 252.75 186.419 252.71 189.409 252.77C190.179 252.77 189.969 251.38 189.199 251.37C176.949 251.12 164.869 252.05 152.709 252.37C149.709 252.44 146.769 252.49 143.789 252.43C143.009 252.43 143.219 253.83 143.999 253.84V253.82Z" fill="#FAFAFA"/>
<path d="M136.909 217C151.649 216.62 166.409 216.38 181.129 215.9L180.429 215.2C182.919 227.57 185.559 239.93 187.839 252.31C187.999 253.2 189.199 253.2 189.029 252.31C186.749 239.93 184.119 227.58 181.629 215.21C181.609 215.031 181.529 214.864 181.402 214.737C181.275 214.609 181.108 214.529 180.929 214.51C166.209 214.99 151.449 215.22 136.709 215.59C135.939 215.59 136.139 217.03 136.909 217.01V217Z" fill="#FAFAFA"/>
<path d="M144.289 253.72C154.079 243.91 163.559 233.72 173.289 223.87C175.979 221.16 178.669 218.48 181.409 215.87C181.949 215.34 181.179 214.13 180.629 214.66C170.629 224.31 161.019 234.53 151.279 244.58C148.699 247.25 146.109 249.91 143.489 252.53C142.949 253.07 143.729 254.29 144.279 253.74L144.289 253.72Z" fill="#FAFAFA"/>
<path d="M188.789 252.44C174.959 243.36 161.569 233.15 147.949 223.44C144.249 220.81 140.539 218.21 136.779 215.69C136.059 215.21 135.629 216.44 136.349 216.92C150.269 226.24 163.769 236.55 177.509 246.21C181.099 248.74 184.709 251.21 188.369 253.63C189.089 254.1 189.509 252.89 188.789 252.41V252.44Z" fill="#FAFAFA"/>
<path d="M136.219 215C138.359 227.71 140.569 240.45 143.289 253.12C143.489 254.02 144.679 254.02 144.489 253.12C141.759 240.45 139.549 227.72 137.419 215C137.269 214.1 136.069 214.09 136.219 215Z" fill="#FAFAFA"/>
<path d="M133.179 199.06C145.409 199.21 157.539 198.63 169.719 198.46C172.719 198.46 175.659 198.39 178.649 198.46C179.419 198.46 179.229 197.07 178.449 197.06C166.219 196.89 154.089 197.47 141.899 197.64C138.899 197.64 135.959 197.71 132.979 197.64C132.209 197.64 132.409 199.05 133.179 199.06Z" fill="#FAFAFA"/>
<path d="M129.109 176.34C143.869 176.1 158.639 175.96 173.389 175.67L172.699 174.97C174.189 182.6 175.819 190.24 177.059 197.89C177.199 198.78 178.399 198.8 178.259 197.89C177.019 190.24 175.389 182.61 173.899 174.98C173.819 174.6 173.539 174.26 173.199 174.27C158.449 174.56 143.679 174.7 128.919 174.92C128.149 174.92 128.329 176.35 129.109 176.34Z" fill="#FAFAFA"/>
<path d="M133.469 199C144.029 193 154.409 186.64 164.929 180.57C167.829 178.9 170.749 177.24 173.679 175.62C174.329 175.26 173.559 174.04 172.909 174.4C162.199 180.32 151.709 186.66 141.149 192.88C138.339 194.52 135.519 196.17 132.689 197.78C132.039 198.15 132.819 199.37 133.469 199Z" fill="#FAFAFA"/>
<path d="M177.809 197.651C164.929 192.111 152.209 185.721 139.409 179.751C135.889 178.111 132.409 176.501 128.839 174.951C128.069 174.621 127.939 175.951 128.699 176.311C141.699 181.991 154.509 188.441 167.419 194.401C170.832 195.981 174.252 197.514 177.679 199.001C178.439 199.331 178.559 198.001 177.809 197.651Z" fill="#FAFAFA"/>
<path d="M128.529 174.8C129.649 182.64 130.829 190.53 132.479 198.35C132.669 199.25 133.869 199.26 133.679 198.35C132.029 190.54 130.849 182.65 129.679 174.81C129.549 173.9 128.349 173.89 128.479 174.81L128.529 174.8Z" fill="#FAFAFA"/>
<path d="M167.169 162.18C166.509 162.203 165.883 162.478 165.42 162.948C164.956 163.419 164.691 164.049 164.679 164.71C164.637 165.52 164.786 166.328 165.114 167.07C165.443 167.812 165.941 168.466 166.569 168.98C167.085 169.397 167.731 169.619 168.395 169.608C169.058 169.598 169.697 169.354 170.199 168.92C170.682 168.477 171.046 167.92 171.256 167.299C171.466 166.678 171.515 166.015 171.399 165.37C171.323 164.924 171.153 164.499 170.899 164.125C170.646 163.751 170.315 163.435 169.929 163.2C169.249 162.77 168.339 162.28 167.649 162.56C167.494 162.633 167.375 162.765 167.317 162.926C167.259 163.087 167.267 163.264 167.339 163.42C167.469 163.77 167.849 164.04 168.139 163.91C168.429 163.78 169.039 164.14 169.369 164.34C169.559 164.426 169.728 164.552 169.866 164.709C170.004 164.866 170.107 165.05 170.169 165.25C170.268 165.664 170.262 166.097 170.152 166.509C170.042 166.921 169.831 167.299 169.539 167.61C169.272 167.906 168.915 168.107 168.523 168.181C168.131 168.256 167.725 168.199 167.369 168.02C166.938 167.732 166.579 167.349 166.32 166.899C166.062 166.45 165.911 165.947 165.879 165.43C165.844 165.21 165.854 164.986 165.911 164.771C165.967 164.556 166.068 164.355 166.206 164.181C166.344 164.006 166.517 163.863 166.714 163.76C166.911 163.656 167.127 163.595 167.349 163.58C168.129 163.58 167.939 162.19 167.169 162.18Z" fill="#FAFAFA"/>
</g>
<path d="M198.09 147.32C194.34 147.26 191.46 150.46 191.38 154.73C191.3 159 193.87 164.28 197.66 166.33C199.32 167.21 201.24 167.469 203.074 167.058C204.907 166.647 206.534 165.595 207.66 164.09C209.78 161.42 210.96 156.45 208.66 152.71C208.078 151.759 207.309 150.936 206.401 150.289C205.492 149.643 204.462 149.188 203.372 148.951C202.283 148.713 201.156 148.699 200.061 148.909C198.966 149.118 197.925 149.547 197 150.17C196.39 150.61 197.15 151.83 197.77 151.39C199.158 150.423 200.85 149.991 202.532 150.175C204.214 150.359 205.773 151.146 206.92 152.39C209.49 155.3 208.83 159.74 207.18 162.31C206.417 163.614 205.257 164.639 203.87 165.236C202.483 165.833 200.941 165.972 199.47 165.63C195.98 164.73 193.26 160.5 192.7 156.63C192.06 152.3 194.45 148.58 198.26 148.63C199.03 148.63 198.85 147.25 198.08 147.24L198.09 147.32Z" fill="#FAFAFA"/>
<path d="M254.77 233.35C258.77 239.87 266.23 242.8 271.94 240.35C277.87 237.81 281.88 230.21 280.4 222.45C278.97 215 272.61 208.92 266.32 206.79C260.5 204.79 252.62 205.79 250.32 212.13C247.68 219.55 253.2 229.24 259.65 233.27C260.38 233.72 260.81 232.53 260.09 232.08C257.285 230.295 254.982 227.824 253.4 224.9C251.81 222.02 250.58 218.62 250.87 215.48C251.51 208.35 258.56 206.31 264.35 207.61C267.465 208.382 270.356 209.876 272.788 211.971C275.22 214.066 277.125 216.703 278.35 219.67C281.24 226.8 278.23 234.62 273.25 238.02C267.88 241.68 259.92 239.54 255.69 232.64C255.22 231.87 254.28 232.57 254.76 233.34L254.77 233.35Z" fill="#FAFAFA"/>
<path d="M189.419 204C191.98 203.526 194.59 203.371 197.189 203.54C197.969 203.59 197.779 202.19 196.999 202.15C194.295 201.982 191.581 202.154 188.919 202.66C188.609 202.72 188.489 203.18 188.619 203.51C188.666 203.678 188.775 203.821 188.923 203.912C189.071 204.003 189.249 204.035 189.419 204Z" fill="#FAFAFA"/>
<path d="M195.079 199.85C198.126 201.031 201.101 202.39 203.989 203.92C203.939 203.52 203.879 203.12 203.819 202.72L198.199 205.72C197.929 205.87 197.929 206.38 198.119 206.72C198.159 206.793 198.213 206.858 198.278 206.91C198.342 206.962 198.417 207.001 198.497 207.024C198.577 207.048 198.661 207.055 198.743 207.046C198.826 207.036 198.906 207.011 198.979 206.97L204.599 203.97C204.979 203.77 204.839 202.97 204.429 202.77C201.44 201.186 198.361 199.777 195.209 198.55C194.439 198.25 194.309 199.6 195.079 199.9V199.85Z" fill="#FAFAFA"/>
<path d="M270.909 204.1C273.471 203.634 276.081 203.482 278.679 203.65C279.459 203.65 279.269 202.33 278.489 202.28C275.786 202.119 273.073 202.287 270.409 202.78C270.099 202.84 269.979 203.29 270.109 203.62C270.16 203.784 270.27 203.924 270.418 204.013C270.565 204.101 270.74 204.132 270.909 204.1Z" fill="#FAFAFA"/>
<path d="M276.579 200.05C279.618 201.216 282.59 202.552 285.479 204.05C285.429 203.66 285.369 203.27 285.319 202.87L279.689 205.87C279.409 206.02 279.419 206.51 279.599 206.8C279.681 206.946 279.817 207.054 279.978 207.101C280.139 207.148 280.312 207.129 280.459 207.05L286.079 204.05C286.459 203.85 286.329 203.05 285.919 202.88C282.936 201.323 279.864 199.94 276.719 198.74C275.939 198.45 275.809 199.74 276.579 200.05Z" fill="#FAFAFA"/>
<path d="M431.651 388.16C431.75 388.175 431.851 388.175 431.951 388.16C433.001 388.16 434.161 386.53 434.761 385.59C434.782 385.557 434.794 385.519 434.794 385.48C434.794 385.441 434.782 385.402 434.761 385.37C434.738 385.34 434.707 385.316 434.672 385.302C434.636 385.288 434.598 385.284 434.561 385.29C434.231 385.37 431.291 386.02 430.921 387.01C430.879 387.118 430.868 387.235 430.887 387.35C430.906 387.464 430.956 387.571 431.031 387.66C431.17 387.896 431.39 388.074 431.651 388.16ZM434.161 385.82C433.321 387.05 432.501 387.82 431.941 387.82C431.818 387.822 431.697 387.792 431.589 387.733C431.482 387.673 431.393 387.586 431.331 387.48C431.296 387.443 431.273 387.397 431.264 387.347C431.255 387.297 431.261 387.246 431.281 387.2C431.471 386.66 433.001 386.11 434.161 385.82Z" fill="#407BFF"/>
<path d="M432.05 385.609C432.899 385.829 433.787 385.86 434.65 385.7C434.681 385.689 434.71 385.67 434.733 385.646C434.755 385.622 434.772 385.592 434.78 385.559C434.796 385.532 434.804 385.501 434.804 385.469C434.804 385.438 434.796 385.407 434.78 385.379C434.71 385.309 433.08 383.669 431.88 383.739C431.726 383.741 431.575 383.778 431.438 383.847C431.301 383.917 431.182 384.017 431.09 384.14C430.979 384.251 430.91 384.397 430.893 384.554C430.877 384.71 430.915 384.867 431 384.999C431.278 385.307 431.645 385.52 432.05 385.609ZM434.18 385.399C433.18 385.519 431.59 385.249 431.28 384.779C431.28 384.699 431.19 384.589 431.35 384.379C431.41 384.302 431.488 384.239 431.576 384.196C431.664 384.153 431.761 384.13 431.86 384.129C432.747 384.299 433.559 384.743 434.18 385.399Z" fill="#407BFF"/>
<path d="M384.68 408.32C385.547 408.304 386.411 408.207 387.26 408.03C387.298 408.022 387.333 408.003 387.36 407.974C387.387 407.945 387.404 407.909 387.41 407.87C387.416 407.83 387.41 407.79 387.392 407.754C387.374 407.718 387.345 407.689 387.31 407.67C386.93 407.47 383.6 405.79 382.61 406.35C382.517 406.402 382.44 406.478 382.386 406.569C382.331 406.66 382.302 406.764 382.3 406.87C382.28 407.046 382.304 407.225 382.368 407.39C382.432 407.556 382.536 407.703 382.67 407.82C383.264 408.209 383.972 408.386 384.68 408.32ZM386.61 407.75C384.8 408.05 383.44 407.98 382.93 407.53C382.841 407.453 382.773 407.355 382.731 407.245C382.69 407.135 382.675 407.017 382.69 406.9C382.688 406.858 382.698 406.817 382.717 406.78C382.736 406.744 382.765 406.713 382.8 406.69C383.34 406.39 385.24 407.1 386.61 407.75Z" fill="#407BFF"/>
<path d="M387.22 407.999C387.256 408.01 387.294 408.01 387.33 407.999C387.359 407.98 387.383 407.953 387.397 407.921C387.411 407.889 387.416 407.854 387.41 407.819C387.41 407.669 387.01 404.109 385.02 404.319C384.49 404.369 384.33 404.639 384.3 404.859C384.15 405.789 386.14 407.569 387.14 408.019L387.22 407.999ZM385.17 404.669C386.36 404.669 386.82 406.619 386.97 407.459C385.97 406.849 384.59 405.459 384.68 404.889C384.68 404.839 384.68 404.709 385.06 404.669H385.17Z" fill="#407BFF"/>
<path d="M415.44 178.689C416.13 179.689 416.68 180.489 417.24 181.399C417.8 182.309 418.32 183.179 418.85 184.079C419.85 185.879 420.85 187.729 421.76 189.589C423.586 193.314 425.18 197.148 426.53 201.069C426.87 202.069 427.16 203.069 427.53 204.069L427.66 204.479C427.71 204.679 427.77 204.869 427.82 205.079C427.915 205.508 427.982 205.942 428.02 206.379C428.097 207.359 427.982 208.344 427.68 209.279C427.096 210.981 425.954 212.436 424.44 213.409C423.326 214.121 422.113 214.663 420.84 215.019C418.684 215.629 416.46 215.964 414.22 216.019C413.15 216.019 412.09 216.019 411.04 216.019C409.99 216.019 408.96 215.899 407.86 215.749L407.92 211.579C409.76 211.309 411.71 210.969 413.53 210.579C415.266 210.203 416.961 209.657 418.59 208.949C419.221 208.678 419.807 208.314 420.33 207.869C420.73 207.509 420.73 207.279 420.65 207.319C420.57 207.359 420.6 207.319 420.57 207.249L420.33 206.649C419.97 205.759 419.63 204.859 419.25 203.979C417.78 200.419 416.13 196.929 414.36 193.509C413.46 191.809 412.5 190.139 411.56 188.509C411.08 187.683 410.59 186.863 410.09 186.049C409.6 185.259 409.09 184.399 408.62 183.729L415.44 178.689Z" fill="#FFC3BD"/>
<path d="M409.82 171.12C415.46 172.06 419.7 182.12 419.7 182.12L410.37 196.5C410.37 196.5 401.25 186.82 402.13 178.5C402.7 173.09 404.28 170.19 409.82 171.12Z" fill="#407BFF"/>
<path opacity="0.6" d="M409.82 171.12C415.46 172.06 419.7 182.12 419.7 182.12L410.37 196.5C410.37 196.5 401.25 186.82 402.13 178.5C402.7 173.09 404.28 170.19 409.82 171.12Z" fill="#5B96FF"/>
<path opacity="0.2" d="M407.15 181.94C408.5 184.64 408.51 191.22 408.41 194.14C406.219 191.422 404.452 188.387 403.17 185.14C404.59 182.45 406.26 180.17 407.15 181.94Z" fill="#001436"/>
<path d="M409.91 212.089L406.1 205.939L402.8 211.619C402.8 211.619 405.6 216.039 409.06 215.819L409.91 212.089Z" fill="#FFC3BD"/>
<path d="M399.84 203.279L395.83 205.589L402.8 211.619L406.1 205.939L399.84 203.279Z" fill="#FFC3BD"/>
<path d="M372.18 148.169C372.32 148.819 372.09 149.429 371.67 149.529C371.25 149.629 370.79 149.199 370.67 148.529C370.55 147.859 370.76 147.279 371.18 147.169C371.6 147.059 372 147.529 372.18 148.169Z" fill="#263238"/>
<path d="M371.36 147.18L369.7 147.12C369.7 147.12 370.77 148.13 371.36 147.18Z" fill="#263238"/>
<path d="M371.77 148.939C371.514 150.556 371.04 152.131 370.36 153.619C370.746 153.774 371.161 153.841 371.576 153.817C371.991 153.793 372.395 153.678 372.76 153.479L371.77 148.939Z" fill="#ED847E"/>
<path d="M370.45 145.52C370.524 145.518 370.595 145.494 370.656 145.451C370.716 145.408 370.763 145.349 370.79 145.28C370.956 144.811 371.228 144.386 371.585 144.039C371.943 143.692 372.376 143.432 372.85 143.28C372.9 143.268 372.947 143.247 372.988 143.217C373.03 143.187 373.065 143.149 373.092 143.105C373.119 143.062 373.137 143.013 373.145 142.963C373.154 142.912 373.152 142.86 373.14 142.81C373.128 142.76 373.106 142.713 373.076 142.672C373.046 142.63 373.009 142.595 372.965 142.568C372.921 142.541 372.873 142.523 372.822 142.515C372.771 142.507 372.72 142.508 372.67 142.52C372.072 142.7 371.525 143.017 371.072 143.446C370.619 143.875 370.272 144.404 370.06 144.99C370.026 145.089 370.032 145.196 370.074 145.291C370.117 145.385 370.194 145.46 370.29 145.5C370.34 145.522 370.396 145.529 370.45 145.52Z" fill="#263238"/>
<path d="M393.34 153.399C392.59 158.319 392.02 167.279 395.59 170.269C395.59 170.269 394.46 175.269 385.36 175.939C375.36 176.649 380.36 171.349 380.36 171.349C385.76 169.669 385.45 165.669 384.36 161.969L393.34 153.399Z" fill="#FFC3BD"/>
<path d="M367.78 187.37C367.2 188.56 366.68 189.56 366.08 190.61C365.48 191.66 364.9 192.61 364.28 193.68C363.06 195.68 361.71 197.68 360.34 199.56C357.569 203.419 354.478 207.039 351.1 210.38L349.81 211.62L349.49 211.93L348.93 212.41C348.501 212.756 348.035 213.055 347.54 213.3C346.491 213.831 345.326 214.092 344.15 214.06C343.138 214.023 342.141 213.799 341.21 213.4C339.811 212.776 338.529 211.917 337.42 210.86C336.478 209.971 335.603 209.015 334.8 208C331.908 204.181 329.537 199.994 327.75 195.55L331.44 193.62C333.886 197.204 336.625 200.579 339.63 203.71C340.321 204.397 341.06 205.035 341.84 205.62C342.44 206.089 343.116 206.452 343.84 206.69C344.08 206.76 344.22 206.69 344.23 206.69C344.24 206.69 344.13 206.69 344.11 206.69C344.13 206.654 344.158 206.624 344.19 206.6L344.46 206.3L345.55 205.1C348.43 201.852 351.102 198.425 353.55 194.84C354.78 193.04 355.93 191.19 357.08 189.34C357.64 188.41 358.2 187.47 358.73 186.53C359.26 185.59 359.81 184.6 360.25 183.77L367.78 187.37Z" fill="#FFC3BD"/>
<path d="M331.87 194.459L331.26 187.819L325 191.289C325 191.289 326 196.389 329.35 197.349L331.87 194.459Z" fill="#FFC3BD"/>
<path d="M326.96 184.72L321.91 184.85L324.97 191.29L331.26 187.82L326.96 184.72Z" fill="#FFC3BD"/>
<path d="M396.47 407.449L388.25 408.059L385.8 389.179L394.02 388.569L396.47 407.449Z" fill="#FFC3BD"/>
<path d="M443.65 381.48L436.59 385.91L424.54 371.28L431.6 366.85L443.65 381.48Z" fill="#FFC3BD"/>
<path d="M434.43 384.36L441.09 377.76C441.2 377.643 441.35 377.57 441.51 377.556C441.67 377.541 441.83 377.585 441.96 377.68L447.78 382.05C447.928 382.169 448.049 382.318 448.134 382.488C448.22 382.658 448.267 382.844 448.274 383.034C448.28 383.224 448.246 383.413 448.173 383.588C448.1 383.764 447.99 383.921 447.85 384.05C445.48 386.31 444.23 387.28 441.3 390.19C439.5 391.97 437.04 394.76 434.55 397.19C432.06 399.62 429.55 397.39 430.39 396.19C434.08 390.62 433.48 388.55 433.79 385.72C433.833 385.204 434.06 384.722 434.43 384.36Z" fill="#263238"/>
<path d="M387.73 406.89H397C397.161 406.887 397.318 406.942 397.443 407.045C397.567 407.147 397.651 407.291 397.68 407.45L398.92 414.76C398.944 414.943 398.929 415.129 398.875 415.306C398.821 415.482 398.73 415.646 398.608 415.784C398.486 415.922 398.335 416.033 398.166 416.108C397.997 416.183 397.815 416.221 397.63 416.22C394.41 416.17 392.85 415.98 388.79 415.98C386.29 415.98 381.12 416.24 377.67 416.24C374.22 416.24 373.95 412.82 375.38 412.51C381.79 411.13 384.28 409.22 386.38 407.39C386.756 407.068 387.235 406.89 387.73 406.89Z" fill="#263238"/>
<path opacity="0.2" d="M385.811 389.179L387.161 399.669L395.341 398.729L394.031 388.569L385.811 389.179Z" fill="#001436"/>
<path opacity="0.2" d="M431.6 366.859L424.54 371.289L429.53 377.339L436.75 373.089L431.6 366.859Z" fill="#001436"/>
<path d="M406.11 221.12L372.6 223.51C362.6 176.09 366.52 175.06 366.52 175.06C369.082 174.051 371.704 173.2 374.37 172.51L374.83 172.4C377.01 171.89 377.47 171.83 380.37 171.35C385.37 170.79 389.94 170.41 395.59 170.27H396.67C397.67 170.27 398.67 170.27 399.67 170.27C400.33 170.27 400.99 170.27 401.61 170.34L403.74 170.49C407.34 170.74 409.9 171.1 409.9 171.1C404.58 199.32 405 207.65 406.11 221.12Z" fill="#407BFF"/>
<path d="M406.11 221.12L372.6 223.51C362.6 176.09 366.52 175.06 366.52 175.06C369.082 174.051 371.704 173.2 374.37 172.51L374.83 172.4C377.01 171.89 377.47 171.83 380.37 171.35C385.37 170.79 389.94 170.41 395.59 170.27H396.67C397.67 170.27 398.67 170.27 399.67 170.27C400.33 170.27 400.99 170.27 401.61 170.34L403.74 170.49C407.34 170.74 409.9 171.1 409.9 171.1C404.58 199.32 405 207.65 406.11 221.12Z" fill="#3880FF"/>
<path opacity="0.2" d="M369.91 186.239L372.91 186.109C372.47 190.019 370.15 196.519 368.19 200.599C367.47 196.299 366.94 192.719 366.57 189.739L369.91 186.239Z" fill="#001436"/>
<path d="M367.69 174.61C362.69 175.61 357.99 184.73 356.16 188.7L364.16 200.88C364.16 200.88 375.51 188.2 374.54 183.73C373.57 179.07 370.13 174.14 367.69 174.61Z" fill="#407BFF"/>
<g opacity="0.6">
<path d="M367.69 174.61C362.69 175.61 357.99 184.73 356.16 188.7L364.16 200.88C364.16 200.88 375.51 188.2 374.54 183.73C373.57 179.07 370.13 174.14 367.69 174.61Z" fill="#5B96FF"/>
</g>
<path d="M393.47 141.06C394.71 149.11 395.4 152.48 392.27 157.54C387.55 165.14 377.38 165.19 373.76 157.75C370.51 151.05 369.04 139.03 376.14 133.96C377.647 132.816 379.426 132.086 381.301 131.84C383.176 131.594 385.083 131.842 386.834 132.559C388.584 133.277 390.117 134.438 391.28 135.929C392.444 137.419 393.199 139.188 393.47 141.06Z" fill="#FFC3BD"/>
<path d="M376.05 148.7C373.88 153.7 369.55 160.98 373.53 165.43C373.53 165.43 373.53 164.18 374.08 163.9C374.56 165 392.84 168.59 396.64 162.62C396.728 163.079 396.728 163.551 396.64 164.01C397.787 163.28 398.66 162.189 399.12 160.909C399.58 159.63 399.601 158.233 399.18 156.94C397.47 150.79 399.47 137.29 392.53 133.12C386.36 129.42 369.89 126.81 376.05 148.7Z" fill="#263238"/>
<path d="M380.58 131.38C375.23 129.58 370.53 133.32 369.7 140.48C371.91 143.34 376.13 143.56 376.13 143.56L380.58 131.38Z" fill="#263238"/>
<path d="M377.09 146.81C376.951 148.317 376.35 149.745 375.37 150.9C374.02 152.53 372.57 151.99 372.3 150.4C372.06 148.97 372.47 146.4 374.15 145.3C375.83 144.2 377.18 145.12 377.09 146.81Z" fill="#FFC3BD"/>
<path d="M381.45 222.88C381.45 222.88 383.45 235.41 386.03 251.88C387.73 262.88 389.66 275.66 391.38 287.67C392.38 294.54 393.27 301.17 394.03 307.07C398.33 340.52 426.49 376.39 426.49 376.39L436.79 370.46C436.79 370.46 420.19 339.09 415.88 307.85C407.14 244.41 417.49 235.14 406.11 221.09L381.45 222.88Z" fill="#002F81"/>
<path opacity="0.2" d="M383.7 234.139C384.34 238.979 385.15 245.139 386.03 251.919C387.73 262.919 389.66 275.699 391.38 287.709C394.51 273.029 398.61 245.829 388.67 236.009C386.72 234.079 385.05 233.549 383.7 234.139Z" fill="#001436"/>
<path d="M425.48 377.42L438.34 370.01L435.61 365.05L421.21 373.45L425.48 377.42Z" fill="#407BFF"/>
<path opacity="0.7" d="M425.48 377.42L438.34 370.01L435.61 365.05L421.21 373.45L425.48 377.42Z" fill="#263238"/>
<path d="M373.1 223.57C373.1 223.57 363.25 287.95 364.87 312.84C366.56 338.74 385.27 397.08 385.27 397.08L397.12 395.55C397.12 395.55 385.61 338.9 385.49 313.36C385.35 285.52 399.18 221.71 399.18 221.71L373.1 223.57Z" fill="#002F81"/>
<path d="M382.74 397.76L399.65 395.57L399.19 389.31L381.05 392.36L382.74 397.76Z" fill="#407BFF"/>
<path opacity="0.7" d="M382.74 397.76L399.65 395.57L399.19 389.31L381.05 392.36L382.74 397.76Z" fill="#263238"/>
<path d="M406.53 219.14L408.17 222C408.3 222.23 408.03 222.48 407.64 222.51L372.5 225C372.2 225 371.94 224.89 371.91 224.7L371.48 221.7C371.48 221.5 371.71 221.31 372.04 221.28L406 218.93C406.099 218.918 406.199 218.931 406.292 218.968C406.385 219.005 406.466 219.064 406.53 219.14Z" fill="#263238"/>
<path d="M402.131 223.22L403.041 223.16C403.221 223.16 403.361 223.04 403.341 222.93L402.751 219.1C402.751 218.99 402.571 218.91 402.391 218.92L401.481 218.98C401.301 218.98 401.161 219.1 401.181 219.21L401.771 223.04C401.791 223.15 402.001 223.24 402.131 223.22Z" fill="#407BFF"/>
<path d="M379.181 224.91L380.091 224.84C380.271 224.84 380.401 224.73 380.381 224.62L379.791 220.79C379.791 220.67 379.611 220.59 379.431 220.61L378.521 220.67C378.341 220.67 378.201 220.78 378.221 220.9L378.821 224.73C378.831 224.84 379.001 224.92 379.181 224.91Z" fill="#407BFF"/>
</svg>
