<svg width="500" height="500" viewBox="0 0 500 500" fill="none" xmlns="http://www.w3.org/2000/svg">
<path d="M355 163.89C358.905 165.717 361.946 168.991 363.48 173.02C363.48 173.02 362.8 162.74 367.56 158.65C367.56 158.65 363.25 162.06 362.34 167.06C360.277 165.275 357.714 164.168 355 163.89Z" fill="#002F81"/>
<path d="M333.83 138.12C333.83 138.12 341.73 144.26 343.89 149.92C343.89 149.92 345.1 143.85 350.82 142.03C349.466 142.01 348.127 142.32 346.92 142.933C345.713 143.547 344.673 144.445 343.89 145.55C341.42 142.059 337.893 139.454 333.83 138.12Z" fill="#002F81"/>
<path d="M325.39 164.83C325.39 164.83 331.86 163.83 334.96 167.77C334.96 167.77 333.04 161.89 334.96 157.91C334.96 157.91 332.4 159.55 333.29 165.46C333.29 165.46 330.83 162.92 325.39 164.83Z" fill="#002F81"/>
<path d="M500 382.4H0V382.65H500V382.4Z" fill="#F0F5FF"/>
<path d="M137.66 389.21H104.54V389.46H137.66V389.21Z" fill="#F0F5FF"/>
<path d="M211.89 398.37H171.14V398.62H211.89V398.37Z" fill="#F0F5FF"/>
<path d="M103.54 395.24H52.46V395.49H103.54V395.24Z" fill="#F0F5FF"/>
<path d="M449.9 390.89H356.76V391.14H449.9V390.89Z" fill="#F0F5FF"/>
<path d="M319.44 395.11H277.21V395.36H319.44V395.11Z" fill="#F0F5FF"/>
<path d="M237 337.8H43.91C42.3973 337.797 40.9475 337.195 39.8788 336.124C38.8102 335.054 38.21 333.603 38.21 332.09V60.66C38.2231 59.156 38.8292 57.718 39.8964 56.6582C40.9637 55.5985 42.4059 55.0026 43.91 55H237C238.514 55 239.967 55.6016 241.038 56.6724C242.108 57.7433 242.71 59.1956 242.71 60.71V332.09C242.71 333.604 242.108 335.057 241.038 336.128C239.967 337.198 238.514 337.8 237 337.8ZM43.91 55.2C42.4636 55.2026 41.0774 55.7791 40.0556 56.8027C39.0338 57.8264 38.46 59.2136 38.46 60.66V332.09C38.46 333.536 39.0338 334.924 40.0556 335.947C41.0774 336.971 42.4636 337.547 43.91 337.55H237C238.446 337.545 239.832 336.968 240.855 335.945C241.878 334.922 242.455 333.536 242.46 332.09V60.66C242.455 59.2135 241.878 57.8278 240.855 56.805C239.832 55.7822 238.446 55.2053 237 55.2H43.91Z" fill="#F0F5FF"/>
<path d="M453.31 337.8H260.21C258.697 337.795 257.248 337.191 256.178 336.122C255.109 335.052 254.505 333.603 254.5 332.09V60.66C254.516 59.1551 255.124 57.7171 256.193 56.6576C257.262 55.5981 258.705 55.0025 260.21 55H453.31C454.812 55.0052 456.252 55.6022 457.317 56.6617C458.382 57.7212 458.987 59.1578 459 60.66V332.09C459.001 332.839 458.855 333.58 458.57 334.272C458.285 334.964 457.866 335.593 457.338 336.123C456.809 336.654 456.182 337.075 455.491 337.362C454.799 337.65 454.059 337.799 453.31 337.8ZM260.21 55.2C258.764 55.2053 257.378 55.7822 256.355 56.805C255.332 57.8278 254.755 59.2135 254.75 60.66V332.09C254.755 333.536 255.332 334.922 256.355 335.945C257.378 336.968 258.764 337.545 260.21 337.55H453.31C454.756 337.545 456.142 336.968 457.165 335.945C458.188 334.922 458.765 333.536 458.77 332.09V60.66C458.765 59.2135 458.188 57.8278 457.165 56.805C456.142 55.7822 454.756 55.2053 453.31 55.2H260.21Z" fill="#F0F5FF"/>
<path d="M214.72 108.25H294.78C294.78 108.25 289.92 100.63 281.61 104.44C281.61 104.44 280.05 96.4401 274.68 96.3001C273.21 96.191 271.739 96.5109 270.447 97.2209C269.155 97.9309 268.097 99.0005 267.4 100.3C267.4 100.3 261.16 90.6001 251.63 92.6801C248.978 93.1927 246.551 94.5188 244.688 96.474C242.824 98.4292 241.615 100.916 241.23 103.59C241.23 103.59 227 96.3001 214.72 108.25Z" fill="#F0F5FF"/>
<path d="M68.3999 219.71H148.4C148.4 219.71 143.55 212.08 135.23 215.89C135.23 215.89 133.67 207.89 128.3 207.75C126.83 207.646 125.362 207.968 124.071 208.678C122.779 209.387 121.72 210.454 121.02 211.75C121.02 211.75 114.79 202.04 105.26 204.12C102.621 204.64 100.209 205.966 98.3551 207.915C96.5014 209.863 95.2977 212.339 94.9099 215C94.9099 215 80.6999 207.75 68.3999 219.71Z" fill="#F0F5FF"/>
<path d="M372.55 165.81H452.6C452.6 165.81 447.75 158.19 439.43 162C439.43 162 437.88 154 432.5 153.86C431.031 153.753 429.563 154.073 428.273 154.783C426.982 155.493 425.926 156.562 425.23 157.86C425.23 157.86 418.99 148.16 409.46 150.24C406.808 150.752 404.381 152.078 402.517 154.034C400.653 155.989 399.445 158.476 399.06 161.15C399.06 161.15 384.85 153.86 372.55 165.81Z" fill="#F0F5FF"/>
<path d="M367.613 118.229C368.646 113.871 365.95 109.5 361.592 108.468C357.233 107.435 352.863 110.131 351.83 114.489C350.798 118.848 353.494 123.218 357.852 124.251C362.21 125.283 366.581 122.587 367.613 118.229Z" fill="#F0F5FF"/>
<path d="M60.75 165.81H140.8C140.8 165.81 136 158.19 127.63 162C127.63 162 126.07 154 120.7 153.86C119.231 153.753 117.763 154.073 116.473 154.783C115.183 155.493 114.126 156.562 113.43 157.86C113.43 157.86 107.19 148.16 97.66 150.24C95.0079 150.752 92.5813 152.078 90.7175 154.034C88.8536 155.989 87.6452 158.476 87.26 161.15C87.26 161.15 73.05 153.86 60.75 165.81Z" fill="#F0F5FF"/>
<path d="M204.28 190.07H119.4V355.72H204.28V190.07Z" fill="#AAC9FF"/>
<path d="M188.85 190.07H119.4V355.72H188.85V190.07Z" fill="#D1E2FF"/>
<path d="M205.28 190.07H117.57V192.77H205.28V190.07Z" fill="#AAC9FF"/>
<path d="M205.28 184.66H117.57V187.36H205.28V184.66Z" fill="#AAC9FF"/>
<path d="M203.44 187.36H119.4V190.06H203.44V187.36Z" fill="#F0F5FF"/>
<path d="M139.03 199.82H125.99V212.86H139.03V199.82Z" fill="#E7F0FF"/>
<path d="M139.03 199.82H127.14V212.86H139.03V199.82Z" fill="#F0F5FF"/>
<path d="M158.79 199.82H145.75V212.86H158.79V199.82Z" fill="#E7F0FF"/>
<path d="M158.79 199.82H146.9V212.86H158.79V199.82Z" fill="#F0F5FF"/>
<path d="M178.54 199.82H165.5V212.86H178.54V199.82Z" fill="#E7F0FF"/>
<path d="M178.54 199.82H166.65V212.86H178.54V199.82Z" fill="#F0F5FF"/>
<path d="M139.03 219.03H125.99V232.07H139.03V219.03Z" fill="#E7F0FF"/>
<path d="M139.03 219.03H127.14V232.07H139.03V219.03Z" fill="#F0F5FF"/>
<path d="M158.79 219.03H145.75V232.07H158.79V219.03Z" fill="#E7F0FF"/>
<path d="M158.79 219.03H146.9V232.07H158.79V219.03Z" fill="#F0F5FF"/>
<path d="M178.54 219.03H165.5V232.07H178.54V219.03Z" fill="#E7F0FF"/>
<path d="M178.54 219.03H166.65V232.07H178.54V219.03Z" fill="#F0F5FF"/>
<path d="M139.03 254.2H125.99V267.24H139.03V254.2Z" fill="#E7F0FF"/>
<path d="M139.03 254.2H127.14V267.24H139.03V254.2Z" fill="#F0F5FF"/>
<path d="M158.79 254.2H145.75V267.24H158.79V254.2Z" fill="#E7F0FF"/>
<path d="M158.79 254.2H146.9V267.24H158.79V254.2Z" fill="#F0F5FF"/>
<path d="M178.54 254.2H165.5V267.24H178.54V254.2Z" fill="#E7F0FF"/>
<path d="M178.54 254.2H166.65V267.24H178.54V254.2Z" fill="#F0F5FF"/>
<path d="M139.03 273.41H125.99V286.45H139.03V273.41Z" fill="#E7F0FF"/>
<path d="M139.03 273.41H127.14V286.45H139.03V273.41Z" fill="#F0F5FF"/>
<path d="M158.79 273.41H145.75V286.45H158.79V273.41Z" fill="#E7F0FF"/>
<path d="M158.79 273.41H146.9V286.45H158.79V273.41Z" fill="#F0F5FF"/>
<path d="M178.54 273.41H165.5V286.45H178.54V273.41Z" fill="#E7F0FF"/>
<path d="M178.54 273.41H166.65V286.45H178.54V273.41Z" fill="#F0F5FF"/>
<path d="M139.03 312.5H125.99V325.54H139.03V312.5Z" fill="#E7F0FF"/>
<path d="M139.03 312.5H127.14V325.54H139.03V312.5Z" fill="#F0F5FF"/>
<path d="M158.79 312.5H145.75V325.54H158.79V312.5Z" fill="#E7F0FF"/>
<path d="M158.79 312.5H146.9V325.54H158.79V312.5Z" fill="#F0F5FF"/>
<path d="M178.54 312.5H165.5V325.54H178.54V312.5Z" fill="#E7F0FF"/>
<path d="M178.54 312.5H166.65V325.54H178.54V312.5Z" fill="#F0F5FF"/>
<path d="M139.03 331.71H125.99V344.75H139.03V331.71Z" fill="#E7F0FF"/>
<path d="M139.03 331.71H127.14V344.75H139.03V331.71Z" fill="#F0F5FF"/>
<path d="M158.79 331.71H145.75V344.75H158.79V331.71Z" fill="#E7F0FF"/>
<path d="M158.79 331.71H146.9V344.75H158.79V331.71Z" fill="#F0F5FF"/>
<path d="M178.54 331.71H165.5V344.75H178.54V331.71Z" fill="#E7F0FF"/>
<path d="M178.54 331.71H166.65V344.75H178.54V331.71Z" fill="#F0F5FF"/>
<path d="M204.28 241.24H119.4V242.45H204.28V241.24Z" fill="#AAC9FF"/>
<path d="M204.28 301.37H119.4V302.58H204.28V301.37Z" fill="#AAC9FF"/>
<path d="M105.07 239.67H46.3599V382.53H105.07V239.67Z" fill="#AAC9FF"/>
<path d="M88.3499 239.67H46.3599V382.53H88.3499V239.67Z" fill="#D1E2FF"/>
<path d="M66.3097 251.41H50.6797V259H66.3097V251.41Z" fill="#E7F0FF"/>
<path d="M66.3097 251.41H51.7197V259H66.3097V251.41Z" fill="#F0F5FF"/>
<path d="M84.3898 251.41H68.7598V259H84.3898V251.41Z" fill="#E7F0FF"/>
<path d="M84.3798 251.41H69.7998V259H84.3798V251.41Z" fill="#F0F5FF"/>
<path d="M66.3097 265.69H50.6797V273.28H66.3097V265.69Z" fill="#E7F0FF"/>
<path d="M66.3097 265.69H51.7197V273.28H66.3097V265.69Z" fill="#F0F5FF"/>
<path d="M84.3898 265.69H68.7598V273.28H84.3898V265.69Z" fill="#E7F0FF"/>
<path d="M84.3798 265.69H69.7998V273.28H84.3798V265.69Z" fill="#F0F5FF"/>
<path d="M66.3097 283.94H50.6797V291.53H66.3097V283.94Z" fill="#E7F0FF"/>
<path d="M66.3097 283.94H51.7197V291.53H66.3097V283.94Z" fill="#F0F5FF"/>
<path d="M84.3898 283.94H68.7598V291.53H84.3898V283.94Z" fill="#E7F0FF"/>
<path d="M84.3798 283.94H69.7998V291.53H84.3798V283.94Z" fill="#F0F5FF"/>
<path d="M66.3097 294.42H50.6797V302.01H66.3097V294.42Z" fill="#E7F0FF"/>
<path d="M66.3097 294.42H51.7197V302.01H66.3097V294.42Z" fill="#F0F5FF"/>
<path d="M84.3898 294.42H68.7598V302.01H84.3898V294.42Z" fill="#E7F0FF"/>
<path d="M84.3798 294.42H69.7998V302.01H84.3798V294.42Z" fill="#F0F5FF"/>
<path d="M66.3097 311.65H50.6797V319.24H66.3097V311.65Z" fill="#E7F0FF"/>
<path d="M66.3097 311.65H51.7197V319.24H66.3097V311.65Z" fill="#F0F5FF"/>
<path d="M84.3898 311.65H68.7598V319.24H84.3898V311.65Z" fill="#E7F0FF"/>
<path d="M84.3798 311.65H69.7998V319.24H84.3798V311.65Z" fill="#F0F5FF"/>
<path d="M66.3097 322.13H50.6797V329.72H66.3097V322.13Z" fill="#E7F0FF"/>
<path d="M66.3097 322.13H51.7197V329.72H66.3097V322.13Z" fill="#F0F5FF"/>
<path d="M84.3898 322.13H68.7598V329.72H84.3898V322.13Z" fill="#E7F0FF"/>
<path d="M84.3798 322.13H69.7998V329.72H84.3798V322.13Z" fill="#F0F5FF"/>
<path d="M66.3097 340.88H50.6797V348.47H66.3097V340.88Z" fill="#E7F0FF"/>
<path d="M66.3097 340.88H51.7197V348.47H66.3097V340.88Z" fill="#F0F5FF"/>
<path d="M84.3898 340.88H68.7598V348.47H84.3898V340.88Z" fill="#E7F0FF"/>
<path d="M84.3798 340.88H69.7998V348.47H84.3798V340.88Z" fill="#F0F5FF"/>
<path d="M66.3097 354.721H50.6797V362.311H66.3097V354.721Z" fill="#E7F0FF"/>
<path d="M66.3097 354.721H51.7197V362.311H66.3097V354.721Z" fill="#F0F5FF"/>
<path d="M84.3898 354.721H68.7598V362.311H84.3898V354.721Z" fill="#E7F0FF"/>
<path d="M84.3798 354.721H69.7998V362.311H84.3798V354.721Z" fill="#F0F5FF"/>
<path opacity="0.05" d="M105.07 277.95H46.3599V279.26H105.07V277.95Z" fill="#002F81"/>
<path opacity="0.05" d="M105.07 306.17H46.3599V307.48H105.07V306.17Z" fill="#002F81"/>
<path opacity="0.05" d="M105.07 334.641H46.3599V335.941H105.07V334.641Z" fill="#002F81"/>
<path d="M105.06 235.44H43.5898V240H105.06V235.44Z" fill="#AAC9FF"/>
<path opacity="0.05" d="M105.07 235.44H91.02V240H105.07V235.44Z" fill="#002F81"/>
<path d="M308.3 165.261H239.36V344.431H308.3V165.261Z" fill="#AAC9FF"/>
<path d="M282.78 165.261H213.84V344.431H282.78V165.261Z" fill="#D1E2FF"/>
<path d="M276.77 177.42H219.86V186.55H276.77V177.42Z" fill="#E7F0FF"/>
<path d="M276.76 177.42H222.06V186.55H276.76V177.42Z" fill="#F0F5FF"/>
<path d="M276.77 192.79H219.86V201.92H276.77V192.79Z" fill="#E7F0FF"/>
<path d="M276.76 192.79H222.06V201.92H276.76V192.79Z" fill="#F0F5FF"/>
<path d="M276.77 208.75H219.86V217.88H276.77V208.75Z" fill="#E7F0FF"/>
<path d="M276.76 208.75H222.06V217.88H276.76V208.75Z" fill="#F0F5FF"/>
<path d="M276.77 224.721H219.86V233.851H276.77V224.721Z" fill="#E7F0FF"/>
<path d="M276.76 224.721H222.06V233.851H276.76V224.721Z" fill="#F0F5FF"/>
<path d="M276.77 240.681H219.86V249.811H276.77V240.681Z" fill="#E7F0FF"/>
<path d="M276.76 240.681H222.06V249.811H276.76V240.681Z" fill="#F0F5FF"/>
<path d="M276.77 256.65H219.86V265.78H276.77V256.65Z" fill="#E7F0FF"/>
<path d="M276.76 256.65H222.06V265.78H276.76V256.65Z" fill="#F0F5FF"/>
<path d="M276.77 274.24H219.86V283.37H276.77V274.24Z" fill="#E7F0FF"/>
<path d="M276.76 274.24H222.06V283.37H276.76V274.24Z" fill="#F0F5FF"/>
<path d="M276.77 291.84H219.86V300.97H276.77V291.84Z" fill="#E7F0FF"/>
<path d="M276.76 291.84H222.06V300.97H276.76V291.84Z" fill="#F0F5FF"/>
<path d="M276.77 309.44H219.86V318.57H276.77V309.44Z" fill="#E7F0FF"/>
<path d="M276.76 309.44H222.06V318.57H276.76V309.44Z" fill="#F0F5FF"/>
<path d="M276.77 327.03H219.86V336.16H276.77V327.03Z" fill="#E7F0FF"/>
<path d="M276.76 327.03H222.06V336.16H276.76V327.03Z" fill="#F0F5FF"/>
<path d="M310.09 163.46H211.89V167.83H310.09V163.46Z" fill="#AAC9FF"/>
<path d="M310.09 155.57H211.89V159.94H310.09V155.57Z" fill="#AAC9FF"/>
<path d="M306.83 159.08H213.84V163.45H306.83V159.08Z" fill="#F0F5FF"/>
<path d="M308.3 177.42H289.09V186.55H308.3V177.42Z" fill="#E7F0FF"/>
<path d="M308.3 192.44H289.09V201.57H308.3V192.44Z" fill="#E7F0FF"/>
<path d="M308.3 207.471H289.09V216.601H308.3V207.471Z" fill="#E7F0FF"/>
<path d="M308.3 224.71H289.09V233.84H308.3V224.71Z" fill="#E7F0FF"/>
<path d="M308.3 240.681H289.09V249.811H308.3V240.681Z" fill="#E7F0FF"/>
<path d="M308.3 256.65H289.09V265.78H308.3V256.65Z" fill="#AAC9FF"/>
<path d="M308.3 274.24H289.09V283.37H308.3V274.24Z" fill="#AAC9FF"/>
<path d="M308.3 291.84H289.09V300.97H308.3V291.84Z" fill="#AAC9FF"/>
<path d="M308.3 309.431H289.09V318.561H308.3V309.431Z" fill="#AAC9FF"/>
<path d="M308.3 327.03H289.09V336.16H308.3V327.03Z" fill="#AAC9FF"/>
<path d="M464.34 302.69H458.81V311.34H464.34V302.69Z" fill="#AAC9FF"/>
<path d="M464.34 316.851H458.81V325.501H464.34V316.851Z" fill="#AAC9FF"/>
<path d="M464.34 330.601H458.81V339.251H464.34V330.601Z" fill="#AAC9FF"/>
<path d="M464.34 345.15H458.81V353.8H464.34V345.15Z" fill="#AAC9FF"/>
<path d="M464.34 359.301H458.81V367.951H464.34V359.301Z" fill="#AAC9FF"/>
<path d="M464.34 294H406.17V382.47H464.34V294Z" fill="#E7F0FF"/>
<path d="M454.52 294H406.18V382.47H454.52V294Z" fill="#F0F5FF"/>
<path d="M449.84 302.69H410.53V311.34H449.84V302.69Z" fill="#F0F5FF"/>
<path d="M449.84 316.851H410.53V325.501H449.84V316.851Z" fill="#F0F5FF"/>
<path d="M449.84 331H410.53V339.65H449.84V331Z" fill="#F0F5FF"/>
<path d="M449.84 345.15H410.53V353.8H449.84V345.15Z" fill="#F0F5FF"/>
<path d="M449.84 359.301H410.53V367.951H449.84V359.301Z" fill="#F0F5FF"/>
<path d="M449.83 302.69H411.97V311.34H449.83V302.69Z" fill="#F0F5FF"/>
<path d="M449.83 316.851H411.97V325.501H449.83V316.851Z" fill="#F0F5FF"/>
<path d="M449.83 331H411.97V339.65H449.83V331Z" fill="#F0F5FF"/>
<path d="M449.83 345.15H411.97V353.8H449.83V345.15Z" fill="#F0F5FF"/>
<path d="M449.83 359.301H411.97V367.951H449.83V359.301Z" fill="#F0F5FF"/>
<path d="M218.3 219.521H119.27V412.781H218.3V219.521Z" fill="#3880FF"/>
<path opacity="0.4" d="M200.3 219.521H119.27V412.781H200.3V219.521Z" fill="white"/>
<path d="M219.47 219.521H117.14V222.671H219.47V219.521Z" fill="#3880FF"/>
<path d="M219.47 213.21H117.14V216.37H219.47V213.21Z" fill="#3880FF"/>
<path d="M217.32 216.37H119.27V219.52H217.32V216.37Z" fill="#F0F5FF"/>
<path d="M142.18 230.9H126.96V246.12H142.18V230.9Z" fill="#3880FF"/>
<path opacity="0.2" d="M142.18 230.9H128.3V246.12H142.18V230.9Z" fill="white"/>
<path d="M165.23 230.9H150.01V246.12H165.23V230.9Z" fill="#3880FF"/>
<path opacity="0.2" d="M165.23 230.9H151.35V246.12H165.23V230.9Z" fill="white"/>
<path d="M188.27 230.9H173.05V246.12H188.27V230.9Z" fill="#3880FF"/>
<path opacity="0.2" d="M188.27 230.9H174.39V246.12H188.27V230.9Z" fill="white"/>
<path d="M142.18 253.311H126.96V268.531H142.18V253.311Z" fill="#3880FF"/>
<path opacity="0.2" d="M142.18 253.311H128.3V268.531H142.18V253.311Z" fill="white"/>
<path d="M165.23 253.311H150.01V268.531H165.23V253.311Z" fill="#3880FF"/>
<path opacity="0.2" d="M165.23 253.311H151.35V268.531H165.23V253.311Z" fill="white"/>
<path d="M188.27 253.311H173.05V268.531H188.27V253.311Z" fill="#3880FF"/>
<path opacity="0.2" d="M188.27 253.311H174.39V268.531H188.27V253.311Z" fill="white"/>
<path d="M142.18 294.341H126.96V309.561H142.18V294.341Z" fill="#3880FF"/>
<path opacity="0.2" d="M142.18 294.341H128.3V309.561H142.18V294.341Z" fill="white"/>
<path d="M165.23 294.341H150.01V309.561H165.23V294.341Z" fill="#3880FF"/>
<path opacity="0.2" d="M165.23 294.341H151.35V309.561H165.23V294.341Z" fill="white"/>
<path d="M188.27 294.341H173.05V309.561H188.27V294.341Z" fill="#3880FF"/>
<path opacity="0.2" d="M188.27 294.341H174.39V309.561H188.27V294.341Z" fill="white"/>
<path d="M142.18 316.75H126.96V331.97H142.18V316.75Z" fill="#3880FF"/>
<path opacity="0.2" d="M142.18 316.75H128.3V331.97H142.18V316.75Z" fill="white"/>
<path d="M165.23 316.75H150.01V331.97H165.23V316.75Z" fill="#3880FF"/>
<path opacity="0.2" d="M165.23 316.75H151.35V331.97H165.23V316.75Z" fill="white"/>
<path d="M188.27 316.75H173.05V331.97H188.27V316.75Z" fill="#3880FF"/>
<path opacity="0.2" d="M188.27 316.75H174.39V331.97H188.27V316.75Z" fill="white"/>
<path d="M142.18 362.36H126.96V377.58H142.18V362.36Z" fill="#3880FF"/>
<path opacity="0.2" d="M142.18 362.36H128.3V377.58H142.18V362.36Z" fill="white"/>
<path d="M165.23 362.36H150.01V377.58H165.23V362.36Z" fill="#3880FF"/>
<path opacity="0.2" d="M165.23 362.36H151.35V377.58H165.23V362.36Z" fill="white"/>
<path d="M188.27 362.36H173.05V377.58H188.27V362.36Z" fill="#3880FF"/>
<path opacity="0.2" d="M188.27 362.36H174.39V377.58H188.27V362.36Z" fill="white"/>
<path d="M142.18 384.771H126.96V399.991H142.18V384.771Z" fill="#3880FF"/>
<path opacity="0.2" d="M142.18 384.771H128.3V399.991H142.18V384.771Z" fill="white"/>
<path d="M165.23 384.771H150.01V399.991H165.23V384.771Z" fill="#3880FF"/>
<path opacity="0.2" d="M165.23 384.771H151.35V399.991H165.23V384.771Z" fill="white"/>
<path d="M188.27 384.771H173.05V399.991H188.27V384.771Z" fill="#3880FF"/>
<path opacity="0.2" d="M188.27 384.771H174.39V399.991H188.27V384.771Z" fill="white"/>
<path opacity="0.2" d="M218.3 279.23H119.27V280.64H218.3V279.23Z" fill="white"/>
<path opacity="0.2" d="M218.3 349.37H119.27V350.78H218.3V349.37Z" fill="white"/>
<path d="M354.65 246.12H286.16V412.78H354.65V246.12Z" fill="#3880FF"/>
<path opacity="0.4" d="M338.26 246.12H286.16V412.78H338.26V246.12Z" fill="white"/>
<path d="M309.44 259.811H291.21V268.661H309.44V259.811Z" fill="#3880FF"/>
<path opacity="0.2" d="M309.44 259.811H292.42V268.661H309.44V259.811Z" fill="white"/>
<path d="M330.53 259.811H312.3V268.661H330.53V259.811Z" fill="#3880FF"/>
<path opacity="0.2" d="M330.53 259.811H313.51V268.661H330.53V259.811Z" fill="white"/>
<path d="M309.44 276.471H291.21V285.321H309.44V276.471Z" fill="#3880FF"/>
<path opacity="0.2" d="M309.44 276.471H292.42V285.321H309.44V276.471Z" fill="white"/>
<path d="M330.53 276.471H312.3V285.321H330.53V276.471Z" fill="#3880FF"/>
<path opacity="0.2" d="M330.53 276.471H313.51V285.321H330.53V276.471Z" fill="white"/>
<path d="M309.44 297.761H291.21V306.611H309.44V297.761Z" fill="#3880FF"/>
<path opacity="0.2" d="M309.44 297.761H292.42V306.611H309.44V297.761Z" fill="white"/>
<path d="M330.53 297.761H312.3V306.611H330.53V297.761Z" fill="#3880FF"/>
<path opacity="0.2" d="M330.53 297.761H313.51V306.611H330.53V297.761Z" fill="white"/>
<path d="M309.44 309.99H291.21V318.84H309.44V309.99Z" fill="#3880FF"/>
<path opacity="0.2" d="M309.44 309.99H292.42V318.84H309.44V309.99Z" fill="white"/>
<path d="M330.53 309.99H312.3V318.84H330.53V309.99Z" fill="#3880FF"/>
<path opacity="0.2" d="M330.53 309.99H313.51V318.84H330.53V309.99Z" fill="white"/>
<path d="M309.44 330.091H291.21V338.941H309.44V330.091Z" fill="#3880FF"/>
<path opacity="0.2" d="M309.44 330.091H292.42V338.941H309.44V330.091Z" fill="white"/>
<path d="M330.53 330.091H312.3V338.941H330.53V330.091Z" fill="#3880FF"/>
<path opacity="0.2" d="M330.53 330.091H313.51V338.941H330.53V330.091Z" fill="white"/>
<path d="M309.44 342.32H291.21V351.17H309.44V342.32Z" fill="#3880FF"/>
<path opacity="0.2" d="M309.44 342.32H292.42V351.17H309.44V342.32Z" fill="white"/>
<path d="M330.53 342.32H312.3V351.17H330.53V342.32Z" fill="#3880FF"/>
<path opacity="0.2" d="M330.53 342.32H313.51V351.17H330.53V342.32Z" fill="white"/>
<path d="M309.44 364.19H291.21V373.04H309.44V364.19Z" fill="#3880FF"/>
<path opacity="0.2" d="M309.44 364.19H292.42V373.04H309.44V364.19Z" fill="white"/>
<path d="M330.53 364.19H312.3V373.04H330.53V364.19Z" fill="#3880FF"/>
<path opacity="0.2" d="M330.53 364.19H313.51V373.04H330.53V364.19Z" fill="white"/>
<path d="M309.44 380.351H291.21V389.201H309.44V380.351Z" fill="#3880FF"/>
<path opacity="0.2" d="M309.44 380.351H292.42V389.201H309.44V380.351Z" fill="white"/>
<path d="M330.53 380.351H312.3V389.201H330.53V380.351Z" fill="#3880FF"/>
<path opacity="0.2" d="M330.53 380.351H313.51V389.201H330.53V380.351Z" fill="white"/>
<path d="M354.66 241.19H282.94V246.51H354.66V241.19Z" fill="#3880FF"/>
<path opacity="0.2" d="M354.66 241.19H338.27V246.51H354.66V241.19Z" fill="#002F81"/>
<path d="M286.16 319.71H279.71V329.8H286.16V319.71Z" fill="#AAC9FF"/>
<path d="M286.16 336.221H279.71V346.311H286.16V336.221Z" fill="#AAC9FF"/>
<path d="M286.16 352.271H279.71V362.361H286.16V352.271Z" fill="#AAC9FF"/>
<path d="M286.16 369.24H279.71V379.33H286.16V369.24Z" fill="#AAC9FF"/>
<path d="M286.16 385.75H279.71V395.84H286.16V385.75Z" fill="#AAC9FF"/>
<path d="M286.16 309.57H218.3V412.78H286.16V309.57Z" fill="#3880FF"/>
<path opacity="0.3" d="M274.7 309.561H218.3V412.781H274.7V309.561Z" fill="white"/>
<path d="M269.23 319.71H223.37V329.8H269.23V319.71Z" fill="#3880FF"/>
<path d="M269.23 336.221H223.37V346.311H269.23V336.221Z" fill="#3880FF"/>
<path d="M269.23 352.73H223.37V362.82H269.23V352.73Z" fill="#3880FF"/>
<path d="M269.23 369.24H223.37V379.33H269.23V369.24Z" fill="#3880FF"/>
<path d="M269.23 385.75H223.37V395.84H269.23V385.75Z" fill="#3880FF"/>
<g opacity="0.1">
<path d="M269.23 319.71H225.06V329.8H269.23V319.71Z" fill="white"/>
<path d="M269.23 336.22H225.06V346.31H269.23V336.22Z" fill="white"/>
<path d="M269.23 352.73H225.06V362.82H269.23V352.73Z" fill="white"/>
<path d="M269.23 369.24H225.06V379.33H269.23V369.24Z" fill="white"/>
<path d="M269.23 385.75H225.06V395.84H269.23V385.75Z" fill="white"/>
</g>
<path d="M78.5798 341.271H33.0498V412.781H105.71V341.271V309.561L78.5798 341.271Z" fill="#3880FF"/>
<path d="M119.27 309.561H105.71V412.781H119.27V309.561Z" fill="#3880FF"/>
<path opacity="0.7" d="M119.27 309.561H105.71V412.781H119.27V309.561Z" fill="white"/>
<path opacity="0.7" d="M218.3 222.671H200.29V412.781H218.3V222.671Z" fill="white"/>
<path opacity="0.6" d="M286.16 309.561H274.7V412.781H286.16V309.561Z" fill="white"/>
<path opacity="0.7" d="M354.66 246.511H338.27V412.781H354.66V246.511Z" fill="white"/>
<path opacity="0.5" d="M364.25 217.94H361.67V228.59H364.25V217.94Z" fill="white"/>
<path opacity="0.5" d="M364.25 235.86H361.67V246.51H364.25V235.86Z" fill="white"/>
<path opacity="0.5" d="M364.25 254.49H361.67V265.14H364.25V254.49Z" fill="white"/>
<path opacity="0.5" d="M364.25 273.12H361.67V283.77H364.25V273.12Z" fill="white"/>
<path opacity="0.5" d="M364.25 291.74H361.67V302.39H364.25V291.74Z" fill="white"/>
<path opacity="0.5" d="M364.25 310.37H361.67V321.02H364.25V310.37Z" fill="white"/>
<path opacity="0.5" d="M364.25 330.9H361.67V341.55H364.25V330.9Z" fill="white"/>
<path opacity="0.5" d="M364.25 351.431H361.67V362.081H364.25V351.431Z" fill="white"/>
<path opacity="0.5" d="M364.25 371.95H361.67V382.6H364.25V371.95Z" fill="white"/>
<path opacity="0.5" d="M364.25 392.48H361.67V403.13H364.25V392.48Z" fill="white"/>
<path d="M464.86 203.75H384.43V412.78H464.86V203.75Z" fill="#3880FF"/>
<path d="M435.08 203.75H354.65V412.78H435.08V203.75Z" fill="#3880FF"/>
<path opacity="0.7" d="M464.86 206.75H435.09V412.78H464.86V206.75Z" fill="white"/>
<path d="M464.86 217.94H442.45V228.59H464.86V217.94Z" fill="#3880FF"/>
<path d="M464.86 235.46H442.45V246.11H464.86V235.46Z" fill="#3880FF"/>
<path d="M464.86 252.99H442.45V263.64H464.86V252.99Z" fill="#3880FF"/>
<path d="M464.86 273.11H442.45V283.76H464.86V273.11Z" fill="#3880FF"/>
<path d="M464.86 291.74H442.45V302.39H464.86V291.74Z" fill="#3880FF"/>
<path d="M464.86 310.37H442.45V321.02H464.86V310.37Z" fill="#3880FF"/>
<path d="M464.86 330.891H442.45V341.541H464.86V330.891Z" fill="#3880FF"/>
<path d="M464.86 351.421H442.45V362.071H464.86V351.421Z" fill="#3880FF"/>
<path d="M464.86 371.95H442.45V382.6H464.86V371.95Z" fill="#3880FF"/>
<path d="M464.86 392.48H442.45V403.13H464.86V392.48Z" fill="#3880FF"/>
<path opacity="0.3" d="M464.86 217.94H442.45V228.59H464.86V217.94Z" fill="white"/>
<path opacity="0.3" d="M464.86 235.46H442.45V246.11H464.86V235.46Z" fill="white"/>
<path opacity="0.3" d="M464.86 252.99H442.45V263.64H464.86V252.99Z" fill="white"/>
<path opacity="0.3" d="M464.86 273.11H442.45V283.76H464.86V273.11Z" fill="white"/>
<path opacity="0.3" d="M464.86 291.74H442.45V302.39H464.86V291.74Z" fill="white"/>
<path opacity="0.3" d="M464.86 310.37H442.45V321.02H464.86V310.37Z" fill="white"/>
<path opacity="0.3" d="M464.86 330.891H442.45V341.541H464.86V330.891Z" fill="white"/>
<path opacity="0.3" d="M464.86 351.421H442.45V362.071H464.86V351.421Z" fill="white"/>
<path opacity="0.3" d="M464.86 371.95H442.45V382.6H464.86V371.95Z" fill="white"/>
<path opacity="0.3" d="M464.86 392.48H442.45V403.13H464.86V392.48Z" fill="white"/>
<path opacity="0.4" d="M435.08 203.75H354.65V412.78H435.08V203.75Z" fill="white"/>
<path d="M428.07 217.94H361.67V228.59H428.07V217.94Z" fill="#3880FF"/>
<path opacity="0.2" d="M428.07 217.94H364.25V228.59H428.07V217.94Z" fill="white"/>
<path d="M428.07 235.86H361.67V246.51H428.07V235.86Z" fill="#3880FF"/>
<path opacity="0.2" d="M428.07 235.86H364.25V246.51H428.07V235.86Z" fill="white"/>
<path d="M428.07 254.49H361.67V265.14H428.07V254.49Z" fill="#3880FF"/>
<path opacity="0.2" d="M428.07 254.49H364.25V265.14H428.07V254.49Z" fill="white"/>
<path d="M428.07 273.12H361.67V283.77H428.07V273.12Z" fill="#3880FF"/>
<path opacity="0.2" d="M428.07 273.12H364.25V283.77H428.07V273.12Z" fill="white"/>
<path d="M428.07 291.74H361.67V302.39H428.07V291.74Z" fill="#3880FF"/>
<path opacity="0.2" d="M428.07 291.74H364.25V302.39H428.07V291.74Z" fill="white"/>
<path d="M428.07 310.37H361.67V321.02H428.07V310.37Z" fill="#3880FF"/>
<path opacity="0.2" d="M428.07 310.37H364.25V321.02H428.07V310.37Z" fill="white"/>
<path d="M428.07 330.9H361.67V341.55H428.07V330.9Z" fill="#3880FF"/>
<path opacity="0.2" d="M428.07 330.9H364.25V341.55H428.07V330.9Z" fill="white"/>
<path d="M428.07 351.431H361.67V362.081H428.07V351.431Z" fill="#3880FF"/>
<path opacity="0.2" d="M428.07 351.431H364.25V362.081H428.07V351.431Z" fill="white"/>
<path d="M428.07 371.95H361.67V382.6H428.07V371.95Z" fill="#3880FF"/>
<path opacity="0.2" d="M428.07 371.95H364.25V382.6H428.07V371.95Z" fill="white"/>
<path d="M428.07 392.48H361.67V403.13H428.07V392.48Z" fill="#3880FF"/>
<path opacity="0.2" d="M428.07 392.48H364.25V403.13H428.07V392.48Z" fill="white"/>
<path d="M463.14 197.54H435.09V201.64H463.14V197.54Z" fill="#3880FF"/>
<path d="M463.14 196.54H354.65V201.64H463.14V196.54Z" fill="#F0F5FF"/>
<path d="M466.95 201.65H352.38V206.75H466.95V201.65Z" fill="#3880FF"/>
<path d="M466.95 192.44H352.38V197.54H466.95V192.44Z" fill="#3880FF"/>
<path opacity="0.05" d="M466.95 201.65H352.38V206.75H466.95V201.65Z" fill="#002F81"/>
<path opacity="0.05" d="M466.95 192.44H352.38V197.54H466.95V192.44Z" fill="#002F81"/>
<path opacity="0.2" d="M354.65 290.53H286.16V292.05H354.65V290.53Z" fill="white"/>
<path opacity="0.2" d="M354.65 323.46H286.16V324.98H354.65V323.46Z" fill="white"/>
<path opacity="0.2" d="M354.65 356.671H286.16V358.191H354.65V356.671Z" fill="white"/>
<path opacity="0.2" d="M219.46 219.521H200.29V222.671H219.46V219.521Z" fill="#002F81"/>
<path opacity="0.2" d="M219.46 213.21H200.29V216.36H219.46V213.21Z" fill="#002F81"/>
<path opacity="0.2" d="M466.95 201.65H435.09V206.75H466.95V201.65Z" fill="#002F81"/>
<path opacity="0.2" d="M466.95 192.44H435.09V197.54H466.95V192.44Z" fill="#002F81"/>
<path opacity="0.4" d="M78.5798 341.271H33.0498V412.781H105.71V341.271V309.561L78.5798 341.271Z" fill="white"/>
<path d="M50.4496 355.771H39.6396V366.581H50.4496V355.771Z" fill="#3880FF"/>
<path d="M72.4496 355.771H61.6396V366.581H72.4496V355.771Z" fill="#3880FF"/>
<path d="M94.4496 355.771H83.6396V366.581H94.4496V355.771Z" fill="#3880FF"/>
<path d="M50.4496 373.96H39.6396V384.77H50.4496V373.96Z" fill="#3880FF"/>
<path d="M72.4496 373.96H61.6396V384.77H72.4496V373.96Z" fill="#3880FF"/>
<path d="M94.4496 373.96H83.6396V384.77H94.4496V373.96Z" fill="#3880FF"/>
<path d="M50.4496 392.15H39.6396V402.96H50.4496V392.15Z" fill="#3880FF"/>
<path d="M72.4496 392.15H61.6396V402.96H72.4496V392.15Z" fill="#3880FF"/>
<path d="M94.4496 392.15H83.6396V402.96H94.4496V392.15Z" fill="#3880FF"/>
<path opacity="0.2" d="M51.6498 355.771H40.8398V366.581H51.6498V355.771Z" fill="white"/>
<path opacity="0.2" d="M73.6396 355.771H62.8296V366.581H73.6396V355.771Z" fill="white"/>
<path opacity="0.2" d="M95.6396 355.771H84.8296V366.581H95.6396V355.771Z" fill="white"/>
<path opacity="0.2" d="M51.6498 373.96H40.8398V384.77H51.6498V373.96Z" fill="white"/>
<path opacity="0.2" d="M73.6396 373.96H62.8296V384.77H73.6396V373.96Z" fill="white"/>
<path opacity="0.2" d="M95.6396 373.96H84.8296V384.77H95.6396V373.96Z" fill="white"/>
<path opacity="0.2" d="M51.6498 392.15H40.8398V402.96H51.6498V392.15Z" fill="white"/>
<path opacity="0.2" d="M73.6396 392.15H62.8296V402.96H73.6396V392.15Z" fill="white"/>
<path opacity="0.2" d="M95.6396 392.15H84.8296V402.96H95.6396V392.15Z" fill="white"/>
<path d="M100.66 409.11C104.34 408.98 107.952 408.084 111.267 406.479C114.581 404.874 117.524 402.596 119.908 399.79C122.293 396.984 124.066 393.712 125.115 390.182C126.164 386.652 126.465 382.943 126 379.29C125.34 374.08 123.16 369.21 121.62 364.19C118.71 354.7 117.78 343.99 111.1 336.64C109.038 334.38 106.528 332.574 103.729 331.338C100.93 330.103 97.9045 329.465 94.8451 329.465C91.7857 329.465 88.7599 330.103 85.961 331.338C83.1621 332.574 80.6517 334.38 78.5901 336.64C74.2601 341.39 72.2101 347.81 71.3201 354.18C70.4301 360.55 70.5501 367 70.0001 373.37C69.5001 378.68 68.4901 383.98 68.7101 389.31C68.9301 394.64 70.5301 400.19 74.4401 403.82C76.4363 405.522 78.6655 406.929 81.0601 408C83.3655 409.284 85.865 410.182 88.4601 410.66C89.7605 410.89 91.0961 410.826 92.3683 410.471C93.6404 410.116 94.8166 409.48 95.8101 408.61C97.3938 409.012 99.0277 409.18 100.66 409.11Z" fill="#3880FF"/>
<path opacity="0.7" d="M100.66 409.11C104.34 408.98 107.952 408.084 111.267 406.479C114.581 404.874 117.524 402.596 119.908 399.79C122.293 396.984 124.066 393.712 125.115 390.182C126.164 386.652 126.465 382.943 126 379.29C125.34 374.08 123.16 369.21 121.62 364.19C118.71 354.7 117.78 343.99 111.1 336.64C109.038 334.38 106.528 332.574 103.729 331.338C100.93 330.103 97.9045 329.465 94.8451 329.465C91.7857 329.465 88.7599 330.103 85.961 331.338C83.1621 332.574 80.6517 334.38 78.5901 336.64C74.2601 341.39 72.2101 347.81 71.3201 354.18C70.4301 360.55 70.5501 367 70.0001 373.37C69.5001 378.68 68.4901 383.98 68.7101 389.31C68.9301 394.64 70.5301 400.19 74.4401 403.82C76.4363 405.522 78.6655 406.929 81.0601 408C83.3655 409.284 85.865 410.182 88.4601 410.66C89.7605 410.89 91.0961 410.826 92.3683 410.471C93.6404 410.116 94.8166 409.48 95.8101 408.61C97.3938 409.012 99.0277 409.18 100.66 409.11Z" fill="white"/>
<path d="M88.4302 428.501V427.171L90.6402 425.301C90.6402 425.301 93.2802 398.301 93.7302 390.481C94.1802 382.661 94.7302 370.341 91.8502 361.401C94.4016 367.497 96.2177 373.875 97.2602 380.401C97.2602 380.401 100.68 368.101 106.75 360.271C106.75 360.271 99.3502 379.171 100.35 396.751C100.849 406.741 102.102 416.679 104.1 426.481L105.42 427.361L105.53 428.471L88.4302 428.501Z" fill="#3880FF"/>
<path d="M95.1798 385.121C95.1798 385.121 93.2598 376.601 88.0898 372.381C88.0898 372.381 92.4198 378.381 93.8398 388.461C95.2598 398.541 96.7698 392.141 96.7698 392.141L95.1798 385.121Z" fill="#3880FF"/>
<path d="M92.9201 408.171C92.3044 406.08 90.927 404.296 89.0601 403.171C89.0601 403.171 91.0601 405.091 91.9801 411.241C92.9001 417.391 95.2001 414.001 95.2001 414.001L95.3801 410.611L92.9201 408.171Z" fill="#3880FF"/>
<path opacity="0.2" d="M91.9999 411.23C90.9999 405.08 89.0799 403.16 89.0799 403.16C90.5022 404.038 91.6518 405.295 92.3999 406.79C92.9999 400.24 93.5599 393.71 93.7499 390.48C93.7499 389.84 93.8199 389.16 93.8499 388.48C92.4299 378.36 88.1099 372.4 88.1099 372.4C91.1099 374.85 93.0199 378.76 94.1099 381.6C94.1999 374.94 93.8099 367.42 91.8899 361.42C94.4413 367.516 96.2574 373.894 97.2999 380.42C97.2999 380.42 100.72 368.12 106.79 360.29C106.79 360.29 99.3899 379.19 100.39 396.77C100.888 406.76 102.142 416.699 104.14 426.5L105.46 427.38L105.57 428.49H88.4299V427.16L90.6399 425.29C90.6399 425.29 91.2699 418.78 91.9999 411.23Z" fill="#002F81"/>
<path d="M395.22 413.39C391.066 413.242 386.988 412.229 383.247 410.416C379.505 408.604 376.183 406.031 373.491 402.864C370.799 399.696 368.797 396.002 367.612 392.017C366.428 388.032 366.086 383.844 366.61 379.72C367.36 373.84 369.82 368.34 371.56 362.72C374.85 352 375.9 339.91 383.44 331.62C385.765 329.067 388.598 327.027 391.757 325.631C394.916 324.235 398.331 323.514 401.785 323.514C405.239 323.514 408.654 324.235 411.813 325.631C414.972 327.027 417.805 329.067 420.13 331.62C425.02 336.97 427.34 344.23 428.35 351.41C429.36 358.59 429.2 365.88 429.87 373.11C430.43 379.11 431.57 385.11 431.33 391.11C431.09 397.11 429.27 403.39 424.86 407.5C422.592 409.428 420.06 411.021 417.34 412.23C414.736 413.68 411.912 414.694 408.98 415.23C407.511 415.491 406.002 415.418 404.565 415.017C403.129 414.615 401.801 413.895 400.68 412.91C398.893 413.335 397.054 413.497 395.22 413.39Z" fill="#3880FF"/>
<path opacity="0.7" d="M395.22 413.39C391.066 413.242 386.988 412.229 383.247 410.416C379.505 408.604 376.183 406.031 373.491 402.864C370.799 399.696 368.797 396.002 367.612 392.017C366.428 388.032 366.086 383.844 366.61 379.72C367.36 373.84 369.82 368.34 371.56 362.72C374.85 352 375.9 339.91 383.44 331.62C385.765 329.067 388.598 327.027 391.757 325.631C394.916 324.235 398.331 323.514 401.785 323.514C405.239 323.514 408.654 324.235 411.813 325.631C414.972 327.027 417.805 329.067 420.13 331.62C425.02 336.97 427.34 344.23 428.35 351.41C429.36 358.59 429.2 365.88 429.87 373.11C430.43 379.11 431.57 385.11 431.33 391.11C431.09 397.11 429.27 403.39 424.86 407.5C422.592 409.428 420.06 411.021 417.34 412.23C414.736 413.68 411.912 414.694 408.98 415.23C407.511 415.491 406.002 415.418 404.565 415.017C403.129 414.615 401.801 413.895 400.68 412.91C398.893 413.335 397.054 413.497 395.22 413.39Z" fill="white"/>
<path d="M409 435.271V433.781L406.51 431.661C406.51 431.661 403.51 401.151 403.02 392.361C402.53 383.571 401.9 369.621 405.14 359.531C402.261 366.419 400.217 373.627 399.05 381.001C399.05 381.001 395.19 367.121 388.34 358.271C388.34 358.271 396.69 379.611 395.57 399.461C394.999 410.731 393.582 421.943 391.33 433.001L389.84 434.001L389.71 435.241L409 435.271Z" fill="#3880FF"/>
<path d="M401.4 386.311C401.4 386.311 403.56 376.691 409.4 371.921C409.4 371.921 404.51 378.651 402.91 390.081C401.31 401.511 399.59 394.221 399.59 394.221L401.4 386.311Z" fill="#3880FF"/>
<path d="M404 412.331C404.693 409.965 406.249 407.945 408.36 406.671C408.36 406.671 406.13 408.841 405.07 415.781C404.01 422.721 401.42 418.861 401.42 418.861L401.23 415.041L404 412.331Z" fill="#3880FF"/>
<path opacity="0.2" d="M405 415.781C406.06 408.841 408.29 406.671 408.29 406.671C406.676 407.657 405.373 409.078 404.53 410.771C403.86 403.381 403.23 396.001 403.02 392.361C403.02 391.631 402.94 390.861 402.9 390.071C404.5 378.651 409.39 371.921 409.39 371.921C405.99 374.691 403.84 379.101 402.63 382.311C402.53 374.791 402.97 366.311 405.14 359.531C402.261 366.419 400.217 373.627 399.05 381.001C399.05 381.001 395.19 367.121 388.34 358.271C388.34 358.271 396.69 379.611 395.57 399.461C394.999 410.731 393.582 421.943 391.33 433.001L389.84 434.001L389.71 435.241H409V433.751L406.51 431.631C406.51 431.631 405.81 424.311 405 415.781Z" fill="#002F81"/>
</svg>
