<svg width="1533" height="466" viewBox="0 0 1533 466" fill="none" xmlns="http://www.w3.org/2000/svg">
<path d="M6.0778 284.096C5.89986 284.096 5.72712 284.034 5.58845 283.921C5.44978 283.809 5.3536 283.651 5.31597 283.476C-4.4485 236.406 -0.761305 190.89 16.3776 146.927C33.2799 103.57 64.3509 65.575 102.884 39.6576C171.255 -6.32901 259.202 -12.6627 333.212 22.4416C406.252 57.0902 457.385 128.666 465.115 209.913C467.455 234.506 466.034 259.054 460.85 283.558C460.776 283.916 460.556 284.096 460.193 284.096H327.394C326.538 284.096 326.109 283.67 326.109 282.818C326.095 267.691 326.095 252.551 326.109 237.399C326.114 230.931 325.918 225.962 325.519 222.491C320.956 182.906 291.677 150.811 253.048 142.222C197.807 129.935 145.883 169.417 140.587 224.769C140.283 227.971 140.129 232.945 140.124 239.692C140.119 254.411 140.119 269.12 140.124 283.819C140.124 283.892 140.096 283.963 140.045 284.015C139.995 284.066 139.926 284.096 139.855 284.096H6.0778Z" fill="#EEBB71"/>
<path d="M170.022 284.103C169.848 284.103 169.681 284.034 169.558 283.91C169.434 283.787 169.365 283.62 169.365 283.446V233.612C169.365 216.581 176.062 200.246 187.984 188.203C199.905 176.16 216.074 169.394 232.934 169.394H233.531C250.391 169.394 266.56 176.16 278.481 188.203C290.402 200.246 297.1 216.581 297.1 233.612V283.446C297.1 283.62 297.031 283.787 296.907 283.91C296.784 284.034 296.617 284.103 296.442 284.103H170.022Z" fill="black"/>
<path d="M139.773 446.882C81.5523 421.391 36.2154 373.141 14.1819 313.576C14.1674 313.536 14.1628 313.494 14.1683 313.452C14.1738 313.41 14.1893 313.37 14.2135 313.336C14.2377 313.301 14.2699 313.273 14.3073 313.254C14.3447 313.235 14.3862 313.224 14.4283 313.225C34.8187 313.225 55.2439 313.225 75.704 313.225C107.619 313.232 134.493 336.072 139.34 367.644C139.843 370.925 140.099 375.892 140.109 382.544C140.139 403.916 140.139 425.287 140.109 446.658C140.109 446.907 139.997 446.982 139.773 446.882Z" fill="black"/>
<path d="M169.507 457.615C169.485 457.609 169.466 457.596 169.452 457.578C169.439 457.561 169.432 457.54 169.432 457.518C169.452 432.153 169.45 406.774 169.425 381.379C169.42 374.881 169.704 369.919 170.276 366.494C174.661 340.352 194.984 319.558 221.051 314.472C256.237 307.608 290.326 331.479 296.114 366.546C296.672 369.922 296.956 374.881 296.965 381.424C296.995 406.654 296.993 431.887 296.958 457.122C296.958 457.371 296.836 457.528 296.592 457.593C254.327 469.14 211.966 469.147 169.507 457.615Z" fill="black"/>
<path d="M327.573 364.178C333.071 337.843 354.537 317.773 381.096 313.957C384.248 313.504 389.215 313.267 395.997 313.247C414.54 313.187 433.135 313.19 451.783 313.255C452.052 313.255 452.139 313.382 452.044 313.635C429.988 373.253 384.659 421.338 326.461 446.867C326.431 446.88 326.398 446.885 326.366 446.883C326.334 446.88 326.303 446.87 326.277 446.853C326.25 446.836 326.228 446.812 326.213 446.785C326.199 446.758 326.191 446.727 326.192 446.696C326.012 423.995 326.07 401.274 326.364 378.534C326.443 372.454 326.847 367.669 327.573 364.178Z" fill="black"/>
<path d="M738.48 321.6V155.2H781.68V321.6H738.48Z" fill="black"/>
<path d="M807.23 321.6V155.2H849.79V179.52C858.43 160.96 875.07 151.36 900.67 151.36C924.03 151.36 943.87 162.56 954.75 182.72C965.95 162.56 981.95 151.36 1011.07 151.36C1046.91 151.36 1074.43 177.92 1074.43 219.84V321.6H1031.23V230.4C1031.23 201.6 1017.47 189.12 997.95 189.12C977.79 189.12 964.03 198.4 964.03 230.4V321.6H920.83V230.4C920.83 201.6 906.43 189.12 884.99 189.12C866.75 189.12 850.43 201.6 850.43 230.4V321.6H807.23Z" fill="black"/>
<path d="M1180.72 325.76C1129.2 325.76 1092.08 286.72 1092.08 238.72C1092.08 190.72 1129.2 151.36 1180.72 151.36C1232.24 151.36 1269.36 190.72 1269.36 238.72C1269.36 286.72 1232.24 325.76 1180.72 325.76ZM1135.28 238.72C1135.28 264.64 1153.2 286.4 1180.72 286.4C1208.24 286.4 1226.16 264.64 1226.16 238.72C1226.16 212.8 1208.24 190.72 1180.72 190.72C1153.2 190.72 1135.28 212.8 1135.28 238.72Z" fill="black"/>
<path d="M1384.16 325.76C1354.4 325.76 1339.36 313.28 1330.4 294.4V321.6H1288.48V88H1331.68V180.8C1340.64 163.2 1355.68 151.68 1384.16 151.68C1429.92 151.68 1466.4 191.04 1466.4 239.04C1466.4 287.04 1429.92 325.76 1384.16 325.76ZM1330.4 239.04C1330.4 264.96 1348.64 286.72 1377.12 286.72C1404.64 286.72 1423.2 264 1423.2 238.72C1423.2 212.8 1404.64 190.72 1377.12 190.72C1348.64 190.72 1330.4 213.12 1330.4 239.04Z" fill="black"/>
<path d="M1485.67 321.6V155.2H1528.87V321.6H1485.67Z" fill="black"/>
<path d="M1507.11 90.5601C1492.39 90.5601 1481.19 102.08 1481.19 115.84C1481.19 129.92 1492.39 141.44 1507.11 141.44C1522.15 141.44 1533.03 130.24 1533.03 115.84C1533.03 102.08 1522.15 90.5601 1507.11 90.5601Z" fill="#EEBB71"/>
<path d="M759.92 90.5601C745.2 90.5601 734 102.08 734 115.84C734 129.92 745.2 141.44 759.92 141.44C774.96 141.44 785.84 130.24 785.84 115.84C785.84 102.08 774.96 90.5601 759.92 90.5601Z" fill="#EEBB71"/>
</svg>
