<svg width="2998" height="1177" viewBox="0 0 2998 1177" fill="none" xmlns="http://www.w3.org/2000/svg">
<g filter="url(#filter0_d_237_17)">
<path d="M144 524.759C144 207.91 211.91 140 528.759 140H648.241C965.09 140 1033 207.91 1033 524.759V644.241C1033 961.09 965.09 1029 648.241 1029H528.759C211.91 1029 144 961.09 144 644.241V524.759Z" fill="white"/>
</g>
<path d="M266.604 657.144C266.352 657.144 266.108 657.057 265.911 656.897C265.715 656.738 265.579 656.515 265.526 656.266C251.702 589.638 256.922 525.209 281.185 462.979C305.114 401.605 349.1 347.823 403.65 311.136C500.442 246.041 624.947 237.076 729.722 286.767C833.123 335.813 905.51 437.129 916.454 552.137C919.767 586.949 917.755 621.698 910.417 656.383C910.311 656.89 910.001 657.144 909.486 657.144H721.485C720.273 657.144 719.667 656.541 719.667 655.336C719.646 633.923 719.646 612.492 719.667 591.044C719.674 581.888 719.395 574.854 718.831 569.941C712.371 513.907 670.922 468.477 616.235 456.318C538.031 438.927 464.523 494.813 457.026 573.166C456.596 577.698 456.378 584.739 456.371 594.29C456.364 615.125 456.364 635.946 456.371 656.753C456.371 656.856 456.331 656.956 456.259 657.029C456.188 657.102 456.091 657.144 455.99 657.144H266.604Z" fill="#0050DC"/>
<path d="M498.697 657.154C498.451 657.154 498.214 657.056 498.039 656.882C497.865 656.707 497.767 656.471 497.767 656.224V585.684C497.767 561.575 507.248 538.454 524.125 521.406C541.002 504.358 563.892 494.781 587.76 494.781H588.606C612.473 494.781 635.363 504.358 652.24 521.406C669.117 538.454 678.598 561.575 678.598 585.684V656.224C678.598 656.471 678.5 656.707 678.326 656.882C678.151 657.056 677.915 657.154 677.668 657.154H498.697Z" fill="black"/>
<path d="M455.874 887.573C373.452 851.488 309.269 783.19 278.077 698.874C278.056 698.818 278.05 698.758 278.058 698.699C278.065 698.64 278.087 698.583 278.122 698.534C278.156 698.486 278.201 698.446 278.254 698.418C278.307 698.391 278.366 698.377 278.426 698.377C307.292 698.377 336.208 698.377 365.173 698.377C410.354 698.388 448.398 730.718 455.261 775.408C455.973 780.053 456.336 787.084 456.35 796.501C456.392 826.752 456.392 857.004 456.35 887.255C456.35 887.608 456.191 887.714 455.874 887.573Z" fill="black"/>
<path d="M497.968 902.764C497.937 902.755 497.909 902.737 497.89 902.712C497.871 902.687 497.861 902.657 497.862 902.627C497.89 866.723 497.887 830.797 497.851 794.851C497.844 785.652 498.246 778.629 499.057 773.78C505.264 736.776 534.035 707.342 570.937 700.142C620.75 690.426 669.008 724.215 677.203 773.854C677.992 778.632 678.394 785.652 678.408 794.914C678.45 830.628 678.447 866.346 678.398 902.067C678.398 902.419 678.225 902.641 677.879 902.733C618.046 919.078 558.076 919.088 497.968 902.764Z" fill="black"/>
<path d="M721.739 770.503C729.522 733.224 759.911 704.815 797.511 699.413C801.973 698.772 809.004 698.437 818.605 698.409C844.856 698.324 871.181 698.327 897.58 698.419C897.961 698.419 898.084 698.599 897.95 698.958C866.726 783.348 802.554 851.414 720.164 887.551C720.122 887.569 720.076 887.576 720.031 887.573C719.985 887.569 719.941 887.554 719.904 887.53C719.866 887.506 719.835 887.473 719.814 887.434C719.793 887.396 719.782 887.352 719.783 887.308C719.53 855.175 719.611 823.013 720.026 790.823C720.139 782.217 720.71 775.444 721.739 770.503Z" fill="black"/>
<path d="M2862.42 720.969V479.519H2923.24V525.487C2931.6 490.663 2956.21 471.625 2998 473.947V532.917H2989.18C2952.96 532.917 2925.1 557.062 2925.1 597.458V720.969H2862.42Z" fill="#0050DC"/>
<path d="M2762.66 720.959V382H2825.35V720.959H2762.66Z" fill="black"/>
<path d="M2615.38 726.995C2572.2 726.995 2550.37 708.887 2537.37 681.491V720.959H2476.55V382H2539.23V516.655C2552.23 491.117 2574.05 474.401 2615.38 474.401C2681.77 474.401 2734.71 531.514 2734.71 601.163C2734.71 670.812 2681.77 726.995 2615.38 726.995ZM2537.37 601.163C2537.37 638.773 2563.84 670.348 2605.16 670.348C2645.09 670.348 2672.02 637.38 2672.02 600.698C2672.02 563.088 2645.09 531.049 2605.16 531.049C2563.84 531.049 2537.37 563.552 2537.37 601.163Z" fill="black"/>
<path d="M2320.19 726.999C2245.43 726.999 2191.57 670.351 2191.57 600.701C2191.57 531.052 2245.43 473.94 2320.19 473.94C2394.94 473.94 2448.8 531.052 2448.8 600.701C2448.8 670.351 2394.94 726.999 2320.19 726.999ZM2254.26 600.701C2254.26 638.312 2280.26 669.886 2320.19 669.886C2360.12 669.886 2386.12 638.312 2386.12 600.701C2386.12 563.091 2360.12 531.052 2320.19 531.052C2280.26 531.052 2254.26 563.091 2254.26 600.701Z" fill="black"/>
<path d="M1778.26 720.962V479.512H1840.01V514.801C1852.55 487.87 1876.69 473.94 1913.84 473.94C1947.73 473.94 1976.52 490.191 1992.31 519.444C2008.56 490.191 2031.77 473.94 2074.03 473.94C2126.03 473.94 2165.96 512.479 2165.96 573.306V720.962H2103.28V588.629C2103.28 546.839 2083.31 528.731 2054.99 528.731C2025.74 528.731 2005.77 542.196 2005.77 588.629V720.962H1943.09V588.629C1943.09 546.839 1922.19 528.731 1891.09 528.731C1864.62 528.731 1840.94 546.839 1840.94 588.629V720.962H1778.26Z" fill="black"/>
<path d="M1678.5 720.972V479.522H1741.18V720.972H1678.5Z" fill="black"/>
<path d="M1709.61 385.717C1688.25 385.717 1672 402.433 1672 422.399C1672 442.829 1688.25 459.545 1709.61 459.545C1731.43 459.545 1747.22 443.293 1747.22 422.399C1747.22 402.433 1731.43 385.717 1709.61 385.717Z" fill="#0050DC"/>
<defs>
<filter id="filter0_d_237_17" x="0" y="0" width="1177" height="1177" filterUnits="userSpaceOnUse" color-interpolation-filters="sRGB">
<feFlood flood-opacity="0" result="BackgroundImageFix"/>
<feColorMatrix in="SourceAlpha" type="matrix" values="0 0 0 0 0 0 0 0 0 0 0 0 0 0 0 0 0 0 127 0" result="hardAlpha"/>
<feOffset dy="4"/>
<feGaussianBlur stdDeviation="72"/>
<feComposite in2="hardAlpha" operator="out"/>
<feColorMatrix type="matrix" values="0 0 0 0 0 0 0 0 0 0 0 0 0 0 0 0 0 0 0.25 0"/>
<feBlend mode="normal" in2="BackgroundImageFix" result="effect1_dropShadow_237_17"/>
<feBlend mode="normal" in="SourceGraphic" in2="effect1_dropShadow_237_17" result="shape"/>
</filter>
</defs>
</svg>
