<svg width="1648" height="467" viewBox="0 0 1648 467" fill="none" xmlns="http://www.w3.org/2000/svg">
<path d="M6.0778 284.096C5.89986 284.096 5.72712 284.034 5.58845 283.921C5.44978 283.809 5.3536 283.651 5.31597 283.476C-4.4485 236.406 -0.761305 190.89 16.3776 146.927C33.2799 103.57 64.3509 65.575 102.884 39.6576C171.255 -6.32901 259.202 -12.6627 333.212 22.4416C406.252 57.0902 457.385 128.666 465.115 209.913C467.455 234.506 466.034 259.054 460.85 283.558C460.776 283.916 460.556 284.096 460.193 284.096H327.394C326.538 284.096 326.109 283.67 326.109 282.818C326.095 267.691 326.095 252.551 326.109 237.399C326.114 230.931 325.918 225.962 325.519 222.491C320.956 182.906 291.677 150.811 253.048 142.222C197.807 129.935 145.883 169.417 140.587 224.769C140.283 227.971 140.129 232.945 140.124 239.692C140.119 254.411 140.119 269.12 140.124 283.819C140.124 283.892 140.096 283.963 140.045 284.015C139.995 284.066 139.926 284.096 139.855 284.096H6.0778Z" fill="#0050DC"/>
<path d="M170.023 284.103C169.848 284.103 169.681 284.034 169.558 283.91C169.434 283.787 169.365 283.62 169.365 283.446V233.612C169.365 216.581 176.063 200.246 187.984 188.203C199.905 176.16 216.074 169.394 232.934 169.394H233.531C250.391 169.394 266.56 176.16 278.481 188.203C290.403 200.246 297.1 216.581 297.1 233.612V283.446C297.1 283.62 297.031 283.787 296.908 283.91C296.784 284.034 296.617 284.103 296.443 284.103H170.023Z" fill="black"/>
<path d="M139.773 446.882C81.5523 421.391 36.2154 373.141 14.1819 313.576C14.1674 313.536 14.1628 313.494 14.1683 313.452C14.1738 313.41 14.1893 313.37 14.2135 313.336C14.2377 313.301 14.2699 313.273 14.3073 313.254C14.3447 313.235 14.3862 313.224 14.4283 313.225C34.8187 313.225 55.2439 313.225 75.704 313.225C107.619 313.232 134.493 336.072 139.34 367.644C139.843 370.925 140.099 375.892 140.109 382.544C140.139 403.916 140.139 425.287 140.109 446.658C140.109 446.907 139.997 446.982 139.773 446.882Z" fill="black"/>
<path d="M169.507 457.615C169.485 457.609 169.466 457.596 169.452 457.578C169.439 457.561 169.432 457.54 169.432 457.518C169.452 432.153 169.45 406.774 169.425 381.379C169.42 374.881 169.704 369.919 170.276 366.494C174.661 340.352 194.984 319.558 221.051 314.472C256.237 307.608 290.326 331.479 296.114 366.546C296.672 369.922 296.956 374.881 296.965 381.424C296.995 406.654 296.993 431.887 296.958 457.122C296.958 457.371 296.836 457.528 296.592 457.593C254.327 469.14 211.966 469.147 169.507 457.615Z" fill="black"/>
<path d="M327.573 364.178C333.071 337.843 354.537 317.773 381.096 313.957C384.248 313.504 389.215 313.267 395.997 313.247C414.54 313.187 433.135 313.19 451.783 313.255C452.052 313.255 452.139 313.382 452.044 313.635C429.988 373.253 384.659 421.338 326.461 446.867C326.431 446.88 326.398 446.885 326.366 446.883C326.334 446.88 326.303 446.87 326.277 446.853C326.25 446.836 326.228 446.812 326.213 446.785C326.199 446.758 326.191 446.727 326.192 446.696C326.012 423.995 326.07 401.274 326.364 378.534C326.443 372.454 326.847 367.669 327.573 364.178Z" fill="black"/>
<path d="M1553.86 322V155.6H1595.78V187.28C1601.54 163.28 1618.5 150.16 1647.3 151.76V192.4H1641.22C1616.26 192.4 1597.06 209.04 1597.06 236.88V322H1553.86Z" fill="#0050DC"/>
<path d="M1485.11 322V88.3999H1528.31V322H1485.11Z" fill="black"/>
<path d="M1383.6 326.16C1353.84 326.16 1338.8 313.68 1329.84 294.8V322H1287.92V88.3999H1331.12V181.2C1340.08 163.6 1355.12 152.08 1383.6 152.08C1429.36 152.08 1465.84 191.44 1465.84 239.44C1465.84 287.44 1429.36 326.16 1383.6 326.16ZM1329.84 239.44C1329.84 265.36 1348.08 287.12 1376.56 287.12C1404.08 287.12 1422.64 264.4 1422.64 239.12C1422.64 213.2 1404.08 191.12 1376.56 191.12C1348.08 191.12 1329.84 213.52 1329.84 239.44Z" fill="black"/>
<path d="M1180.16 326.16C1128.64 326.16 1091.52 287.12 1091.52 239.12C1091.52 191.12 1128.64 151.76 1180.16 151.76C1231.68 151.76 1268.8 191.12 1268.8 239.12C1268.8 287.12 1231.68 326.16 1180.16 326.16ZM1134.72 239.12C1134.72 265.04 1152.64 286.8 1180.16 286.8C1207.68 286.8 1225.6 265.04 1225.6 239.12C1225.6 213.2 1207.68 191.12 1180.16 191.12C1152.64 191.12 1134.72 213.2 1134.72 239.12Z" fill="black"/>
<path d="M806.675 322V155.6H849.235V179.92C857.875 161.36 874.515 151.76 900.115 151.76C923.475 151.76 943.315 162.96 954.195 183.12C965.395 162.96 981.395 151.76 1010.51 151.76C1046.35 151.76 1073.87 178.32 1073.87 220.24V322H1030.67V230.8C1030.67 202 1016.91 189.52 997.395 189.52C977.235 189.52 963.475 198.8 963.475 230.8V322H920.275V230.8C920.275 202 905.875 189.52 884.435 189.52C866.195 189.52 849.875 202 849.875 230.8V322H806.675Z" fill="black"/>
<path d="M737.925 322V155.6H781.125V322H737.925Z" fill="black"/>
<path d="M759.365 90.96C744.645 90.96 733.445 102.48 733.445 116.24C733.445 130.32 744.645 141.84 759.365 141.84C774.405 141.84 785.285 130.64 785.285 116.24C785.285 102.48 774.405 90.96 759.365 90.96Z" fill="#0050DC"/>
</svg>
