<svg width="546" height="198" viewBox="0 0 546 198" fill="none" xmlns="http://www.w3.org/2000/svg">
<path d="M534.651 114.772C535.874 116.496 536.67 117.964 537.04 119.177C537.413 120.408 537.712 121.848 537.936 123.496L540.523 143.262L542.139 163.434C542.227 165.438 542.101 167.719 541.761 170.278C541.572 171.662 541.102 172.899 540.353 173.988C540.225 174.17 540.059 174.323 539.866 174.434C539.674 174.545 539.459 174.613 539.237 174.632C539.015 174.651 538.792 174.622 538.583 174.546C538.374 174.469 538.184 174.348 538.027 174.19C535.324 171.471 534.352 165.489 533.935 161.815L533.033 152.713L531.906 143.213C531.234 137.523 530.526 132.04 529.782 126.764C529.624 125.672 529.028 125.145 527.993 125.182C526.13 125.247 524.304 125.542 522.514 126.068C519.331 127.009 516.33 127.929 513.51 128.829L493.131 134.88C490.227 135.625 486.839 136.573 483.901 135.867C479.439 134.802 481.98 131.158 484.802 130.263C487.636 129.37 490.461 128.425 493.278 127.429L512.019 121.017L515.575 120.023C521.851 117.175 528.21 115.424 534.651 114.772Z" fill="#3880FF"/>
<path d="M360.797 150.907C363.48 153.954 366.482 156.817 369.802 159.496C375.98 164.525 382.887 168.707 390.525 172.043L396.315 174.283C400.715 175.877 405.141 177.101 409.594 177.955C416.287 179.371 422.949 180.184 429.579 180.396C433.329 180.599 436.498 180.627 439.087 180.48C449.625 179.883 460.007 178.099 470.233 175.127C486.501 170.181 499.874 161.163 510.918 148.515C513.435 145.632 519.107 136.334 523.076 142.42C523.552 144.634 523.155 146.62 521.882 148.378C513.345 160.155 502.638 169.235 489.759 175.62L481.436 179.437L470.01 183.358C463.315 185.274 456.359 186.751 449.141 187.79C442.51 188.664 435.918 189.034 429.364 188.9C422.292 188.634 415.373 187.716 408.609 186.146C402.006 184.482 395.57 182.201 389.304 179.303C380.273 174.902 371.344 169.357 362.519 162.667C351.11 154.012 343.455 142.849 339.551 129.176C338.567 125.865 338.079 122.455 338.088 118.946C338.094 117.643 338.833 116.464 339.96 116.004C340.984 115.587 341.659 115.976 341.988 117.17C345.51 129.99 351.779 141.235 360.797 150.907Z" fill="#3880FF"/>
<path d="M12.1345 125.655C12.2951 126.178 12.4863 126.711 12.7081 127.256C12.9299 127.801 13.158 128.344 13.3923 128.885C13.639 129.422 13.8752 129.969 14.1008 130.527C14.3226 131.071 14.5177 131.618 14.6859 132.165C14.8732 132.775 14.8145 133.338 14.5099 133.854C14.2013 134.357 13.6924 134.718 12.9829 134.936C12.6344 135.043 12.272 135.038 11.8959 134.922C11.5321 134.803 11.2609 134.518 11.0821 134.069C10.8402 133.503 10.5772 132.869 10.2933 132.166C10.0179 131.447 9.73682 130.709 9.45 129.953C9.17181 129.18 8.89362 128.407 8.61542 127.635C8.3334 126.85 8.06908 126.1 7.82245 125.386C7.57199 124.659 7.34687 123.992 7.1471 123.386C6.9435 122.768 6.7767 122.247 6.64672 121.824C6.53203 121.45 6.44796 121.088 6.39453 120.737C6.34109 120.385 6.35705 120.06 6.4424 119.762C6.52775 119.463 6.6844 119.197 6.91235 118.963C7.15276 118.726 7.50945 118.535 7.98243 118.39C8.34339 118.279 8.78806 118.285 9.31644 118.409C9.84099 118.52 10.4253 118.715 11.0695 118.994C11.726 119.269 12.4348 119.603 13.1956 119.996C13.9527 120.377 14.7379 120.782 15.5514 121.214C16.3649 121.645 17.1947 122.085 18.0408 122.533C18.8954 122.965 19.7468 123.364 20.5947 123.73C20.9738 123.9 21.4035 124.102 21.8839 124.336C22.3768 124.566 22.8702 124.775 23.3641 124.964C23.8704 125.149 24.3572 125.292 24.8243 125.394C25.3 125.479 25.7246 125.465 26.098 125.35C26.4465 125.243 26.6247 125.025 26.6325 124.696C26.649 124.35 26.554 123.841 26.3475 123.169C26.1946 122.671 25.9618 122.068 25.6491 121.361C25.3488 120.649 24.996 119.9 24.5905 119.112C24.185 118.323 23.7421 117.547 23.2619 116.782C22.7779 116.004 22.2857 115.311 21.7853 114.702C21.6772 114.571 21.571 114.447 21.4667 114.33C21.3711 114.196 21.2965 114.041 21.243 113.867C21.155 113.581 21.17 113.297 21.2879 113.016C21.4058 112.734 21.5725 112.479 21.788 112.249C22.0035 112.019 22.2429 111.823 22.5063 111.661C22.7658 111.486 22.9889 111.369 23.1756 111.312C23.5863 111.186 24.0223 111.297 24.4836 111.646C24.941 111.982 25.3969 112.469 25.8513 113.105C26.3144 113.726 26.7625 114.453 27.1958 115.287C27.6252 116.109 28.0254 116.946 28.3964 117.799C28.7799 118.649 29.1145 119.472 29.4004 120.27C29.6948 121.051 29.9243 121.709 30.0887 122.245C30.3983 123.253 30.6281 124.156 30.778 124.955C30.9365 125.737 30.9654 126.429 30.8646 127.033C30.7762 127.632 30.5314 128.143 30.13 128.566C29.7249 128.976 29.1178 129.306 28.3087 129.554C27.6615 129.753 26.943 129.831 26.1532 129.787C25.3597 129.731 24.5269 129.592 23.6549 129.37C22.7915 129.131 21.8966 128.834 20.9701 128.478C20.056 128.119 19.1467 127.73 18.2423 127.313C17.3378 126.897 16.4521 126.474 15.585 126.046C14.7303 125.613 13.9326 125.211 13.1918 124.84C12.8827 124.676 12.6285 124.624 12.4294 124.686C12.2551 124.739 12.1411 124.856 12.0874 125.036C12.0424 125.2 12.0581 125.406 12.1345 125.655ZM42.4389 108.705C43.1235 108.495 43.8157 108.398 44.5155 108.415C45.2153 108.431 45.8652 108.552 46.4653 108.776C47.0655 109.001 47.589 109.33 48.0358 109.765C48.4951 110.196 48.8222 110.729 49.0172 111.364C49.0975 111.625 49.1136 111.899 49.0656 112.186C49.0262 112.457 48.9357 112.717 48.7938 112.965C48.6482 113.2 48.4619 113.414 48.2349 113.606C48.0166 113.782 47.7705 113.912 47.4967 113.996C47.4718 114.004 47.4488 114.018 47.4277 114.038C47.4153 114.042 47.3966 114.048 47.3717 114.055C47.3506 114.075 47.3276 114.089 47.3028 114.097L47.8362 115.568C48.4327 117.332 49.0811 118.556 49.7816 119.24C50.4944 119.92 51.218 120.148 51.9524 119.922C52.2138 119.842 52.4364 119.746 52.6203 119.635C52.8166 119.52 52.9923 119.405 53.1474 119.289C53.3112 119.157 53.4663 119.042 53.6129 118.942C53.7594 118.843 53.9135 118.768 54.0754 118.718C54.3616 118.63 54.6488 118.678 54.9369 118.862C55.2374 119.042 55.4411 119.307 55.5482 119.655C55.6552 120.004 55.6254 120.394 55.4586 120.827C55.3042 121.256 55.0532 121.68 54.7055 122.1C54.354 122.508 53.9311 122.883 53.437 123.225C52.9428 123.568 52.4157 123.825 51.8556 123.997C50.8847 124.295 49.9098 124.159 48.9307 123.588C47.9479 123.005 47.0619 121.983 46.2729 120.522C46.1217 120.296 45.9839 120.202 45.8594 120.241C45.7101 120.287 45.6023 120.401 45.5362 120.585C44.7818 122.519 43.828 124.093 42.6748 125.305C41.5178 126.505 40.2609 127.313 38.9042 127.73C38.2694 127.925 37.6682 128.008 37.1005 127.978C36.5328 127.948 36.0169 127.82 35.5527 127.595C35.0972 127.353 34.6953 127.021 34.347 126.596C34.0074 126.156 33.7439 125.631 33.5566 125.021C33.2928 124.162 33.2023 123.202 33.2852 122.141C33.3805 121.077 33.6103 119.985 33.9746 118.865C34.339 117.745 34.8162 116.638 35.4065 115.544C36.0092 114.446 36.6798 113.437 37.4183 112.515C38.1693 111.59 38.9729 110.791 39.8291 110.12C40.6853 109.448 41.5552 108.977 42.4389 108.705ZM43.807 115.354C43.901 114.862 44.0128 114.494 44.1421 114.25C44.2676 113.994 44.4951 113.781 44.8245 113.612C45.0869 113.49 45.197 113.361 45.155 113.224C45.1244 113.125 45.0546 113.03 44.9455 112.941C44.6096 112.69 44.2746 112.487 43.9406 112.33C43.6027 112.162 43.216 112.144 42.7804 112.278C42.3074 112.423 41.8204 112.723 41.3195 113.176C40.8186 113.63 40.334 114.181 39.8655 114.828C39.4057 115.46 38.9731 116.158 38.5678 116.923C38.1711 117.671 37.8424 118.419 37.5816 119.167C37.3209 119.914 37.1453 120.629 37.055 121.31C36.9647 121.992 36.9921 122.569 37.1374 123.042C37.2674 123.465 37.4807 123.761 37.7774 123.929C38.0866 124.092 38.4403 124.113 38.8386 123.991C39.8592 123.677 40.8069 122.794 41.6817 121.34C42.5564 119.886 43.2648 117.891 43.807 115.354ZM34.2047 106.576C33.8189 106.694 33.4762 106.643 33.1766 106.422C32.8771 106.201 32.6471 105.829 32.4865 105.306C32.3106 104.733 32.4258 104.221 32.8319 103.769C33.238 103.318 34.0012 102.92 35.1214 102.576C35.4201 102.484 35.7739 102.416 36.1827 102.372C36.6001 102.312 37.04 102.259 37.5024 102.212C37.961 102.153 38.4301 102.084 38.9098 102.005C39.3856 101.913 39.8375 101.788 40.2655 101.629C40.6102 101.51 40.9372 101.355 41.2465 101.164C41.5644 100.958 41.8575 100.759 42.1256 100.568C42.3938 100.376 42.6408 100.205 42.8668 100.054C43.1015 99.8864 43.3121 99.774 43.4988 99.7167C44.0714 99.5408 44.5055 99.5573 44.8012 99.7661C45.1055 99.9587 45.3667 100.41 45.5846 101.119C45.6763 101.418 45.6173 101.736 45.4075 102.073C45.2101 102.406 44.9161 102.734 44.5253 103.059C44.1346 103.383 43.6764 103.687 43.1506 103.971C42.6336 104.239 42.1074 104.455 41.5722 104.62C41.1863 104.738 40.7555 104.843 40.2797 104.935C39.8 105.014 39.3204 105.093 38.8407 105.172C38.3697 105.235 37.9212 105.305 37.4951 105.381C37.0777 105.442 36.7321 105.514 36.4582 105.598C35.9977 105.739 35.5817 105.915 35.2101 106.124C34.851 106.33 34.5159 106.48 34.2047 106.576ZM55.3117 115.825C55.2467 115.614 55.199 115.37 55.1685 115.093C55.138 114.816 55.0749 114.522 54.9794 114.211C54.9144 114 54.7713 113.867 54.5502 113.812C54.3416 113.753 54.1042 113.69 53.8381 113.622C53.572 113.554 53.3131 113.443 53.0614 113.288C52.8221 113.13 52.6413 112.852 52.519 112.454C52.4311 112.168 52.4178 111.858 52.4792 111.526C52.5531 111.19 52.7031 110.858 52.9292 110.53C53.4954 109.757 54.1036 109.032 54.754 108.355C55.4168 107.675 56.0943 107.065 56.7868 106.525C57.4916 105.982 58.205 105.511 58.927 105.112C59.6491 104.713 60.3648 104.405 61.0743 104.187C62.2692 103.82 63.4582 103.7 64.6414 103.827C65.8332 103.938 66.9335 104.26 67.9422 104.795C68.9596 105.313 69.8509 106.02 70.6164 106.916C71.3904 107.795 71.9571 108.819 72.3164 109.989C72.6682 111.135 72.76 112.298 72.5919 113.48C72.4324 114.646 72.0666 115.739 71.4946 116.76C70.9226 117.78 70.1577 118.682 69.2 119.467C68.2586 120.26 67.1842 120.842 65.9768 121.213C64.7944 121.576 63.6379 121.713 62.5073 121.625C61.3768 121.536 60.3373 121.256 59.3888 120.784C58.4366 120.301 57.6078 119.642 56.9027 118.81C56.1938 117.965 55.6634 116.971 55.3117 115.825ZM65.3554 117.726C65.8781 117.565 66.3871 117.293 66.8822 116.91C67.3773 116.526 67.794 116.064 68.1322 115.525C68.479 114.968 68.7119 114.352 68.831 113.675C68.9625 112.995 68.9154 112.287 68.6899 111.553C68.4605 110.806 68.1095 110.151 67.6368 109.588C67.1642 109.025 66.6125 108.581 65.9818 108.257C65.3597 107.917 64.6768 107.712 63.933 107.64C63.2017 107.565 62.4564 107.644 61.6971 107.878C60.3155 108.302 59.3684 108.988 58.8557 109.935C58.3393 110.87 58.3085 112.079 58.7635 113.56C59.012 114.369 59.3615 115.086 59.8121 115.71C60.2713 116.318 60.7971 116.81 61.3895 117.187C61.9781 117.551 62.6088 117.786 63.2817 117.893C63.9671 117.996 64.6583 117.94 65.3554 117.726ZM80.0982 100.734C79.9491 100.249 80.0542 99.8147 80.4133 99.432C80.7687 99.0368 81.3509 98.7149 82.16 98.4664C82.3467 98.4091 82.5223 98.3824 82.687 98.3863C82.8517 98.3902 83.0129 98.4496 83.1708 98.5646C83.3374 98.6633 83.5086 98.8218 83.6847 99.0401C83.8607 99.2585 84.0578 99.5453 84.2759 99.9006C84.5092 100.306 84.6757 100.493 84.7753 100.462C84.8624 100.436 84.9128 100.223 84.9264 99.8234C84.9325 99.0451 85.0358 98.3391 85.2362 97.7055C85.4452 97.0555 85.7264 96.4856 86.0799 95.9956C86.4296 95.4932 86.8453 95.0727 87.327 94.734C87.8211 94.3916 88.3669 94.1286 88.9644 93.9451C90.1717 93.5742 91.3689 93.4585 92.5559 93.5979C93.7391 93.7249 94.8345 94.0763 95.8423 94.6521C96.8462 95.2155 97.7342 95.978 98.5063 96.9395C99.2746 97.8886 99.8537 98.9979 100.244 100.267C100.657 101.612 100.802 102.929 100.681 104.219C100.572 105.506 100.229 106.694 99.6512 107.784C99.0695 108.862 98.2707 109.809 97.2546 110.625C96.2547 111.45 95.0702 112.072 93.7011 112.493L92.7374 112.748C92.1773 112.92 91.9947 113.324 92.1897 113.958L95.7741 122.236C95.8266 122.451 95.8112 122.667 95.7278 122.883C95.6607 123.108 95.5361 123.323 95.3541 123.529C95.1846 123.731 94.9619 123.915 94.6861 124.082C94.4228 124.244 94.1355 124.373 93.8244 124.469C92.9282 124.744 92.3529 124.601 92.0985 124.039C91.1414 121.854 90.1875 119.79 89.2369 117.848C88.2987 115.903 87.3921 114.104 86.5169 112.452C85.6504 110.784 84.8399 109.276 84.0852 107.928C83.3306 106.579 82.6644 105.408 82.0867 104.414C81.5214 103.416 81.0671 102.602 80.7237 101.972C80.3679 101.346 80.1594 100.933 80.0982 100.734ZM87.68 103.799C87.9285 104.609 88.2063 105.402 88.5132 106.179C88.8163 106.944 89.1777 107.766 89.5975 108.645C89.8443 109.183 90.2467 109.406 90.8048 109.317C91.1514 109.292 91.5353 109.256 91.9565 109.208C92.3864 109.144 92.7383 109.07 93.0121 108.986C93.8087 108.741 94.4943 108.401 95.0689 107.966C95.6435 107.531 96.0942 107.025 96.4209 106.447C96.7438 105.858 96.9361 105.22 96.9977 104.534C97.0593 103.847 96.9754 103.131 96.746 102.384C96.4669 101.475 96.0825 100.667 95.5927 99.9593C95.0991 99.2392 94.5446 98.6535 93.9293 98.2023C93.3264 97.7473 92.6808 97.4416 91.9926 97.2852C91.3168 97.125 90.6429 97.1481 89.9707 97.3546C89.3857 97.5342 88.8907 97.8293 88.4855 98.2398C88.089 98.634 87.7872 99.1149 87.5801 99.6825C87.3817 100.234 87.2885 100.862 87.3006 101.566C87.3127 102.271 87.4392 103.015 87.68 103.799ZM110.562 90.3558C110.101 90.4973 109.735 90.746 109.463 91.102C109.187 91.4455 108.991 91.8733 108.876 92.3854C108.757 92.8851 108.707 93.4523 108.725 94.087C108.739 94.7092 108.801 95.3779 108.912 96.0931C109.022 96.8083 109.174 97.545 109.366 98.3033C109.558 99.0616 109.771 99.8203 110.004 100.58C110.31 101.575 110.649 102.547 111.022 103.495C111.403 104.427 111.72 105.303 111.973 106.125C112.137 106.66 112.066 107.138 111.759 107.559C111.457 107.993 110.938 108.322 110.204 108.548C110.067 108.59 109.907 108.625 109.725 108.654C109.544 108.683 109.36 108.684 109.175 108.659C109.003 108.631 108.834 108.567 108.667 108.468C108.517 108.378 108.401 108.223 108.32 108.003C107.872 106.942 107.366 105.871 106.802 104.791C106.239 103.711 105.622 102.654 104.95 101.621C104.287 100.572 103.56 99.5554 102.767 98.5729C101.988 97.5864 101.147 96.6459 100.246 95.7514C100.089 95.5952 99.9483 95.4478 99.8239 95.3089C99.712 95.1662 99.6331 95.0202 99.5872 94.8708C99.5298 94.6841 99.5496 94.4601 99.6464 94.1988C99.7518 93.9212 99.9004 93.6509 100.092 93.3877C100.296 93.1207 100.53 92.8853 100.794 92.6815C101.067 92.4615 101.347 92.3075 101.633 92.2196C102.106 92.0743 102.625 92.2761 103.188 92.8249C103.748 93.3613 104.403 94.2974 105.154 95.6332C105.293 95.863 105.396 96.022 105.464 96.1101C105.532 96.1982 105.597 96.2327 105.659 96.2136C105.796 96.1715 105.818 95.9331 105.726 95.4985C105.512 94.2701 105.455 93.1773 105.556 92.2201C105.654 91.2504 105.886 90.4095 106.253 89.6974C106.628 88.9691 107.124 88.3672 107.741 87.8917C108.37 87.4124 109.108 87.0428 109.955 86.7828C110.44 86.6337 110.945 86.5263 111.47 86.4605C111.994 86.3947 112.483 86.3877 112.934 86.4397C113.386 86.4916 113.775 86.6038 114.1 86.7763C114.426 86.9487 114.636 87.1906 114.732 87.5017C114.8 87.7258 114.833 88.0087 114.829 88.3504C114.834 88.6759 114.805 89.0048 114.744 89.3369C114.678 89.6566 114.577 89.9466 114.439 90.207C114.309 90.451 114.145 90.6036 113.946 90.6648C113.722 90.7336 113.485 90.7383 113.235 90.6788C112.982 90.6069 112.707 90.5345 112.413 90.4616C112.13 90.3848 111.833 90.3263 111.521 90.2859C111.217 90.2293 110.898 90.2526 110.562 90.3558ZM132.919 94.2971C133.185 93.8751 133.491 93.6105 133.84 93.5035C134.039 93.4423 134.235 93.4367 134.427 93.4866C134.62 93.5364 134.848 93.6366 135.112 93.787C135.387 94.0159 135.59 94.2123 135.722 94.3761C135.863 94.5236 135.96 94.6844 136.013 94.8587C136.128 95.2321 136.05 95.6442 135.78 96.0949C135.336 96.7763 134.826 97.4232 134.251 98.0356C133.673 98.6356 133.046 99.189 132.371 99.6961C131.696 100.203 130.975 100.649 130.208 101.035C129.444 101.433 128.664 101.754 127.868 101.999C126.86 102.308 125.874 102.468 124.91 102.478C123.949 102.501 123.048 102.382 122.206 102.124C121.376 101.861 120.623 101.472 119.948 100.958C119.268 100.431 118.701 99.7812 118.246 99.0084C118.026 98.6943 117.852 98.5028 117.722 98.4338C117.6 98.3485 117.434 98.3384 117.222 98.4034C116.761 98.5448 116.372 98.5418 116.055 98.3942C115.737 98.2466 115.513 97.9612 115.383 97.538C115.329 97.3638 115.307 97.2479 115.317 97.1905L115.24 96.8056C115.164 96.3384 115.183 95.9785 115.296 95.7258C115.422 95.4693 115.677 95.2818 116.063 95.1633L116.343 95.0773C116.866 94.9167 117.159 94.5612 117.221 94.0108C117.343 93.0334 117.594 92.0982 117.974 91.2053C118.353 90.3123 118.84 89.5022 119.434 88.7749C120.024 88.0352 120.7 87.3984 121.462 86.8646C122.233 86.3146 123.061 85.9038 123.944 85.6324C124.865 85.3495 125.766 85.2226 126.647 85.2517C127.536 85.2646 128.352 85.4158 129.095 85.7053C129.838 85.9948 130.475 86.4053 131.006 86.9369C131.549 87.4646 131.934 88.0957 132.159 88.83C132.316 89.3404 132.36 89.8377 132.291 90.3221C132.222 90.8064 132.05 91.2678 131.776 91.7061C131.498 92.1319 131.122 92.5266 130.648 92.8902C130.187 93.2499 129.629 93.5641 128.976 93.8328L122.698 96.4762C122.449 96.5526 122.263 96.6779 122.139 96.8521C122.028 97.0225 122.005 97.2134 122.07 97.425C122.17 97.7486 122.384 98.0235 122.712 98.2496C123.052 98.4719 123.458 98.6401 123.929 98.7542C124.409 98.8521 124.931 98.8892 125.496 98.8656C126.073 98.8381 126.642 98.7383 127.202 98.5663C127.737 98.4019 128.269 98.1839 128.799 97.9123C129.337 97.6244 129.849 97.2968 130.336 96.9294C130.835 96.5582 131.304 96.1554 131.742 95.721C132.177 95.2742 132.569 94.7995 132.919 94.2971ZM127.276 90.759C127.451 90.6643 127.586 90.5275 127.681 90.3485C127.772 90.1571 127.785 89.9556 127.72 89.744C127.663 89.5573 127.541 89.404 127.354 89.2843C127.168 89.1645 126.937 89.0787 126.662 89.0269C126.384 88.9626 126.077 88.9409 125.743 88.9618C125.409 88.9827 125.068 89.0467 124.719 89.1537C124.209 89.3105 123.709 89.5457 123.22 89.8595C122.731 90.1732 122.306 90.5215 121.947 90.9042C121.584 91.2745 121.312 91.6511 121.13 92.0339C120.944 92.4043 120.895 92.7327 120.983 93.0189C121.071 93.3052 121.289 93.3948 121.637 93.2878C121.849 93.2228 122.183 93.0928 122.641 92.8977C123.099 92.7026 123.604 92.4861 124.158 92.248C124.707 91.9974 125.261 91.7387 125.82 91.4719C126.378 91.2051 126.863 90.9675 127.276 90.759ZM139.899 79.7715C140.547 79.5727 141.204 79.473 141.871 79.4723C142.538 79.4717 143.152 79.5625 143.712 79.7446C144.28 79.9105 144.771 80.1549 145.183 80.4777C145.592 80.7881 145.861 81.1549 145.991 81.5781C146.075 81.8519 146.102 82.1367 146.07 82.4325C146.034 82.7159 145.954 82.9858 145.828 83.2423C145.699 83.4863 145.535 83.7069 145.337 83.904C145.135 84.0887 144.903 84.2211 144.642 84.3014C144.355 84.3894 144.061 84.3638 143.76 84.2249C143.455 84.0735 143.125 83.9091 142.771 83.7319C142.425 83.5383 142.052 83.3874 141.651 83.279C141.259 83.1543 140.832 83.1627 140.371 83.3042C139.923 83.4418 139.551 83.6719 139.255 83.9943C138.959 84.3168 138.746 84.7092 138.616 85.1715C138.494 85.6176 138.445 86.123 138.469 86.6878C138.501 87.2364 138.611 87.8156 138.798 88.4255C139.333 90.1681 140.072 91.3986 141.015 92.117C141.954 92.823 143.039 92.9868 144.271 92.6083C144.856 92.4286 145.325 92.1824 145.679 91.8695C146.045 91.5528 146.349 91.2346 146.591 90.915C146.846 90.5916 147.075 90.2964 147.279 90.0294C147.484 89.7624 147.722 89.5868 147.996 89.5027C148.146 89.4568 148.31 89.4608 148.49 89.5145C148.666 89.5557 148.833 89.6338 148.991 89.7488C149.158 89.8475 149.305 89.9725 149.433 90.1238C149.574 90.2713 149.671 90.4321 149.725 90.6064C149.851 91.0172 149.775 91.5034 149.498 92.0652C149.234 92.6232 148.84 93.1802 148.316 93.7361C147.788 94.2796 147.167 94.7838 146.451 95.2487C145.748 95.7098 145.03 96.0531 144.295 96.2787C143.312 96.5807 142.35 96.6649 141.41 96.5314C140.474 96.4103 139.604 96.1054 138.8 95.6168C137.992 95.1157 137.275 94.4438 136.649 93.6011C136.035 92.7545 135.552 91.7587 135.2 90.6136C134.818 89.3689 134.646 88.1683 134.686 87.0119C134.738 85.8517 134.972 84.7925 135.386 83.8345C135.808 82.8601 136.403 82.0237 137.169 81.3253C137.931 80.6144 138.841 80.0964 139.899 79.7715ZM147.986 73.3036C147.625 73.4145 147.267 73.4698 146.913 73.4696C146.567 73.4532 146.248 73.3879 145.954 73.2739C145.669 73.1435 145.417 72.9687 145.2 72.7494C144.983 72.53 144.827 72.2648 144.731 71.9536C144.57 71.4308 144.646 70.9446 144.957 70.4948C145.281 70.0412 145.791 69.7073 146.488 69.4932C146.812 69.3938 147.142 69.3605 147.479 69.3932C147.812 69.4135 148.122 69.4888 148.407 69.6191C148.704 69.7456 148.964 69.9248 149.185 70.1565C149.402 70.3759 149.555 70.6287 149.642 70.915C149.807 71.4502 149.738 71.9345 149.435 72.3681C149.141 72.7853 148.658 73.0971 147.986 73.3036ZM147.177 79.7837C147.043 79.3481 147.121 78.936 147.41 78.5474C147.708 78.1427 148.168 77.8447 148.79 77.6535C149.911 77.3094 150.627 77.5118 150.938 78.2606C151.153 78.7805 151.388 79.3689 151.644 80.0257C151.913 80.6787 152.189 81.3772 152.472 82.1212C152.763 82.8489 153.052 83.6115 153.338 84.4091C153.632 85.1904 153.919 85.9674 154.197 86.7401C154.471 87.5004 154.732 88.2376 154.978 88.9519C155.225 89.6662 155.44 90.322 155.623 90.9195C155.815 91.5418 155.734 92.0774 155.381 92.5262C155.041 92.9712 154.448 93.3237 153.602 93.5836C153.216 93.7022 152.882 93.7025 152.601 93.5846C152.336 93.4753 152.15 93.2464 152.043 92.8979C151.515 91.1802 150.978 89.588 150.432 88.1211C149.895 86.638 149.397 85.3267 148.938 84.1872C148.492 83.044 148.106 82.0999 147.782 81.3549C147.467 80.5937 147.265 80.07 147.177 79.7837ZM158.995 73.0276C159.829 72.7714 160.723 72.6197 161.675 72.5723C162.624 72.5124 163.519 72.544 164.36 72.667C165.198 72.7775 165.918 72.9717 166.521 73.2496C167.124 73.5275 167.487 73.8656 167.609 74.2639C167.67 74.4631 167.652 74.7139 167.554 75.0163C167.453 75.3064 167.312 75.6016 167.132 75.9021C166.948 76.1902 166.729 76.4548 166.476 76.6959C166.232 76.9207 165.998 77.0676 165.774 77.1364C165.475 77.2281 165.101 77.2069 164.651 77.0726C164.214 76.9346 163.725 76.785 163.185 76.6239C162.654 76.4465 162.089 76.3137 161.489 76.2253C160.89 76.1369 160.286 76.1864 159.676 76.3737C159.277 76.4961 158.978 76.697 158.778 76.9764C158.586 77.2396 158.544 77.5454 158.651 77.8939C158.747 78.2051 158.994 78.4766 159.392 78.7085C159.786 78.9279 160.277 79.1311 160.866 79.3181C161.467 79.5012 162.136 79.6839 162.873 79.8661C163.61 80.0484 164.368 80.2517 165.145 80.4761C165.934 80.6967 166.717 80.9603 167.492 81.2671C168.267 81.5738 168.988 81.9451 169.653 82.381C170.33 82.8131 170.925 83.3318 171.438 83.937C171.947 84.5299 172.326 85.2308 172.575 86.0399C172.789 86.7369 172.859 87.4099 172.786 88.0589C172.713 88.708 172.509 89.3086 172.175 89.8608C171.841 90.413 171.39 90.8986 170.824 91.3176C170.258 91.7366 169.596 92.0627 168.837 92.296C167.878 92.5903 166.948 92.7124 166.048 92.6622C165.151 92.6244 164.331 92.4402 163.59 92.1096C162.848 91.7789 162.2 91.3105 161.646 90.7042C161.104 90.0941 160.704 89.3659 160.444 88.5195C160.107 87.4242 160.056 86.5683 160.288 85.9519C160.534 85.3317 161.08 84.8916 161.926 84.6317C162.449 84.4711 162.896 84.4426 163.269 84.5462C163.641 84.6497 163.871 84.8447 163.959 85.1309C164.005 85.2803 164.028 85.4435 164.028 85.6206C164.024 85.7853 164.018 85.9643 164.009 86.1577C164.009 86.3348 164.013 86.5243 164.02 86.7263C164.04 86.9245 164.079 87.1169 164.136 87.3036C164.236 87.6273 164.406 87.9155 164.647 88.1683C164.888 88.4212 165.168 88.6214 165.485 88.769C165.819 88.9252 166.175 89.0202 166.553 89.0538C166.932 89.0875 167.307 89.047 167.681 88.9323C168.677 88.6265 169.048 88.0628 168.796 87.2413C168.597 86.5941 168.155 86.0626 167.468 85.6468C166.778 85.2185 165.963 84.849 165.024 84.5384C164.08 84.2153 163.074 83.9114 162.006 83.6265C160.95 83.3378 159.942 83.0071 158.983 82.6342C158.024 82.2613 157.185 81.811 156.464 81.2831C155.74 80.7429 155.253 80.0682 155.005 79.2591C154.798 78.587 154.746 77.9288 154.848 77.2846C154.962 76.6366 155.2 76.0388 155.564 75.4914C155.923 74.9316 156.392 74.4402 156.97 74.0174C157.561 73.5907 158.236 73.2608 158.995 73.0276ZM180.114 66.4183C180.799 66.208 181.491 66.1112 182.191 66.1278C182.891 66.1444 183.541 66.2649 184.141 66.4892C184.741 66.7135 185.265 67.0431 185.711 67.4779C186.171 67.9089 186.498 68.4418 186.693 69.0766C186.773 69.338 186.789 69.6123 186.741 69.8994C186.702 70.1703 186.611 70.4297 186.469 70.6776C186.324 70.913 186.137 71.1269 185.91 71.3192C185.692 71.4952 185.446 71.6253 185.172 71.7094C185.147 71.7171 185.124 71.7309 185.103 71.751C185.091 71.7549 185.072 71.7606 185.047 71.7682C185.026 71.7883 185.003 71.8022 184.978 71.8098L185.512 73.2805C186.108 75.0452 186.757 76.2694 187.457 76.9533C188.17 77.6333 188.894 77.8606 189.628 77.635C189.889 77.5547 190.112 77.4591 190.296 77.3481C190.492 77.2333 190.668 77.1181 190.823 77.0023C190.987 76.8703 191.142 76.7545 191.288 76.655C191.435 76.5556 191.589 76.481 191.751 76.4313C192.037 76.3433 192.324 76.3913 192.612 76.5753C192.913 76.7554 193.117 77.0197 193.224 77.3682C193.331 77.7168 193.301 78.1073 193.134 78.54C192.98 78.9687 192.729 79.3932 192.381 79.8133C192.03 80.2209 191.607 80.596 191.113 80.9384C190.618 81.2809 190.091 81.5382 189.531 81.7102C188.56 82.0084 187.585 81.872 186.606 81.301C185.623 80.7175 184.737 79.6956 183.948 78.2353C183.797 78.0093 183.659 77.9154 183.535 77.9536C183.386 77.9995 183.278 78.1143 183.212 78.2981C182.457 80.2325 181.504 81.8058 180.35 83.0181C179.193 84.218 177.936 85.0263 176.58 85.4431C175.945 85.638 175.344 85.7205 174.776 85.6906C174.208 85.6606 173.692 85.533 173.228 85.3078C172.773 85.0664 172.371 84.7335 172.023 84.3093C171.683 83.8687 171.419 83.3435 171.232 82.7336C170.968 81.8748 170.878 80.915 170.961 79.8544C171.056 78.7899 171.286 77.6977 171.65 76.5778C172.015 75.458 172.492 74.3511 173.082 73.2571C173.685 72.1594 174.355 71.1498 175.094 70.2283C175.845 69.3029 176.648 68.5044 177.505 67.8328C178.361 67.1612 179.231 66.6897 180.114 66.4183ZM181.483 73.0675C181.577 72.5754 181.688 72.2074 181.818 71.9634C181.943 71.7069 182.171 71.494 182.5 71.3247C182.762 71.2032 182.873 71.0741 182.831 70.9371C182.8 70.8376 182.73 70.7432 182.621 70.6542C182.285 70.4032 181.95 70.1996 181.616 70.0434C181.278 69.8747 180.892 69.8573 180.456 69.9911C179.983 70.1364 179.496 70.4358 178.995 70.8893C178.494 71.3428 178.01 71.8935 177.541 72.5414C177.081 73.173 176.649 73.8711 176.243 74.6358C175.847 75.3842 175.518 76.1322 175.257 76.8797C174.996 77.6273 174.821 78.3418 174.731 79.0234C174.64 79.7049 174.668 80.2822 174.813 80.7552C174.943 81.1784 175.156 81.4738 175.453 81.6415C175.762 81.8053 176.116 81.8261 176.514 81.7038C177.535 81.3903 178.482 80.5067 179.357 79.0529C180.232 77.5992 180.94 75.6041 181.483 73.0675ZM212.021 59.54C212.078 59.5496 212.157 59.5391 212.256 59.5085C212.53 59.4244 212.612 59.2019 212.501 58.8409L210.717 53.0344C210.492 52.3 210.493 51.7276 210.721 51.317C210.961 50.9026 211.468 50.5769 212.239 50.3399C213.023 50.099 213.627 50.0907 214.05 50.3149C214.473 50.5391 214.805 51.0433 215.046 51.8275C215.138 52.1262 215.255 52.5738 215.397 53.1703C215.536 53.7543 215.693 54.4212 215.868 55.1708C216.057 55.9167 216.262 56.7185 216.485 57.5764C216.704 58.4218 216.939 59.2552 217.191 60.0767C217.581 61.3463 218.005 62.4149 218.462 63.2824C218.919 64.15 219.403 64.839 219.914 65.3495C220.421 65.8476 220.945 66.1771 221.485 66.3382C222.021 66.4869 222.569 66.4752 223.129 66.3031C223.44 66.2076 223.709 66.0842 223.935 65.9331C224.169 65.7657 224.461 65.6284 224.809 65.5214C225.058 65.4449 225.304 65.5125 225.546 65.7242C225.797 65.9196 225.977 66.1978 226.088 66.5588C226.188 66.8824 226.182 67.2179 226.071 67.5654C225.972 67.909 225.787 68.2382 225.516 68.5531C225.257 68.8641 224.929 69.1487 224.532 69.407C224.131 69.6528 223.693 69.8484 223.22 69.9936C222.2 70.3071 221.171 70.2827 220.133 69.9203C219.092 69.5455 218.161 68.7758 217.34 67.6113C217.241 67.4236 217.149 67.3432 217.061 67.3699C216.962 67.4005 216.912 67.5249 216.91 67.7432C216.853 68.7551 216.664 69.7123 216.342 70.6149C216.028 71.5012 215.591 72.3166 215.03 73.0611C214.477 73.7893 213.813 74.4223 213.038 74.9599C212.276 75.4937 211.422 75.9059 210.476 76.1964C209.48 76.5023 208.514 76.6152 207.577 76.5353C206.656 76.464 205.807 76.2276 205.03 75.8261C204.249 75.4122 203.568 74.8585 202.987 74.1651C202.402 73.4593 201.967 72.6396 201.68 71.7061C201.313 70.5112 201.216 69.3083 201.389 68.0974C201.562 66.8865 201.951 65.759 202.557 64.7148C203.171 63.6544 203.973 62.72 204.965 61.9116C205.956 61.1031 207.093 60.502 208.375 60.1083C208.897 59.9477 209.465 59.8211 210.076 59.7286C210.684 59.6236 211.332 59.5607 212.021 59.54ZM210.172 72.6121C210.881 72.3942 211.462 72.0455 211.914 71.5662C212.379 71.0829 212.75 70.5399 213.028 69.9369C213.315 69.3176 213.519 68.6759 213.642 68.0116C213.761 67.3348 213.83 66.6939 213.848 66.0889C213.867 65.4839 213.853 64.9502 213.806 64.4878C213.759 64.0254 213.707 63.7008 213.65 63.5141C213.608 63.3772 213.534 63.2704 213.429 63.1938C213.32 63.1047 213.181 63.052 213.013 63.0356C212.65 63.0517 212.278 63.0841 211.898 63.1327C211.514 63.1689 211.141 63.2156 210.777 63.2729C210.413 63.3301 210.065 63.396 209.734 63.4705C209.415 63.5412 209.125 63.6167 208.864 63.697C208.117 63.9264 207.473 64.2467 206.932 64.6581C206.391 65.0695 205.966 65.5475 205.656 66.092C205.359 66.6328 205.18 67.2257 205.12 67.8709C205.055 68.5037 205.126 69.1561 205.333 69.8282C205.516 70.4257 205.77 70.9404 206.093 71.3723C206.425 71.7879 206.798 72.116 207.213 72.3565C207.639 72.5931 208.106 72.736 208.611 72.7851C209.116 72.8342 209.637 72.7765 210.172 72.6121ZM240.759 61.174C241.025 60.752 241.332 60.4874 241.68 60.3804C241.879 60.3192 242.075 60.3135 242.268 60.3634C242.46 60.4133 242.688 60.5135 242.952 60.6639C243.227 60.8928 243.43 61.0892 243.562 61.2529C243.703 61.4004 243.8 61.5613 243.854 61.7356C243.968 62.109 243.891 62.5211 243.62 62.9718C243.176 63.6532 242.666 64.3001 242.092 64.9125C241.513 65.5124 240.886 66.0659 240.211 66.573C239.536 67.08 238.815 67.5262 238.048 67.9116C237.285 68.3095 236.505 68.6308 235.708 68.8755C234.7 69.1851 233.714 69.345 232.75 69.355C231.79 69.3775 230.888 69.2593 230.046 69.0005C229.216 68.7377 228.463 68.3492 227.788 67.8348C227.108 67.3079 226.541 66.6581 226.086 65.8853C225.867 65.5712 225.692 65.3797 225.562 65.3107C225.44 65.2254 225.274 65.2153 225.062 65.2803C224.602 65.4217 224.213 65.4187 223.895 65.2711C223.577 65.1235 223.353 64.8381 223.223 64.4149C223.17 64.2406 223.148 64.1248 223.157 64.0674L223.08 63.6825C223.005 63.2153 223.023 62.8553 223.136 62.6027C223.262 62.3462 223.518 62.1587 223.904 62.0401L224.184 61.9541C224.706 61.7936 224.999 61.4381 225.062 60.8876C225.184 59.9103 225.434 58.9751 225.814 58.0821C226.193 57.1892 226.68 56.379 227.274 55.6518C227.864 54.9121 228.54 54.2753 229.303 53.7415C230.074 53.1914 230.901 52.7807 231.785 52.5092C232.706 52.2263 233.607 52.0995 234.487 52.1286C235.377 52.1415 236.193 52.2927 236.935 52.5822C237.678 52.8716 238.315 53.2822 238.846 53.8137C239.389 54.3415 239.774 54.9725 240 55.7069C240.156 56.2172 240.2 56.7146 240.131 57.1989C240.062 57.6833 239.89 58.1446 239.616 58.5829C239.338 59.0088 238.962 59.4035 238.488 59.7671C238.027 60.1268 237.469 60.441 236.816 60.7097L230.539 63.353C230.29 63.4295 230.103 63.5548 229.98 63.729C229.869 63.8993 229.846 64.0903 229.911 64.3019C230.01 64.6255 230.224 64.9004 230.552 65.1265C230.893 65.3487 231.299 65.5169 231.769 65.6311C232.249 65.729 232.771 65.7661 233.336 65.7424C233.913 65.715 234.482 65.6152 235.042 65.4432C235.577 65.2788 236.11 65.0608 236.639 64.7892C237.177 64.5013 237.69 64.1736 238.176 63.8063C238.675 63.4351 239.144 63.0323 239.583 62.5979C240.017 62.151 240.41 61.6764 240.759 61.174ZM235.116 57.6359C235.292 57.5412 235.427 57.4043 235.521 57.2254C235.613 57.034 235.626 56.8324 235.561 56.6208C235.503 56.4341 235.381 56.2809 235.195 56.1612C235.008 56.0414 234.777 55.9556 234.503 55.9038C234.224 55.8395 233.918 55.8178 233.584 55.8387C233.25 55.8596 232.908 55.9236 232.56 56.0306C232.049 56.1874 231.55 56.4226 231.06 56.7364C230.571 57.0501 230.147 57.3984 229.787 57.7811C229.424 58.1514 229.152 58.528 228.97 58.9108C228.784 59.2812 228.735 59.6095 228.823 59.8958C228.911 60.1821 229.129 60.2717 229.477 60.1647C229.689 60.0997 230.024 59.9696 230.481 59.7746C230.939 59.5795 231.445 59.3629 231.998 59.1248C232.548 58.8743 233.102 58.6156 233.66 58.3488C234.218 58.082 234.704 57.8443 235.116 57.6359ZM256.813 43.8613C257.461 43.6625 258.118 43.5628 258.785 43.5622C259.452 43.5616 260.066 43.6523 260.626 43.8345C261.195 44.0004 261.685 44.2448 262.097 44.5676C262.506 44.8779 262.775 45.2447 262.905 45.6679C262.989 45.9418 263.016 46.2266 262.984 46.5224C262.948 46.8057 262.868 47.0756 262.742 47.3321C262.613 47.5762 262.449 47.7968 262.251 47.9939C262.049 48.1785 261.817 48.311 261.556 48.3913C261.269 48.4792 260.975 48.4537 260.674 48.3147C260.369 48.1633 260.039 47.999 259.685 47.8217C259.339 47.6282 258.966 47.4772 258.565 47.3688C258.173 47.2442 257.746 47.2526 257.286 47.394C256.837 47.5317 256.465 47.7617 256.169 48.0842C255.874 48.4067 255.66 48.799 255.53 49.2614C255.408 49.7074 255.359 50.2128 255.383 50.7777C255.415 51.3262 255.525 51.9055 255.712 52.5154C256.247 54.2579 256.986 55.4884 257.929 56.2069C258.868 56.9129 259.953 57.0766 261.185 56.6982C261.77 56.5185 262.24 56.2722 262.593 55.9593C262.959 55.6426 263.263 55.3245 263.505 55.0049C263.76 54.6814 263.989 54.3862 264.194 54.1192C264.398 53.8522 264.637 53.6767 264.91 53.5926C265.06 53.5467 265.224 53.5506 265.404 53.6043C265.58 53.6456 265.747 53.7237 265.905 53.8386C266.072 53.9373 266.219 54.0623 266.347 54.2136C266.488 54.3611 266.585 54.522 266.639 54.6963C266.765 55.107 266.689 55.5933 266.413 56.1551C266.148 56.7131 265.754 57.27 265.23 57.826C264.702 58.3695 264.081 58.8736 263.365 59.3385C262.662 59.7996 261.944 60.1429 261.209 60.3685C260.226 60.6705 259.264 60.7548 258.324 60.6212C257.388 60.5002 256.518 60.1953 255.714 59.7067C254.907 59.2056 254.189 58.5337 253.563 57.6909C252.949 56.8444 252.466 55.8485 252.114 54.7034C251.732 53.4587 251.56 52.2582 251.6 51.1018C251.652 49.9415 251.886 48.8824 252.3 47.9243C252.722 46.95 253.317 46.1136 254.083 45.4151C254.845 44.7042 255.755 44.1863 256.813 43.8613ZM274.661 37.3782C275.346 37.1679 276.038 37.0711 276.738 37.0877C277.438 37.1043 278.088 37.2248 278.688 37.4491C279.288 37.6734 279.811 38.003 280.258 38.4378C280.718 38.8688 281.045 39.4017 281.24 40.0365C281.32 40.2979 281.336 40.5722 281.288 40.8594C281.249 41.1303 281.158 41.3896 281.016 41.6375C280.871 41.8729 280.684 42.0868 280.457 42.2791C280.239 42.4552 279.993 42.5852 279.719 42.6693C279.694 42.677 279.671 42.6909 279.65 42.7109C279.638 42.7148 279.619 42.7205 279.594 42.7282C279.573 42.7482 279.55 42.7621 279.525 42.7698L280.059 44.2405C280.655 46.0051 281.304 47.2293 282.004 47.9132C282.717 48.5932 283.44 48.8205 284.175 48.5949C284.436 48.5146 284.659 48.419 284.843 48.308C285.039 48.1933 285.215 48.078 285.37 47.9622C285.534 47.8302 285.689 47.7145 285.835 47.615C285.982 47.5155 286.136 47.4409 286.298 47.3912C286.584 47.3033 286.871 47.3513 287.159 47.5352C287.46 47.7153 287.664 47.9796 287.771 48.3282C287.878 48.6767 287.848 49.0672 287.681 49.4999C287.527 49.9287 287.276 50.3531 286.928 50.7732C286.576 51.1808 286.154 51.5559 285.659 51.8984C285.165 52.2408 284.638 52.4981 284.078 52.6701C283.107 52.9683 282.132 52.8319 281.153 52.2609C280.17 51.6774 279.284 50.6555 278.495 49.1952C278.344 48.9692 278.206 48.8753 278.082 48.9135C277.933 48.9594 277.825 49.0742 277.759 49.258C277.004 51.1924 276.05 52.7657 274.897 53.9781C273.74 55.178 272.483 55.9863 271.127 56.403C270.492 56.5979 269.891 56.6805 269.323 56.6505C268.755 56.6205 268.239 56.493 267.775 56.2678C267.32 56.0263 266.918 55.6934 266.569 55.2692C266.23 54.8286 265.966 54.3034 265.779 53.6935C265.515 52.8347 265.425 51.8749 265.508 50.8143C265.603 49.7498 265.833 48.6576 266.197 47.5377C266.561 46.4179 267.039 45.311 267.629 44.2171C268.232 43.1193 268.902 42.1097 269.641 41.1882C270.392 40.2628 271.195 39.4643 272.052 38.7927C272.908 38.1211 273.778 37.6496 274.661 37.3782ZM276.029 44.0274C276.124 43.5354 276.235 43.1673 276.365 42.9233C276.49 42.6668 276.718 42.4539 277.047 42.2846C277.309 42.1632 277.42 42.034 277.377 41.8971C277.347 41.7975 277.277 41.7032 277.168 41.6141C276.832 41.3631 276.497 41.1595 276.163 41.0033C275.825 40.8346 275.438 40.8172 275.003 40.951C274.53 41.0963 274.043 41.3957 273.542 41.8492C273.041 42.3027 272.556 42.8534 272.088 43.5013C271.628 44.1329 271.196 44.831 270.79 45.5957C270.394 46.3441 270.065 47.0921 269.804 47.8396C269.543 48.5872 269.368 49.3017 269.277 49.9833C269.187 50.6648 269.215 51.2421 269.36 51.7151C269.49 52.1383 269.703 52.4337 270 52.6014C270.309 52.7653 270.663 52.786 271.061 52.6637C272.082 52.3502 273.029 51.4666 273.904 50.0129C274.779 48.5591 275.487 46.564 276.029 44.0274ZM295.025 33.6978C294.565 33.8393 294.198 34.088 293.926 34.444C293.65 34.7875 293.455 35.2153 293.34 35.7274C293.221 36.2271 293.17 36.7943 293.188 37.429C293.202 38.0513 293.265 38.72 293.375 39.4351C293.486 40.1503 293.637 40.887 293.829 41.6453C294.021 42.4036 294.234 43.1624 294.467 43.9216C294.773 44.9174 295.113 45.8892 295.485 46.8371C295.867 47.7688 296.184 48.6454 296.436 49.4669C296.601 50.0021 296.529 50.4802 296.223 50.9013C295.92 51.3348 295.402 51.6643 294.667 51.8899C294.53 51.932 294.371 51.9673 294.189 51.9959C294.007 52.0246 293.824 52.0264 293.639 52.0014C293.467 51.9726 293.297 51.9089 293.131 51.8102C292.981 51.7201 292.865 51.565 292.784 51.3447C292.335 50.2838 291.829 49.2133 291.266 48.1332C290.703 47.053 290.085 45.9963 289.414 44.9631C288.751 43.9135 288.023 42.8975 287.231 41.9149C286.451 40.9285 285.611 39.988 284.709 39.0934C284.553 38.9373 284.412 38.7898 284.287 38.6509C284.176 38.5082 284.097 38.3622 284.051 38.2128C283.993 38.0261 284.013 37.8021 284.11 37.5408C284.215 37.2632 284.364 36.9929 284.556 36.7297C284.76 36.4627 284.994 36.2273 285.258 36.0236C285.531 35.8035 285.811 35.6495 286.097 35.5616C286.57 35.4163 287.088 35.6181 287.652 36.1669C288.212 36.7033 288.867 37.6394 289.618 38.9752C289.756 39.205 289.86 39.364 289.928 39.4521C289.995 39.5402 290.061 39.5747 290.123 39.5556C290.26 39.5135 290.282 39.2752 290.189 38.8405C289.975 37.6122 289.919 36.5194 290.02 35.5621C290.117 34.5924 290.349 33.7515 290.716 33.0395C291.092 32.3111 291.588 31.7092 292.205 31.2337C292.834 30.7544 293.572 30.3848 294.418 30.1248C294.904 29.9757 295.409 29.8683 295.933 29.8025C296.458 29.7367 296.946 29.7298 297.398 29.7817C297.85 29.8336 298.238 29.9458 298.564 30.1183C298.889 30.2908 299.1 30.5326 299.195 30.8438C299.264 31.0678 299.296 31.3507 299.292 31.6925C299.297 32.0179 299.269 32.3468 299.207 32.6789C299.142 32.9986 299.04 33.2887 298.902 33.549C298.773 33.793 298.609 33.9456 298.41 34.0068C298.186 34.0756 297.949 34.0803 297.699 34.0208C297.445 33.9489 297.171 33.8765 296.876 33.8036C296.594 33.7268 296.297 33.6683 295.984 33.6279C295.681 33.5713 295.361 33.5946 295.025 33.6978ZM297.863 24.5105C297.66 23.8508 297.706 23.3329 297.999 22.9568C298.288 22.5683 298.862 22.2422 299.721 21.9784C300.032 21.8828 300.303 21.8336 300.534 21.8309C300.773 21.8118 300.99 21.8541 301.186 21.9575C301.393 22.0572 301.579 22.2181 301.743 22.4403C301.915 22.6462 302.089 22.9263 302.266 23.2806C302.771 24.3923 303.3 25.5375 303.853 26.7162C304.418 27.8911 304.991 29.0703 305.573 30.2539C305.819 30.791 306.198 30.9812 306.708 30.8245C306.845 30.7824 307.065 30.7012 307.369 30.5807C307.681 30.444 308.049 30.29 308.473 30.1189C308.894 29.9353 309.345 29.7421 309.828 29.5394C310.323 29.3329 310.814 29.1345 311.3 28.9442C311.795 28.7377 312.263 28.5532 312.703 28.3906C313.152 28.2118 313.551 28.0689 313.9 27.9619C314.173 27.8778 314.408 27.8669 314.605 27.9292C314.797 27.9791 314.964 28.0778 315.104 28.2253C315.253 28.3565 315.373 28.5241 315.463 28.728C315.561 28.9157 315.643 29.1153 315.708 29.3269C315.766 29.5136 315.787 29.718 315.774 29.9401C315.773 30.1584 315.735 30.3676 315.66 30.5676C315.594 30.7514 315.489 30.9198 315.345 31.0729C315.202 31.226 315.018 31.337 314.794 31.4058C313.711 31.7384 312.627 32.1121 311.542 32.5271C310.466 32.9257 309.398 33.3493 308.337 33.7978C307.799 34.0445 307.605 34.4106 307.754 34.896C307.766 34.9333 307.787 34.9812 307.819 35.0396C307.847 35.0856 307.866 35.1272 307.878 35.1646C308.36 36.2016 308.808 37.174 309.223 38.0817C309.651 38.9856 310.023 39.7976 310.339 40.5176C310.664 41.2214 310.928 41.8146 311.131 42.2972C311.342 42.7635 311.473 43.0776 311.523 43.2394C311.66 43.6875 311.731 44.0743 311.736 44.3997C311.744 44.7377 311.678 45.0306 311.536 45.2785C311.398 45.5388 311.172 45.7579 310.859 45.9358C310.562 46.1223 310.165 46.2921 309.667 46.445C309.194 46.5903 308.811 46.5853 308.518 46.43C308.226 46.2748 307.996 45.9708 307.83 45.5179C307.304 44.0721 306.733 42.6334 306.116 41.2019C305.495 39.758 304.852 38.3279 304.185 36.9118C303.909 36.4109 303.546 36.2293 303.098 36.367C303.061 36.3784 303.019 36.3981 302.973 36.4258C302.927 36.4535 302.886 36.4731 302.848 36.4846C302.13 36.8959 301.456 37.2938 300.825 37.6783C300.194 38.0629 299.61 38.4464 299.074 38.8291C298.772 39.0443 298.498 39.217 298.252 39.3471C298.002 39.4647 297.771 39.556 297.56 39.621C297.273 39.7089 297.024 39.6495 296.81 39.4426C296.593 39.2232 296.425 38.9207 296.307 38.5348C296.265 38.3979 296.229 38.2385 296.201 38.0566C296.168 37.8622 296.162 37.6664 296.184 37.4692C296.189 37.2634 296.236 37.0648 296.328 36.8734C296.402 36.6734 296.536 36.4891 296.73 36.3207C297.188 35.9486 297.818 35.5167 298.62 35.025C299.419 34.5209 300.335 34.0011 301.369 33.4655C301.599 33.3268 301.762 33.1679 301.856 32.989C301.96 32.7937 301.968 32.553 301.88 32.2667C301.861 32.2045 301.842 32.1422 301.822 32.08C301.8 32.0053 301.764 31.9344 301.716 31.8674C301.165 30.7835 300.653 29.8034 300.18 28.9272C299.715 28.0348 299.311 27.2735 298.968 26.6434C298.637 26.0095 298.375 25.5111 298.181 25.1482C297.988 24.7853 297.882 24.5727 297.863 24.5105ZM325.071 21.8947C325.756 21.6844 326.448 21.5876 327.148 21.6042C327.848 21.6209 328.498 21.7413 329.098 21.9656C329.698 22.1899 330.222 22.5195 330.668 22.9544C331.128 23.3854 331.455 23.9183 331.65 24.5531C331.73 24.8145 331.746 25.0887 331.698 25.3759C331.659 25.6468 331.568 25.9062 331.426 26.1541C331.281 26.3895 331.094 26.6034 330.867 26.7957C330.649 26.9717 330.403 27.1018 330.129 27.1859C330.104 27.1935 330.081 27.2074 330.06 27.2275C330.048 27.2313 330.029 27.237 330.004 27.2447C329.983 27.2648 329.96 27.2787 329.935 27.2863L330.469 28.757C331.065 30.5216 331.714 31.7459 332.414 32.4297C333.127 33.1098 333.851 33.337 334.585 33.1115C334.846 33.0312 335.069 32.9355 335.253 32.8246C335.449 32.7098 335.625 32.5945 335.78 32.4788C335.944 32.3468 336.099 32.231 336.245 32.1315C336.392 32.032 336.546 31.9574 336.708 31.9077C336.994 31.8198 337.281 31.8678 337.569 32.0518C337.87 32.2319 338.074 32.4962 338.181 32.8447C338.288 33.1932 338.258 33.5838 338.091 34.0164C337.937 34.4452 337.686 34.8697 337.338 35.2897C336.987 35.6974 336.564 36.0724 336.07 36.4149C335.575 36.7574 335.048 37.0146 334.488 37.1867C333.517 37.4849 332.542 37.3485 331.563 36.7774C330.58 36.1939 329.694 35.172 328.905 33.7117C328.754 33.4857 328.616 33.3919 328.492 33.4301C328.343 33.476 328.235 33.5908 328.169 33.7746C327.414 35.7089 326.461 37.2823 325.307 38.4946C324.15 39.6945 322.893 40.5028 321.537 40.9195C320.902 41.1145 320.301 41.197 319.733 41.167C319.165 41.1371 318.649 41.0095 318.185 40.7843C317.73 40.5428 317.328 40.21 316.98 39.7857C316.64 39.3452 316.376 38.82 316.189 38.2101C315.925 37.3512 315.835 36.3915 315.918 35.3308C316.013 34.2663 316.243 33.1742 316.607 32.0543C316.972 30.9344 317.449 29.8275 318.039 28.7336C318.642 27.6359 319.312 26.6262 320.051 25.7047C320.802 24.7794 321.605 23.9809 322.462 23.3093C323.318 22.6377 324.188 22.1662 325.071 21.8947ZM326.44 28.5439C326.534 28.0519 326.645 27.6839 326.775 27.4398C326.9 27.1833 327.128 26.9704 327.457 26.8012C327.719 26.6797 327.83 26.5505 327.788 26.4136C327.757 26.314 327.687 26.2197 327.578 26.1306C327.242 25.8796 326.907 25.676 326.573 25.5198C326.235 25.3512 325.849 25.3338 325.413 25.4676C324.94 25.6128 324.453 25.9122 323.952 26.3658C323.451 26.8193 322.967 27.37 322.498 28.0178C322.038 28.6494 321.606 29.3476 321.2 30.1123C320.804 30.8607 320.475 31.6087 320.214 32.3562C319.953 33.1037 319.778 33.8183 319.688 34.4998C319.597 35.1814 319.625 35.7587 319.77 36.2316C319.9 36.6548 320.113 36.9503 320.41 37.118C320.719 37.2818 321.073 37.3026 321.471 37.1802C322.492 36.8667 323.439 35.9831 324.314 34.5294C325.189 33.0757 325.897 31.0805 326.44 28.5439ZM316.837 19.7654C316.451 19.8839 316.109 19.8325 315.809 19.6112C315.51 19.39 315.28 19.0179 315.119 18.4952C314.943 17.9226 315.058 17.4105 315.464 16.9588C315.871 16.5072 316.634 16.1093 317.754 15.7653C318.053 15.6735 318.406 15.6057 318.815 15.5619C319.233 15.5018 319.673 15.4484 320.135 15.4017C320.594 15.3426 321.063 15.2734 321.542 15.1942C322.018 15.1025 322.47 14.9773 322.898 14.8186C323.243 14.6991 323.57 14.5442 323.879 14.3539C324.197 14.1472 324.49 13.9483 324.758 13.7569C325.026 13.5656 325.273 13.3944 325.499 13.2432C325.734 13.0758 325.945 12.9634 326.131 12.9061C326.704 12.7302 327.138 12.7467 327.434 12.9556C327.738 13.1481 327.999 13.5992 328.217 14.3086C328.309 14.6074 328.25 14.9252 328.04 15.262C327.843 15.5951 327.549 15.9238 327.158 16.2481C326.767 16.5724 326.309 16.8766 325.783 17.1607C325.266 17.4285 324.74 17.6446 324.205 17.809C323.819 17.9275 323.388 18.0326 322.912 18.1242C322.433 18.2035 321.953 18.2827 321.473 18.3619C321.002 18.4248 320.554 18.4945 320.128 18.5709C319.71 18.631 319.365 18.7031 319.091 18.7872C318.63 18.9286 318.214 19.1041 317.843 19.3136C317.484 19.5192 317.148 19.6698 316.837 19.7654ZM337.944 29.0149C337.879 28.8033 337.832 28.5591 337.801 28.2825C337.771 28.0058 337.708 27.7119 337.612 27.4007C337.547 27.1891 337.404 27.0559 337.183 27.0013C336.974 26.9428 336.737 26.8795 336.471 26.8114C336.205 26.7433 335.946 26.6321 335.694 26.4778C335.455 26.3198 335.274 26.0416 335.152 25.6433C335.064 25.357 335.05 25.0478 335.112 24.7156C335.186 24.3796 335.336 24.0475 335.562 23.7193C336.128 22.9461 336.736 22.2212 337.387 21.5447C338.049 20.8644 338.727 20.2544 339.419 19.7148C340.124 19.1714 340.838 18.7003 341.56 18.3015C342.282 17.9026 342.997 17.5943 343.707 17.3763C344.902 17.0093 346.091 16.8893 347.274 17.0162C348.466 17.1269 349.566 17.4496 350.575 17.9843C351.592 18.5027 352.484 19.2096 353.249 20.1051C354.023 20.9843 354.59 22.0089 354.949 23.1789C355.301 24.324 355.393 25.4877 355.224 26.6699C355.065 27.8358 354.699 28.9289 354.127 29.9491C353.555 30.9693 352.79 31.8717 351.833 32.6562C350.891 33.4493 349.817 34.0313 348.609 34.4022C347.427 34.7653 346.27 34.9026 345.14 34.814C344.009 34.7254 342.97 34.4453 342.021 33.9738C341.069 33.4899 340.24 32.8318 339.535 31.9996C338.826 31.1549 338.296 30.16 337.944 29.0149ZM347.988 30.9153C348.511 30.7548 349.02 30.4826 349.515 30.099C350.01 29.7154 350.427 29.2537 350.765 28.7139C351.112 28.1579 351.344 27.5415 351.464 26.8647C351.595 26.1842 351.548 25.4767 351.322 24.7423C351.093 23.9955 350.742 23.3405 350.269 22.7774C349.797 22.2143 349.245 21.7708 348.614 21.4469C347.992 21.1067 347.309 20.901 346.566 20.8298C345.834 20.7548 345.089 20.8339 344.33 21.0671C342.948 21.4914 342.001 22.1774 341.488 23.1249C340.972 24.0599 340.941 25.268 341.396 26.7492C341.645 27.5582 341.994 28.275 342.445 28.8993C342.904 29.5075 343.43 29.9998 344.022 30.3763C344.611 30.7404 345.241 30.9757 345.914 31.0823C346.6 31.1851 347.291 31.1294 347.988 30.9153ZM96.3438 144.911C96.1947 144.426 96.2998 143.992 96.6589 143.609C97.0143 143.214 97.5965 142.892 98.4056 142.644C98.5923 142.586 98.7679 142.56 98.9326 142.564C99.0973 142.567 99.2585 142.627 99.4164 142.742C99.583 142.84 99.7542 142.999 99.9303 143.217C100.106 143.436 100.303 143.723 100.521 144.078C100.755 144.483 100.921 144.67 101.021 144.64C101.108 144.613 101.158 144.4 101.172 144.001C101.178 143.222 101.281 142.516 101.482 141.883C101.691 141.233 101.972 140.663 102.326 140.173C102.675 139.67 103.091 139.25 103.573 138.911C104.067 138.569 104.613 138.306 105.21 138.122C106.417 137.751 107.614 137.636 108.801 137.775C109.985 137.902 111.08 138.253 112.088 138.829C113.092 139.393 113.98 140.155 114.752 141.117C115.52 142.066 116.099 143.175 116.489 144.445C116.902 145.789 117.048 147.106 116.927 148.397C116.818 149.683 116.475 150.872 115.897 151.962C115.315 153.039 114.516 153.986 113.5 154.802C112.5 155.627 111.316 156.25 109.947 156.67L108.983 156.925C108.423 157.097 108.24 157.501 108.435 158.136L112.02 166.413C112.072 166.628 112.057 166.844 111.973 167.06C111.906 167.285 111.782 167.501 111.6 167.706C111.43 167.908 111.208 168.092 110.932 168.259C110.668 168.421 110.381 168.551 110.07 168.646C109.174 168.921 108.598 168.778 108.344 168.216C107.387 166.031 106.433 163.967 105.482 162.026C104.544 160.08 103.638 158.281 102.763 156.629C101.896 154.961 101.085 153.453 100.331 152.105C99.5762 150.756 98.91 149.585 98.3322 148.591C97.767 147.594 97.3127 146.78 96.9693 146.15C96.6135 145.523 96.405 145.111 96.3438 144.911ZM103.926 147.977C104.174 148.786 104.452 149.579 104.759 150.357C105.062 151.122 105.423 151.944 105.843 152.823C106.09 153.36 106.492 153.584 107.05 153.494C107.397 153.469 107.781 153.433 108.202 153.385C108.632 153.321 108.984 153.247 109.258 153.163C110.054 152.919 110.74 152.579 111.314 152.143C111.889 151.708 112.34 151.202 112.666 150.625C112.989 150.035 113.182 149.397 113.243 148.711C113.305 148.024 113.221 147.308 112.992 146.561C112.713 145.652 112.328 144.844 111.838 144.137C111.345 143.416 110.79 142.831 110.175 142.38C109.572 141.925 108.926 141.619 108.238 141.462C107.562 141.302 106.888 141.325 106.216 141.532C105.631 141.711 105.136 142.007 104.731 142.417C104.335 142.811 104.033 143.292 103.826 143.86C103.627 144.411 103.534 145.039 103.546 145.744C103.558 146.448 103.685 147.193 103.926 147.977ZM127.69 131.687C128.375 131.477 129.067 131.38 129.767 131.397C130.467 131.414 131.117 131.534 131.717 131.758C132.317 131.983 132.84 132.312 133.287 132.747C133.747 133.178 134.074 133.711 134.269 134.346C134.349 134.607 134.365 134.881 134.317 135.169C134.278 135.439 134.187 135.699 134.045 135.947C133.9 136.182 133.713 136.396 133.486 136.588C133.268 136.764 133.022 136.894 132.748 136.979C132.723 136.986 132.7 137 132.679 137.02C132.667 137.024 132.648 137.03 132.623 137.037C132.602 137.057 132.579 137.071 132.554 137.079L133.088 138.55C133.684 140.314 134.333 141.539 135.033 142.222C135.746 142.902 136.469 143.13 137.204 142.904C137.465 142.824 137.688 142.728 137.872 142.617C138.068 142.502 138.244 142.387 138.399 142.271C138.563 142.139 138.718 142.024 138.864 141.924C139.011 141.825 139.165 141.75 139.327 141.7C139.613 141.612 139.9 141.66 140.188 141.844C140.489 142.025 140.693 142.289 140.8 142.637C140.907 142.986 140.877 143.376 140.71 143.809C140.556 144.238 140.305 144.662 139.957 145.082C139.605 145.49 139.183 145.865 138.688 146.208C138.194 146.55 137.667 146.807 137.107 146.979C136.136 147.278 135.161 147.141 134.182 146.57C133.199 145.987 132.313 144.965 131.524 143.504C131.373 143.278 131.235 143.185 131.111 143.223C130.961 143.269 130.854 143.383 130.788 143.567C130.033 145.502 129.079 147.075 127.926 148.287C126.769 149.487 125.512 150.295 124.156 150.712C123.521 150.907 122.92 150.99 122.352 150.96C121.784 150.93 121.268 150.802 120.804 150.577C120.349 150.336 119.947 150.003 119.598 149.578C119.259 149.138 118.995 148.613 118.808 148.003C118.544 147.144 118.454 146.184 118.537 145.123C118.632 144.059 118.862 142.967 119.226 141.847C119.59 140.727 120.068 139.62 120.658 138.526C121.261 137.429 121.931 136.419 122.67 135.497C123.421 134.572 124.224 133.774 125.08 133.102C125.937 132.43 126.807 131.959 127.69 131.687ZM129.058 138.337C129.152 137.845 129.264 137.477 129.394 137.232C129.519 136.976 129.747 136.763 130.076 136.594C130.338 136.472 130.448 136.343 130.406 136.206C130.376 136.107 130.306 136.012 130.197 135.923C129.861 135.672 129.526 135.469 129.192 135.313C128.854 135.144 128.467 135.126 128.032 135.26C127.559 135.406 127.072 135.705 126.571 136.158C126.07 136.612 125.585 137.163 125.117 137.811C124.657 138.442 124.225 139.14 123.819 139.905C123.423 140.653 123.094 141.401 122.833 142.149C122.572 142.896 122.397 143.611 122.306 144.292C122.216 144.974 122.244 145.551 122.389 146.024C122.519 146.448 122.732 146.743 123.029 146.911C123.338 147.074 123.692 147.095 124.09 146.973C125.111 146.659 126.058 145.776 126.933 144.322C127.808 142.868 128.516 140.873 129.058 138.337ZM148.054 128.007C147.594 128.148 147.227 128.397 146.955 128.753C146.679 129.097 146.484 129.525 146.369 130.037C146.25 130.536 146.199 131.104 146.217 131.738C146.231 132.36 146.294 133.029 146.404 133.744C146.515 134.46 146.666 135.196 146.858 135.955C147.05 136.713 147.263 137.472 147.496 138.231C147.802 139.227 148.141 140.198 148.514 141.146C148.896 142.078 149.213 142.955 149.465 143.776C149.629 144.311 149.558 144.789 149.252 145.211C148.949 145.644 148.431 145.974 147.696 146.199C147.559 146.241 147.4 146.277 147.218 146.305C147.036 146.334 146.853 146.336 146.668 146.311C146.496 146.282 146.326 146.218 146.16 146.119C146.01 146.029 145.894 145.874 145.812 145.654C145.364 144.593 144.858 143.523 144.295 142.442C143.732 141.362 143.114 140.306 142.443 139.272C141.78 138.223 141.052 137.207 140.26 136.224C139.48 135.238 138.64 134.297 137.738 133.403C137.581 133.246 137.441 133.099 137.316 132.96C137.204 132.817 137.126 132.671 137.08 132.522C137.022 132.335 137.042 132.111 137.139 131.85C137.244 131.572 137.393 131.302 137.584 131.039C137.789 130.772 138.023 130.537 138.287 130.333C138.56 130.113 138.84 129.959 139.126 129.871C139.599 129.726 140.117 129.927 140.681 130.476C141.24 131.012 141.896 131.949 142.647 133.284C142.785 133.514 142.889 133.673 142.957 133.761C143.024 133.849 143.09 133.884 143.152 133.865C143.289 133.823 143.311 133.584 143.218 133.15C143.004 131.921 142.948 130.829 143.049 129.871C143.146 128.902 143.378 128.061 143.745 127.349C144.121 126.62 144.617 126.018 145.234 125.543C145.863 125.064 146.601 124.694 147.447 124.434C147.933 124.285 148.438 124.178 148.962 124.112C149.487 124.046 149.975 124.039 150.427 124.091C150.879 124.143 151.267 124.255 151.593 124.427C151.918 124.6 152.129 124.842 152.224 125.153C152.293 125.377 152.325 125.66 152.321 126.002C152.326 126.327 152.298 126.656 152.236 126.988C152.171 127.308 152.069 127.598 151.931 127.858C151.802 128.102 151.638 128.255 151.439 128.316C151.215 128.385 150.978 128.389 150.728 128.33C150.474 128.258 150.2 128.186 149.905 128.113C149.623 128.036 149.325 127.978 149.013 127.937C148.71 127.881 148.39 127.904 148.054 128.007ZM162.492 120.998C163.177 120.788 163.869 120.691 164.569 120.708C165.268 120.724 165.918 120.845 166.518 121.069C167.119 121.293 167.642 121.623 168.089 122.058C168.548 122.489 168.875 123.022 169.07 123.656C169.151 123.918 169.167 124.192 169.119 124.479C169.079 124.75 168.989 125.01 168.847 125.257C168.701 125.493 168.515 125.707 168.288 125.899C168.07 126.075 167.824 126.205 167.55 126.289C167.525 126.297 167.502 126.311 167.481 126.331C167.468 126.335 167.45 126.34 167.425 126.348C167.404 126.368 167.381 126.382 167.356 126.39L167.889 127.86C168.486 129.625 169.134 130.849 169.835 131.533C170.547 132.213 171.271 132.44 172.005 132.215C172.267 132.135 172.489 132.039 172.673 131.928C172.87 131.813 173.045 131.698 173.2 131.582C173.364 131.45 173.519 131.334 173.666 131.235C173.812 131.135 173.967 131.061 174.128 131.011C174.415 130.923 174.702 130.971 174.99 131.155C175.29 131.335 175.494 131.6 175.601 131.948C175.708 132.297 175.678 132.687 175.512 133.12C175.357 133.549 175.106 133.973 174.759 134.393C174.407 134.801 173.984 135.176 173.49 135.518C172.996 135.861 172.469 136.118 171.909 136.29C170.938 136.588 169.963 136.452 168.984 135.881C168.001 135.297 167.115 134.275 166.326 132.815C166.175 132.589 166.037 132.495 165.912 132.533C165.763 132.579 165.655 132.694 165.589 132.878C164.835 134.812 163.881 136.386 162.728 137.598C161.571 138.798 160.314 139.606 158.957 140.023C158.322 140.218 157.721 140.3 157.154 140.27C156.586 140.24 156.07 140.113 155.606 139.888C155.15 139.646 154.748 139.313 154.4 138.889C154.06 138.449 153.797 137.923 153.61 137.313C153.346 136.455 153.255 135.495 153.338 134.434C153.434 133.37 153.663 132.278 154.028 131.158C154.392 130.038 154.869 128.931 155.46 127.837C156.062 126.739 156.733 125.73 157.471 124.808C158.222 123.883 159.026 123.084 159.882 122.413C160.738 121.741 161.608 121.27 162.492 120.998ZM163.86 127.647C163.954 127.155 164.066 126.787 164.195 126.543C164.321 126.287 164.548 126.074 164.878 125.905C165.14 125.783 165.25 125.654 165.208 125.517C165.177 125.417 165.108 125.323 164.999 125.234C164.663 124.983 164.328 124.779 163.994 124.623C163.656 124.455 163.269 124.437 162.833 124.571C162.36 124.716 161.873 125.016 161.373 125.469C160.872 125.923 160.387 126.473 159.919 127.121C159.459 127.753 159.026 128.451 158.621 129.216C158.224 129.964 157.895 130.712 157.635 131.46C157.374 132.207 157.198 132.922 157.108 133.603C157.018 134.285 157.045 134.862 157.19 135.335C157.32 135.758 157.534 136.054 157.83 136.221C158.14 136.385 158.493 136.406 158.892 136.284C159.912 135.97 160.86 135.086 161.735 133.633C162.609 132.179 163.318 130.184 163.86 127.647ZM181.213 109.507C181.01 108.847 181.055 108.329 181.348 107.953C181.638 107.565 182.212 107.238 183.071 106.975C183.382 106.879 183.653 106.83 183.883 106.827C184.123 106.808 184.34 106.85 184.535 106.954C184.743 107.053 184.929 107.214 185.092 107.437C185.264 107.642 185.439 107.923 185.616 108.277C186.121 109.388 186.65 110.534 187.202 111.712C187.768 112.887 188.341 114.067 188.922 115.25C189.169 115.787 189.548 115.977 190.058 115.821C190.195 115.779 190.415 115.697 190.719 115.577C191.031 115.44 191.399 115.286 191.823 115.115C192.243 114.931 192.695 114.738 193.177 114.536C193.672 114.329 194.163 114.131 194.65 113.94C195.145 113.734 195.612 113.549 196.053 113.387C196.502 113.208 196.901 113.065 197.249 112.958C197.523 112.874 197.758 112.863 197.954 112.925C198.147 112.975 198.313 113.074 198.454 113.221C198.603 113.353 198.723 113.52 198.813 113.724C198.911 113.912 198.993 114.112 199.058 114.323C199.115 114.51 199.137 114.714 199.124 114.936C199.123 115.155 199.085 115.364 199.01 115.564C198.944 115.748 198.839 115.916 198.695 116.069C198.551 116.222 198.368 116.333 198.144 116.402C197.061 116.735 195.977 117.108 194.892 117.523C193.816 117.922 192.747 118.346 191.686 118.794C191.149 119.041 190.955 119.407 191.104 119.892C191.116 119.93 191.137 119.977 191.169 120.036C191.196 120.082 191.216 120.123 191.228 120.161C191.709 121.198 192.158 122.17 192.573 123.078C193 123.982 193.372 124.794 193.689 125.514C194.014 126.218 194.278 126.811 194.481 127.293C194.692 127.76 194.823 128.074 194.872 128.236C195.01 128.684 195.081 129.07 195.086 129.396C195.094 129.734 195.027 130.027 194.886 130.275C194.748 130.535 194.522 130.754 194.209 130.932C193.912 131.119 193.515 131.288 193.017 131.441C192.544 131.586 192.161 131.581 191.868 131.426C191.575 131.271 191.346 130.967 191.179 130.514C190.653 129.068 190.082 127.63 189.465 126.198C188.845 124.754 188.201 123.324 187.535 121.908C187.258 121.407 186.896 121.226 186.448 121.363C186.411 121.375 186.369 121.394 186.323 121.422C186.277 121.45 186.235 121.469 186.198 121.481C185.48 121.892 184.805 122.29 184.174 122.675C183.543 123.059 182.96 123.443 182.423 123.825C182.122 124.041 181.848 124.213 181.602 124.343C181.352 124.461 181.121 124.552 180.909 124.617C180.623 124.705 180.373 124.646 180.16 124.439C179.943 124.219 179.775 123.917 179.656 123.531C179.614 123.394 179.579 123.235 179.55 123.053C179.518 122.858 179.512 122.663 179.533 122.465C179.538 122.26 179.586 122.061 179.677 121.87C179.752 121.67 179.886 121.485 180.08 121.317C180.537 120.945 181.167 120.513 181.97 120.021C182.769 119.517 183.685 118.997 184.719 118.462C184.949 118.323 185.111 118.164 185.206 117.985C185.31 117.79 185.317 117.549 185.229 117.263C185.21 117.201 185.191 117.138 185.172 117.076C185.149 117.002 185.114 116.931 185.066 116.864C184.515 115.78 184.003 114.8 183.53 113.923C183.065 113.031 182.661 112.27 182.317 111.64C181.986 111.006 181.724 110.507 181.531 110.144C181.338 109.781 181.232 109.569 181.213 109.507ZM216.341 117.841C216.606 117.419 216.913 117.155 217.262 117.048C217.461 116.986 217.657 116.981 217.849 117.031C218.041 117.081 218.27 117.181 218.534 117.331C218.808 117.56 219.012 117.756 219.144 117.92C219.284 118.068 219.382 118.229 219.435 118.403C219.55 118.776 219.472 119.188 219.202 119.639C218.757 120.32 218.248 120.967 217.673 121.58C217.094 122.18 216.468 122.733 215.792 123.24C215.117 123.747 214.396 124.193 213.629 124.579C212.866 124.977 212.086 125.298 211.29 125.543C210.281 125.852 209.295 126.012 208.331 126.022C207.371 126.045 206.47 125.927 205.628 125.668C204.798 125.405 204.045 125.016 203.369 124.502C202.69 123.975 202.123 123.325 201.667 122.553C201.448 122.238 201.274 122.047 201.143 121.978C201.022 121.893 200.855 121.882 200.644 121.947C200.183 122.089 199.794 122.086 199.476 121.938C199.158 121.791 198.935 121.505 198.805 121.082C198.751 120.908 198.729 120.792 198.739 120.735L198.661 120.35C198.586 119.882 198.605 119.523 198.718 119.27C198.843 119.013 199.099 118.826 199.485 118.707L199.765 118.621C200.288 118.461 200.58 118.105 200.643 117.555C200.765 116.578 201.016 115.642 201.395 114.749C201.775 113.856 202.262 113.046 202.856 112.319C203.446 111.579 204.122 110.943 204.884 110.409C205.655 109.859 206.482 109.448 207.366 109.176C208.287 108.894 209.188 108.767 210.069 108.796C210.958 108.809 211.774 108.96 212.517 109.249C213.26 109.539 213.896 109.949 214.427 110.481C214.971 111.009 215.355 111.64 215.581 112.374C215.738 112.884 215.782 113.382 215.712 113.866C215.643 114.351 215.472 114.812 215.198 115.25C214.92 115.676 214.544 116.071 214.07 116.434C213.608 116.794 213.051 117.108 212.398 117.377L206.12 120.02C205.871 120.097 205.685 120.222 205.561 120.396C205.45 120.567 205.427 120.758 205.492 120.969C205.591 121.293 205.805 121.568 206.133 121.794C206.474 122.016 206.88 122.184 207.351 122.298C207.83 122.396 208.353 122.433 208.917 122.41C209.495 122.382 210.063 122.282 210.624 122.11C211.159 121.946 211.691 121.728 212.221 121.456C212.759 121.168 213.271 120.841 213.758 120.473C214.257 120.102 214.725 119.7 215.164 119.265C215.599 118.818 215.991 118.344 216.341 117.841ZM210.698 114.303C210.873 114.208 211.008 114.072 211.103 113.893C211.194 113.701 211.207 113.5 211.142 113.288C211.085 113.101 210.963 112.948 210.776 112.828C210.589 112.709 210.359 112.623 210.084 112.571C209.806 112.507 209.499 112.485 209.165 112.506C208.831 112.527 208.49 112.591 208.141 112.698C207.631 112.855 207.131 113.09 206.642 113.404C206.152 113.717 205.728 114.066 205.369 114.448C205.006 114.819 204.733 115.195 204.551 115.578C204.365 115.948 204.316 116.277 204.404 116.563C204.492 116.849 204.71 116.939 205.059 116.832C205.271 116.767 205.605 116.637 206.063 116.442C206.521 116.247 207.026 116.03 207.58 115.792C208.129 115.542 208.683 115.283 209.241 115.016C209.8 114.749 210.285 114.512 210.698 114.303ZM221.133 103.109C221.967 102.853 222.86 102.701 223.813 102.654C224.761 102.594 225.656 102.626 226.498 102.748C227.335 102.859 228.056 103.053 228.659 103.331C229.262 103.609 229.624 103.947 229.747 104.345C229.808 104.545 229.789 104.795 229.692 105.098C229.59 105.388 229.449 105.683 229.269 105.984C229.085 106.272 228.867 106.536 228.614 106.777C228.37 107.002 228.135 107.149 227.911 107.218C227.613 107.31 227.238 107.288 226.788 107.154C226.351 107.016 225.862 106.867 225.323 106.705C224.791 106.528 224.226 106.395 223.627 106.307C223.028 106.218 222.423 106.268 221.813 106.455C221.415 106.578 221.116 106.778 220.915 107.058C220.724 107.321 220.682 107.627 220.789 107.975C220.884 108.287 221.131 108.558 221.529 108.79C221.923 109.009 222.415 109.213 223.004 109.4C223.605 109.583 224.274 109.765 225.011 109.948C225.748 110.13 226.505 110.333 227.282 110.558C228.072 110.778 228.854 111.042 229.63 111.349C230.405 111.655 231.125 112.027 231.79 112.463C232.468 112.895 233.063 113.413 233.576 114.019C234.085 114.611 234.464 115.312 234.712 116.121C234.926 116.818 234.997 117.491 234.924 118.14C234.85 118.79 234.647 119.39 234.312 119.942C233.978 120.495 233.528 120.98 232.962 121.399C232.396 121.818 231.733 122.144 230.974 122.377C230.016 122.672 229.086 122.794 228.185 122.744C227.288 122.706 226.469 122.522 225.727 122.191C224.985 121.86 224.337 121.392 223.783 120.786C223.242 120.176 222.841 119.447 222.581 118.601C222.245 117.506 222.193 116.65 222.426 116.033C222.671 115.413 223.217 114.973 224.064 114.713C224.586 114.553 225.034 114.524 225.406 114.628C225.779 114.731 226.009 114.926 226.097 115.212C226.143 115.362 226.165 115.525 226.165 115.702C226.161 115.867 226.155 116.046 226.146 116.239C226.146 116.416 226.15 116.606 226.158 116.808C226.178 117.006 226.216 117.198 226.274 117.385C226.373 117.709 226.543 117.997 226.784 118.25C227.026 118.503 227.305 118.703 227.623 118.851C227.957 119.007 228.313 119.102 228.691 119.135C229.069 119.169 229.445 119.129 229.818 119.014C230.814 118.708 231.186 118.144 230.933 117.323C230.735 116.676 230.292 116.144 229.606 115.728C228.916 115.3 228.101 114.931 227.161 114.62C226.217 114.297 225.211 113.993 224.143 113.708C223.087 113.419 222.08 113.089 221.121 112.716C220.162 112.343 219.322 111.893 218.601 111.365C217.877 110.824 217.391 110.15 217.142 109.341C216.936 108.669 216.883 108.01 216.985 107.366C217.099 106.718 217.338 106.12 217.701 105.573C218.06 105.013 218.529 104.522 219.108 104.099C219.698 103.672 220.374 103.342 221.133 103.109ZM230.652 94.3214C230.449 93.6617 230.494 93.1439 230.788 92.7678C231.077 92.3793 231.651 92.0531 232.51 91.7893C232.821 91.6937 233.092 91.6446 233.323 91.6418C233.562 91.6228 233.779 91.665 233.974 91.7685C234.182 91.8682 234.368 92.0291 234.531 92.2513C234.704 92.4572 234.878 92.7373 235.055 93.0916C235.56 94.2032 236.089 95.3484 236.642 96.5272C237.207 97.7021 237.78 98.8813 238.362 100.065C238.608 100.602 238.987 100.792 239.497 100.635C239.634 100.593 239.854 100.512 240.158 100.392C240.47 100.255 240.838 100.101 241.262 99.9298C241.683 99.7462 242.134 99.5531 242.617 99.3504C243.112 99.1438 243.602 98.9454 244.089 98.7552C244.584 98.5486 245.052 98.3641 245.492 98.2016C245.941 98.0228 246.34 97.8799 246.688 97.7728C246.962 97.6887 247.197 97.6778 247.394 97.7401C247.586 97.79 247.752 97.8887 247.893 98.0362C248.042 98.1674 248.162 98.335 248.252 98.539C248.35 98.7267 248.432 98.9263 248.497 99.1379C248.554 99.3246 248.576 99.529 248.563 99.7511C248.562 99.9693 248.524 100.178 248.449 100.379C248.383 100.562 248.278 100.731 248.134 100.884C247.991 101.037 247.807 101.148 247.583 101.217C246.5 101.549 245.416 101.923 244.331 102.338C243.255 102.737 242.186 103.16 241.125 103.609C240.588 103.855 240.394 104.222 240.543 104.707C240.555 104.744 240.576 104.792 240.608 104.851C240.636 104.897 240.655 104.938 240.667 104.976C241.149 106.013 241.597 106.985 242.012 107.893C242.44 108.797 242.812 109.609 243.128 110.329C243.453 111.032 243.717 111.626 243.92 112.108C244.131 112.574 244.262 112.889 244.312 113.05C244.449 113.498 244.52 113.885 244.525 114.211C244.533 114.549 244.467 114.842 244.325 115.089C244.187 115.35 243.961 115.569 243.648 115.747C243.351 115.933 242.954 116.103 242.456 116.256C241.983 116.401 241.6 116.396 241.307 116.241C241.014 116.086 240.785 115.782 240.619 115.329C240.093 113.883 239.521 112.444 238.905 111.013C238.284 109.569 237.641 108.139 236.974 106.723C236.698 106.222 236.335 106.04 235.887 106.178C235.85 106.189 235.808 106.209 235.762 106.237C235.716 106.264 235.675 106.284 235.637 106.296C234.919 106.707 234.245 107.105 233.613 107.489C232.982 107.874 232.399 108.257 231.862 108.64C231.561 108.855 231.287 109.028 231.041 109.158C230.791 109.276 230.56 109.367 230.349 109.432C230.062 109.52 229.812 109.46 229.599 109.254C229.382 109.034 229.214 108.732 229.095 108.346C229.053 108.209 229.018 108.049 228.989 107.868C228.957 107.673 228.951 107.477 228.973 107.28C228.977 107.074 229.025 106.876 229.116 106.684C229.191 106.484 229.325 106.3 229.519 106.132C229.977 105.76 230.607 105.328 231.409 104.836C232.208 104.332 233.124 103.812 234.158 103.276C234.388 103.138 234.551 102.979 234.645 102.8C234.749 102.605 234.757 102.364 234.669 102.078C234.65 102.015 234.63 101.953 234.611 101.891C234.588 101.816 234.553 101.745 234.505 101.678C233.954 100.594 233.442 99.6143 232.969 98.7382C232.504 97.8457 232.1 97.0845 231.756 96.4544C231.426 95.8205 231.164 95.3221 230.97 94.9592C230.777 94.5962 230.671 94.3837 230.652 94.3214ZM257.86 91.7057C258.545 91.4954 259.237 91.3986 259.937 91.4152C260.637 91.4318 261.287 91.5523 261.887 91.7766C262.487 92.0009 263.01 92.3305 263.457 92.7653C263.917 93.1963 264.244 93.7292 264.439 94.364C264.519 94.6254 264.535 94.8997 264.487 95.1869C264.448 95.4578 264.357 95.7171 264.215 95.965C264.07 96.2004 263.883 96.4143 263.656 96.6066C263.438 96.7826 263.192 96.9127 262.918 96.9968C262.893 97.0045 262.87 97.0183 262.849 97.0384C262.837 97.0423 262.818 97.048 262.793 97.0556C262.772 97.0757 262.749 97.0896 262.724 97.0972L263.258 98.5679C263.854 100.333 264.503 101.557 265.203 102.241C265.916 102.921 266.639 103.148 267.374 102.922C267.635 102.842 267.858 102.746 268.042 102.636C268.238 102.521 268.414 102.405 268.569 102.29C268.733 102.158 268.888 102.042 269.034 101.942C269.181 101.843 269.335 101.768 269.497 101.719C269.783 101.631 270.07 101.679 270.358 101.863C270.659 102.043 270.863 102.307 270.97 102.656C271.077 103.004 271.047 103.395 270.88 103.827C270.726 104.256 270.475 104.681 270.127 105.101C269.775 105.508 269.353 105.883 268.858 106.226C268.364 106.568 267.837 106.826 267.277 106.998C266.306 107.296 265.331 107.159 264.352 106.588C263.369 106.005 262.483 104.983 261.694 103.523C261.543 103.297 261.405 103.203 261.281 103.241C261.132 103.287 261.024 103.402 260.958 103.586C260.203 105.52 259.249 107.093 258.096 108.306C256.939 109.505 255.682 110.314 254.326 110.73C253.691 110.925 253.09 111.008 252.522 110.978C251.954 110.948 251.438 110.82 250.974 110.595C250.519 110.354 250.117 110.021 249.768 109.597C249.429 109.156 249.165 108.631 248.978 108.021C248.714 107.162 248.624 106.202 248.707 105.142C248.802 104.077 249.032 102.985 249.396 101.865C249.76 100.745 250.238 99.6385 250.828 98.5446C251.431 97.4468 252.101 96.4372 252.84 95.5157C253.591 94.5903 254.394 93.7918 255.251 93.1202C256.107 92.4486 256.977 91.9771 257.86 91.7057ZM259.228 98.3549C259.323 97.8628 259.434 97.4948 259.564 97.2508C259.689 96.9943 259.917 96.7814 260.246 96.6121C260.508 96.4907 260.618 96.3615 260.576 96.2246C260.546 96.125 260.476 96.0306 260.367 95.9416C260.031 95.6906 259.696 95.487 259.362 95.3308C259.024 95.1621 258.637 95.1447 258.202 95.2785C257.729 95.4238 257.242 95.7232 256.741 96.1767C256.24 96.6302 255.755 97.1809 255.287 97.8288C254.827 98.4604 254.395 99.1585 253.989 99.9232C253.593 100.672 253.264 101.42 253.003 102.167C252.742 102.915 252.567 103.629 252.476 104.311C252.386 104.992 252.414 105.57 252.559 106.043C252.689 106.466 252.902 106.761 253.199 106.929C253.508 107.093 253.862 107.114 254.26 106.991C255.281 106.678 256.228 105.794 257.103 104.34C257.978 102.887 258.686 100.891 259.228 98.3549ZM278.224 88.0253C277.764 88.1668 277.397 88.4155 277.125 88.7715C276.849 89.115 276.654 89.5428 276.539 90.0549C276.42 90.5546 276.369 91.1218 276.387 91.7565C276.401 92.3787 276.464 93.0475 276.574 93.7626C276.685 94.4778 276.836 95.2145 277.028 95.9728C277.22 96.7311 277.433 97.4899 277.666 98.2491C277.972 99.2449 278.312 100.217 278.684 101.165C279.066 102.096 279.383 102.973 279.635 103.794C279.8 104.33 279.728 104.808 279.422 105.229C279.119 105.662 278.601 105.992 277.866 106.217C277.729 106.259 277.57 106.295 277.388 106.323C277.206 106.352 277.023 106.354 276.838 106.329C276.666 106.3 276.496 106.236 276.33 106.138C276.18 106.048 276.064 105.892 275.983 105.672C275.534 104.611 275.028 103.541 274.465 102.461C273.902 101.381 273.284 100.324 272.613 99.2906C271.95 98.241 271.222 97.225 270.43 96.2424C269.65 95.2559 268.81 94.3154 267.908 93.4209C267.752 93.2648 267.611 93.1173 267.486 92.9784C267.375 92.8357 267.296 92.6897 267.25 92.5403C267.192 92.3536 267.212 92.1296 267.309 91.8683C267.414 91.5907 267.563 91.3204 267.755 91.0572C267.959 90.7902 268.193 90.5548 268.457 90.351C268.73 90.131 269.01 89.977 269.296 89.8891C269.769 89.7438 270.287 89.9456 270.851 90.4944C271.411 91.0308 272.066 91.9669 272.817 93.3027C272.955 93.5325 273.059 93.6915 273.127 93.7796C273.194 93.8677 273.26 93.9022 273.322 93.8831C273.459 93.841 273.481 93.6027 273.388 93.168C273.174 91.9397 273.118 90.8469 273.219 89.8896C273.316 88.9199 273.548 88.079 273.915 87.3669C274.291 86.6386 274.787 86.0367 275.404 85.5612C276.033 85.0819 276.771 84.7123 277.617 84.4523C278.103 84.3032 278.608 84.1958 279.132 84.13C279.657 84.0642 280.145 84.0573 280.597 84.1092C281.049 84.1611 281.437 84.2733 281.763 84.4458C282.088 84.6182 282.299 84.8601 282.394 85.1712C282.463 85.3953 282.495 85.6782 282.491 86.0199C282.496 86.3454 282.468 86.6743 282.406 87.0064C282.341 87.3261 282.239 87.6161 282.101 87.8765C281.972 88.1205 281.808 88.2731 281.609 88.3343C281.385 88.4031 281.148 88.4078 280.898 88.3483C280.644 88.2764 280.37 88.204 280.075 88.1311C279.793 88.0543 279.496 87.9958 279.183 87.9554C278.88 87.8988 278.56 87.9221 278.224 88.0253ZM279.091 79.6067C278.988 79.4477 278.897 79.3055 278.817 79.1801C278.75 79.0508 278.696 78.9177 278.654 78.7808C278.547 78.4323 278.563 78.1073 278.702 77.8058C278.853 77.5005 279.147 77.2809 279.582 77.1471C281.512 76.5545 282.711 76.6901 283.181 77.5538C283.764 78.655 284.331 79.7682 284.881 80.8933C285.43 82.0184 285.961 83.1698 286.473 84.3476C286.993 85.5091 287.483 86.7069 287.944 87.9411C288.414 89.159 288.849 90.4215 289.251 91.7284C289.327 91.9773 289.389 92.2239 289.437 92.468C289.481 92.6997 289.494 92.9204 289.477 93.13C289.456 93.3272 289.394 93.5028 289.291 93.6569C289.201 93.8072 289.044 93.9167 288.82 93.9855L287.183 94.2432C286.848 94.3052 286.589 94.2826 286.406 94.1753C286.232 94.0517 286.089 93.8506 285.976 93.572C285.176 91.3248 284.195 89.0177 283.033 86.6506C281.87 84.2836 280.556 81.9356 279.091 79.6067ZM289.997 101.409C289.636 101.519 289.276 101.569 288.918 101.556C288.577 101.552 288.257 101.487 287.959 101.36C287.678 101.242 287.429 101.074 287.211 100.854C286.994 100.635 286.838 100.37 286.742 100.059C286.582 99.5359 286.657 99.0496 286.968 98.5998C287.292 98.1462 287.803 97.8123 288.5 97.5983C288.823 97.4989 289.153 97.4655 289.49 97.4982C289.824 97.5185 290.133 97.5938 290.418 97.7241C290.716 97.8506 290.975 98.0298 291.196 98.2616C291.413 98.4809 291.566 98.7337 291.654 99.02C291.818 99.5552 291.747 100.033 291.44 100.454C291.15 100.884 290.669 101.202 289.997 101.409Z" fill="#3880FF"/>
</svg>
