<svg width="150" height="150" viewBox="0 0 150 150" fill="none" xmlns="http://www.w3.org/2000/svg">
<path d="M143.361 41.2926C151.697 60.7186 138.914 84.727 124.131 102.36C109.347 119.993 92.5619 131.15 69.7747 134.139C47.0987 137.227 18.4202 132.146 7.97144 116.705C-2.58848 101.364 4.85904 75.6616 19.1983 53.1474C33.5376 30.6333 54.5462 11.4066 79.89 9.21491C105.234 7.02327 134.913 21.8667 143.361 41.2926Z" fill="#AAC9FF"/>
<path d="M88.1243 49.4165H62.8743C48.9476 49.4165 46.041 52.3231 46.041 66.2498V133.583H104.958V66.2498C104.958 52.3231 102.051 49.4165 88.1243 49.4165Z" fill="#F0F5FF" stroke="#141B34" stroke-width="1.5" stroke-linejoin="round"/>
<path d="M79.7083 112.542H71.2917C64.3283 112.542 62.875 113.995 62.875 120.958V125.167C62.875 129.134 62.875 131.118 64.1076 132.351C65.3402 133.583 67.3241 133.583 71.2917 133.583H79.7083C83.676 133.583 85.6598 133.583 86.8924 132.351C88.125 131.118 88.125 129.134 88.125 125.167V120.958C88.125 113.995 86.6719 112.542 79.7083 112.542Z" fill="white"/>
<path d="M88.1243 49.4165H62.8743C48.9476 49.4165 46.041 52.3231 46.041 66.2498V133.583H104.958V66.2498C104.958 52.3231 102.051 49.4165 88.1243 49.4165Z" stroke="#001F55" stroke-width="4" stroke-linejoin="round"/>
<path d="M37.625 133.583H113.375" stroke="#001F55" stroke-width="4" stroke-linecap="round" stroke-linejoin="round"/>
<path d="M88.125 133.583V120.958C88.125 113.995 86.6719 112.542 79.7083 112.542H71.2917C64.3283 112.542 62.875 113.995 62.875 120.958V133.583" stroke="#001F55" stroke-width="4" stroke-linejoin="round"/>
<path d="M81.8125 66.25H69.1875M81.8125 80.9792H69.1875M81.8125 95.7083H69.1875" stroke="#0050DC" stroke-width="4" stroke-linecap="round"/>
</svg>
