<svg width="150" height="150" viewBox="0 0 150 150" fill="none" xmlns="http://www.w3.org/2000/svg">
<path d="M143.361 44.2926C151.697 63.7186 138.914 87.727 124.131 105.36C109.347 122.993 92.5619 134.15 69.7747 137.139C47.0987 140.227 18.4202 135.146 7.97144 119.705C-2.58848 104.364 4.85904 78.6616 19.1983 56.1474C33.5376 33.6333 54.5462 14.4066 79.89 12.2149C105.234 10.0233 134.913 24.8667 143.361 44.2926Z" fill="#AAC9FF"/>
<path d="M96.1243 52.4165H70.8743C56.9476 52.4165 54.041 55.3231 54.041 69.2498V136.583H112.958V69.2498C112.958 55.3231 110.051 52.4165 96.1243 52.4165Z" fill="#F0F5FF" stroke="#141B34" stroke-width="1.5" stroke-linejoin="round"/>
<path d="M87.7083 115.542H79.2917C72.3283 115.542 70.875 116.995 70.875 123.958V128.167C70.875 132.134 70.875 134.118 72.1076 135.351C73.3402 136.583 75.3241 136.583 79.2917 136.583H87.7083C91.676 136.583 93.6598 136.583 94.8924 135.351C96.125 134.118 96.125 132.134 96.125 128.167V123.958C96.125 116.995 94.6719 115.542 87.7083 115.542Z" fill="white"/>
<path d="M96.1243 52.4165H70.8743C56.9476 52.4165 54.041 55.3231 54.041 69.2498V136.583H112.958V69.2498C112.958 55.3231 110.051 52.4165 96.1243 52.4165Z" stroke="#001F55" stroke-width="4" stroke-linejoin="round"/>
<path d="M45.625 136.583H121.375" stroke="#001F55" stroke-width="4" stroke-linecap="round" stroke-linejoin="round"/>
<path d="M96.125 136.583V123.958C96.125 116.995 94.6719 115.542 87.7083 115.542H79.2917C72.3283 115.542 70.875 116.995 70.875 123.958V136.583" stroke="#001F55" stroke-width="4" stroke-linejoin="round"/>
<path d="M89.8125 69.25H77.1875M89.8125 83.9792H77.1875M89.8125 98.7083H77.1875" stroke="#0050DC" stroke-width="4" stroke-linecap="round"/>
</svg>
