<svg width="500" height="500" viewBox="0 0 500 500" fill="none" xmlns="http://www.w3.org/2000/svg">
<path d="M449.9 398.49H416.78V398.74H449.9V398.49Z" fill="#3880FF"/>
<path d="M331.22 401.21H322.53V401.46H331.22V401.21Z" fill="#EBEBEB"/>
<path d="M415.78 389.21H396.59V389.46H415.78V389.21Z" fill="#3880FF"/>
<path d="M95.65 390.89H52.46V391.14H95.65V390.89Z" fill="#EBEBEB"/>
<path d="M110.89 390.89H104.56V391.14H110.89V390.89Z" fill="#EBEBEB"/>
<path d="M225.15 395.11H131.47V395.36H225.15V395.11Z" fill="#3880FF"/>
<path d="M238.4 337.8H45.2998C43.7855 337.8 42.3331 337.198 41.2623 336.128C40.1914 335.057 39.5898 333.604 39.5898 332.09V60.66C39.603 59.1543 40.2104 57.7147 41.2798 56.6547C42.3492 55.5947 43.7941 54.9999 45.2998 55H238.4C239.15 55 239.892 55.1477 240.585 55.4346C241.278 55.7216 241.907 56.1422 242.437 56.6724C242.968 57.2026 243.388 57.8321 243.675 58.5249C243.962 59.2176 244.11 59.9602 244.11 60.71V332.09C244.11 332.84 243.962 333.582 243.675 334.275C243.388 334.968 242.968 335.597 242.437 336.128C241.907 336.658 241.278 337.078 240.585 337.365C239.892 337.652 239.15 337.8 238.4 337.8ZM45.2998 55.2C43.8526 55.2026 42.4653 55.7787 41.442 56.8021C40.4186 57.8255 39.8425 59.2127 39.8398 60.66V332.09C39.8425 333.537 40.4186 334.924 41.442 335.948C42.4653 336.971 43.8526 337.547 45.2998 337.55H238.4C239.847 337.547 241.234 336.971 242.258 335.948C243.281 334.924 243.857 333.537 243.86 332.09V60.66C243.857 59.2127 243.281 57.8255 242.258 56.8021C241.234 55.7787 239.847 55.2026 238.4 55.2H45.2998Z" fill="#3880FF"/>
<path d="M454.7 337.8H261.6C260.085 337.8 258.633 337.198 257.562 336.128C256.491 335.057 255.89 333.604 255.89 332.09V60.66C255.903 59.1543 256.51 57.7147 257.58 56.6547C258.649 55.5947 260.094 54.9999 261.6 55H454.7C456.214 55 457.666 55.6016 458.737 56.6724C459.808 57.7433 460.41 59.1956 460.41 60.71V332.09C460.41 333.604 459.808 335.057 458.737 336.128C457.666 337.198 456.214 337.8 454.7 337.8ZM261.6 55.2C260.152 55.2026 258.765 55.7787 257.742 56.8021C256.718 57.8255 256.142 59.2127 256.14 60.66V332.09C256.142 333.537 256.718 334.924 257.742 335.948C258.765 336.971 260.152 337.547 261.6 337.55H454.7C456.147 337.547 457.534 336.971 458.558 335.948C459.581 334.924 460.157 333.537 460.16 332.09V60.66C460.157 59.2127 459.581 57.8255 458.558 56.8021C457.534 55.7787 456.147 55.2026 454.7 55.2H261.6Z" fill="#3880FF"/>
<path d="M500 382.4H0V382.65H500V382.4Z" fill="#3880FF"/>
<path d="M90.8802 257.13L75.6002 252.41C75.3793 252.329 75.1936 252.174 75.0759 251.97C74.9581 251.767 74.9158 251.529 74.9564 251.297C74.997 251.065 75.1179 250.856 75.2978 250.704C75.4777 250.553 75.7052 250.47 75.9402 250.47L93.5602 251.4C89.4002 244.17 86.9402 239.65 84.1402 233.99C84.0471 233.775 84.0319 233.535 84.0972 233.311C84.1625 233.087 84.3043 232.893 84.4979 232.762C84.6915 232.631 84.9247 232.573 85.1571 232.596C85.3895 232.619 85.6065 232.723 85.7702 232.89C89.5302 237.12 92.6802 240.55 97.7702 245.96C98.9702 238.96 100.37 232.51 102.11 226.04C102.155 225.774 102.304 225.538 102.523 225.382C102.743 225.227 103.015 225.165 103.28 225.21C103.545 225.255 103.782 225.403 103.938 225.623C104.093 225.842 104.155 226.114 104.11 226.38C103.643 231.592 103.473 236.828 103.6 242.06L104.08 242.23C108.307 237.403 112.744 232.766 117.39 228.32C117.577 228.173 117.81 228.098 118.048 228.108C118.285 228.117 118.511 228.211 118.686 228.372C118.86 228.534 118.971 228.752 119 228.988C119.028 229.223 118.972 229.462 118.84 229.66C114.347 235.358 110.196 241.318 106.41 247.51C112.45 245.23 118.524 243.02 124.63 240.88C124.861 240.814 125.107 240.833 125.324 240.933C125.542 241.033 125.716 241.208 125.816 241.426C125.915 241.644 125.933 241.891 125.866 242.121C125.799 242.351 125.651 242.549 125.45 242.68C119.12 246.27 112.86 249.94 106.61 253.74L122.72 258.87C122.943 258.95 123.13 259.108 123.247 259.313C123.365 259.519 123.406 259.759 123.363 259.992C123.32 260.225 123.195 260.435 123.011 260.585C122.828 260.735 122.597 260.814 122.36 260.81L105.81 259.81C109.08 263.64 111.35 266.27 114 269.24C114.15 269.422 114.23 269.651 114.227 269.887C114.223 270.123 114.137 270.35 113.983 270.528C113.828 270.706 113.616 270.824 113.383 270.861C113.15 270.898 112.912 270.851 112.71 270.73C109.38 268.52 106.45 266.56 102.19 263.73C102.63 267.13 103 269.73 103.45 272.35C103.475 272.585 103.416 272.821 103.283 273.017C103.15 273.213 102.952 273.355 102.725 273.419C102.497 273.482 102.254 273.463 102.039 273.364C101.824 273.266 101.651 273.094 101.55 272.88C100.44 270.05 99.4302 267.24 98.1502 263.5C93.3402 286.5 94.5802 308.83 99.2302 331.71L93.4702 330.71C90.0753 308.236 90.9916 285.321 96.1702 263.19C93.2802 266.19 91.1702 268.42 89.1702 270.68C89.0007 270.846 88.7775 270.946 88.5407 270.963C88.3039 270.98 88.0689 270.912 87.8777 270.771C87.6865 270.63 87.5515 270.426 87.497 270.195C87.4425 269.964 87.472 269.721 87.5802 269.51C88.9402 267.25 90.4102 264.96 92.3902 261.99C87.2402 263.12 83.7202 263.9 79.8302 264.78C79.5968 264.822 79.3561 264.779 79.151 264.66C78.9458 264.541 78.7897 264.353 78.7104 264.13C78.6311 263.906 78.6338 263.662 78.718 263.44C78.8022 263.219 78.9625 263.034 79.1702 262.92C82.6602 261.05 86.0002 259.45 90.8802 257.13Z" fill="#3880FF"/>
<path d="M82.7497 265.08L94.4897 258.86C94.7837 258.711 95.012 258.459 95.1305 258.151C95.2489 257.844 95.2489 257.503 95.1307 257.196C95.0124 256.888 94.7842 256.635 94.4903 256.487C94.1963 256.338 93.8576 256.303 93.5397 256.39L79.0497 260C81.4097 253.2 82.8997 248.62 84.3597 243.58C84.4492 243.269 84.4226 242.937 84.2848 242.645C84.147 242.352 83.9076 242.12 83.6111 241.991C83.3147 241.863 82.9815 241.846 82.6739 241.946C82.3663 242.045 82.1054 242.252 81.9397 242.53C79.5597 246.53 77.2897 250.13 73.9397 255.44C71.9397 250.02 69.8297 244.99 67.5497 240.05C67.4066 239.755 67.1596 239.523 66.8562 239.4C66.5528 239.276 66.2143 239.268 65.9057 239.378C65.5971 239.489 65.34 239.709 65.1839 239.997C65.0278 240.285 64.9836 240.621 65.0597 240.94C66.0597 244.86 66.8897 248.81 67.5297 252.68L67.0897 252.94C63.2897 249.98 59.4031 247.143 55.4297 244.43C55.153 244.238 54.814 244.159 54.481 244.207C54.148 244.256 53.8458 244.429 53.6352 244.691C53.4247 244.954 53.3215 245.286 53.3465 245.622C53.3714 245.958 53.5227 246.271 53.7697 246.5C57.9564 250.333 61.9564 254.353 65.7697 258.56C60.6297 257.673 55.4797 256.826 50.3197 256.02C49.9936 255.974 49.6623 256.052 49.3899 256.237C49.1175 256.421 48.9233 256.701 48.8449 257.02C48.7665 257.34 48.8095 257.678 48.9656 257.968C49.1216 258.257 49.3796 258.479 49.6897 258.59C55.3897 260.59 61.0497 262.59 66.6897 264.72L54.1997 271.48C53.8933 271.626 53.6543 271.883 53.5316 272.199C53.4088 272.516 53.4116 272.867 53.5394 273.181C53.6672 273.496 53.9103 273.749 54.2189 273.89C54.5276 274.031 54.8785 274.049 55.1997 273.94L68.6497 270.53C66.6497 273.94 65.2097 276.53 63.6497 279.11C63.479 279.388 63.4166 279.719 63.4744 280.041C63.5322 280.362 63.7061 280.651 63.963 280.852C64.22 281.053 64.542 281.153 64.8678 281.133C65.1936 281.112 65.5003 280.972 65.7297 280.74L72.9997 273.63C73.1197 275.63 73.2197 277.41 73.2797 279.05C73.293 279.378 73.4273 279.69 73.657 279.925C73.8866 280.161 74.1952 280.302 74.5232 280.324C74.8512 280.345 75.1754 280.244 75.4333 280.04C75.6912 279.836 75.8645 279.544 75.9197 279.22C76.2497 277.22 76.5697 275.14 76.9197 272.65C85.9197 294.36 88.9197 316.51 88.5797 339.86L94.0497 337.76C93.1902 315.046 88.0112 292.705 78.7897 271.93C80.8697 273.39 82.6097 274.63 84.1997 275.8C84.4649 276.033 84.812 276.152 85.1646 276.129C85.5171 276.107 85.8463 275.945 86.0797 275.68C86.3131 275.415 86.4316 275.068 86.4091 274.715C86.3866 274.362 86.2249 274.033 85.9597 273.8C84.8797 272.65 83.6897 271.43 82.3197 270.03C86.3197 270.14 89.3797 270.23 92.3197 270.33C92.6435 270.337 92.9588 270.226 93.2065 270.017C93.4541 269.809 93.6172 269.517 93.6651 269.197C93.7129 268.876 93.6423 268.55 93.4664 268.278C93.2905 268.006 93.0215 267.807 92.7097 267.72C89.7897 266.93 86.7597 266.12 82.7497 265.08Z" fill="#AAC9FF"/>
<path d="M103.48 277.7L94.7203 273.05C94.5193 272.942 94.3648 272.763 94.2857 272.549C94.2066 272.335 94.2082 272.099 94.2903 271.886C94.3724 271.673 94.5294 271.497 94.7318 271.391C94.9342 271.285 95.1683 271.256 95.3903 271.31L106.18 274C104.42 268.94 103.33 265.58 102.25 261.82C102.142 261.588 102.129 261.322 102.217 261.082C102.304 260.841 102.483 260.644 102.715 260.535C102.947 260.427 103.213 260.414 103.454 260.502C103.695 260.589 103.892 260.768 104 261C105.78 263.94 107.45 266.64 109.94 270.59C111.45 266.54 113.01 262.79 114.72 259.1C114.821 258.891 114.996 258.727 115.211 258.639C115.425 258.551 115.665 258.546 115.883 258.624C116.102 258.703 116.284 258.859 116.394 259.063C116.504 259.267 116.535 259.505 116.48 259.73C115.71 262.73 115.08 265.73 114.6 268.64L114.88 268.8C117.76 266.554 120.714 264.404 123.74 262.35C123.837 262.274 123.949 262.218 124.068 262.185C124.187 262.152 124.311 262.142 124.433 262.157C124.556 262.172 124.674 262.211 124.782 262.271C124.89 262.332 124.984 262.413 125.06 262.51C125.136 262.607 125.193 262.719 125.226 262.838C125.259 262.957 125.269 263.081 125.254 263.203C125.239 263.326 125.2 263.444 125.139 263.552C125.079 263.66 124.997 263.754 124.9 263.83C121.747 266.69 118.747 269.69 115.9 272.83C119.74 272.164 123.594 271.527 127.46 270.92C127.694 270.881 127.934 270.931 128.133 271.061C128.331 271.191 128.473 271.391 128.53 271.621C128.587 271.852 128.555 272.095 128.44 272.303C128.325 272.51 128.136 272.666 127.91 272.74C123.664 274.214 119.427 275.74 115.2 277.32L124.5 282.32C124.705 282.428 124.862 282.607 124.943 282.824C125.024 283.04 125.022 283.279 124.938 283.494C124.854 283.709 124.693 283.886 124.487 283.99C124.281 284.095 124.044 284.12 123.82 284.06L113.82 281.52C115.29 284.09 116.4 286.01 117.55 287.96C117.661 288.156 117.698 288.385 117.655 288.605C117.612 288.826 117.491 289.023 117.314 289.162C117.138 289.302 116.917 289.373 116.693 289.363C116.468 289.354 116.254 289.264 116.09 289.11L110.71 283.82C110.61 285.41 110.54 286.77 110.49 288.04C110.486 288.276 110.394 288.502 110.231 288.673C110.068 288.844 109.846 288.947 109.611 288.963C109.375 288.978 109.142 288.904 108.959 288.755C108.775 288.606 108.654 288.394 108.62 288.16C108.37 286.65 108.12 285.03 107.84 283.1C101.26 298.93 99.1203 315.1 99.3403 332.1L95.3403 330.57C95.9676 314.01 99.7415 297.72 106.46 282.57C104.85 283.71 103.46 284.67 102.28 285.57C102.092 285.719 101.855 285.791 101.616 285.771C101.377 285.75 101.155 285.639 100.995 285.46C100.835 285.281 100.75 285.048 100.756 284.808C100.763 284.568 100.861 284.34 101.03 284.17C101.88 283.27 102.8 282.31 103.89 281.17L96.3303 281.39C96.0982 281.4 95.871 281.323 95.6924 281.174C95.5138 281.026 95.3964 280.817 95.3628 280.587C95.3293 280.357 95.382 280.123 95.5108 279.93C95.6395 279.737 95.8353 279.598 96.0603 279.54C98.1903 279.08 100.45 278.48 103.48 277.7Z" fill="#5B96FF"/>
<path d="M78.7904 382.23H108.61C109.615 382.232 110.582 381.85 111.315 381.162C112.047 380.475 112.489 379.533 112.55 378.53L115.71 327.09C115.85 324.82 71.5504 324.82 71.7104 327.09L74.8704 378.53C74.9314 379.53 75.3705 380.468 76.0986 381.155C76.8267 381.843 77.7892 382.227 78.7904 382.23Z" fill="#AAC9FF"/>
<path d="M77.0002 263.38C76.6125 263.06 76.3113 262.648 76.1244 262.181C75.9374 261.715 75.8707 261.209 75.9302 260.71L76.6002 255.01L75.0702 257.66C74.8585 258.032 74.5696 258.355 74.2228 258.606C73.876 258.857 73.4794 259.031 73.0598 259.117C72.6401 259.202 72.207 259.196 71.7897 259.1C71.3724 259.004 70.9804 258.82 70.6402 258.56L67.6402 256.3L70.3702 260.71C70.7532 261.321 70.9033 262.049 70.7931 262.762C70.6829 263.474 70.3198 264.123 69.7702 264.59L66.2402 267.59L69.7002 266.8C70.4336 266.628 71.2049 266.738 71.8607 267.109C72.5166 267.479 73.009 268.083 73.2402 268.8L74.4302 272.44L75.1902 268.57C75.2727 268.16 75.4398 267.772 75.681 267.43C75.9222 267.089 76.2321 266.802 76.5909 266.587C76.9496 266.372 77.3492 266.235 77.7641 266.184C78.1791 266.133 78.6001 266.169 79.0002 266.29L81.3302 266.97L77.0002 263.38Z" fill="#E6E6E6"/>
<path d="M96.8702 253.56C97.1546 253.328 97.3754 253.027 97.5118 252.686C97.6482 252.345 97.6959 251.975 97.6502 251.61L97.1602 247.44L98.2802 249.38C98.4345 249.652 98.6451 249.887 98.8978 250.07C99.1506 250.254 99.4395 250.381 99.7454 250.443C100.051 250.506 100.367 250.502 100.671 250.433C100.976 250.363 101.262 250.23 101.51 250.04L103.7 248.39L101.7 251.61C101.424 252.057 101.316 252.588 101.397 253.107C101.477 253.626 101.741 254.099 102.14 254.44L104.72 256.66L102.19 256.08C101.656 255.958 101.095 256.041 100.617 256.311C100.14 256.581 99.7809 257.019 99.6102 257.54L98.7402 260.2L98.1802 257.37C98.1202 257.071 97.9987 256.786 97.8233 256.536C97.6479 256.285 97.4224 256.074 97.1611 255.915C96.8998 255.756 96.6084 255.654 96.3053 255.613C96.0022 255.573 95.694 255.596 95.4002 255.68L93.7002 256.18L96.8702 253.56Z" fill="#F5F5F5"/>
<path d="M108.66 277.43C108.862 277.259 109.019 277.041 109.116 276.795C109.214 276.549 109.25 276.282 109.22 276.02L108.87 273.02L109.67 274.41C109.782 274.603 109.934 274.771 110.116 274.902C110.297 275.032 110.505 275.123 110.724 275.167C110.943 275.212 111.17 275.209 111.388 275.159C111.606 275.11 111.811 275.014 111.99 274.88L113.56 273.69L112.13 276C111.939 276.316 111.866 276.69 111.923 277.056C111.979 277.421 112.162 277.755 112.44 278L114.29 279.59L112.48 279.17C112.101 279.08 111.703 279.132 111.36 279.316C111.017 279.5 110.754 279.804 110.62 280.17L110 282.08L109.6 280.08C109.557 279.864 109.47 279.659 109.344 279.479C109.218 279.298 109.056 279.146 108.867 279.032C108.679 278.918 108.469 278.845 108.251 278.817C108.033 278.789 107.811 278.807 107.6 278.87L106.38 279.23L108.66 277.43Z" fill="#E6E6E6"/>
<path d="M384.64 135.66H358.47C357.741 135.66 357.15 136.251 357.15 136.98V142.07C357.15 142.799 357.741 143.39 358.47 143.39H384.64C385.369 143.39 385.96 142.799 385.96 142.07V136.98C385.96 136.251 385.369 135.66 384.64 135.66Z" fill="#F5F5F5"/>
<path d="M375.84 145.24H349.67C348.941 145.24 348.35 145.831 348.35 146.56V151.65C348.35 152.379 348.941 152.97 349.67 152.97H375.84C376.569 152.97 377.16 152.379 377.16 151.65V146.56C377.16 145.831 376.569 145.24 375.84 145.24Z" fill="#F5F5F5"/>
<path d="M405.99 145.24H379.82C379.091 145.24 378.5 145.831 378.5 146.56V151.65C378.5 152.379 379.091 152.97 379.82 152.97H405.99C406.719 152.97 407.31 152.379 407.31 151.65V146.56C407.31 145.831 406.719 145.24 405.99 145.24Z" fill="#F0F0F0"/>
<path d="M419.98 74.1299H392.06C391.331 74.1299 390.74 74.7209 390.74 75.4499V81.0099C390.74 81.7389 391.331 82.3299 392.06 82.3299H419.98C420.709 82.3299 421.3 81.7389 421.3 81.0099V75.4499C421.3 74.7209 420.709 74.1299 419.98 74.1299Z" fill="#5B96FF"/>
<path d="M419.98 94.4697H392.06C391.331 94.4697 390.74 95.0607 390.74 95.7897V101.35C390.74 102.079 391.331 102.67 392.06 102.67H419.98C420.709 102.67 421.3 102.079 421.3 101.35V95.7897C421.3 95.0607 420.709 94.4697 419.98 94.4697Z" fill="#5B96FF"/>
<path d="M410.65 84.29H382.73C382.001 84.29 381.41 84.881 381.41 85.61V91.17C381.41 91.8991 382.001 92.49 382.73 92.49H410.65C411.379 92.49 411.97 91.8991 411.97 91.17V85.61C411.97 84.881 411.379 84.29 410.65 84.29Z" fill="#5B96FF"/>
<path d="M442.63 84.29H414.71C413.981 84.29 413.39 84.881 413.39 85.61V91.17C413.39 91.8991 413.981 92.49 414.71 92.49H442.63C443.359 92.49 443.95 91.8991 443.95 91.17V85.61C443.95 84.881 443.359 84.29 442.63 84.29Z" fill="#AAC9FF"/>
<path d="M218.93 323.2H410.98V317.68H218.93V323.2Z" fill="#5B96FF"/>
<path d="M409.55 323.2H452.57V317.68H409.55V323.2Z" fill="#3880FF"/>
<path d="M238.89 336.62V323.2H229.94L238.89 336.62Z" fill="#0D61F4"/>
<path d="M234.42 336.62L225.47 323.2H229.94L238.89 336.62H234.42Z" fill="#AAC9FF"/>
<path d="M445.56 336.62V323.2H436.61L445.56 336.62Z" fill="#0D61F4"/>
<path d="M441.08 336.62L432.14 323.2H436.61L445.56 336.62H441.08Z" fill="#AAC9FF"/>
<path d="M421.83 318.43H426.89C427.429 318.43 427.962 318.322 428.458 318.111C428.954 317.9 429.403 317.591 429.776 317.202C430.15 316.814 430.441 316.354 430.633 315.85C430.824 315.346 430.911 314.809 430.89 314.27L430.25 295.21H418.45L417.81 314.27C417.788 314.81 417.876 315.349 418.069 315.855C418.261 316.36 418.554 316.821 418.93 317.21C419.306 317.598 419.757 317.907 420.255 318.117C420.753 318.327 421.289 318.433 421.83 318.43Z" fill="#AAC9FF"/>
<path d="M400.373 306.359C404.754 301.977 404.754 294.873 400.373 290.491C395.991 286.109 388.887 286.109 384.505 290.491C380.123 294.873 380.123 301.977 384.505 306.359C388.887 310.74 395.991 310.74 400.373 306.359Z" fill="#AAC9FF"/>
<path d="M391.66 318.26H393.22V310.83H392.44C390.783 310.877 389.133 310.591 387.588 309.989C386.043 309.388 384.635 308.482 383.446 307.326C382.257 306.171 381.312 304.789 380.666 303.261C380.021 301.734 379.688 300.093 379.688 298.435C379.688 296.777 380.021 295.136 380.666 293.608C381.312 292.081 382.257 290.699 383.446 289.543C384.635 288.387 386.043 287.482 387.588 286.88C389.133 286.278 390.783 285.993 392.44 286.04V284.47C388.925 284.652 385.608 286.152 383.149 288.67C380.69 291.189 379.27 294.541 379.171 298.06C379.073 301.578 380.304 305.005 382.618 307.656C384.933 310.308 388.161 311.991 391.66 312.37V318.26Z" fill="#3880FF"/>
<path d="M385.85 318.43H399.19C399.19 317.634 398.874 316.871 398.311 316.308C397.749 315.746 396.986 315.43 396.19 315.43H388.83C388.034 315.43 387.271 315.746 386.709 316.308C386.146 316.871 385.83 317.634 385.83 318.43H385.85Z" fill="#3880FF"/>
<path d="M422.59 318.43L412.05 307.89L401.5 318.43H422.59Z" fill="#5B96FF"/>
<path d="M412.05 307.89L422.59 318.43H412.05V307.89Z" fill="#0D61F4"/>
<path d="M338.56 304.64C338.61 305.64 338.64 306.44 338.64 306.97C338.641 309.152 338.165 311.308 337.246 313.287C336.327 315.266 334.987 317.021 333.32 318.43H314.79C313.129 317.024 311.794 315.273 310.877 313.299C309.96 311.326 309.483 309.176 309.48 307C309.48 306.47 309.48 305.67 309.56 304.67L338.56 304.64Z" fill="#5B96FF"/>
<path d="M336 312.85C336 313.913 336.231 314.963 336.678 315.926C337.126 316.89 337.778 317.745 338.59 318.43H347.59C348.624 317.55 349.396 316.401 349.82 315.11C349.998 315.143 350.179 315.159 350.36 315.16C352.17 315.16 354.19 313.72 354.19 311.8C354.19 309.88 353.03 308.44 351.3 308.44C350.899 308.444 350.502 308.508 350.12 308.63V308.5C350.115 308.035 349.926 307.591 349.594 307.265C349.262 306.939 348.815 306.758 348.35 306.76H337.8C337.567 306.755 337.336 306.796 337.119 306.881C336.902 306.965 336.704 307.092 336.537 307.254C336.369 307.416 336.236 307.61 336.143 307.823C336.051 308.037 336.003 308.267 336 308.5C336 310.51 336 312.15 336 312.85ZM350.1 314.02C350.172 313.634 350.209 313.243 350.21 312.85C350.21 312.31 350.21 311.22 350.21 309.85C350.574 309.681 350.969 309.589 351.37 309.58C353.01 309.58 353.14 311.29 353.14 311.82C353.14 313.06 351.66 314.06 350.43 314.06L350.1 314.02Z" fill="#3880FF"/>
<path d="M252.44 318.43L253.91 301.54H232.5L231.02 318.43H252.44Z" fill="#AAC9FF"/>
<path d="M252.44 318.43L253.91 301.54H255.07L253.59 318.43H252.44Z" fill="#0D61F4"/>
<path d="M250.4 316.71L251.58 303.27H234.53L233.35 316.71H250.4Z" fill="#AAC9FF"/>
<path d="M249.1 315.6L250.08 304.37H235.84L234.85 315.6H249.1Z" fill="#3880FF"/>
<path d="M276.58 318.43H255.07L257.45 291.15H278.97L276.58 318.43Z" fill="#AAC9FF"/>
<path d="M276.58 318.43H277.61L280 291.15H278.97L276.58 318.43Z" fill="#3880FF"/>
<path d="M274.63 315.65H257.5L259.4 293.93H276.53L274.63 315.65Z" fill="#0D61F4"/>
<path d="M273.38 313.86H259.07L260.66 295.72H274.97L273.38 313.86Z" fill="#AAC9FF"/>
<path d="M263.047 305.559L264.455 306.966C265.696 308.208 267.71 308.208 268.952 306.966L270.359 305.559C271.601 304.317 271.601 302.304 270.359 301.062L268.952 299.655C267.71 298.413 265.696 298.413 264.455 299.655L263.047 301.062C261.806 302.304 261.806 304.317 263.047 305.559Z" fill="#3880FF"/>
<path d="M262.356 310.779L263.049 311.472C264.291 312.714 266.305 312.714 267.546 311.472L268.239 310.779C269.481 309.537 269.481 307.524 268.239 306.282L267.546 305.589C266.305 304.347 264.291 304.347 263.049 305.589L262.356 306.282C261.114 307.524 261.114 309.537 262.356 310.779Z" fill="#0D61F4"/>
<path d="M69.3895 123.74H99.9495C100.679 123.74 101.27 123.149 101.27 122.42V116.15C101.27 115.421 100.679 114.83 99.9495 114.83H69.3895C68.6605 114.83 68.0695 115.421 68.0695 116.15V122.42C68.0695 123.149 68.6605 123.74 69.3895 123.74Z" fill="#5B96FF"/>
<path d="M84.8895 112.7H115.45C116.179 112.7 116.77 112.109 116.77 111.38V105.11C116.77 104.381 116.179 103.79 115.45 103.79H84.8895C84.1605 103.79 83.5695 104.381 83.5695 105.11V111.38C83.5695 112.109 84.1605 112.7 84.8895 112.7Z" fill="#5B96FF"/>
<path d="M50.1503 112.7H80.7103C81.4393 112.7 82.0303 112.109 82.0303 111.38V105.11C82.0303 104.381 81.4393 103.79 80.7103 103.79H50.1503C49.4213 103.79 48.8303 104.381 48.8303 105.11V111.38C48.8303 112.109 49.4213 112.7 50.1503 112.7Z" fill="#AAC9FF"/>
<path d="M250 423.71C357.083 423.71 443.89 418.642 443.89 412.39C443.89 406.138 357.083 401.07 250 401.07C142.918 401.07 56.1104 406.138 56.1104 412.39C56.1104 418.642 142.918 423.71 250 423.71Z" fill="#0042B5"/>
<path d="M392.74 81.4902H334.24C323.951 81.4902 315.61 89.8312 315.61 100.12V258.9C315.61 269.189 323.951 277.53 334.24 277.53H392.74C403.029 277.53 411.37 269.189 411.37 258.9V100.12C411.37 89.8312 403.029 81.4902 392.74 81.4902Z" fill="#407BFF"/>
<path d="M392.95 81.4902H334.03C323.857 81.4902 315.61 89.7372 315.61 99.9102V259.11C315.61 269.283 323.857 277.53 334.03 277.53H392.95C403.123 277.53 411.37 269.283 411.37 259.11V99.9102C411.37 89.7372 403.123 81.4902 392.95 81.4902Z" fill="#0D61F4"/>
<path d="M411.37 91.1102V130H315.61V91.1102C315.61 88.5589 316.624 86.112 318.428 84.3079C320.232 82.5038 322.679 81.4902 325.23 81.4902H401.75C404.302 81.4902 406.749 82.5038 408.553 84.3079C410.357 86.112 411.37 88.5589 411.37 91.1102Z" fill="#3880FF"/>
<path d="M342.7 102.42C342.7 104.34 341.28 105.52 338.99 105.52H336.99V108H335.37V99.2998H339C341.28 99.3298 342.7 100.5 342.7 102.42ZM341.07 102.42C341.07 101.33 340.34 100.69 338.92 100.69H337V104.15H338.89C340.34 104.15 341.07 103.52 341.07 102.42Z" fill="white"/>
<path d="M348 101.32V102.8C347.881 102.787 347.76 102.787 347.64 102.8C347.376 102.781 347.11 102.82 346.863 102.915C346.615 103.01 346.391 103.158 346.207 103.349C346.023 103.539 345.883 103.768 345.797 104.019C345.711 104.27 345.682 104.537 345.71 104.8V108H344.16V101.36H345.64V102.36C345.908 101.996 346.267 101.708 346.681 101.526C347.096 101.343 347.55 101.272 348 101.32Z" fill="white"/>
<path d="M355.421 105.21H350.211C350.31 105.694 350.584 106.124 350.981 106.418C351.378 106.711 351.869 106.848 352.361 106.8C352.696 106.812 353.03 106.755 353.341 106.631C353.653 106.507 353.935 106.319 354.171 106.08L355.001 107.08C354.497 107.579 353.862 107.924 353.169 108.074C352.477 108.225 351.755 108.175 351.09 107.93C350.425 107.686 349.843 107.257 349.413 106.694C348.983 106.131 348.722 105.457 348.661 104.75C348.647 104.298 348.726 103.848 348.894 103.427C349.062 103.007 349.315 102.626 349.636 102.307C349.958 101.989 350.343 101.741 350.765 101.578C351.187 101.415 351.639 101.341 352.091 101.36C352.543 101.343 352.993 101.42 353.414 101.587C353.834 101.754 354.215 102.008 354.531 102.331C354.848 102.654 355.093 103.04 355.251 103.463C355.41 103.887 355.478 104.339 355.451 104.79C355.451 104.87 355.431 105.06 355.421 105.21ZM350.201 104.21H354.001C353.953 103.752 353.732 103.329 353.382 103.028C353.033 102.726 352.582 102.57 352.121 102.59C351.66 102.566 351.206 102.716 350.85 103.011C350.495 103.305 350.263 103.723 350.201 104.18V104.21Z" fill="white"/>
<path d="M368.05 104.231V108.001H366.49V104.391C366.49 103.211 365.94 102.641 365 102.641C364.06 102.641 363.27 103.311 363.27 104.641V108.001H361.72V104.391C361.72 103.211 361.17 102.641 360.22 102.641C359.27 102.641 358.49 103.311 358.49 104.641V108.001H356.94V101.361H358.42V102.211C358.692 101.905 359.029 101.663 359.406 101.504C359.784 101.345 360.191 101.272 360.6 101.291C361.036 101.262 361.472 101.348 361.863 101.541C362.255 101.734 362.588 102.027 362.83 102.391C363.135 102.031 363.518 101.745 363.949 101.555C364.38 101.364 364.849 101.274 365.32 101.291C366.93 101.321 368.05 102.221 368.05 104.231Z" fill="white"/>
<path d="M369.82 99.3604C369.838 99.1075 369.951 98.8708 370.137 98.6981C370.322 98.5255 370.567 98.4298 370.82 98.4304C370.946 98.4209 371.072 98.4369 371.191 98.4775C371.31 98.518 371.419 98.5823 371.513 98.6665C371.606 98.7506 371.682 98.8528 371.735 98.9669C371.787 99.081 371.817 99.2047 371.82 99.3304C371.82 99.5956 371.715 99.85 371.527 100.038C371.34 100.225 371.086 100.33 370.82 100.33C370.555 100.33 370.301 100.225 370.113 100.038C369.926 99.85 369.82 99.5956 369.82 99.3304V99.3604ZM370.04 101.36H371.59V108H370L370.04 101.36Z" fill="white"/>
<path d="M380.06 101.39V108H378.58V107.16C378.314 107.463 377.984 107.704 377.614 107.865C377.244 108.025 376.843 108.102 376.44 108.09C376.048 108.128 375.653 108.077 375.284 107.941C374.914 107.805 374.58 107.588 374.305 107.306C374.031 107.024 373.823 106.684 373.698 106.311C373.572 105.938 373.532 105.541 373.58 105.15V101.36H375.13V105C375.13 106.21 375.71 106.78 376.69 106.78C376.948 106.792 377.205 106.746 377.442 106.647C377.68 106.548 377.893 106.397 378.066 106.206C378.239 106.015 378.368 105.788 378.443 105.542C378.518 105.295 378.537 105.035 378.5 104.78V101.42L380.06 101.39Z" fill="white"/>
<path d="M393.201 104.231V108.001H391.651V104.391C391.651 103.211 391.101 102.641 390.161 102.641C389.221 102.641 388.431 103.311 388.431 104.641V108.001H386.871V104.391C386.871 103.211 386.331 102.641 385.381 102.641C384.431 102.641 383.651 103.311 383.651 104.641V108.001H382.101V101.361H383.581V102.211C383.853 101.905 384.189 101.663 384.567 101.504C384.944 101.345 385.352 101.272 385.761 101.291C386.196 101.262 386.632 101.348 387.023 101.541C387.415 101.734 387.749 102.027 387.991 102.391C388.296 102.031 388.678 101.745 389.109 101.555C389.541 101.364 390.009 101.274 390.481 101.291C392.091 101.321 393.201 102.221 393.201 104.231Z" fill="white"/>
<path d="M383.48 246.69H343.5C338.066 246.69 333.66 251.096 333.66 256.53V257.28C333.66 262.715 338.066 267.12 343.5 267.12H383.48C388.915 267.12 393.32 262.715 393.32 257.28V256.53C393.32 251.096 388.915 246.69 383.48 246.69Z" fill="#407BFF"/>
<path d="M348 258.471C348 260.331 346.51 261.571 344.18 261.761L343.87 263.301H342.47L342.78 261.761C341.635 261.69 340.529 261.321 339.57 260.691L340.5 258.961C341.279 259.518 342.188 259.862 343.14 259.961L343.62 257.601C342.32 257.211 340.89 256.691 340.89 255.001C340.89 253.141 342.42 251.881 344.79 251.721L345.1 250.181H346.5L346.19 251.731C347.096 251.802 347.974 252.075 348.76 252.531L347.91 254.261C347.285 253.855 346.572 253.605 345.83 253.531L345.34 255.991C346.63 256.361 348 256.861 348 258.471ZM344 255.591L344.4 253.591C343.61 253.741 343.16 254.171 343.15 254.711C343.14 255.251 343.52 255.381 344 255.591ZM345.73 258.831C345.73 258.431 345.41 258.171 344.92 257.991L344.54 259.911C345.32 259.751 345.75 259.361 345.75 258.831H345.73Z" fill="white"/>
<path d="M387.17 204.891H337.74V206.891H387.17V204.891Z" fill="#407BFF"/>
<path d="M387.17 172.05H337.74V174.05H387.17V172.05Z" fill="#407BFF"/>
<path d="M387.17 140.4H337.74V142.4H387.17V140.4Z" fill="#407BFF"/>
<path d="M368.142 163.221C371.5 159.862 371.5 154.417 368.142 151.059C364.783 147.7 359.338 147.7 355.98 151.059C352.621 154.417 352.621 159.862 355.98 163.221C359.338 166.579 364.783 166.579 368.142 163.221Z" fill="#407BFF"/>
<path d="M368.21 155.281L363.27 160.231L360.96 162.541L358.65 160.231L360.96 157.921L365.9 152.971L368.21 155.281Z" fill="white"/>
<path d="M363.271 160.23L360.961 162.54L356.061 157.64L358.371 155.33L360.961 157.92L363.271 160.23Z" fill="white"/>
<path d="M362.06 197.471C366.81 197.471 370.66 193.62 370.66 188.87C370.66 184.121 366.81 180.271 362.06 180.271C357.31 180.271 353.46 184.121 353.46 188.87C353.46 193.62 357.31 197.471 362.06 197.471Z" fill="#407BFF"/>
<path d="M368.21 187.01L363.27 191.96L360.96 194.27L358.65 191.96L360.96 189.65L365.9 184.7L368.21 187.01Z" fill="white"/>
<path d="M363.271 191.961L360.961 194.271L356.061 189.371L358.371 187.061L360.961 189.651L363.271 191.961Z" fill="white"/>
<path d="M362.06 231.5C366.81 231.5 370.66 227.649 370.66 222.9C370.66 218.15 366.81 214.3 362.06 214.3C357.31 214.3 353.46 218.15 353.46 222.9C353.46 227.649 357.31 231.5 362.06 231.5Z" fill="#407BFF"/>
<path d="M368.21 221.04L363.27 225.99L360.96 228.3L358.65 225.99L360.96 223.68L365.9 218.73L368.21 221.04Z" fill="white"/>
<path d="M363.271 225.99L360.961 228.3L356.061 223.4L358.371 221.09L360.961 223.68L363.271 225.99Z" fill="white"/>
<path d="M350.79 116.221L352.4 118.791L355.34 119.521L353.39 121.851L353.6 124.881L350.79 123.741L347.97 124.881L348.18 121.851L346.23 119.521L349.18 118.791L350.79 116.221Z" fill="white"/>
<path d="M362.061 116.221L363.671 118.791L366.621 119.521L364.671 121.851L364.881 124.881L362.061 123.741L359.251 124.881L359.461 121.851L357.511 119.521L360.451 118.791L362.061 116.221Z" fill="white"/>
<path d="M373.34 116.221L374.94 118.791L377.89 119.521L375.94 121.851L376.15 124.881L373.34 123.741L370.52 124.881L370.73 121.851L368.78 119.521L371.73 118.791L373.34 116.221Z" fill="white"/>
<path d="M280.23 70.3301H221.73C211.441 70.3301 203.1 78.671 203.1 88.9601V247.74C203.1 258.029 211.441 266.37 221.73 266.37H280.23C290.519 266.37 298.86 258.029 298.86 247.74V88.9601C298.86 78.671 290.519 70.3301 280.23 70.3301Z" fill="#407BFF"/>
<path d="M279.61 70.3301H222.35C217.244 70.3301 212.348 72.3582 208.738 75.9683C205.128 79.5783 203.1 84.4747 203.1 89.5801V247.12C203.1 249.649 203.598 252.153 204.566 254.489C205.534 256.825 206.953 258.948 208.741 260.735C210.53 262.523 212.653 263.941 214.99 264.908C217.327 265.874 219.831 266.371 222.36 266.37H279.61C282.138 266.371 284.643 265.874 286.979 264.908C289.316 263.941 291.439 262.523 293.228 260.735C295.016 258.948 296.435 256.825 297.403 254.489C298.371 252.153 298.87 249.649 298.87 247.12V89.5801C298.87 87.0513 298.371 84.5473 297.403 82.2111C296.435 79.8749 295.016 77.7524 293.228 75.9647C291.439 74.1771 289.316 72.7593 286.979 71.7925C284.643 70.8257 282.138 70.3288 279.61 70.3301Z" fill="#0042B5"/>
<path d="M298.87 79.9999V118.88H203.1V79.9999C203.1 77.4485 204.113 75.0016 205.917 73.1975C207.721 71.3934 210.168 70.3799 212.72 70.3799H289.24C291.792 70.3799 294.24 71.3931 296.046 73.1969C297.851 75.0007 298.867 77.4476 298.87 79.9999Z" fill="#0D61F4"/>
<path d="M222.85 96L223.41 94.75C224.232 95.3861 225.24 95.7371 226.28 95.75C227.63 95.75 228.21 95.27 228.21 94.62C228.21 92.75 223.03 93.98 223.03 90.74C223.03 89.34 224.15 88.14 226.54 88.14C227.558 88.1281 228.561 88.3944 229.44 88.91L228.93 90.17C228.203 89.738 227.375 89.5036 226.53 89.49C225.18 89.49 224.64 90.01 224.64 90.67C224.64 92.52 229.8 91.31 229.8 94.51C229.8 95.9 228.67 97.1 226.28 97.1C225.046 97.1211 223.841 96.7344 222.85 96Z" fill="white"/>
<path d="M235.249 96.5098C234.811 96.8185 234.285 96.9764 233.749 96.9598C233.442 97.0076 233.128 96.9831 232.832 96.8882C232.535 96.7933 232.265 96.6307 232.043 96.4133C231.821 96.1958 231.652 95.9295 231.551 95.6356C231.45 95.3416 231.418 95.028 231.459 94.7198V91.5298H230.369V90.2798H231.459V88.7598H232.999V90.2798H234.779V91.5298H232.999V94.6798C232.999 95.3298 233.319 95.6798 233.919 95.6798C234.231 95.6856 234.536 95.5909 234.789 95.4098L235.249 96.5098Z" fill="white"/>
<path d="M242.09 92.9998V96.8898H240.62V96.0798C240.376 96.3945 240.057 96.6422 239.691 96.7997C239.325 96.9571 238.926 97.0191 238.53 96.9798C237.01 96.9798 236.05 96.1498 236.05 94.9798C236.05 93.8098 236.8 92.9798 238.81 92.9798H240.53V92.8798C240.53 91.9798 239.98 91.4398 238.88 91.4398C238.159 91.4355 237.456 91.6673 236.88 92.0998L236.25 90.9998C237.074 90.4311 238.059 90.1435 239.06 90.1798C241 90.1598 242.09 91.0698 242.09 92.9998ZM240.53 94.8198V93.9998H238.93C237.87 93.9998 237.58 94.3898 237.58 94.8798C237.58 95.3698 238.06 95.7998 238.85 95.7998C239.199 95.8263 239.547 95.7445 239.848 95.5655C240.149 95.3865 240.387 95.1191 240.53 94.7998V94.8198Z" fill="white"/>
<path d="M250.62 93.07V96.87H249.06V93.27C249.06 92.09 248.48 91.51 247.48 91.51C247.22 91.496 246.961 91.5394 246.72 91.6372C246.479 91.7349 246.262 91.8846 246.085 92.0755C245.909 92.2665 245.776 92.494 245.698 92.742C245.619 92.9899 245.596 93.2521 245.63 93.51V96.86H244.08V90.23H245.56V91.09C245.847 90.7755 246.201 90.5289 246.595 90.3681C246.99 90.2072 247.415 90.1361 247.84 90.16C248.224 90.1305 248.61 90.1866 248.969 90.3243C249.329 90.462 249.654 90.6779 249.92 90.9563C250.186 91.2348 250.386 91.5688 250.508 91.9344C250.629 92.2999 250.667 92.6878 250.62 93.07Z" fill="white"/>
<path d="M259.159 87.6499V96.8699H257.669V95.9999C257.398 96.3127 257.058 96.5599 256.677 96.7227C256.296 96.8855 255.883 96.9598 255.469 96.9399C254.568 96.9399 253.703 96.5817 253.065 95.944C252.428 95.3064 252.069 94.4416 252.069 93.5399C252.069 92.6382 252.428 91.7733 253.065 91.1357C253.703 90.4981 254.568 90.1399 255.469 90.1399C255.87 90.1215 256.269 90.1917 256.639 90.3455C257.009 90.4994 257.34 90.7331 257.609 91.0299V87.6299L259.159 87.6499ZM257.629 93.5499C257.614 93.1581 257.483 92.7796 257.254 92.4614C257.025 92.1432 256.707 91.8993 256.341 91.7601C255.974 91.621 255.575 91.5926 255.192 91.6786C254.81 91.7645 254.461 91.961 254.189 92.2437C253.918 92.5263 253.735 92.8826 253.664 93.2682C253.593 93.6538 253.637 94.0518 253.79 94.4126C253.944 94.7734 254.2 95.0812 254.527 95.2976C254.854 95.514 255.237 95.6296 255.629 95.6299C255.901 95.639 256.172 95.5908 256.424 95.4884C256.676 95.3861 256.904 95.2318 257.093 95.0356C257.282 94.8394 257.427 94.6058 257.519 94.3498C257.612 94.0938 257.649 93.8213 257.629 93.5499Z" fill="white"/>
<path d="M266.759 92.9998V96.8898H265.289V96.0798C265.047 96.396 264.728 96.6447 264.362 96.8023C263.996 96.9599 263.596 97.021 263.199 96.9798C261.689 96.9798 260.729 96.1498 260.729 94.9798C260.729 93.8098 261.469 92.9798 263.489 92.9798H265.209V92.8798C265.209 91.9798 264.659 91.4398 263.549 91.4398C262.828 91.4332 262.125 91.6653 261.549 92.0998L260.929 90.9998C261.753 90.4311 262.739 90.1435 263.739 90.1798C265.649 90.1598 266.759 91.0698 266.759 92.9998ZM265.209 94.8198V93.9998H263.599C262.539 93.9998 262.259 94.3898 262.259 94.8798C262.259 95.3698 262.729 95.7998 263.529 95.7998C263.878 95.8263 264.227 95.7445 264.528 95.5655C264.828 95.3865 265.066 95.1191 265.209 94.7998V94.8198Z" fill="white"/>
<path d="M272.59 90.1599V91.6399C272.47 91.6263 272.35 91.6263 272.23 91.6399C271.961 91.6195 271.691 91.6596 271.439 91.7572C271.187 91.8548 270.96 92.0075 270.775 92.204C270.59 92.4006 270.452 92.636 270.369 92.8931C270.287 93.1502 270.263 93.4225 270.3 93.6899V96.9099H268.75V90.2299H270.23V91.2299C270.498 90.863 270.856 90.5716 271.269 90.3841C271.683 90.1966 272.138 90.1194 272.59 90.1599Z" fill="white"/>
<path d="M280.35 87.6499V96.8699H278.86V95.9999C278.588 96.3127 278.249 96.5599 277.868 96.7227C277.487 96.8855 277.074 96.9598 276.66 96.9399C275.758 96.9399 274.893 96.5817 274.256 95.944C273.618 95.3064 273.26 94.4416 273.26 93.5399C273.26 92.6382 273.618 91.7733 274.256 91.1357C274.893 90.4981 275.758 90.1399 276.66 90.1399C277.06 90.1208 277.46 90.1907 277.83 90.3446C278.2 90.4985 278.531 90.7325 278.8 91.0299V87.6299L280.35 87.6499ZM278.82 93.5499C278.804 93.1581 278.674 92.7796 278.444 92.4614C278.215 92.1432 277.898 91.8993 277.531 91.7601C277.165 91.621 276.765 91.5926 276.383 91.6786C276 91.7645 275.651 91.961 275.38 92.2437C275.108 92.5263 274.925 92.8826 274.854 93.2682C274.783 93.6538 274.827 94.0518 274.981 94.4126C275.134 94.7734 275.39 95.0812 275.717 95.2976C276.044 95.514 276.428 95.6296 276.82 95.6299C277.092 95.6406 277.364 95.5935 277.617 95.4917C277.87 95.3898 278.098 95.2356 278.287 95.0391C278.476 94.8426 278.621 94.6083 278.713 94.3516C278.805 94.0949 278.841 93.8217 278.82 93.5499Z" fill="white"/>
<path d="M271.78 235.53H231.8C226.365 235.53 221.96 239.936 221.96 245.37V246.12C221.96 251.555 226.365 255.96 231.8 255.96H271.78C277.214 255.96 281.62 251.555 281.62 246.12V245.37C281.62 239.936 277.214 235.53 271.78 235.53Z" fill="#407BFF"/>
<path d="M275.48 193.73H226.05V195.73H275.48V193.73Z" fill="#407BFF"/>
<path d="M275.48 160.89H226.05V162.89H275.48V160.89Z" fill="#407BFF"/>
<path d="M275.48 129.24H226.05V131.24H275.48V129.24Z" fill="#407BFF"/>
<path d="M258.377 179.685C259.468 175.063 256.605 170.431 251.982 169.34C247.36 168.249 242.728 171.112 241.637 175.734C240.546 180.357 243.409 184.989 248.031 186.08C252.654 187.171 257.286 184.308 258.377 179.685Z" fill="#407BFF"/>
<path d="M256.17 175.86L251.22 180.8L248.91 183.11L246.6 180.8L248.91 178.5L253.86 173.55L256.17 175.86Z" fill="white"/>
<path d="M251.22 180.8L248.91 183.11L244.02 178.21L246.32 175.91L248.91 178.5L251.22 180.8Z" fill="white"/>
<path d="M254.052 219.686C258.44 217.868 260.524 212.837 258.706 208.449C256.889 204.061 251.858 201.977 247.47 203.795C243.082 205.612 240.998 210.643 242.815 215.031C244.633 219.419 249.664 221.503 254.052 219.686Z" fill="#407BFF"/>
<path d="M256.92 209.88L251.97 214.83L249.66 217.14L247.35 214.83L249.66 212.52L254.61 207.57L256.92 209.88Z" fill="white"/>
<path d="M251.97 214.83L249.66 217.14L244.77 212.24L247.07 209.93L249.66 212.52L251.97 214.83Z" fill="white"/>
<path d="M250.01 154.58C254.71 154.58 258.52 150.77 258.52 146.07C258.52 141.37 254.71 137.56 250.01 137.56C245.31 137.56 241.5 141.37 241.5 146.07C241.5 150.77 245.31 154.58 250.01 154.58Z" fill="#263238"/>
<path opacity="0.5" d="M250.01 154.58C254.71 154.58 258.52 150.77 258.52 146.07C258.52 141.37 254.71 137.56 250.01 137.56C245.31 137.56 241.5 141.37 241.5 146.07C241.5 150.77 245.31 154.58 250.01 154.58Z" fill="white"/>
<path d="M252.535 141.258L245.202 148.591L247.486 150.875L254.819 143.542L252.535 141.258Z" fill="white"/>
<path d="M245.207 143.545L252.54 150.878L254.824 148.594L247.491 141.261L245.207 143.545Z" fill="white"/>
<path d="M289.3 81.0898V103.91L294.12 99.0998V81.0898H289.3Z" fill="#407BFF"/>
<path d="M298.929 81.0898V103.91L294.119 99.0998V81.0898H298.929Z" fill="#407BFF"/>
<g opacity="0.3">
<path d="M298.94 81.0801V103.92L294.12 99.0901L289.3 103.92V81.0801H298.94Z" fill="black"/>
</g>
<path d="M296.47 58.27C296.798 58.8962 297.359 59.3691 298.032 59.5877C298.704 59.8063 299.436 59.7533 300.07 59.44C300.515 59.2224 301.012 59.1304 301.506 59.1738C302 59.2172 302.473 59.3945 302.874 59.6865C303.275 59.9785 303.589 60.3742 303.782 60.8311C303.975 61.2881 304.04 61.789 303.97 62.28C303.876 62.9802 304.055 63.6896 304.47 64.2612C304.886 64.8328 305.505 65.2227 306.2 65.35C306.689 65.4334 307.145 65.6489 307.521 65.9732C307.896 66.2975 308.175 66.7181 308.329 67.1897C308.482 67.6614 308.504 68.1659 308.391 68.6489C308.278 69.1319 308.036 69.5749 307.69 69.93C307.199 70.4388 306.925 71.1181 306.925 71.825C306.925 72.5319 307.199 73.2112 307.69 73.72C308.035 74.0762 308.277 74.5199 308.389 75.0033C308.502 75.4867 308.48 75.9916 308.327 76.4636C308.173 76.9356 307.894 77.3569 307.52 77.6823C307.145 78.0076 306.689 78.2246 306.2 78.31C305.509 78.4418 304.896 78.834 304.486 79.4054C304.077 79.9768 303.903 80.6837 304 81.38C304.068 81.8702 304.001 82.3698 303.808 82.8252C303.614 83.2806 303.3 83.6748 302.899 83.9655C302.498 84.2562 302.026 84.4325 301.533 84.4756C301.04 84.5186 300.545 84.4268 300.1 84.21C299.465 83.9019 298.735 83.8516 298.064 84.0697C297.393 84.2879 296.832 84.7575 296.5 85.38C296.267 85.8172 295.92 86.1828 295.495 86.4378C295.071 86.6928 294.585 86.8275 294.09 86.8275C293.594 86.8275 293.109 86.6928 292.684 86.4378C292.26 86.1828 291.912 85.8172 291.68 85.38C291.343 84.7406 290.768 84.2594 290.08 84.0404C289.391 83.8215 288.644 83.8824 288 84.21C287.555 84.4268 287.059 84.5186 286.566 84.4756C286.073 84.4325 285.601 84.2562 285.2 83.9655C284.8 83.6748 284.486 83.2806 284.292 82.8252C284.098 82.3698 284.032 81.8702 284.1 81.38C284.199 80.679 284.021 79.967 283.605 79.3942C283.189 78.8215 282.567 78.4327 281.87 78.31C281.381 78.2246 280.924 78.0076 280.55 77.6823C280.175 77.3569 279.896 76.9356 279.743 76.4636C279.59 75.9916 279.568 75.4867 279.68 75.0033C279.792 74.5199 280.034 74.0762 280.38 73.72C280.87 73.2112 281.145 72.5319 281.145 71.825C281.145 71.1181 280.87 70.4388 280.38 69.93C280.037 69.5735 279.797 69.1306 279.687 68.6486C279.576 68.1666 279.599 67.6635 279.752 67.1933C279.905 66.723 280.182 66.3031 280.555 65.9784C280.929 65.6538 281.383 65.4366 281.87 65.35C282.566 65.225 283.187 64.8356 283.602 64.2635C284.018 63.6913 284.196 62.9806 284.1 62.28C284.029 61.789 284.094 61.2881 284.287 60.8311C284.48 60.3742 284.794 59.9785 285.195 59.6865C285.596 59.3945 286.069 59.2172 286.563 59.1738C287.057 59.1304 287.554 59.2224 288 59.44C288.636 59.7512 289.368 59.8031 290.041 59.5848C290.715 59.3665 291.277 58.8951 291.61 58.27C291.839 57.8227 292.187 57.4472 292.616 57.1851C293.044 56.9229 293.537 56.7842 294.04 56.7842C294.542 56.7842 295.035 56.9229 295.464 57.1851C295.893 57.4472 296.241 57.8227 296.47 58.27Z" fill="#407BFF"/>
<path d="M296.47 58.27C296.798 58.8962 297.359 59.3691 298.032 59.5877C298.704 59.8063 299.436 59.7533 300.07 59.44C300.515 59.2224 301.012 59.1304 301.506 59.1738C302 59.2172 302.473 59.3945 302.874 59.6865C303.275 59.9785 303.589 60.3742 303.782 60.8311C303.975 61.2881 304.04 61.789 303.97 62.28C303.876 62.9802 304.055 63.6896 304.47 64.2612C304.886 64.8328 305.505 65.2227 306.2 65.35C306.689 65.4334 307.145 65.6489 307.521 65.9732C307.896 66.2975 308.175 66.7181 308.329 67.1897C308.482 67.6614 308.504 68.1659 308.391 68.6489C308.278 69.1319 308.036 69.5749 307.69 69.93C307.199 70.4388 306.925 71.1181 306.925 71.825C306.925 72.5319 307.199 73.2112 307.69 73.72C308.035 74.0762 308.277 74.5199 308.389 75.0033C308.502 75.4867 308.48 75.9916 308.327 76.4636C308.173 76.9356 307.894 77.3569 307.52 77.6823C307.145 78.0076 306.689 78.2246 306.2 78.31C305.509 78.4418 304.896 78.834 304.486 79.4054C304.077 79.9768 303.903 80.6837 304 81.38C304.068 81.8702 304.001 82.3698 303.808 82.8252C303.614 83.2806 303.3 83.6748 302.899 83.9655C302.498 84.2562 302.026 84.4325 301.533 84.4756C301.04 84.5186 300.545 84.4268 300.1 84.21C299.465 83.9019 298.735 83.8516 298.064 84.0697C297.393 84.2879 296.832 84.7575 296.5 85.38C296.267 85.8172 295.92 86.1828 295.495 86.4378C295.071 86.6928 294.585 86.8275 294.09 86.8275C293.594 86.8275 293.109 86.6928 292.684 86.4378C292.26 86.1828 291.912 85.8172 291.68 85.38C291.343 84.7406 290.768 84.2594 290.08 84.0404C289.391 83.8215 288.644 83.8824 288 84.21C287.555 84.4268 287.059 84.5186 286.566 84.4756C286.073 84.4325 285.601 84.2562 285.2 83.9655C284.8 83.6748 284.486 83.2806 284.292 82.8252C284.098 82.3698 284.032 81.8702 284.1 81.38C284.199 80.679 284.021 79.967 283.605 79.3942C283.189 78.8215 282.567 78.4327 281.87 78.31C281.381 78.2246 280.924 78.0076 280.55 77.6823C280.175 77.3569 279.896 76.9356 279.743 76.4636C279.59 75.9916 279.568 75.4867 279.68 75.0033C279.792 74.5199 280.034 74.0762 280.38 73.72C280.87 73.2112 281.145 72.5319 281.145 71.825C281.145 71.1181 280.87 70.4388 280.38 69.93C280.037 69.5735 279.797 69.1306 279.687 68.6486C279.576 68.1666 279.599 67.6635 279.752 67.1933C279.905 66.723 280.182 66.3031 280.555 65.9784C280.929 65.6538 281.383 65.4366 281.87 65.35C282.566 65.225 283.187 64.8356 283.602 64.2635C284.018 63.6913 284.196 62.9806 284.1 62.28C284.029 61.789 284.094 61.2881 284.287 60.8311C284.48 60.3742 284.794 59.9785 285.195 59.6865C285.596 59.3945 286.069 59.2172 286.563 59.1738C287.057 59.1304 287.554 59.2224 288 59.44C288.636 59.7512 289.368 59.8031 290.041 59.5848C290.715 59.3665 291.277 58.8951 291.61 58.27C291.839 57.8227 292.187 57.4472 292.616 57.1851C293.044 56.9229 293.537 56.7842 294.04 56.7842C294.542 56.7842 295.035 56.9229 295.464 57.1851C295.893 57.4472 296.241 57.8227 296.47 58.27Z" fill="#407BFF"/>
<g opacity="0.5">
<path d="M296.47 58.27C296.798 58.8962 297.359 59.3691 298.032 59.5877C298.704 59.8063 299.436 59.7533 300.07 59.44C300.515 59.2224 301.012 59.1304 301.506 59.1738C302 59.2172 302.473 59.3945 302.874 59.6865C303.275 59.9785 303.589 60.3742 303.782 60.8311C303.975 61.2881 304.04 61.789 303.97 62.28C303.876 62.9802 304.055 63.6896 304.47 64.2612C304.886 64.8328 305.505 65.2227 306.2 65.35C306.689 65.4334 307.145 65.6489 307.521 65.9732C307.896 66.2975 308.175 66.7181 308.329 67.1897C308.482 67.6614 308.504 68.1659 308.391 68.6489C308.278 69.1319 308.036 69.5749 307.69 69.93C307.199 70.4388 306.925 71.1181 306.925 71.825C306.925 72.5319 307.199 73.2112 307.69 73.72C308.035 74.0762 308.277 74.5199 308.389 75.0033C308.502 75.4867 308.48 75.9916 308.327 76.4636C308.173 76.9356 307.894 77.3569 307.52 77.6823C307.145 78.0076 306.689 78.2246 306.2 78.31C305.509 78.4418 304.896 78.834 304.486 79.4054C304.077 79.9768 303.903 80.6837 304 81.38C304.068 81.8702 304.001 82.3698 303.808 82.8252C303.614 83.2806 303.3 83.6748 302.899 83.9655C302.498 84.2562 302.026 84.4325 301.533 84.4756C301.04 84.5186 300.545 84.4268 300.1 84.21C299.465 83.9019 298.735 83.8516 298.064 84.0697C297.393 84.2879 296.832 84.7575 296.5 85.38C296.267 85.8172 295.92 86.1828 295.495 86.4378C295.071 86.6928 294.585 86.8275 294.09 86.8275C293.594 86.8275 293.109 86.6928 292.684 86.4378C292.26 86.1828 291.912 85.8172 291.68 85.38C291.343 84.7406 290.768 84.2594 290.08 84.0404C289.391 83.8215 288.644 83.8824 288 84.21C287.555 84.4268 287.059 84.5186 286.566 84.4756C286.073 84.4325 285.601 84.2562 285.2 83.9655C284.8 83.6748 284.486 83.2806 284.292 82.8252C284.098 82.3698 284.032 81.8702 284.1 81.38C284.199 80.679 284.021 79.967 283.605 79.3942C283.189 78.8215 282.567 78.4327 281.87 78.31C281.381 78.2246 280.924 78.0076 280.55 77.6823C280.175 77.3569 279.896 76.9356 279.743 76.4636C279.59 75.9916 279.568 75.4867 279.68 75.0033C279.792 74.5199 280.034 74.0762 280.38 73.72C280.87 73.2112 281.145 72.5319 281.145 71.825C281.145 71.1181 280.87 70.4388 280.38 69.93C280.037 69.5735 279.797 69.1306 279.687 68.6486C279.576 68.1666 279.599 67.6635 279.752 67.1933C279.905 66.723 280.182 66.3031 280.555 65.9784C280.929 65.6538 281.383 65.4366 281.87 65.35C282.566 65.225 283.187 64.8356 283.602 64.2635C284.018 63.6913 284.196 62.9806 284.1 62.28C284.029 61.789 284.094 61.2881 284.287 60.8311C284.48 60.3742 284.794 59.9785 285.195 59.6865C285.596 59.3945 286.069 59.2172 286.563 59.1738C287.057 59.1304 287.554 59.2224 288 59.44C288.636 59.7512 289.368 59.8031 290.041 59.5848C290.715 59.3665 291.277 58.8951 291.61 58.27C291.839 57.8227 292.187 57.4472 292.616 57.1851C293.044 56.9229 293.537 56.7842 294.04 56.7842C294.542 56.7842 295.035 56.9229 295.464 57.1851C295.893 57.4472 296.241 57.8227 296.47 58.27Z" fill="white"/>
</g>
<path d="M289.73 69H288.49C288.214 69.0009 287.949 69.1034 287.744 69.2879C287.539 69.4724 287.409 69.7259 287.38 70L287.08 75.72C287.072 75.8563 287.092 75.9928 287.138 76.1211C287.185 76.2495 287.257 76.3669 287.351 76.4662C287.444 76.5655 287.557 76.6446 287.683 76.6986C287.808 76.7525 287.943 76.7802 288.08 76.78H289.32C289.604 76.7755 289.877 76.6639 290.083 76.4674C290.288 76.2709 290.412 76.004 290.43 75.72L290.73 70C290.73 69.7348 290.625 69.4804 290.437 69.2929C290.25 69.1054 289.995 69 289.73 69Z" fill="white"/>
<path d="M299.619 68.9996H296.709L297.519 67.0896C297.611 66.8897 297.646 66.6681 297.619 66.4496L297.449 64.9496C297.418 64.6588 297.279 64.3899 297.062 64.1944C296.844 63.9988 296.562 63.8904 296.269 63.8896H294.819C294.73 65.3882 294.182 66.8231 293.249 67.9996L292.359 69.1197C292.131 69.4059 291.995 69.7546 291.969 70.1197L291.689 75.4596C291.68 75.6283 291.705 75.7971 291.763 75.9557C291.821 76.1143 291.911 76.2594 292.027 76.3821C292.143 76.5047 292.283 76.6024 292.438 76.669C292.593 76.7357 292.761 76.7699 292.929 76.7696H297.999C298.224 76.7672 298.446 76.7179 298.651 76.625C298.856 76.532 299.039 76.3974 299.189 76.2297L299.659 75.7096C299.824 75.501 299.94 75.2585 299.999 74.9996L300.999 70.6897C301.043 70.4919 301.044 70.2871 301.003 70.0889C300.962 69.8906 300.879 69.7034 300.759 69.5396C300.624 69.3673 300.451 69.2288 300.253 69.1351C300.055 69.0413 299.838 68.995 299.619 68.9996Z" fill="white"/>
<path d="M250.01 103.91L251.62 106.49L254.57 107.22L252.62 109.55L252.83 112.57L250.01 111.44L247.2 112.57L247.41 109.55L245.46 107.22L248.41 106.49L250.01 103.91Z" fill="white"/>
<path d="M236.619 247.34C236.619 249.2 235.129 250.44 232.799 250.64L232.489 252.17H231.089L231.399 250.64C230.254 250.562 229.149 250.19 228.189 249.56L229.119 247.83C229.898 248.387 230.808 248.731 231.759 248.83L232.239 246.47C230.939 246.08 229.509 245.56 229.509 243.87C229.509 242.01 231.039 240.76 233.409 240.59L233.719 239.05H235.119L234.809 240.6C235.715 240.671 236.593 240.944 237.379 241.4L236.529 243.13C235.901 242.726 235.184 242.479 234.439 242.41L233.959 244.86C235.239 245.23 236.619 245.73 236.619 247.34ZM232.619 244.46L233.019 242.46C232.229 242.61 231.779 243.05 231.769 243.58C231.759 244.11 232.129 244.25 232.629 244.46H232.619ZM234.349 247.7C234.349 247.3 234.029 247.05 233.539 246.87L233.159 248.78C233.929 248.63 234.359 248.23 234.359 247.7H234.349Z" fill="white"/>
<path d="M165.76 81.4902H107.26C96.9708 81.4902 88.6299 89.8312 88.6299 100.12V258.9C88.6299 269.189 96.9708 277.53 107.26 277.53H165.76C176.049 277.53 184.39 269.189 184.39 258.9V100.12C184.39 89.8312 176.049 81.4902 165.76 81.4902Z" fill="#263238"/>
<path d="M165.47 81.4902H107.55C97.1007 81.4902 88.6299 89.961 88.6299 100.41V258.61C88.6299 269.059 97.1007 277.53 107.55 277.53H165.47C175.919 277.53 184.39 269.059 184.39 258.61V100.41C184.39 89.961 175.919 81.4902 165.47 81.4902Z" fill="#0D61F4"/>
<path d="M184.39 91.1102V130H88.6299V91.1102C88.6299 88.5589 89.6434 86.112 91.4475 84.3079C93.2516 82.5038 95.6985 81.4902 98.2499 81.4902H174.77C177.321 81.4902 179.768 82.5038 181.572 84.3079C183.376 86.112 184.39 88.5589 184.39 91.1102Z" fill="#407BFF"/>
<path d="M184.39 91.1102V130H88.6299V91.1102C88.6299 88.5589 89.6434 86.112 91.4475 84.3079C93.2516 82.5038 95.6985 81.4902 98.2499 81.4902H174.77C177.321 81.4902 179.768 82.5038 181.572 84.3079C183.376 86.112 184.39 88.5589 184.39 91.1102Z" fill="#3880FF"/>
<path d="M128.64 105.67C128.64 107.16 127.48 108.03 125.24 108.03H120.91V99.3301H125C127.09 99.3301 128.21 100.21 128.21 101.59C128.221 101.981 128.122 102.368 127.924 102.706C127.726 103.043 127.437 103.319 127.09 103.5C127.555 103.635 127.961 103.922 128.242 104.316C128.524 104.71 128.664 105.187 128.64 105.67ZM122.53 100.59V103H124.81C125.93 103 126.57 102.61 126.57 101.81C126.57 101.01 125.93 100.6 124.81 100.6L122.53 100.59ZM127.01 105.51C127.01 104.64 126.36 104.25 125.14 104.25H122.53V106.76H125.14C126.36 106.76 127 106.38 127 105.51H127.01Z" fill="white"/>
<path d="M135.78 104.14V108H134.32V107.19C134.075 107.503 133.755 107.749 133.39 107.906C133.024 108.063 132.626 108.126 132.23 108.09C130.71 108.09 129.75 107.26 129.75 106.09C129.75 104.92 130.5 104.09 132.51 104.09H134.23V103.99C134.23 103.08 133.68 102.55 132.57 102.55C131.849 102.546 131.147 102.777 130.57 103.21L129.96 102.08C130.784 101.511 131.769 101.224 132.77 101.26C134.68 101.32 135.78 102.22 135.78 104.14ZM134.23 106V105.23H132.62C131.57 105.23 131.28 105.63 131.28 106.12C131.28 106.61 131.75 107.04 132.55 107.04C132.904 107.065 133.256 106.978 133.558 106.791C133.859 106.604 134.094 106.328 134.23 106Z" fill="white"/>
<path d="M137 107.37L137.6 106.19C138.295 106.618 139.094 106.847 139.91 106.85C140.91 106.85 141.31 106.58 141.31 106.12C141.31 104.85 137.2 106.04 137.2 103.39C137.2 102.14 138.33 101.32 140.13 101.32C140.991 101.304 141.843 101.5 142.61 101.89L142.02 103.07C141.441 102.733 140.78 102.56 140.11 102.57C139.17 102.57 138.72 102.88 138.72 103.32C138.72 104.66 142.82 103.47 142.82 106.07C142.82 107.31 141.68 108.12 139.82 108.12C138.829 108.137 137.852 107.878 137 107.37Z" fill="white"/>
<path d="M144 99.3604C144 99.0951 144.105 98.8408 144.293 98.6532C144.481 98.4657 144.735 98.3604 145 98.3604C145.265 98.3604 145.52 98.4657 145.707 98.6532C145.895 98.8408 146 99.0951 146 99.3604C146 99.6256 145.895 99.8799 145.707 100.067C145.52 100.255 145.265 100.36 145 100.36C144.866 100.369 144.733 100.349 144.607 100.302C144.482 100.255 144.368 100.182 144.273 100.087C144.179 99.9924 144.105 99.8786 144.058 99.7533C144.011 99.6279 143.991 99.494 144 99.3604ZM144.21 101.36H145.76V108H144.21V101.36Z" fill="white"/>
<path d="M147.22 104.71C147.215 104.245 147.306 103.785 147.488 103.357C147.669 102.929 147.938 102.544 148.276 102.225C148.615 101.907 149.015 101.662 149.453 101.506C149.891 101.35 150.356 101.287 150.82 101.32C151.389 101.281 151.958 101.405 152.459 101.678C152.96 101.951 153.374 102.361 153.65 102.86L152.46 103.55C152.291 103.265 152.049 103.029 151.759 102.868C151.469 102.706 151.142 102.624 150.81 102.63C150.258 102.63 149.729 102.849 149.339 103.239C148.949 103.629 148.73 104.158 148.73 104.71C148.73 105.262 148.949 105.791 149.339 106.181C149.729 106.571 150.258 106.79 150.81 106.79C151.142 106.796 151.469 106.714 151.759 106.552C152.049 106.391 152.291 106.155 152.46 105.87L153.65 106.56C153.376 107.063 152.964 107.477 152.463 107.754C151.961 108.03 151.391 108.157 150.82 108.12C150.355 108.15 149.89 108.084 149.452 107.926C149.014 107.768 148.613 107.521 148.275 107.201C147.937 106.881 147.669 106.495 147.488 106.066C147.306 105.637 147.215 105.176 147.22 104.71Z" fill="white"/>
<path d="M141.104 196.679C144.428 193.355 144.428 187.967 141.104 184.644C137.781 181.32 132.393 181.32 129.069 184.644C125.746 187.967 125.746 193.355 129.069 196.679C132.393 200.002 137.781 200.002 141.104 196.679Z" fill="#263238"/>
<path opacity="0.5" d="M141.104 196.679C144.428 193.355 144.428 187.967 141.104 184.644C137.781 181.32 132.393 181.32 129.069 184.644C125.746 187.967 125.746 193.355 129.069 196.679C132.393 200.002 137.781 200.002 141.104 196.679Z" fill="white"/>
<path d="M137.604 185.853L130.271 193.186L132.555 195.469L139.888 188.137L137.604 185.853Z" fill="white"/>
<path d="M130.273 188.146L137.605 195.479L139.889 193.195L132.557 185.862L130.273 188.146Z" fill="white"/>
<path d="M135.48 230.71C140.23 230.71 144.08 226.859 144.08 222.11C144.08 217.36 140.23 213.51 135.48 213.51C130.73 213.51 126.88 217.36 126.88 222.11C126.88 226.859 130.73 230.71 135.48 230.71Z" fill="#407BFF"/>
<path d="M141.64 220.25L136.69 225.2L134.38 227.51L132.07 225.2L134.38 222.89L139.33 217.94L141.64 220.25Z" fill="white"/>
<path d="M136.69 225.2L134.38 227.51L129.49 222.61L131.79 220.3L134.38 222.89L136.69 225.2Z" fill="white"/>
<path d="M156.5 246.69H116.52C111.085 246.69 106.68 251.096 106.68 256.53V257.28C106.68 262.715 111.085 267.12 116.52 267.12H156.5C161.934 267.12 166.34 262.715 166.34 257.28V256.53C166.34 251.096 161.934 246.69 156.5 246.69Z" fill="#407BFF"/>
<path d="M119.61 258.84C119.61 260.7 118.12 261.94 115.78 262.13L115.48 263.67H114.08L114.39 262.13C113.242 262.058 112.133 261.689 111.17 261.06L112.11 259.33C112.888 259.887 113.798 260.231 114.75 260.33L115.22 257.97C113.93 257.58 112.5 257.06 112.5 255.37C112.5 253.51 114.02 252.25 116.4 252.09L116.71 250.55H118.1L117.8 252.1C118.706 252.171 119.584 252.444 120.37 252.9L119.51 254.63C118.885 254.223 118.172 253.972 117.43 253.9L116.94 256.36C118.23 256.73 119.61 257.23 119.61 258.84ZM115.61 255.96L116.01 253.96C115.21 254.11 114.77 254.54 114.75 255.08C114.73 255.62 115.11 255.75 115.62 256L115.61 255.96ZM117.34 259.2C117.34 258.8 117.02 258.54 116.53 258.36L116.15 260.28C116.91 260.12 117.35 259.73 117.35 259.2H117.34Z" fill="white"/>
<path d="M160.2 204.891H110.77V206.891H160.2V204.891Z" fill="#407BFF"/>
<path d="M160.2 172.05H110.77V174.05H160.2V172.05Z" fill="#407BFF"/>
<path d="M160.2 140.4H110.77V142.4H160.2V140.4Z" fill="#407BFF"/>
<path d="M141.109 163.243C144.432 159.92 144.432 154.531 141.109 151.208C137.786 147.885 132.397 147.885 129.074 151.208C125.751 154.531 125.751 159.92 129.074 163.243C132.397 166.566 137.786 166.566 141.109 163.243Z" fill="#263238"/>
<path opacity="0.5" d="M141.109 163.243C144.432 159.92 144.432 154.531 141.109 151.208C137.786 147.885 132.397 147.885 129.074 151.208C125.751 154.531 125.751 159.92 129.074 163.243C132.397 166.566 137.786 166.566 141.109 163.243Z" fill="white"/>
<path d="M137.609 152.417L130.276 159.75L132.56 162.034L139.893 154.701L137.609 152.417Z" fill="white"/>
<path d="M130.277 154.701L137.609 162.034L139.893 159.75L132.561 152.418L130.277 154.701Z" fill="white"/>
<path d="M260.09 409.12L267.76 410.52L273.56 396.37L265.18 393.02L260.09 409.12Z" fill="#FFC2BC"/>
<path opacity="0.1" d="M262.84 400.14L265.03 393.56L268.89 394.5L273.56 396.37L271.06 402.53L262.84 400.14Z" fill="black"/>
<path d="M258.59 406.46C258.59 406.46 258.29 406.19 257.9 405.88C257.51 405.57 257.27 405.4 256.9 405.14C256.185 404.598 255.34 404.253 254.45 404.14C254.173 404.145 253.905 404.244 253.69 404.42C253.565 404.51 253.472 404.64 253.427 404.788C253.382 404.936 253.387 405.094 253.44 405.24C254.059 405.89 254.881 406.31 255.77 406.43L256.48 406.58C257.142 406.699 257.809 406.783 258.48 406.83C258.52 406.83 258.559 406.818 258.592 406.797C258.626 406.776 258.653 406.746 258.67 406.71C258.691 406.666 258.695 406.615 258.68 406.569C258.665 406.522 258.633 406.483 258.59 406.46ZM256.99 406.26C255.55 406.02 253.99 405.57 253.82 405.06C253.82 404.99 253.76 404.86 253.98 404.66C254.042 404.603 254.115 404.56 254.194 404.533C254.273 404.505 254.357 404.494 254.44 404.5C254.578 404.502 254.716 404.518 254.85 404.55C255.777 404.908 256.641 405.411 257.41 406.04C257.56 406.15 257.7 406.27 257.84 406.39C257.57 406.36 257.28 406.31 257 406.26H256.99Z" fill="#407BFF"/>
<path d="M258.2 403.31C257.95 402.998 257.594 402.792 257.2 402.73C256.63 402.64 256.39 402.86 256.3 403.07C256.08 403.52 256.42 404.36 256.92 405.14C257.114 405.44 257.328 405.727 257.56 406C257.793 406.279 258.055 406.533 258.34 406.76C258.369 406.771 258.401 406.771 258.43 406.76C258.462 406.77 258.497 406.77 258.53 406.76C258.561 406.749 258.59 406.731 258.612 406.706C258.635 406.682 258.651 406.652 258.66 406.62C258.704 406.325 258.731 406.028 258.74 405.73C258.829 404.886 258.64 404.036 258.2 403.31ZM258.29 406.18C258.19 406.08 258.08 405.98 257.98 405.86C257.19 404.99 256.45 403.65 256.64 403.19C256.64 403.19 256.72 403.01 257.1 403.07H257.21C257.458 403.129 257.68 403.27 257.84 403.47C258.219 404.174 258.389 404.972 258.33 405.77C258.32 405.93 258.31 406.05 258.29 406.18Z" fill="#407BFF"/>
<path d="M259.6 405.9L268.87 408.12C269.034 408.153 269.182 408.241 269.288 408.371C269.394 408.5 269.451 408.663 269.45 408.83L269.17 416.21C269.147 416.535 268.997 416.839 268.751 417.054C268.506 417.269 268.186 417.379 267.86 417.36C267.77 417.371 267.68 417.371 267.59 417.36C264.26 416.51 261.34 415.63 257.17 414.64C252.26 413.47 253.36 414.31 247.57 413.01C244.08 412.22 244.46 408.41 245.99 408.58C252.99 409.41 254.18 407.7 257.41 406.09C258.097 405.778 258.87 405.711 259.6 405.9Z" fill="#263238"/>
<path d="M315.29 410.51H322.63L324.8 398.35L315.82 396.67L315.29 410.51Z" fill="#FFC2BC"/>
<path opacity="0.1" d="M315.821 396.67L324.801 398.35L323.341 406.54L315.521 406.22L315.821 396.67Z" fill="black"/>
<path d="M326.38 404.3L313.2 403.55L312.8 398.35L327.55 399.36L326.38 404.3Z" fill="#407BFF"/>
<path opacity="0.5" d="M326.38 404.3L313.2 403.55L312.8 398.35L327.55 399.36L326.38 404.3Z" fill="white"/>
<path d="M314.22 410.7C314.22 410.7 313.88 410.51 313.44 410.29C313 410.07 312.78 409.98 312.38 409.83C311.599 409.448 310.724 409.299 309.86 409.4C309.606 409.464 309.387 409.626 309.25 409.85C309.164 409.975 309.118 410.123 309.118 410.275C309.118 410.427 309.164 410.575 309.25 410.7C309.951 411.192 310.809 411.409 311.66 411.31H312.33C312.937 411.272 313.542 411.198 314.14 411.09C314.177 411.079 314.21 411.058 314.237 411.03C314.263 411.002 314.281 410.967 314.29 410.93C314.304 410.889 314.304 410.845 314.291 410.804C314.279 410.763 314.254 410.726 314.22 410.7ZM312.71 410.89C311.35 410.99 309.88 410.89 309.56 410.47C309.5 410.4 309.45 410.29 309.56 410.05C309.598 409.977 309.652 409.915 309.718 409.866C309.784 409.818 309.86 409.785 309.94 409.77C310.063 409.755 310.187 409.755 310.31 409.77C311.251 409.902 312.163 410.189 313.01 410.62C313.178 410.68 313.338 410.757 313.49 410.85L312.71 410.89Z" fill="#407BFF"/>
<path d="M314.34 410.879C314.311 410.58 314.264 410.283 314.2 409.989C314.053 409.132 313.652 408.338 313.05 407.709C312.904 407.585 312.733 407.492 312.549 407.437C312.364 407.382 312.171 407.366 311.98 407.389C311.43 407.439 311.27 407.709 311.25 407.939C311.16 408.439 311.7 409.189 312.38 409.829C312.616 410.069 312.87 410.289 313.14 410.489C313.421 410.711 313.726 410.899 314.05 411.049C314.076 411.059 314.104 411.059 314.13 411.049C314.163 411.059 314.197 411.059 314.23 411.049C314.263 411.034 314.29 411.01 314.31 410.98C314.329 410.95 314.34 410.915 314.34 410.879ZM311.61 407.999C311.61 407.949 311.61 407.809 312 407.769H312.1C312.35 407.765 312.593 407.854 312.78 408.019C313.296 408.625 313.641 409.356 313.78 410.139C313.81 410.264 313.83 410.391 313.84 410.519L313.48 410.279C312.57 409.589 311.57 408.459 311.61 407.999Z" fill="#407BFF"/>
<path d="M315 409.909L323.94 409.859C324.103 409.86 324.261 409.915 324.388 410.017C324.515 410.119 324.604 410.261 324.64 410.419L326.3 417.679C326.336 417.832 326.341 417.99 326.316 418.144C326.29 418.298 326.235 418.446 326.152 418.579C326.069 418.712 325.961 418.827 325.834 418.918C325.707 419.009 325.563 419.074 325.41 419.109H325.16C321.94 419.109 319.07 418.909 315.06 418.939C310.33 418.939 311.53 419.519 305.97 419.629C302.62 419.699 301.97 415.889 303.41 415.699C309.91 414.839 310.57 412.869 313.07 410.529C313.618 410.096 314.303 409.876 315 409.909Z" fill="#263238"/>
<path d="M298.74 230.859L264.12 392.859L276.88 396.249C286.42 375.369 294.42 353.999 300.38 337.249C303.21 329.319 304.38 321.859 306.51 314.869C309.09 306.559 312.56 298.919 314.32 291.939C323.57 255.399 322.83 237.099 322.83 237.099L324.83 232.279L298.74 230.859Z" fill="#263238"/>
<path opacity="0.3" d="M320 265.629C318.75 272.999 316.94 281.799 314.35 292.019C313.51 295.339 307.88 311.329 306.54 314.949C304.98 291.549 310.33 251.949 310.33 251.949L320 265.629Z" fill="black"/>
<path d="M309.37 231.69L311.98 320.69L314.27 398.69L326.27 399.52C329.62 380.43 332.08 363.12 333.84 347.52C335 337.33 333.04 329.88 333.66 321.15C333.77 319.7 333.88 318.21 334.01 316.69C336.133 291.694 336.277 266.569 334.44 241.55C334.09 236.78 333.85 233.55 333.85 233.55L309.34 230.42L309.37 231.69Z" fill="#263238"/>
<path d="M275.19 400.809L262.57 396.919L263.43 391.779L277.51 396.299L275.19 400.809Z" fill="#407BFF"/>
<path opacity="0.5" d="M275.19 400.809L262.57 396.919L263.43 391.779L277.51 396.299L275.19 400.809Z" fill="white"/>
<path d="M307.65 175.24C305.298 178.722 303.544 182.571 302.46 186.63C301.925 188.459 301.504 190.319 301.2 192.2L300.33 194.59L292.61 191.52L291.39 191.04C293.27 182.57 300.55 174.91 305.95 175.04C306.523 175.022 307.096 175.089 307.65 175.24Z" fill="#407BFF"/>
<path opacity="0.2" d="M307.65 175.24C305.298 178.722 303.544 182.571 302.46 186.63C301.925 188.459 301.504 190.319 301.2 192.2L300.33 194.59L292.61 191.52L291.39 191.04C293.27 182.57 300.55 174.91 305.95 175.04C306.523 175.022 307.096 175.089 307.65 175.24Z" fill="white"/>
<path d="M298 230.1C298.93 228.02 298.81 223.97 301.88 223.2C305.96 222.2 309.32 221.9 325.38 223.26C332.96 223.91 334.64 229.96 334.38 233.07C334.35 233.483 334.208 233.881 333.97 234.22L333.65 234.68C332.9 234.97 298.53 231.16 298.19 231.37C298.046 231.196 297.951 230.985 297.918 230.762C297.884 230.538 297.913 230.309 298 230.1Z" fill="#407BFF"/>
<path opacity="0.2" d="M298 230.1C298.93 228.02 298.81 223.97 301.88 223.2C305.96 222.2 309.32 221.9 325.38 223.26C332.96 223.91 334.64 229.96 334.38 233.07C334.35 233.483 334.208 233.881 333.97 234.22L333.65 234.68C332.9 234.97 298.53 231.16 298.19 231.37C298.046 231.196 297.951 230.985 297.918 230.762C297.884 230.538 297.913 230.309 298 230.1Z" fill="white"/>
<path d="M306.36 175.179C306.14 175.589 299.311 176.299 299.851 206.179C299.921 210.029 298.94 218.179 298.94 218.179L297.94 220.669C297.539 221.68 297.361 222.766 297.42 223.852C297.479 224.937 297.772 225.998 298.28 226.959L298.78 227.889L333.41 231.409H334.41C334.41 231.409 336.64 213.329 339.62 201.239C340.62 197.299 341.62 192.459 341.62 192.459C340.917 187.904 340.583 183.299 340.62 178.689C340.62 178.689 340.62 178.639 340.62 178.629C336.424 177.386 332.143 176.45 327.81 175.829C323.209 175.128 318.565 174.75 313.91 174.699C309.58 174.929 306.37 175.169 306.36 175.179Z" fill="#407BFF"/>
<path d="M327.77 160.199C326.53 164.609 324.98 172.739 327.87 175.979L325.68 178.269C324.807 179.165 323.706 179.805 322.496 180.123C321.286 180.44 320.012 180.422 318.812 180.07C317.611 179.719 316.529 179.047 315.682 178.127C314.834 177.208 314.253 176.074 314 174.849C319.07 174.049 318 168.959 318.92 164.049L327.77 160.199Z" fill="#FFC2BC"/>
<path opacity="0.2" d="M316.23 159C317.23 162.52 318.71 168.18 317.65 172.09C322.2 172.49 325.22 168.36 325.41 167.04C324.851 165.486 324.41 163.891 324.09 162.27L316.23 159Z" fill="black"/>
<path d="M329.111 153.309C328.561 160.809 328.501 163.989 324.671 167.789C318.911 173.519 309.821 171.209 308.111 163.709C306.571 156.949 307.721 145.839 315.111 142.929C316.733 142.288 318.492 142.07 320.222 142.297C321.952 142.525 323.595 143.189 324.996 144.228C326.397 145.267 327.511 146.646 328.231 148.235C328.951 149.824 329.254 151.571 329.111 153.309Z" fill="#FFC2BC"/>
<path d="M333.441 149.83C332.678 152.665 332.173 155.563 331.931 158.49H329.071C328.813 158.746 328.632 159.069 328.549 159.422C328.466 159.776 328.484 160.146 328.601 160.49C328.118 160.279 327.708 159.931 327.421 159.49C327.214 159.056 327.112 158.58 327.121 158.1C327.05 156.258 326.853 154.424 326.531 152.61C325.061 152.01 323.361 152.17 321.991 151.37C318.906 149.613 316.225 147.228 314.121 144.37C312.983 144.903 311.971 145.671 311.152 146.625C310.333 147.578 309.726 148.694 309.371 149.9C309.038 149.965 308.694 149.931 308.38 149.801C308.067 149.671 307.8 149.451 307.611 149.17C307.247 148.597 307.043 147.938 307.021 147.26C306.821 145.492 307.276 143.713 308.301 142.26C309.057 141.262 310.159 140.584 311.391 140.36C311.914 140.369 312.435 140.305 312.941 140.17C313.461 139.93 313.941 139.31 314.441 138.99C315.603 138.348 316.881 137.942 318.2 137.794C319.52 137.646 320.855 137.761 322.131 138.13C325.296 139.161 328.163 140.95 330.481 143.34C331.791 144.63 333.931 148.1 333.441 149.83Z" fill="#263238"/>
<path d="M331.721 160.519C330.987 161.775 329.786 162.688 328.381 163.059C326.521 163.529 325.631 161.859 326.181 160.119C326.681 158.549 328.261 156.449 330.101 156.709C330.745 156.824 331.317 157.19 331.692 157.726C332.067 158.262 332.214 158.925 332.101 159.569C332.044 159.91 331.914 160.234 331.721 160.519Z" fill="#FFC2BC"/>
<path d="M317.5 155.19C317.5 155.85 317.13 156.36 316.71 156.37C316.29 156.38 315.94 155.83 315.94 155.18C315.94 154.53 316.31 154.01 316.73 154C317.15 153.99 317.5 154.54 317.5 155.19Z" fill="#263238"/>
<path d="M310.081 155.109C310.081 155.769 309.711 156.279 309.281 156.289C308.851 156.299 308.511 155.749 308.521 155.089C308.531 154.429 308.881 153.919 309.311 153.909C309.741 153.899 310.111 154.439 310.081 155.109Z" fill="#263238"/>
<path d="M313 156.47C312.396 157.961 311.592 159.364 310.61 160.64C310.943 160.878 311.324 161.042 311.726 161.12C312.128 161.197 312.543 161.187 312.94 161.09L313 156.47Z" fill="#EC837E"/>
<path d="M315.271 163.31C314.901 163.469 314.515 163.59 314.121 163.67C314.077 163.679 314.031 163.67 313.994 163.646C313.957 163.622 313.93 163.584 313.921 163.54C313.917 163.498 313.928 163.456 313.951 163.422C313.975 163.387 314.01 163.362 314.051 163.35C314.859 163.202 315.621 162.864 316.274 162.365C316.928 161.867 317.454 161.221 317.811 160.48C317.82 160.439 317.846 160.404 317.881 160.381C317.917 160.359 317.96 160.351 318.001 160.36C318.019 160.363 318.037 160.369 318.053 160.378C318.069 160.388 318.083 160.4 318.094 160.415C318.106 160.43 318.114 160.447 318.118 160.465C318.123 160.483 318.124 160.502 318.121 160.52C317.574 161.788 316.55 162.79 315.271 163.31Z" fill="#263238"/>
<path d="M320.101 151.48C320.058 151.494 320.011 151.497 319.967 151.486C319.923 151.475 319.882 151.452 319.851 151.42C319.553 151.114 319.185 150.884 318.78 150.75C318.374 150.616 317.942 150.581 317.521 150.65C317.447 150.662 317.371 150.646 317.308 150.606C317.245 150.565 317.2 150.502 317.181 150.43C317.166 150.398 317.158 150.364 317.157 150.33C317.157 150.295 317.163 150.261 317.176 150.229C317.189 150.197 317.209 150.168 317.234 150.144C317.259 150.12 317.288 150.102 317.321 150.09C317.829 150.003 318.351 150.04 318.842 150.199C319.333 150.357 319.779 150.632 320.141 151C320.195 151.049 320.231 151.116 320.242 151.189C320.253 151.262 320.238 151.336 320.201 151.4C320.191 151.42 320.177 151.437 320.16 151.451C320.142 151.465 320.122 151.475 320.101 151.48Z" fill="#263238"/>
<path d="M308.12 151.83C308.068 151.851 308.011 151.856 307.956 151.845C307.901 151.835 307.851 151.808 307.81 151.77C307.781 151.741 307.758 151.707 307.743 151.669C307.727 151.631 307.719 151.591 307.719 151.55C307.719 151.509 307.727 151.468 307.743 151.43C307.758 151.393 307.781 151.358 307.81 151.33C308.189 150.862 308.675 150.493 309.227 150.254C309.779 150.016 310.381 149.915 310.98 149.96C311.021 149.962 311.06 149.973 311.096 149.991C311.132 150.009 311.164 150.034 311.191 150.065C311.217 150.096 311.236 150.132 311.248 150.17C311.26 150.209 311.264 150.249 311.26 150.29C311.248 150.374 311.204 150.45 311.136 150.502C311.069 150.554 310.985 150.578 310.9 150.57C310.406 150.539 309.911 150.629 309.458 150.831C309.006 151.033 308.608 151.341 308.3 151.73C308.25 151.777 308.188 151.812 308.12 151.83Z" fill="#263238"/>
<path d="M326.65 173.59L329.42 176.2C329.42 176.2 319.42 183.2 319.25 182.75C318.561 181.785 317.81 180.866 317 180L326.65 173.59Z" fill="#407BFF"/>
<path d="M316.54 173.35L313.01 174.75C313.01 174.75 313.61 182.31 313.92 181.95C314.912 181.291 315.948 180.699 317.02 180.18L316.54 173.35Z" fill="#407BFF"/>
<path opacity="0.2" d="M326.65 173.59L329.42 176.2C329.42 176.2 319.42 183.2 319.25 182.75C318.561 181.785 317.81 180.866 317 180L326.65 173.59Z" fill="white"/>
<path opacity="0.2" d="M316.54 173.35L313.01 174.75C313.01 174.75 313.61 182.31 313.92 181.95C314.912 181.291 315.948 180.699 317.02 180.18L316.54 173.35Z" fill="white"/>
<path d="M314.66 204.56C315.3 205.51 320.51 204.56 320.51 204.56L324.98 204.87C325.221 204.873 325.455 204.788 325.639 204.632C325.823 204.476 325.944 204.258 325.98 204.02L327.22 198.37C327.238 198.239 327.204 198.107 327.125 198C327.047 197.894 326.93 197.822 326.8 197.8L323.27 197.17C321.85 196.91 320.385 197.219 319.19 198.03L315.45 200.57L314.66 204.56Z" fill="#FFC2BC"/>
<path d="M315.64 200.29L315.41 204.64C315.41 204.64 295.31 212.19 289.55 208.89C285.77 206.73 289.55 197.57 292.61 191.5L300.33 194.39L297.78 201L315.64 200.29Z" fill="#FFC2BC"/>
<g opacity="0.1">
<path d="M314.66 204.56C315.3 205.51 320.51 204.56 320.51 204.56L324.98 204.87C325.221 204.873 325.455 204.788 325.639 204.632C325.823 204.476 325.944 204.258 325.98 204.02L327.22 198.37C327.238 198.239 327.204 198.107 327.125 198C327.047 197.894 326.93 197.822 326.8 197.8L323.27 197.17C321.85 196.91 320.385 197.219 319.19 198.03L315.45 200.57L314.66 204.56Z" fill="black"/>
<path d="M315.64 200.29L315.41 204.64C315.41 204.64 295.31 212.19 289.55 208.89C285.77 206.73 289.55 197.57 292.61 191.5L300.33 194.39L297.78 201L315.64 200.29Z" fill="black"/>
</g>
<path d="M339.43 181.93L324.61 202.33L302.9 198.33L301.9 202.61C301.9 202.61 322.9 214.05 328.67 210.7C334.44 207.35 344.07 187.07 344.07 187.07L339.43 181.93Z" fill="#FFC2BC"/>
<path d="M301.92 202.599C301.27 203.539 296.07 202.529 296.07 202.529L291.6 202.779C291.356 202.781 291.12 202.694 290.935 202.534C290.751 202.373 290.632 202.151 290.6 201.909L289.43 196.259C289.413 196.128 289.447 195.996 289.525 195.889C289.604 195.783 289.72 195.711 289.85 195.689L293.4 195.099C294.825 194.86 296.287 195.191 297.47 196.019L302.88 198.469L301.92 202.599Z" fill="#FFC2BC"/>
<path d="M342.24 180C345.73 184.12 344.71 194.32 339.68 200.8L327.43 193.6C327.43 193.6 334.62 181.46 338.58 179.07C340.28 178.07 341 178.51 342.24 180Z" fill="#407BFF"/>
<path opacity="0.2" d="M342.24 180C345.73 184.12 344.71 194.32 339.68 200.8L327.43 193.6C327.43 193.6 334.62 181.46 338.58 179.07C340.28 178.07 341 178.51 342.24 180Z" fill="white"/>
<path d="M231.949 411.83L239.719 412.9L247.659 397.4L239.059 395.97L231.949 411.83Z" fill="#FFC2BC"/>
<path opacity="0.2" d="M239.059 395.97L247.659 397.4L243.329 405.83L235.189 404.61L239.059 395.97Z" fill="black"/>
<path d="M242 410L232.39 409.48C232.231 409.466 232.073 409.51 231.944 409.604C231.816 409.698 231.725 409.835 231.69 409.99L229.74 416.99C229.699 417.136 229.687 417.289 229.706 417.44C229.725 417.591 229.773 417.737 229.848 417.869C229.924 418.001 230.024 418.117 230.145 418.21C230.265 418.303 230.403 418.371 230.55 418.41H230.82C233.93 418.53 236.17 418.46 240.11 418.67C242.52 418.8 249.76 419.45 253.11 419.67C256.46 419.89 257.04 416.58 255.7 416.21C249.7 414.55 245.2 412.42 243.33 410.6C242.983 410.233 242.505 410.017 242 410Z" fill="#263238"/>
<path d="M242.47 411C242.432 410.991 242.398 410.969 242.375 410.938C242.351 410.907 242.339 410.869 242.34 410.83C242.332 410.794 242.336 410.757 242.353 410.724C242.369 410.691 242.396 410.665 242.43 410.65C242.72 410.49 245.37 409.06 246.22 409.55C246.315 409.605 246.393 409.685 246.445 409.783C246.496 409.88 246.519 409.99 246.51 410.1C246.532 410.292 246.502 410.486 246.423 410.662C246.343 410.838 246.218 410.989 246.06 411.1C245.598 411.379 245.053 411.489 244.52 411.41C243.823 411.354 243.135 411.216 242.47 411ZM245.78 409.88C244.816 410.004 243.883 410.306 243.03 410.77C243.931 411.135 244.939 411.135 245.84 410.77C245.938 410.692 246.016 410.591 246.067 410.476C246.117 410.361 246.139 410.235 246.13 410.11C246.13 410.067 246.121 410.024 246.104 409.984C246.087 409.945 246.061 409.909 246.03 409.88C245.948 409.86 245.862 409.86 245.78 409.88Z" fill="#407BFF"/>
<path d="M242.449 411.13C242.424 411.107 242.404 411.08 242.391 411.049C242.377 411.018 242.37 410.984 242.369 410.95C242.369 410.83 242.649 408.57 243.609 407.88C243.723 407.789 243.855 407.724 243.997 407.69C244.139 407.655 244.286 407.652 244.429 407.68C244.57 407.686 244.705 407.742 244.809 407.837C244.913 407.932 244.98 408.061 244.999 408.2C245.109 409.04 243.439 410.7 242.599 411.1H242.509L242.449 411.13ZM244.269 407.97C244.116 407.97 243.968 408.023 243.849 408.12C243.252 408.799 242.876 409.643 242.769 410.54C243.619 409.98 244.699 408.71 244.619 408.19C244.619 408.14 244.619 408 244.369 407.98H244.269V407.97Z" fill="#407BFF"/>
<path d="M190.5 366.81L196.19 367.02C205.667 366.579 215.074 365.182 224.27 362.85C232.5 360.85 246.14 354.55 246.14 354.55C241.75 373.33 233.84 401.95 233.84 401.95L246.06 403.36C246.06 403.36 277.88 342.74 263.84 335.8C251.29 329.1 202.74 333.5 202.74 333.5L197.74 328.25L163.81 331C163.81 331 157.32 366.76 190.5 366.81Z" fill="#263238"/>
<path d="M246.839 405.83L232.859 401.59L234.539 395.76L249.689 401.53L246.839 405.83Z" fill="#407BFF"/>
<path opacity="0.5" d="M246.839 405.83L232.859 401.59L234.539 395.76L249.689 401.53L246.839 405.83Z" fill="white"/>
<path opacity="0.4" d="M194.709 353.55C198.119 363.55 224.029 362.55 227.639 362.07C206.309 366.18 202.289 366.74 196.189 367.02L190.499 366.81C188.722 366.809 186.948 366.678 185.189 366.42C187.829 349.23 190.589 341.48 194.709 353.55Z" fill="black"/>
<path d="M124.859 394.56L123.859 402.42L141.989 405.38L142.989 397.51L124.859 394.56Z" fill="#FFC2BC"/>
<path d="M125.469 403.51L131.109 395.66C131.2 395.532 131.244 395.377 131.235 395.221C131.226 395.065 131.164 394.916 131.059 394.8L126.249 389.41C126.041 389.181 125.75 389.044 125.441 389.029C125.132 389.014 124.829 389.122 124.599 389.33C124.543 389.395 124.499 389.469 124.469 389.55C122.689 392.11 121.539 394.03 119.239 397.24C117.839 399.19 113.379 404.96 111.449 407.65C109.519 410.34 111.929 412.65 112.959 411.65C117.609 407.47 121.779 404.82 124.349 404.25C124.801 404.15 125.201 403.886 125.469 403.51Z" fill="#263238"/>
<path d="M124.26 403.31C124.292 403.291 124.328 403.28 124.365 403.28C124.402 403.28 124.438 403.291 124.47 403.31C124.503 403.325 124.53 403.351 124.547 403.384C124.563 403.417 124.568 403.454 124.56 403.49C124.56 403.83 124.33 406.83 123.46 407.27C123.367 407.329 123.26 407.36 123.15 407.36C123.04 407.36 122.933 407.329 122.84 407.27C122.671 407.183 122.527 407.053 122.424 406.894C122.32 406.734 122.26 406.55 122.25 406.36C122.261 405.82 122.459 405.3 122.81 404.89C123.235 404.313 123.721 403.783 124.26 403.31ZM124.16 403.91C123.36 404.472 122.809 405.321 122.62 406.28C122.634 406.406 122.678 406.527 122.747 406.633C122.817 406.739 122.91 406.827 123.02 406.89C123.15 406.96 123.25 406.95 123.27 406.89C123.351 406.856 123.417 406.796 123.46 406.72C123.864 405.834 124.102 404.882 124.16 403.91Z" fill="#407BFF"/>
<path d="M124.269 403.25C124.33 403.225 124.398 403.225 124.459 403.25C124.549 403.33 126.279 404.82 126.349 406C126.362 406.142 126.345 406.285 126.298 406.419C126.252 406.554 126.177 406.677 126.079 406.78C125.998 406.897 125.879 406.982 125.742 407.02C125.605 407.059 125.459 407.048 125.329 406.99C124.549 406.63 124.059 404.33 124.179 403.41V403.33C124.187 403.311 124.2 403.294 124.215 403.28C124.231 403.266 124.249 403.256 124.269 403.25ZM126.029 406.09C125.772 405.223 125.26 404.453 124.559 403.88C124.564 404.909 124.917 405.906 125.559 406.71C125.587 406.725 125.618 406.734 125.65 406.737C125.681 406.74 125.713 406.736 125.743 406.725C125.773 406.715 125.801 406.699 125.824 406.677C125.848 406.655 125.866 406.629 125.879 406.6V406.51C125.964 406.387 126.006 406.239 125.999 406.09H126.029Z" fill="#407BFF"/>
<path opacity="0.2" d="M142.98 397.499L141.98 405.379L132.63 403.849L133.64 395.979L142.98 397.499Z" fill="black"/>
<path d="M195.43 346.11C198.19 350.48 207.73 403.2 189.92 414.98C176.8 423.63 135.5 407.26 135.5 407.26L136.82 394.17C136.82 394.17 170.37 400.45 174.52 397.07C178.67 393.69 164.82 357.07 164.14 348.5C163.46 339.93 195.43 346.11 195.43 346.11Z" fill="#263238"/>
<path d="M134.579 408.21L135.029 393.6L141.089 393.71L139.469 409.84L134.579 408.21Z" fill="#407BFF"/>
<path opacity="0.5" d="M134.579 408.21L135.029 393.6L141.089 393.71L139.469 409.84L134.579 408.21Z" fill="white"/>
<path d="M199.17 329.63C198.1 327.63 194.84 323.7 191.7 323.15C187.53 322.42 186.64 322.26 170.55 324.73C162.96 325.89 162.41 331.85 162.83 334.94C162.887 335.354 163.056 335.745 163.32 336.07L163.67 336.5C164.45 336.74 198.67 330.73 199.02 330.92C199.161 330.74 199.251 330.524 199.277 330.296C199.303 330.068 199.266 329.838 199.17 329.63Z" fill="#407BFF"/>
<path opacity="0.2" d="M199.17 329.63C198.1 327.63 194.84 323.7 191.7 323.15C187.53 322.42 186.64 322.26 170.55 324.73C162.96 325.89 162.41 331.85 162.83 334.94C162.887 335.354 163.056 335.745 163.32 336.07L163.67 336.5C164.45 336.74 198.67 330.73 199.02 330.92C199.161 330.74 199.251 330.524 199.277 330.296C199.303 330.068 199.266 329.838 199.17 329.63Z" fill="white"/>
<path d="M236.31 272C238.528 271.837 240.677 271.152 242.58 270C243.891 269.08 245.009 267.911 245.87 266.56C246.145 266.155 246.262 265.664 246.2 265.18C246.055 264.044 245.606 262.97 244.9 262.07C244.706 261.835 244.429 261.685 244.128 261.65C243.826 261.614 243.522 261.697 243.28 261.88C242.12 262.71 240.8 263.58 239.76 264.39C236.83 264.94 234.05 267.64 233.81 270.61C234.6 271 235.51 271.58 236.31 272Z" fill="#FFC2BC"/>
<path d="M237.59 268.07L238.39 271.94C238.39 271.94 219.14 285.57 215.47 285.77C212.95 285.91 210.03 286.04 207.01 286.14C203.55 286.26 199.94 286.33 196.66 286.31C190.73 286.26 185.88 285.87 184.89 284.83C181.89 281.66 185.1 276.66 189.79 276.71C195.9 276.77 206.58 278.22 216.72 277.83C220.19 277.7 237.59 268.07 237.59 268.07Z" fill="#FFC2BC"/>
<path opacity="0.2" d="M207 286.14C203.54 286.26 199.93 286.33 196.65 286.31L193 281.09C197.828 282.286 202.52 283.978 207 286.14Z" fill="black"/>
<path d="M194.999 275.59C194.999 275.59 186.509 273.98 185.069 278.08C183.629 282.18 187.409 289.48 199.209 288.2L200.409 275.72L194.999 275.59Z" fill="#407BFF"/>
<path opacity="0.2" d="M194.999 275.59C194.999 275.59 186.509 273.98 185.069 278.08C183.629 282.18 187.409 289.48 199.209 288.2L200.409 275.72L194.999 275.59Z" fill="white"/>
<path d="M188.51 275.69C188.74 276.09 195.2 284.58 196.1 291.2C196.75 295.98 196.1 301.2 196.01 306.52C195.94 310.36 197.3 318.52 197.3 318.52L198.37 320.98C198.802 321.978 199.013 323.058 198.989 324.145C198.965 325.233 198.706 326.302 198.23 327.28L197.76 328.28L163.25 332.9L163.04 332.79C163.04 332.79 159.97 330.22 160.99 326.95V324.42C162.37 319.91 161.99 314.1 158.57 302.11C157.48 298.2 156.27 293.4 156.27 293.4C157.18 284.76 154.37 280.4 154.34 280.4C154.31 280.4 154.34 280.35 154.34 280.34C158.494 278.969 162.741 277.9 167.05 277.14C171.626 276.284 176.258 275.756 180.91 275.56C185.29 275.55 188.5 275.68 188.51 275.69Z" fill="#407BFF"/>
<path d="M185.099 245.28C187.269 247.79 187.739 251.28 188.659 254.51C189.409 257.11 191.039 262.39 190.029 264.89C188.879 267.74 183.219 265.33 181.339 267.75C173.859 277.42 169.339 273.26 166.469 270.87C165.029 269.69 159.559 268.52 158.149 267.31C156.739 266.1 154.329 265.49 155.369 260.79C159.529 241.96 166.439 240.85 175.659 241.36C179.189 241.55 182.719 242.52 185.099 245.28Z" fill="#263238"/>
<path d="M166.63 261.4C168.02 265.77 169.83 273.84 167.04 277.18L169.3 279.4C170.201 280.28 171.326 280.896 172.552 281.181C173.779 281.467 175.06 281.41 176.256 281.019C177.453 280.627 178.52 279.915 179.34 278.96C180.16 278.004 180.703 276.843 180.91 275.6C175.82 274.97 176.73 269.85 175.65 264.96L166.63 261.4Z" fill="#FFC2BC"/>
<path opacity="0.2" d="M178.13 259.8C177.19 263.35 175.95 269.06 177.13 272.93C172.59 273.48 169.44 269.44 169.22 268.13C169.727 266.559 170.111 264.95 170.37 263.32L178.13 259.8Z" fill="black"/>
<path d="M165.08 254.55C165.86 262.03 166.03 265.21 169.98 268.89C175.92 274.43 184.98 271.83 186.4 264.28C187.72 257.48 186.22 246.41 178.76 243.73C177.117 243.133 175.349 242.967 173.623 243.246C171.898 243.525 170.273 244.241 168.902 245.325C167.531 246.409 166.461 247.826 165.792 249.44C165.122 251.055 164.877 252.814 165.08 254.55Z" fill="#FFC2BC"/>
<path d="M166.88 258.48C167.465 259.482 167.776 260.62 167.78 261.78C168.108 261.529 168.343 261.174 168.446 260.774C168.55 260.373 168.516 259.949 168.35 259.57C168.11 258.78 167.7 258.4 166.88 258.48Z" fill="#263238"/>
<path d="M162.69 261.84C163.467 263.07 164.694 263.946 166.11 264.28C167.99 264.69 168.83 262.99 168.22 261.28C167.68 259.73 166.03 257.68 164.22 257.99C163.579 258.127 163.018 258.512 162.66 259.061C162.302 259.61 162.176 260.279 162.31 260.92C162.372 261.25 162.501 261.563 162.69 261.84Z" fill="#FFC2BC"/>
<path d="M175.779 256.3C175.779 256.96 176.179 257.46 176.599 257.46C177.019 257.46 177.359 256.89 177.329 256.24C177.299 255.59 176.919 255.08 176.499 255.09C176.079 255.1 175.749 255.65 175.779 256.3Z" fill="#263238"/>
<path d="M183.189 256C183.189 256.65 183.589 257.16 184.019 257.15C184.449 257.14 184.779 256.59 184.739 255.93C184.699 255.27 184.349 254.77 183.919 254.77C183.489 254.77 183.129 255.32 183.189 256Z" fill="#263238"/>
<path d="M183.729 254.81L185.27 254.33C185.27 254.33 184.539 255.52 183.729 254.81Z" fill="#263238"/>
<path d="M181.279 257.2C181.93 258.671 182.778 260.047 183.799 261.29C183.474 261.541 183.098 261.718 182.697 261.81C182.297 261.901 181.881 261.905 181.479 261.82L181.279 257.2Z" fill="#EC837E"/>
<path d="M179.23 264.11C179.604 264.258 179.993 264.365 180.39 264.43C180.411 264.435 180.433 264.435 180.454 264.431C180.475 264.426 180.495 264.418 180.512 264.406C180.53 264.394 180.545 264.378 180.557 264.36C180.568 264.342 180.576 264.322 180.58 264.3C180.584 264.258 180.573 264.217 180.549 264.182C180.525 264.147 180.49 264.122 180.45 264.11C179.636 263.991 178.861 263.68 178.192 263.202C177.522 262.723 176.976 262.092 176.6 261.36C176.586 261.322 176.56 261.289 176.526 261.267C176.491 261.245 176.45 261.236 176.41 261.24C176.372 261.248 176.338 261.269 176.316 261.301C176.293 261.333 176.284 261.372 176.29 261.41C176.88 262.659 177.935 263.628 179.23 264.11Z" fill="#263238"/>
<path d="M173.999 251.439C174.043 251.452 174.09 251.452 174.134 251.439C174.178 251.427 174.218 251.403 174.249 251.369C174.538 251.056 174.897 250.816 175.297 250.67C175.697 250.524 176.127 250.476 176.549 250.529C176.624 250.539 176.7 250.521 176.763 250.479C176.825 250.436 176.87 250.373 176.889 250.299C176.902 250.267 176.908 250.232 176.906 250.197C176.905 250.162 176.897 250.127 176.882 250.095C176.867 250.064 176.846 250.035 176.819 250.012C176.793 249.988 176.762 249.971 176.729 249.959C176.218 249.888 175.697 249.942 175.211 250.116C174.725 250.29 174.289 250.579 173.939 250.959C173.885 251.009 173.849 251.077 173.84 251.15C173.831 251.224 173.848 251.298 173.889 251.359C173.9 251.381 173.915 251.399 173.935 251.413C173.954 251.427 173.976 251.436 173.999 251.439Z" fill="#263238"/>
<path d="M185.999 251.41C186.052 251.427 186.109 251.429 186.163 251.417C186.218 251.404 186.268 251.378 186.309 251.34C186.368 251.28 186.401 251.2 186.401 251.115C186.401 251.031 186.368 250.95 186.309 250.89C185.916 250.435 185.419 250.082 184.86 249.861C184.301 249.639 183.697 249.557 183.099 249.62C183.059 249.624 183.019 249.636 182.984 249.655C182.948 249.674 182.916 249.701 182.891 249.733C182.866 249.764 182.847 249.801 182.837 249.84C182.826 249.879 182.823 249.92 182.829 249.96C182.844 250.044 182.891 250.118 182.96 250.167C183.03 250.216 183.115 250.235 183.199 250.22C183.693 250.181 184.189 250.258 184.648 250.446C185.106 250.633 185.514 250.926 185.839 251.3C185.878 251.355 185.934 251.394 185.999 251.41Z" fill="#263238"/>
<path d="M176.319 255.13L177.859 254.64C177.859 254.64 177.119 255.87 176.319 255.13Z" fill="#263238"/>
<path d="M172.229 247.239C174.439 249.939 166.449 256.999 166.879 258.479C164.709 258.619 163.099 254.069 162.989 251.709C162.878 249.326 163.623 246.982 165.089 245.099C166.019 243.909 167.739 243.689 169.249 243.489C169.687 243.396 170.141 243.431 170.559 243.589C170.811 243.726 171.025 243.922 171.182 244.161C171.339 244.4 171.434 244.675 171.459 244.959C171.57 245.761 171.831 246.535 172.229 247.239Z" fill="#263238"/>
<path d="M169.25 243.49C170.69 244.633 171.751 246.183 172.295 247.939C172.84 249.695 172.841 251.574 172.3 253.33C173.269 252.54 174.072 251.564 174.66 250.46C174.969 249.885 175.112 249.236 175.073 248.584C175.035 247.932 174.815 247.304 174.44 246.77C175.495 247.548 176.386 248.528 177.061 249.652C177.735 250.776 178.18 252.023 178.37 253.32C178.822 252.988 179.195 252.561 179.463 252.068C179.73 251.575 179.887 251.03 179.92 250.47C179.967 249.92 179.893 249.367 179.703 248.848C179.513 248.33 179.211 247.86 178.82 247.47C179.588 248.143 180.174 248.999 180.524 249.959C180.874 250.918 180.975 251.951 180.82 252.96C181.33 252.566 181.737 252.055 182.007 251.47C182.277 250.885 182.401 250.244 182.37 249.6C182.315 248.913 182.107 248.246 181.76 247.649C181.414 247.052 180.939 246.54 180.37 246.15C181.419 246.729 182.298 247.573 182.92 248.598C183.541 249.622 183.882 250.792 183.91 251.99C186.19 249.78 185.42 246.61 182.62 244.87C178.517 242.673 173.715 242.178 169.25 243.49Z" fill="#263238"/>
<path d="M168.15 274.75L165.47 277.44C165.47 277.44 175.69 284.12 175.84 283.67C176.492 282.67 177.211 281.715 177.99 280.81L168.15 274.75Z" fill="#407BFF"/>
<path d="M178.25 274.18L181.82 275.48C181.82 275.48 181.47 283.05 181.14 282.7C180.133 282.063 179.084 281.495 178 281L178.25 274.18Z" fill="#407BFF"/>
<path opacity="0.2" d="M168.15 274.75L165.47 277.44C165.47 277.44 175.69 284.12 175.84 283.67C176.492 282.67 177.211 281.715 177.99 280.81L168.15 274.75Z" fill="white"/>
<path opacity="0.2" d="M178.25 274.18L181.82 275.48C181.82 275.48 181.47 283.05 181.14 282.7C180.133 282.063 179.084 281.495 178 281L178.25 274.18Z" fill="white"/>
<path d="M113.2 306.29L104.59 307.11L107.59 313.87C109.925 312.847 112.159 311.604 114.26 310.16L113.2 306.29Z" fill="#FFC2BC"/>
<path d="M101.41 312.28L101.55 312.53C101.813 312.988 102.196 313.364 102.658 313.62C103.12 313.875 103.642 314 104.17 313.98L107.6 313.87L104.6 307.11L102.5 308.31C102.166 308.498 101.873 308.751 101.638 309.052C101.403 309.354 101.229 309.699 101.128 310.068C101.027 310.437 100.999 310.823 101.048 311.203C101.096 311.582 101.219 311.948 101.41 312.28Z" fill="#FFC2BC"/>
<path d="M115.13 309.91C115.13 309.91 130.18 311.29 144.27 304.64C144.27 304.64 153.74 296.75 158.86 290.12C166.46 280.26 159.39 277.29 153.78 283.65C149.62 288.37 139.98 297.49 139.98 297.49C127.87 304.49 112.14 306.67 112.14 306.67C109.09 311.07 115.13 309.91 115.13 309.91Z" fill="#FFC2BC"/>
<path d="M163.219 279.9C166.799 282.77 161.459 290.27 154.499 299.29L145.869 288.09C145.869 288.09 156.819 274.77 163.219 279.9Z" fill="#407BFF"/>
<path opacity="0.2" d="M163.219 279.9C166.799 282.77 161.459 290.27 154.499 299.29L145.869 288.09C145.869 288.09 156.819 274.77 163.219 279.9Z" fill="white"/>
<rect x="115" y="98" width="45" height="14" rx="7" fill="#D1E2FF"/>
<rect x="217" y="87" width="67" height="14" rx="7" fill="#D1E2FF"/>
<rect x="327" y="96" width="72" height="14" rx="7" fill="#D1E2FF"/>
</svg>
