<svg width="150" height="150" viewBox="0 0 150 150" fill="none" xmlns="http://www.w3.org/2000/svg">
<path d="M143.361 44.2926C151.697 63.7186 138.914 87.727 124.131 105.36C109.347 122.993 92.5619 134.15 69.7747 137.139C47.0987 140.227 18.4202 135.146 7.97144 119.705C-2.58848 104.364 4.85904 78.6616 19.1983 56.1474C33.5376 33.6333 54.5462 14.4066 79.89 12.2149C105.234 10.0233 134.913 24.8667 143.361 44.2926Z" fill="#AAC9FF"/>
<path d="M76 72.9438L53.9436 90.8413C47.7013 95.9065 44.5802 98.4389 45.3706 100.725C46.1611 103.01 50.1581 103.01 58.1521 103.01H93.848C101.842 103.01 105.839 103.01 106.629 100.725C107.42 98.4389 104.299 95.9065 98.0563 90.8413L76 72.9438Z" fill="white"/>
<path d="M55.4993 103H96.4994L103.333 137.167H48.666L55.4993 103Z" fill="#F0F5FF"/>
<path d="M68.068 125.895L65.75 137.167H86.25L83.9321 125.895C83.406 123.337 83.1432 122.058 82.1985 121.305C80.0839 119.619 71.7712 119.735 69.8015 121.305C68.8569 122.058 68.5939 123.337 68.068 125.895Z" fill="white"/>
<path d="M55.4993 103H96.4994L103.333 137.167H48.666L55.4993 103Z" stroke="#001F55" stroke-width="4" stroke-linejoin="round"/>
<path d="M65.75 137.167L68.068 125.895C68.5939 123.337 68.8569 122.058 69.8015 121.305C71.7712 119.735 80.0839 119.619 82.1985 121.305C83.1432 122.058 83.406 123.337 83.9321 125.895L86.25 137.167" stroke="#0050DC" stroke-width="4" stroke-linecap="round" stroke-linejoin="round"/>
<path d="M76 72.9335L53.9436 90.8309C47.7013 95.8961 44.5802 98.4287 45.3706 100.714C46.1611 103 50.1581 103 58.1521 103H93.848C101.842 103 105.839 103 106.629 100.714C107.42 98.4287 104.299 95.8961 98.0563 90.8309L76 72.9335ZM76 72.9335L81.0529 68.8335M76 72.9335L70.9471 68.8335" stroke="#001F55" stroke-width="4" stroke-linecap="round" stroke-linejoin="round"/>
<path d="M76 103V92.75" stroke="#001F55" stroke-width="4" stroke-linecap="round" stroke-linejoin="round"/>
<path d="M62.334 103V97.875" stroke="#001F55" stroke-width="4" stroke-linecap="round" stroke-linejoin="round"/>
<path d="M89.666 103V97.875" stroke="#001F55" stroke-width="4" stroke-linecap="round" stroke-linejoin="round"/>
<path d="M41.834 137.167H110.167" stroke="#001F55" stroke-width="4" stroke-linecap="round" stroke-linejoin="round"/>
</svg>
