<svg width="150" height="150" viewBox="0 0 150 150" fill="none" xmlns="http://www.w3.org/2000/svg">
<path d="M143.361 41.2926C151.697 60.7186 138.914 84.727 124.131 102.36C109.347 119.993 92.5619 131.15 69.7747 134.139C47.0987 137.227 18.4202 132.146 7.97144 116.705C-2.58848 101.364 4.85904 75.6616 19.1983 53.1474C33.5376 30.6333 54.5462 11.4066 79.89 9.21491C105.234 7.02327 134.913 21.8667 143.361 41.2926Z" fill="#AAC9FF"/>
<path d="M75 68.9438L52.9436 86.8413C46.7013 91.9065 43.5802 94.4389 44.3706 96.7247C45.1611 99.0104 49.1581 99.0104 57.1521 99.0104H92.848C100.842 99.0104 104.839 99.0104 105.629 96.7247C106.42 94.4389 103.299 91.9065 97.0563 86.8413L75 68.9438Z" fill="#F0F5FF"/>
<path d="M54.4993 99H95.4994L102.333 133.167H47.666L54.4993 99Z" fill="#F0F5FF"/>
<path d="M67.068 121.895L64.75 133.167H85.25L82.9321 121.895C82.406 119.337 82.1432 118.058 81.1985 117.305C79.0839 115.619 70.7712 115.735 68.8015 117.305C67.8569 118.058 67.5939 119.337 67.068 121.895Z" fill="white"/>
<path d="M54.4993 99H95.4994L102.333 133.167H47.666L54.4993 99Z" stroke="#001F55" stroke-width="4" stroke-linejoin="round"/>
<path d="M64.75 133.167L67.068 121.895C67.5939 119.337 67.8569 118.058 68.8015 117.305C70.7712 115.735 79.0839 115.619 81.1985 117.305C82.1432 118.058 82.406 119.337 82.9321 121.895L85.25 133.167" stroke="#0050DC" stroke-width="4" stroke-linecap="round" stroke-linejoin="round"/>
<path d="M75 68.9335L52.9436 86.8309C46.7013 91.8961 43.5802 94.4287 44.3706 96.7144C45.1611 99.0002 49.1581 99.0002 57.1521 99.0002H92.848C100.842 99.0002 104.839 99.0002 105.629 96.7144C106.42 94.4287 103.299 91.8961 97.0563 86.8309L75 68.9335ZM75 68.9335L80.0529 64.8335M75 68.9335L69.9471 64.8335" stroke="#001F55" stroke-width="4" stroke-linecap="round" stroke-linejoin="round"/>
<path d="M75 99V88.75" stroke="#001F55" stroke-width="4" stroke-linecap="round" stroke-linejoin="round"/>
<path d="M61.334 99V93.875" stroke="#001F55" stroke-width="4" stroke-linecap="round" stroke-linejoin="round"/>
<path d="M88.666 99V93.875" stroke="#001F55" stroke-width="4" stroke-linecap="round" stroke-linejoin="round"/>
<path d="M40.834 133.167H109.167" stroke="#001F55" stroke-width="4" stroke-linecap="round" stroke-linejoin="round"/>
</svg>
