<svg width="150" height="150" viewBox="0 0 150 150" fill="none" xmlns="http://www.w3.org/2000/svg">
<g clip-path="url(#clip0_174_98)">
<path d="M143.361 44.2926C151.697 63.7186 138.914 87.727 124.131 105.36C109.347 122.993 92.5619 134.15 69.7747 137.139C47.0987 140.227 18.4202 135.146 7.97144 119.705C-2.58848 104.364 4.85904 78.6616 19.1983 56.1474C33.5376 33.6333 54.5462 14.4066 79.89 12.2149C105.234 10.0233 134.913 24.8667 143.361 44.2926Z" fill="#AAC9FF"/>
<path d="M84.041 62.25C80.5594 62.25 77.7018 64.8045 71.9866 69.9135L57.541 82.8275V137.333H110.541V82.8275L96.0954 69.9135C90.3803 64.8045 87.5227 62.25 84.041 62.25Z" fill="white"/>
<path d="M35.459 110.833C39.1179 110.833 42.084 106.878 42.084 102C42.084 97.1213 39.1179 93.1665 35.459 93.1665C31.8001 93.1665 28.834 97.1213 28.834 102C28.834 106.878 31.8001 110.833 35.459 110.833Z" fill="#0050DC"/>
<path d="M73 119.666V137.333H95.0833V119.667C95.0833 115.503 95.0833 113.421 93.7897 112.127C92.4961 110.833 90.414 110.833 86.25 110.833H81.8333C77.6693 110.833 75.5873 110.833 74.2936 112.127C73 113.421 73 115.502 73 119.666Z" fill="#F0F5FF"/>
<path d="M50.916 88.75L71.9866 69.9135C77.7018 64.8045 80.5594 62.25 84.041 62.25C87.5227 62.25 90.3803 64.8045 96.0954 69.9135L117.166 88.75" stroke="#001F55" stroke-width="4" stroke-linecap="round" stroke-linejoin="round"/>
<path d="M57.541 84.3335V137.333M110.541 137.333V84.3335" stroke="#001F55" stroke-width="4" stroke-linecap="round" stroke-linejoin="round"/>
<path d="M35.459 110.833C39.1179 110.833 42.084 106.878 42.084 102C42.084 97.1213 39.1179 93.1665 35.459 93.1665C31.8001 93.1665 28.834 97.1213 28.834 102C28.834 106.878 31.8001 110.833 35.459 110.833Z" stroke="#001F55" stroke-width="4"/>
<path d="M35.459 110.833V137.333" stroke="#001F55" stroke-width="4" stroke-linecap="round"/>
<path d="M28.834 137.333H117.167" stroke="#001F55" stroke-width="4" stroke-linecap="round" stroke-linejoin="round"/>
<path d="M73 137.333V119.666C73 115.502 73 113.421 74.2936 112.127C75.5873 110.833 77.6693 110.833 81.8333 110.833H86.25C90.414 110.833 92.496 110.833 93.7897 112.127C95.0833 113.421 95.0833 115.503 95.0833 119.667V137.333" stroke="#001F55" stroke-width="4" stroke-linecap="round" stroke-linejoin="round"/>
<path d="M79.625 97.5835H88.4583M79.625 84.3335H88.4583" stroke="#0050DC" stroke-width="4" stroke-linecap="round" stroke-linejoin="round"/>
</g>
<defs>
<clipPath id="clip0_174_98">
<rect width="150" height="150" fill="white"/>
</clipPath>
</defs>
</svg>
