<svg width="150" height="150" viewBox="0 0 150 150" fill="none" xmlns="http://www.w3.org/2000/svg">
<path d="M143.361 44.2926C151.697 63.7186 138.914 87.727 124.131 105.36C109.347 122.993 92.5619 134.15 69.7747 137.139C47.0987 140.227 18.4202 135.146 7.97144 119.705C-2.58848 104.364 4.85904 78.6616 19.1983 56.1474C33.5376 33.6333 54.5462 14.4066 79.89 12.2149C105.234 10.0233 134.913 24.8667 143.361 44.2926Z" fill="#AAC9FF"/>
<path d="M131.75 59.0674V138.5H85.75V56.2951V30.5652C85.75 23.1071 87.3991 21.9063 94.0714 25.3133L119.036 38.0599C125.222 41.2185 128.315 42.7977 130.032 45.6356C131.75 48.4734 131.75 52.0048 131.75 59.0674Z" fill="white"/>
<path d="M28.25 86.75V138.5H51.25V81H34C29.2429 81 28.25 81.993 28.25 86.75Z" fill="white"/>
<path d="M91.5 58H68.5C54.2285 58 51.25 60.9785 51.25 75.25V138.5H108.75V75.25C108.75 60.9785 105.772 58 91.5 58Z" fill="#F0F5FF"/>
<path d="M91.5 58H68.5C54.2285 58 51.25 60.9785 51.25 75.25V138.5H108.75V75.25C108.75 60.9785 105.772 58 91.5 58Z" stroke="#001F55" stroke-width="4" stroke-linejoin="round"/>
<path d="M74.25 81H85.75M74.25 98.25H85.75M74.25 115.5H85.75" stroke="#0050DC" stroke-width="4" stroke-linecap="round" stroke-linejoin="round"/>
<path d="M131.75 138.5V59.0674C131.75 52.0048 131.75 48.4734 130.032 45.6356C128.315 42.7977 125.222 41.2185 119.036 38.0599L94.0714 25.3133C87.3991 21.9063 85.75 23.1071 85.75 30.5652V56.2951" stroke="#001F55" stroke-width="4" stroke-linecap="round" stroke-linejoin="round"/>
<path d="M28.25 138.5V86.75C28.25 81.993 29.2429 81 34 81H51.25" stroke="#001F55" stroke-width="4" stroke-linecap="round" stroke-linejoin="round"/>
<path d="M137.5 138.5H22.5" stroke="#001F55" stroke-width="4" stroke-linecap="round" stroke-linejoin="round"/>
</svg>
