<svg width="150" height="150" viewBox="0 0 150 150" fill="none" xmlns="http://www.w3.org/2000/svg">
<g clip-path="url(#clip0_185_220)">
<path d="M143.361 41.2926C151.697 60.7186 138.914 84.727 124.131 102.36C109.347 119.993 92.5619 131.15 69.7747 134.139C47.0987 137.227 18.4202 132.146 7.97144 116.705C-2.58848 101.364 4.85904 75.6616 19.1983 53.1474C33.5376 30.6333 54.5462 11.4066 79.89 9.21491C105.234 7.02327 134.913 21.8667 143.361 41.2926Z" fill="#AAC9FF"/>
<path d="M75.041 58.25C71.5594 58.25 68.7018 60.8045 62.9866 65.9135L48.541 78.8275V133.333H101.541V78.8275L87.0954 65.9135C81.3803 60.8045 78.5227 58.25 75.041 58.25Z" fill="#F0F5FF"/>
<path d="M26.459 106.833C30.1179 106.833 33.084 102.878 33.084 97.9998C33.084 93.1213 30.1179 89.1665 26.459 89.1665C22.8001 89.1665 19.834 93.1213 19.834 97.9998C19.834 102.878 22.8001 106.833 26.459 106.833Z" fill="#0050DC"/>
<path d="M64 115.666V133.333H86.0833V115.667C86.0833 111.503 86.0833 109.421 84.7897 108.127C83.496 106.833 81.414 106.833 77.25 106.833H72.8333C68.6693 106.833 66.5873 106.833 65.2936 108.127C64 109.421 64 111.502 64 115.666Z" fill="white"/>
<path d="M41.916 84.75L62.9866 65.9135C68.7018 60.8045 71.5594 58.25 75.041 58.25C78.5227 58.25 81.3803 60.8045 87.0954 65.9135L108.166 84.75" stroke="#001F55" stroke-width="4" stroke-linecap="round" stroke-linejoin="round"/>
<path d="M48.541 80.3335V133.333M101.541 133.333V80.3335" stroke="#001F55" stroke-width="4" stroke-linecap="round" stroke-linejoin="round"/>
<path d="M26.459 106.833C30.1179 106.833 33.084 102.878 33.084 97.9998C33.084 93.1213 30.1179 89.1665 26.459 89.1665C22.8001 89.1665 19.834 93.1213 19.834 97.9998C19.834 102.878 22.8001 106.833 26.459 106.833Z" stroke="#001F55" stroke-width="4"/>
<path d="M26.459 106.833V133.333" stroke="#001F55" stroke-width="4" stroke-linecap="round"/>
<path d="M19.834 133.333H108.167" stroke="#001F55" stroke-width="4" stroke-linecap="round" stroke-linejoin="round"/>
<path d="M64 133.333V115.666C64 111.502 64 109.421 65.2936 108.127C66.5873 106.833 68.6693 106.833 72.8333 106.833H77.25C81.414 106.833 83.496 106.833 84.7897 108.127C86.0833 109.421 86.0833 111.503 86.0833 115.667V133.333" stroke="#001F55" stroke-width="4" stroke-linecap="round" stroke-linejoin="round"/>
<path d="M70.625 93.5835H79.4583M70.625 80.3335H79.4583" stroke="#0050DC" stroke-width="4" stroke-linecap="round" stroke-linejoin="round"/>
</g>
<defs>
<clipPath id="clip0_185_220">
<rect width="150" height="150" fill="white"/>
</clipPath>
</defs>
</svg>
