<svg width="150" height="150" viewBox="0 0 150 150" fill="none" xmlns="http://www.w3.org/2000/svg">
<path d="M143.361 41.2926C151.697 60.7186 138.914 84.727 124.131 102.36C109.347 119.993 92.5619 131.15 69.7747 134.139C47.0987 137.227 18.4202 132.146 7.97144 116.705C-2.58848 101.364 4.85904 75.6616 19.1983 53.1474C33.5376 30.6333 54.5462 11.4066 79.89 9.21491C105.234 7.02327 134.913 21.8667 143.361 41.2926Z" fill="#AAC9FF"/>
<path d="M125.75 54.0674V133.5H79.75V51.2951V25.5652C79.75 18.1071 81.3991 16.9063 88.0714 20.3133L113.036 33.0599C119.222 36.2185 122.315 37.7977 124.032 40.6356C125.75 43.4734 125.75 47.0048 125.75 54.0674Z" fill="white"/>
<path d="M22.25 81.75V133.5H45.25V76H28C23.2429 76 22.25 76.993 22.25 81.75Z" fill="white"/>
<path d="M85.5 53H62.5C48.2285 53 45.25 55.9785 45.25 70.25V133.5H102.75V70.25C102.75 55.9785 99.7715 53 85.5 53Z" fill="#F0F5FF"/>
<path d="M85.5 53H62.5C48.2285 53 45.25 55.9785 45.25 70.25V133.5H102.75V70.25C102.75 55.9785 99.7715 53 85.5 53Z" stroke="#001F55" stroke-width="4" stroke-linejoin="round"/>
<path d="M68.25 76H79.75M68.25 93.25H79.75M68.25 110.5H79.75" stroke="#0050DC" stroke-width="4" stroke-linecap="round" stroke-linejoin="round"/>
<path d="M125.75 133.5V54.0674C125.75 47.0048 125.75 43.4734 124.032 40.6356C122.315 37.7977 119.222 36.2185 113.036 33.0599L88.0714 20.3133C81.3991 16.9063 79.75 18.1071 79.75 25.5652V51.2951" stroke="#001F55" stroke-width="4" stroke-linecap="round" stroke-linejoin="round"/>
<path d="M22.25 133.5V81.75C22.25 76.993 23.2429 76 28 76H45.25" stroke="#001F55" stroke-width="4" stroke-linecap="round" stroke-linejoin="round"/>
<path d="M131.5 133.5H16.5" stroke="#001F55" stroke-width="4" stroke-linecap="round" stroke-linejoin="round"/>
</svg>
