<svg width="150" height="150" viewBox="0 0 150 150" fill="none" xmlns="http://www.w3.org/2000/svg">
<path d="M143.361 41.2926C151.697 60.7186 138.914 84.727 124.131 102.36C109.347 119.993 92.5619 131.15 69.7747 134.139C47.0987 137.227 18.4202 132.146 7.97144 116.705C-2.58848 101.364 4.85904 75.6616 19.1983 53.1474C33.5376 30.6333 54.5462 11.4066 79.89 9.21491C105.234 7.02327 134.913 21.8667 143.361 41.2926Z" fill="#AAC9FF"/>
<path d="M36 62.3473V133.667H96.6667V69.1201C96.6667 62.0495 96.6667 58.5142 94.7687 55.9185C92.8713 53.3229 89.5901 52.3705 83.0283 50.4658L59.6951 43.693C48.8213 40.5367 43.3844 38.9586 39.6922 41.8653C36 44.772 36 50.6304 36 62.3473Z" fill="#F0F5FF" stroke="#141B34" stroke-width="1.5" stroke-linecap="round" stroke-linejoin="round"/>
<path d="M119.999 133.667V98.5552C119.999 91.865 119.999 88.5195 118.154 86.0396C116.309 83.5598 113.105 82.5984 106.697 80.6758C103.054 79.5833 101.233 79.0368 99.8113 79.5273C98.8995 79.8414 98.1075 80.4308 97.5443 81.2138C96.666 82.4351 96.666 84.3363 96.666 88.1387V133.667H119.999Z" fill="white"/>
<path d="M68.666 110.333H63.9993C59.5996 110.333 57.3997 110.333 56.0328 111.7C54.666 113.067 54.666 115.267 54.666 119.667V124.333C54.666 128.733 54.666 130.933 56.0328 132.3C57.3997 133.667 59.5996 133.667 63.9993 133.667H68.666C73.0658 133.667 75.2656 133.667 76.6325 132.3C77.9994 130.933 77.9994 128.733 77.9994 124.333V119.667C77.9994 115.267 77.9994 113.067 76.6325 111.7C75.2656 110.333 73.0658 110.333 68.666 110.333Z" fill="white"/>
<path d="M96.666 77.6665L106.697 80.6756C113.105 82.5982 116.309 83.5596 118.154 86.0394C119.999 88.5193 119.999 91.8648 119.999 98.555V133.667" stroke="#001F55" stroke-width="4" stroke-linejoin="round"/>
<path d="M59.334 73H73.334M59.334 91.6667H73.334" stroke="#0050DC" stroke-width="4" stroke-linecap="round" stroke-linejoin="round"/>
<path d="M77.9994 133.667V119.667C77.9994 115.267 77.9994 113.067 76.6325 111.7C75.2656 110.333 73.0658 110.333 68.666 110.333H63.9993C59.5996 110.333 57.3997 110.333 56.0328 111.7C54.666 113.067 54.666 115.267 54.666 119.667V133.667" stroke="#141B34" stroke-width="1.5" stroke-linejoin="round"/>
<path d="M68.666 110.333H63.9993C59.5996 110.333 57.3997 110.333 56.0328 111.7C54.666 113.067 54.666 115.267 54.666 119.667V124.333C54.666 128.733 54.666 130.933 56.0328 132.3C57.3997 133.667 59.5996 133.667 63.9993 133.667H68.666C73.0658 133.667 75.2656 133.667 76.6325 132.3C77.9994 130.933 77.9994 128.733 77.9994 124.333V119.667C77.9994 115.267 77.9994 113.067 76.6325 111.7C75.2656 110.333 73.0658 110.333 68.666 110.333Z" stroke="#001F55" stroke-width="4" stroke-linejoin="round"/>
<path d="M31.334 133.667H124.667" stroke="#001F55" stroke-width="4" stroke-linecap="round"/>
<path d="M36 133.667V62.3473C36 50.6305 36 44.772 39.6922 41.8653C43.3844 38.9586 48.8213 40.5367 59.6951 43.693L83.0283 50.4659C89.5901 52.3706 92.8713 53.3229 94.7687 55.9185C96.6667 58.5142 96.6667 62.0496 96.6667 69.1202V133.667" stroke="#001F55" stroke-width="4" stroke-linecap="round" stroke-linejoin="round"/>
</svg>
